<svg width="1024" height="1024" version="1.1" xmlns="http://www.w3.org/2000/svg" desc="Created with imagetracer.js version 0.2.1" ><path fill="rgb(163,44,67)" stroke="rgb(163,44,67)" stroke-width="1" opacity="0.5215686274509804" d="M 421.5 66 L 426 69.5 Q 425.3 71.8 427.5 71 L 429 74 L 431.5 74 L 434.5 77 L 448.5 84 L 455 85 Q 453.8 88 457.5 87 L 465.5 91 L 472 92 Q 470.8 95 474.5 94 L 478 95 Q 476.8 98 480.5 97 L 498 108.5 Q 497.3 110.8 499.5 110 L 501 113 L 503.5 113 L 520 129.5 L 521 133 L 524 134.5 L 528 143 L 531 144.5 L 543 168.5 L 544 176 Q 547.3 174.7 546 179.5 L 550 192.5 L 551 209 L 553 209.5 L 553 253.5 L 551 255.5 L 550 267.5 L 551 267.5 L 556 257.5 L 559.5 254 Q 562.1 254.8 561 251.5 L 589.5 223 L 606.5 210 L 632.5 197 L 643.5 195 L 645.5 193 L 656 192 L 656.5 190 L 664.5 190 L 665.5 189 L 696.5 189 Q 698.2 191.8 704.5 190 L 706.5 192 L 717.5 193 L 719.5 195 L 732.5 197 L 734.5 199 L 756.5 200 L 770.5 193 L 774 193 Q 774.8 197.5 772 199.5 L 772 205 L 770 205.5 L 770 252.5 L 769 253.5 L 769 270 L 767 270.5 L 767 279.5 L 766 286 Q 762 284.6 764 291.5 L 762 300.5 L 757 309.5 L 756 316 Q 753 314.8 754 318.5 L 753 322 Q 750 320.8 751 324.5 L 742.5 339 Q 740.3 338.3 741 340.5 L 735.5 349 Q 733.3 348.3 734 350.5 L 731 352 L 729.5 355 Q 726.9 354.2 728 357.5 L 717.5 368 L 714 369.5 L 712.5 372 Q 710.3 371.3 711 373.5 L 701.5 381 L 698 382 Q 699.3 385 695.5 384 L 690.5 388 L 665.5 400 L 658.5 401 L 656.5 403 L 648.5 405 L 644.5 405 L 642.5 407 L 629 408.5 L 646 413 Q 644.6 416.7 650.5 415 L 654.5 418 L 660.5 419 L 666.5 423 L 669 423 Q 667.8 426 671.5 425 L 675 426 Q 673.8 429 677.5 428 L 698.5 442 L 721 464.5 L 731 478.5 L 731 481 Q 734 479.8 733 483.5 L 736 486.5 L 743 500.5 L 744 507.5 L 747 513.5 L 747 517.5 L 749 519.5 L 750 532.5 L 751 533.5 L 751 568.5 L 750 569.5 L 750 580.5 L 749 581.5 L 749 598.5 L 751 609.5 L 753 611.5 L 753 614.5 Q 756.6 616.4 756 621 L 741.5 620 L 739.5 618 L 713.5 618 L 711.5 620 L 693.5 621 L 691.5 623 L 658.5 623 L 656.5 621 L 642.5 620 L 640.5 618 L 628.5 616 L 626.5 614 L 620 613 Q 621.3 609.7 616.5 611 L 607 607 Q 608.3 604 604.5 605 L 600 602.5 Q 600.8 599.9 597.5 601 L 573.5 584 L 548 558.5 L 535.5 542 L 535 545.5 L 536 550 Q 540 548.6 538 555.5 L 541 560.5 L 542 566.5 L 544 568.5 L 546 580.5 L 549 586.5 L 549 592 Q 552.3 590.7 551 595.5 L 554 601.5 L 555 609.5 L 557 611.5 L 559 625.5 L 561 627.5 L 562 632.5 L 562 638 Q 566 636.6 564 643.5 L 565 644.5 L 565 651 Q 569 649.6 567 656.5 Q 569.5 658 568 663.5 L 570 665.5 L 572 691 L 574 691.5 L 574 703.5 L 575 704.5 L 575 720.5 L 577 722.5 L 577 762.5 L 575 764.5 L 575 784.5 L 574 785.5 L 574 798 L 572 798.5 L 572 809.5 L 571 810.5 L 570 826.5 L 568 828.5 L 567 841.5 L 565 843.5 L 565 848.5 L 564 853.5 L 562 855.5 L 561 866 Q 557 864.6 559 871.5 L 557 878.5 L 555 880.5 L 554 887.5 L 551 892.5 L 551 896 Q 547.7 894.7 549 899.5 L 546 904.5 L 544 913 Q 541 911.8 542 915.5 L 541 919 Q 538 917.8 539 921.5 L 538 925 L 535 926.5 L 531 936.5 L 528 939.5 L 528 942 Q 525 940.8 526 944.5 L 519.5 954 L 478.5 954 L 477 952.5 L 492 933.5 L 500 917 Q 503 918.3 502 914.5 L 515 888.5 L 516 881 Q 519.3 882.3 518 877.5 L 520 869.5 L 522 867.5 L 523 859.5 L 525 857.5 L 526 848 Q 530 849.4 528 842.5 L 530 836.5 L 530 830.5 L 532 828.5 L 533 814.5 L 535 812.5 L 536 792 L 538 791.5 L 538 770.5 L 539 769.5 L 539 720.5 L 538 719.5 L 538 702.5 L 536 700.5 L 535 679.5 L 533 677.5 L 532 662.5 L 530 660.5 L 530 654.5 L 528 648.5 L 528 642.5 L 526 640.5 L 525 629.5 L 523 627.5 L 522 617.5 L 520 615.5 L 518 603.5 L 516 601.5 L 515 593.5 L 513 591.5 L 512 582 Q 508.7 583.3 510 578.5 L 508.5 574 L 504 582.5 L 503 588.5 Q 499.4 590.4 500 595 Q 497 593.8 498 597.5 L 497 601 L 494 602.5 L 490 611.5 L 481 621.5 L 481 624 Q 478.3 622.9 479 625.5 L 475 628 L 473.5 631 Q 471.3 630.3 472 632.5 L 469 634 L 463.5 641 Q 461.3 640.3 462 642.5 L 459 644 L 457.5 647 Q 454.9 646.3 456 649 L 453.5 649 L 445.5 656 L 435 661.5 Q 435.8 664.1 432.5 663 L 429 664 Q 430.3 667.3 425.5 666 L 411.5 673 L 406.5 673 L 401.5 676 L 385.5 677 L 383.5 679 L 353.5 679 L 352.5 680 L 343.5 680 L 341.5 682 L 333.5 683 L 331.5 685 Q 326 684.5 324 687.5 Q 324.8 690.1 321.5 689 L 316 690 L 316 686.5 L 319 681.5 L 320 669.5 L 322 667.5 L 322 656.5 L 320 654.5 L 318 637 Q 314.7 638.3 316 633.5 L 315 627 Q 311 628.4 313 621.5 L 312 620.5 L 312 610.5 L 310 608.5 L 310 581.5 L 312 579.5 L 313 563 Q 317 564.4 315 557.5 L 320 541.5 L 329 523.5 L 343 505.5 L 343 503 Q 345.7 504.1 345 501.5 L 348 500 L 349.5 497 Q 351.8 497.8 351 495.5 L 354 494 Q 355 487.2 361.5 484 Q 364.8 485.1 364 482.5 L 368 479.5 L 369.5 477 Q 371.8 477.8 371 475.5 L 392 459.5 L 390.5 459 L 384.5 462 L 372.5 464 L 370.5 466 L 354 467 L 353.5 469 L 338.5 469 Q 337.3 471.3 332.5 470 L 331.5 469 L 315 469 Q 316.1 465.5 308.5 467 Q 307 464.5 301.5 466 L 295.5 463 L 290.5 463 L 286.5 460 L 279 459 Q 280.3 456 276.5 457 L 273 456 Q 274.3 453 270.5 454 Q 266.3 449.6 259 449 Q 260.1 446.3 257.5 447 L 246 438.5 Q 246.8 435.9 243.5 437 L 234.5 428 L 231 427 Q 227.6 418.9 220 413.5 L 220 411 L 217 409.5 Q 217.7 406.9 215 408 L 215 405.5 Q 212.3 404.4 213 401 L 210 399.5 L 200 379.5 L 197 368 Q 193.7 369.3 195 364.5 L 194 359 Q 190.7 360.3 192 355.5 L 188 347.5 L 188 343.5 L 182 336.5 L 181 333 Q 178 334.3 179 330.5 L 175 324 L 182.5 324 Q 181.7 327.5 188 326 L 188.5 324 L 197.5 324 L 213 317 Q 211.8 314 215.5 315 L 234 302.5 Q 233.2 299.9 236.5 301 L 240 300 L 241.5 297 L 248.5 295 L 254.5 291 L 263 290 Q 261.7 286.7 266.5 288 L 273 287 Q 271.9 283.5 279.5 285 L 280.5 284 L 292.5 284 L 294.5 282 L 309.5 282 L 311.5 284 L 323.5 284 Q 325.2 286.7 331.5 285 L 333.5 287 L 344.5 288 L 346.5 290 L 357.5 292 L 366.5 297 L 373 298 Q 371.8 301 375.5 300 L 384.5 305 L 387 305 Q 385.9 307.7 388.5 307 L 396 311 Q 394.8 314 398.5 313 L 402 314 L 403.5 317 Q 408.5 316.5 409 320.5 L 410.5 323 L 427.5 334 L 413.5 319 Q 409.8 320.3 411 316.5 Q 406.3 315.1 407 310 L 404 308.5 L 404 306.5 L 394 292.5 L 394 290 Q 391 291.3 392 287.5 Q 390 280.5 385 276.5 L 384 270 Q 381 271.3 382 267.5 L 381 264 Q 377.7 265.3 379 260.5 L 377 253 Q 373.3 254.3 375 248.5 L 374 243.5 L 372 241.5 L 371 230.5 L 369 228.5 L 369 218.5 L 368 217.5 L 368 182.5 L 369 181.5 L 369 172 Q 373 173.4 371 166.5 L 372 161.5 L 374 159.5 L 375 152.5 L 377 150.5 L 378 144.5 L 382 138.5 L 382 136 Q 385 137.3 384 133.5 L 385 130 Q 388 131.3 387 127.5 L 397 114.5 L 398 111 L 401 109.5 L 401 107.5 L 408 99.5 L 408 97 Q 410.7 98.1 410 95.5 L 417 81.5 L 418 68 L 421.5 66 Z M 422 68 L 419 69 L 419 79 L 418 80 Q 419 84 416 83 Q 417 89 414 92 Q 415 94 412 93 L 411 97 Q 412 99 409 98 L 409 101 L 406 102 Q 407 105 404 107 Q 405 109 402 108 L 402 111 L 399 112 L 398 116 L 393 119 Q 393 125 388 129 Q 389 132 386 131 L 385 135 Q 386 138 383 137 L 381 143 Q 382 146 379 145 L 378 149 Q 379 153 376 152 L 375 158 Q 376 162 373 161 L 372 168 Q 374 174 370 173 L 370 183 L 369 184 L 369 217 L 370 218 L 370 229 L 372 229 L 372 236 L 373 237 Q 371 243 375 242 L 376 249 Q 375 253 378 252 L 379 259 L 383 267 Q 382 270 385 269 L 386 274 Q 385 277 388 276 L 389 280 Q 388 282 391 281 L 393 287 Q 392 290 395 289 L 396 293 Q 395 295 398 294 L 399 297 Q 398 300 401 299 L 402 302 Q 401 305 404 304 L 405 308 L 408 309 L 409 314 L 412 316 L 412 318 L 416 318 Q 414 322 418 321 L 419 324 L 422 326 Q 421 328 425 327 Q 430 329 429 335 Q 423 336 421 331 Q 417 332 418 330 L 414 327 Q 411 328 412 325 L 410 324 L 408 324 L 408 321 Q 405 322 406 320 L 403 318 L 401 315 L 395 314 L 394 311 Q 390 312 391 309 L 388 308 Q 385 309 386 306 L 381 304 Q 377 305 378 302 L 375 301 Q 371 302 372 299 L 368 298 Q 364 299 365 296 L 355 294 L 349 291 Q 344 292 345 289 L 339 288 Q 331 289 332 286 L 324 286 L 323 285 L 311 285 L 310 283 L 295 283 L 294 285 L 282 285 L 281 286 Q 273 285 274 288 L 268 289 Q 263 288 264 291 L 260 292 Q 254 290 255 294 L 250 296 L 246 296 L 245 298 L 243 298 L 241 301 L 238 302 Q 234 301 235 304 L 231 306 Q 228 305 229 308 L 227 309 Q 224 308 225 311 L 223 311 L 221 314 L 218 315 Q 215 314 216 317 L 212 319 Q 208 318 209 321 L 199 325 L 190 325 L 189 327 L 183 327 Q 183 324 178 325 L 180 331 Q 179 333 182 332 L 183 337 L 186 339 Q 185 341 188 340 L 189 343 Q 187 348 191 347 L 193 355 Q 192 359 195 358 L 196 364 Q 195 368 198 367 L 199 372 Q 198 375 201 374 L 201 378 L 205 385 L 206 390 Q 205 392 208 391 L 209 394 Q 208 397 211 396 L 211 399 L 214 400 Q 213 403 216 405 L 216 407 Q 219 406 218 409 L 221 410 L 221 413 L 229 421 L 229 423 Q 232 422 231 425 L 239 431 Q 238 433 241 432 L 242 435 L 247 436 L 248 439 L 251 440 L 254 442 L 255 445 L 259 446 Q 261 445 260 448 L 266 450 Q 269 449 268 452 L 272 453 Q 275 452 274 455 L 278 456 Q 281 455 280 458 L 289 460 Q 292 459 291 462 L 298 463 Q 302 462 301 465 L 309 465 L 310 466 Q 317 465 316 468 L 333 468 L 334 469 L 338 468 L 353 468 L 353 466 L 370 465 L 376 462 Q 382 464 381 460 L 395 458 Q 396 461 392 460 L 391 463 L 388 463 Q 389 466 387 465 L 385 468 Q 380 469 378 473 Q 375 472 376 475 L 372 477 Q 373 479 371 478 L 369 481 L 367 482 L 365 485 L 362 486 Q 359 485 360 488 L 357 489 L 356 494 L 354 495 L 352 498 L 349 500 Q 350 502 348 501 L 345 505 L 343 508 L 340 509 L 339 514 L 336 516 Q 337 519 335 518 L 332 523 Q 333 525 330 524 L 330 527 L 326 533 Q 327 536 324 535 L 322 542 Q 323 546 320 545 L 316 559 Q 318 565 314 564 L 314 571 L 313 572 L 313 581 L 311 581 L 311 609 L 313 609 L 313 620 L 314 621 Q 312 627 316 626 L 317 633 Q 316 637 319 636 L 320 643 Q 318 649 322 648 L 322 655 L 323 656 L 322 677 L 320 679 L 319 684 Q 320 687 317 686 L 317 689 L 321 688 Q 324 689 323 687 L 328 684 Q 333 686 332 682 L 337 681 Q 343 683 342 679 L 352 679 L 353 678 L 383 678 L 385 676 L 394 676 L 395 675 Q 402 677 401 673 L 412 671 Q 415 672 414 669 L 419 668 Q 422 669 421 666 L 425 665 Q 429 666 428 663 L 434 662 L 435 659 L 441 658 L 443 655 Q 446 656 445 653 L 448 652 Q 451 653 450 651 L 454 648 L 457 646 L 458 643 L 461 642 Q 460 639 463 640 L 464 638 L 467 636 L 468 633 L 471 632 Q 470 629 473 630 L 474 627 L 478 625 Q 477 622 480 623 L 482 619 Q 484 620 483 618 L 486 616 Q 485 613 488 612 Q 487 608 490 609 L 491 607 Q 490 603 493 604 L 494 602 Q 493 599 496 600 L 497 597 Q 496 593 499 594 L 501 589 Q 500 585 503 586 L 503 582 L 506 578 L 508 571 L 510 574 L 511 578 Q 510 582 513 581 L 514 587 Q 512 592 516 591 L 517 601 L 519 603 L 521 613 Q 520 617 523 616 L 524 623 Q 522 628 526 627 L 526 635 L 527 636 Q 525 641 529 640 L 529 648 L 530 653 L 532 655 L 533 669 L 534 670 L 534 678 L 536 678 L 536 688 L 537 689 L 537 701 L 539 701 L 539 720 L 540 721 L 540 771 L 539 772 L 539 793 L 537 793 L 537 804 L 536 805 L 536 814 L 534 814 L 533 830 L 532 831 Q 534 838 530 837 L 529 844 Q 531 850 527 849 L 526 856 Q 527 860 524 859 L 523 866 Q 524 870 521 869 L 519 879 Q 520 883 517 882 L 516 887 Q 518 892 514 891 L 513 895 Q 514 897 511 896 L 510 904 L 506 910 Q 507 913 504 912 L 503 918 L 500 920 Q 501 923 498 922 Q 498 929 493 933 Q 494 936 491 935 L 490 938 Q 491 941 489 940 L 487 944 L 484 945 L 483 950 L 480 952 L 481 953 L 520 953 Q 520 947 525 944 Q 524 940 527 941 L 527 939 L 530 937 L 532 931 Q 531 927 534 928 L 534 926 L 537 924 L 538 921 Q 537 917 540 918 L 541 915 Q 540 911 543 912 L 545 907 Q 543 901 547 902 L 548 899 Q 547 894 550 895 L 551 891 Q 550 887 553 888 L 555 879 Q 554 874 557 875 L 558 871 Q 556 864 560 865 L 561 859 Q 559 852 563 853 L 564 848 Q 562 841 566 842 L 567 828 L 568 827 L 568 820 L 570 819 L 570 810 L 571 809 L 571 798 L 573 797 L 573 785 L 574 784 L 574 764 L 576 763 L 576 723 L 574 722 L 574 706 L 573 705 L 573 693 L 571 692 L 571 683 L 570 682 L 570 674 L 568 673 L 568 666 L 566 658 Q 568 651 564 652 L 564 646 L 563 645 Q 565 638 561 639 L 560 633 Q 562 626 558 627 L 557 617 L 555 615 L 553 606 Q 555 600 551 601 L 550 597 Q 551 592 548 593 L 547 587 Q 548 582 545 583 L 543 574 Q 545 567 541 568 L 540 564 Q 541 560 538 561 L 537 557 Q 539 550 535 551 L 534 547 Q 536 541 532 542 L 531 537 L 532 533 L 533 537 L 536 538 L 536 541 L 540 547 L 543 549 L 543 551 Q 546 550 545 553 L 549 555 L 550 559 Q 549 561 552 560 L 553 563 L 556 565 Q 555 567 558 566 L 560 570 L 563 572 Q 562 574 565 573 L 566 576 L 570 579 Q 569 581 572 580 L 573 583 L 578 584 L 580 587 Q 583 586 582 589 L 588 591 L 590 594 Q 592 593 591 596 L 594 597 Q 597 596 596 599 L 599 600 Q 602 599 601 602 L 606 604 Q 609 603 608 606 L 612 607 Q 615 606 614 609 L 618 610 Q 622 609 621 612 L 629 614 Q 633 613 632 616 L 638 617 Q 643 615 642 619 L 649 620 L 658 620 L 658 622 L 691 622 L 691 620 L 701 620 L 702 619 L 712 619 L 712 617 L 742 617 L 742 619 L 749 619 L 750 620 L 755 620 L 753 619 L 752 613 L 750 611 L 748 600 L 748 581 L 749 580 L 749 569 L 750 568 L 750 535 L 748 525 Q 750 518 746 519 L 745 514 Q 747 508 743 509 L 742 505 Q 743 500 740 501 L 739 498 Q 740 494 737 495 L 735 486 L 732 485 Q 733 481 730 482 L 730 480 L 727 478 L 726 475 Q 727 472 724 473 L 724 471 L 720 468 L 719 463 L 716 462 Q 717 459 715 460 L 712 456 L 709 455 Q 710 452 708 453 L 706 450 L 703 449 Q 704 446 702 447 L 699 443 L 694 442 L 693 439 Q 689 440 690 438 L 677 429 Q 673 430 674 427 L 671 426 Q 667 427 668 424 L 663 422 Q 659 423 660 420 L 657 419 Q 652 420 653 417 L 650 416 Q 644 418 645 414 L 634 412 L 632 410 Q 626 412 628 407 L 642 406 L 644 404 L 649 403 Q 654 405 653 401 L 665 399 L 671 396 Q 674 397 673 394 L 676 394 L 685 389 Q 688 390 687 387 L 690 387 L 691 384 L 695 383 Q 698 384 697 381 Q 702 380 705 376 Q 707 377 706 374 L 710 373 Q 709 370 712 371 L 713 369 L 722 363 L 727 357 Q 726 353 729 354 L 730 351 L 733 350 Q 732 347 735 348 L 740 338 L 743 337 Q 742 333 745 334 L 745 332 L 748 330 L 750 324 Q 749 320 752 321 L 753 318 Q 752 314 755 315 L 756 312 Q 755 307 758 308 L 760 298 L 762 296 L 763 291 Q 761 284 765 285 L 766 279 L 766 270 L 768 269 L 768 253 L 769 252 L 769 205 L 771 204 Q 770 198 773 194 Q 769 193 770 196 L 758 201 L 740 201 L 729 199 L 723 196 Q 716 198 717 194 L 712 193 L 705 193 L 704 191 L 697 191 L 696 190 L 666 190 L 665 191 L 658 191 L 657 193 L 651 194 Q 644 192 645 196 L 638 197 L 636 199 L 629 201 Q 624 200 625 203 L 622 204 Q 618 203 619 206 L 615 207 L 609 211 Q 605 210 606 213 L 602 214 L 601 217 Q 598 216 599 219 L 597 219 L 595 222 L 592 224 Q 588 223 589 226 L 586 227 L 585 230 Q 582 229 583 232 L 576 237 L 575 240 Q 572 239 573 242 L 570 243 L 568 247 Q 565 246 566 249 L 563 250 L 562 253 Q 563 256 561 255 L 558 259 Q 559 261 556 260 L 555 265 L 552 267 Q 553 271 549 269 L 549 261 L 550 260 Q 549 252 552 253 L 552 211 L 550 210 L 549 194 L 547 192 L 545 181 Q 546 176 543 177 L 542 173 Q 544 167 540 168 L 540 166 L 536 160 L 535 152 L 532 151 Q 533 147 530 148 L 530 146 L 527 144 L 523 136 L 520 134 L 519 129 L 512 124 Q 513 121 511 122 L 509 119 L 503 114 Q 499 115 500 113 L 497 111 L 496 108 Q 492 109 493 106 L 489 104 Q 486 105 487 102 L 485 102 L 483 99 L 480 98 Q 476 99 477 96 L 474 95 Q 470 96 471 93 L 464 91 Q 460 92 461 89 L 457 88 Q 453 89 454 86 L 450 85 Q 446 86 447 83 L 442 82 L 435 78 Q 431 79 432 77 L 428 75 L 427 72 Q 424 73 425 71 L 422 68 Z M 535 539 L 534 542 L 535 542 L 535 539 Z " /><path fill="rgb(163,44,67)" stroke="rgb(163,44,67)" stroke-width="1" opacity="0.5215686274509804" d="M 847.5 717 Q 852.3 715.3 851 719.5 Q 849.7 723.8 845 723 Q 846.1 725.7 843.5 725 L 840.5 729 Q 837.9 728.3 839 731 L 836.5 731 L 835 735 L 832 736.5 L 830.5 739 Q 828.3 738.3 829 740.5 L 826 742 L 824.5 745 L 822 746.5 Q 822.8 748.8 820.5 748 Q 816.5 756.5 809 761.5 L 809 764 L 805 766.5 Q 805.8 768.8 803.5 768 L 802 771 Q 799 769.8 800 773.5 L 760.5 814 L 750 821.5 Q 750.8 824.1 747.5 823 L 736.5 831 L 734 831 Q 735.3 834 731.5 833 L 719.5 840 L 704 844 Q 705.3 847.3 700.5 846 Q 699.2 848.2 694.5 847 L 692.5 849 L 679 850 L 678.5 852 L 666.5 852 L 665.5 853 L 621.5 853 L 620.5 852 L 601.5 852 L 599.5 850 Q 587.6 851.9 582 847.5 Q 585.2 844 591 844 Q 589.9 841.3 592.5 842 L 613.5 829 L 617.5 828 L 620.5 825 L 623 825 Q 621.8 822 625.5 823 Q 626.6 820.3 630 821 Q 628.8 818 632.5 819 L 645.5 810 L 653 808 L 654.5 805 L 710.5 777 L 725 772 Q 723.7 768.7 728.5 770 L 739.5 764 L 748.5 762 L 752.5 759 L 755.5 759 L 759.5 756 L 764 756 Q 762.8 753 766.5 754 L 772 751.5 L 767.5 751 L 762.5 752 L 760.5 754 L 751 755 Q 752.4 759 745.5 757 Q 740.9 759.8 734 759 Q 735.4 763 728.5 761 L 724 762 Q 725.3 765.3 720.5 764 L 714.5 767 L 707.5 768 L 705.5 770 L 698.5 771 L 694.5 774 L 688 775 Q 689.3 778.3 684.5 777 L 677.5 781 L 671 782 Q 672.3 785 668.5 784 L 665 785 Q 666.3 788 662.5 787 L 659 788 Q 660.3 791 656.5 790 L 636 801 Q 637.3 804 633.5 803 L 629 805 Q 630.3 808 626.5 807 L 609 818.5 Q 609.8 821.1 606.5 820 L 600 824 Q 601.3 827 597.5 826 Q 595.1 830.5 590 831 L 588.5 834 Q 586.3 833.3 587 835.5 L 583.5 837 L 567.5 853 L 565 853 L 569 846.5 L 569 844 Q 571.7 845.1 571 842.5 L 575 837.5 L 575 835 Q 578 836.3 577 832.5 L 595.5 805 Q 597.8 805.8 597 803.5 L 605.5 792 Q 607.8 792.8 607 790.5 L 611 787.5 Q 610.3 784.9 613 786 L 613 783.5 L 624.5 772 L 627 772 L 628.5 769 Q 630.8 769.8 630 767.5 L 634 764.5 Q 633.2 761.9 636.5 763 Q 637.9 758.3 643 759 L 644.5 756 L 646.5 756 L 658.5 747 L 663 746 Q 661.8 743 665.5 744 L 669 743 Q 667.8 740 671.5 741 L 679.5 737 L 686 736 Q 684.7 732.7 689.5 734 L 695 733 Q 693.6 729 700.5 731 L 705.5 730 L 707.5 728 Q 713 729.5 714.5 727 L 742 726 L 742.5 724 L 760.5 724 L 762.5 726 L 816.5 727 L 834.5 723 L 836.5 721 L 842.5 720 L 847.5 717 Z M 849 718 L 848 719 Q 843 718 844 721 L 841 722 Q 836 721 837 724 L 832 725 Q 826 723 827 727 L 819 727 L 818 728 L 762 727 L 760 725 L 744 725 L 743 727 L 724 727 L 723 728 L 715 728 L 714 730 L 708 730 L 701 732 Q 695 730 696 734 L 691 735 Q 686 734 687 737 L 683 738 Q 679 737 680 740 L 673 742 Q 669 741 670 744 L 667 745 Q 663 744 664 747 L 658 748 L 657 751 Q 653 750 654 753 L 650 755 Q 647 754 648 757 L 646 757 L 644 760 L 642 760 L 634 766 Q 635 768 633 767 L 631 770 L 628 772 Q 629 774 626 773 L 624 776 L 619 778 L 614 785 L 614 787 Q 611 786 612 789 L 608 792 Q 609 794 607 793 L 605 797 L 599 801 L 598 806 L 595 808 Q 596 811 593 810 L 591 815 Q 592 817 589 816 L 589 819 L 586 820 L 586 823 L 578 834 Q 579 837 576 836 L 576 839 L 573 840 L 572 844 Q 573 846 570 845 L 569 849 L 571 849 L 574 845 Q 576 846 575 844 L 578 842 L 580 839 Q 582 840 581 838 L 586 835 Q 585 832 588 833 L 589 830 L 594 829 L 597 825 Q 600 826 599 823 L 604 822 L 606 819 Q 609 820 608 818 L 618 812 Q 617 809 621 810 L 622 807 L 626 806 Q 629 807 628 804 L 633 802 Q 636 803 635 800 L 638 799 Q 641 800 640 797 L 643 796 Q 646 797 645 794 L 648 793 Q 651 794 650 791 L 656 789 Q 659 790 658 787 L 662 786 Q 665 787 664 784 L 668 783 Q 671 784 670 781 L 677 780 L 684 776 Q 688 777 687 774 L 691 773 Q 695 774 694 771 L 711 766 Q 715 767 714 764 L 720 763 Q 724 764 723 761 L 728 760 Q 734 762 733 758 L 740 757 Q 746 759 745 755 L 757 753 Q 761 754 760 751 L 767 750 Q 773 752 772 748 L 779 747 L 785 747 L 785 750 L 781 751 Q 775 749 776 753 L 768 755 Q 764 754 765 757 L 761 757 L 753 761 Q 749 760 750 763 L 744 764 L 736 768 Q 732 767 733 770 L 730 771 Q 725 770 726 773 L 723 774 Q 719 773 720 776 L 714 778 Q 709 777 710 780 L 707 781 Q 703 780 704 783 Q 699 782 698 786 L 695 786 L 687 791 Q 683 790 684 793 L 681 794 Q 677 793 678 796 L 667 801 Q 663 800 664 803 L 661 804 Q 657 803 658 806 L 656 806 L 654 809 L 651 810 Q 647 809 648 812 Q 645 811 644 814 Q 640 813 641 816 L 635 817 L 634 820 Q 630 819 631 822 L 629 822 L 621 827 Q 618 826 619 829 L 617 830 Q 613 829 614 832 L 611 833 Q 608 832 609 835 L 604 837 Q 601 836 602 839 L 599 840 Q 595 839 596 842 L 594 842 L 592 845 L 589 846 Q 585 845 586 848 L 589 849 L 601 849 L 602 850 L 622 850 L 622 852 L 665 852 L 667 850 L 678 850 L 687 848 Q 694 850 693 846 L 700 845 Q 704 846 703 843 L 708 842 Q 713 844 712 840 L 719 839 L 725 835 Q 728 836 727 833 L 731 832 Q 734 833 733 830 L 736 830 L 743 825 Q 746 826 745 824 L 749 822 L 751 819 Q 754 820 753 817 L 761 812 Q 763 813 762 811 L 765 809 L 767 806 Q 769 807 768 805 L 771 803 L 774 799 Q 776 800 775 798 L 778 796 L 780 793 Q 782 794 781 792 L 785 789 L 787 786 Q 789 787 788 785 L 791 783 L 791 781 L 796 774 L 799 773 L 799 770 Q 802 771 801 769 L 805 766 Q 804 763 807 764 L 809 758 L 817 753 L 820 747 Q 822 748 821 746 L 824 744 L 825 741 L 828 740 Q 827 737 830 738 L 831 736 L 834 734 L 836 730 L 838 730 Q 837 727 840 728 L 843 724 Q 845 725 844 722 Q 849 723 850 719 L 849 718 Z M 780 748 L 779 749 Q 772 747 773 751 L 784 749 L 780 748 Z " /><path fill="rgb(163,44,67)" stroke="rgb(163,44,67)" stroke-width="1" opacity="0.5215686274509804" d="M 384 734 L 387.5 734 L 393.5 737 L 399 737 Q 397.6 741 404.5 739 Q 407.4 741.6 413.5 741 L 415.5 743 L 426 744 Q 424.6 748 431.5 746 L 436.5 747 L 438.5 749 L 445.5 750 L 449.5 753 L 455.5 754 Q 457.4 757.6 462 757 Q 460.8 760 464.5 759 L 468 760 L 469.5 763 L 471.5 763 L 479.5 770 L 481.5 770 L 498 786.5 L 498 788.5 L 503 793.5 L 505.5 799 Q 508.1 798.2 507 801.5 L 508 805 L 511 806.5 L 514 812.5 L 515 819 Q 518 817.8 517 821.5 L 520 827.5 L 521 837 L 518 837 Q 519.5 833.3 516.5 834 L 515 830.5 L 491.5 807 L 489.5 807 L 476.5 795 L 473 793.5 L 471.5 791 L 469.5 791 L 465.5 787 L 463 787 L 461.5 784 L 459.5 784 L 442.5 771 L 440 771 Q 441.1 768.3 438.5 769 L 433.5 765 L 431.5 765 L 432.5 767 L 442 773.5 L 443.5 776 L 445.5 776 L 454.5 785 L 458 786 L 459.5 789 L 462 790.5 Q 461.3 792.8 463.5 792 L 478 803 L 479.5 806 Q 481.8 805.3 481 807.5 L 484 809 L 486.5 813 L 488.5 813 L 511 834.5 Q 511.5 837.5 504.5 836 L 502.5 834 L 486 833 Q 487.4 829 480.5 831 L 471.5 829 L 469.5 827 L 464.5 826 L 452.5 820 L 449.5 817 L 447 817 L 445.5 814 L 443.5 814 Q 440.4 807.9 434 807 L 432.5 804 Q 430.3 804.8 431 802.5 L 427 800 Q 425.3 794 420 790.5 L 420 788 L 417 786.5 Q 417.8 784.3 415.5 785 L 410 775 Q 407 776.3 408 772.5 L 400 760.5 L 400 758 Q 397 759.3 398 755.5 L 395 752.5 L 390 742 L 387 740.5 Q 387.7 737.9 385 739 L 385 736.5 L 384 734 Z M 386 735 L 386 738 Q 389 737 388 740 L 391 741 L 393 746 Q 392 748 395 747 L 396 753 L 399 755 Q 398 758 401 757 L 405 767 L 408 768 L 409 772 Q 408 775 411 774 L 417 784 Q 419 783 418 786 L 421 787 L 421 790 L 430 800 Q 432 799 431 802 L 434 803 L 435 806 L 439 807 L 442 812 L 448 815 Q 447 817 451 816 L 452 819 L 456 820 Q 459 819 458 822 L 462 823 Q 465 822 464 825 L 472 827 Q 476 826 475 829 L 482 830 Q 488 828 487 832 L 494 832 L 495 833 L 504 833 L 504 835 L 509 835 L 509 833 L 506 832 Q 507 829 505 830 L 503 827 L 501 827 L 494 822 L 493 819 Q 490 820 491 818 L 485 813 L 483 810 L 480 809 Q 481 806 479 807 L 476 803 Q 473 804 474 801 Q 471 802 470 799 Q 467 800 468 798 L 463 793 Q 460 794 461 792 L 459 790 L 457 787 L 455 786 Q 452 787 453 784 L 450 783 Q 451 780 449 781 L 447 778 L 443 777 L 440 773 L 437 773 Q 438 770 436 771 L 434 768 L 432 768 L 428 764 L 426 764 L 424 760 L 431 761 L 433 764 Q 436 763 435 766 L 440 768 Q 442 767 441 770 L 444 770 L 445 773 L 449 774 Q 451 773 450 776 L 454 777 L 455 780 L 459 781 Q 461 780 460 783 L 464 785 Q 463 787 467 786 L 468 789 L 473 790 L 476 794 L 478 794 Q 477 797 480 796 L 481 799 L 486 800 L 489 804 Q 491 803 490 806 L 494 808 Q 493 810 496 809 L 497 812 L 501 815 Q 500 817 503 816 L 504 819 L 507 821 Q 506 823 509 822 L 510 825 L 514 828 Q 513 830 516 829 L 516 832 L 519 833 L 519 827 L 517 827 L 516 823 Q 517 819 514 820 L 512 813 Q 513 809 510 810 L 510 808 L 507 806 L 506 800 L 503 799 Q 504 795 501 796 L 499 790 Q 496 791 497 788 L 494 786 L 493 783 Q 490 784 491 782 L 484 776 L 483 773 Q 480 774 481 771 L 479 771 L 477 769 L 469 764 L 467 761 L 464 760 Q 460 761 461 758 L 458 757 Q 454 758 455 755 L 449 754 L 441 750 Q 436 751 437 748 L 431 747 Q 424 749 425 745 L 419 744 Q 413 746 414 742 Q 407 743 404 740 Q 397 742 398 738 L 392 737 L 388 737 Q 389 734 386 735 Z M 426 761 Q 426 764 430 764 L 430 762 L 426 761 Z M 520 833 L 519 836 L 520 836 L 520 833 Z " /><path fill="rgb(162,44,66)" stroke="rgb(162,44,66)" stroke-width="1" opacity="1" d="M 412.5 91 L 411.5 93 L 412.5 91 Z " /><path fill="rgb(162,44,66)" stroke="rgb(162,44,66)" stroke-width="1" opacity="1" d="M 373.5 243 L 374 246.5 L 373 246.5 L 373.5 243 Z " /><path fill="rgb(162,44,66)" stroke="rgb(162,44,66)" stroke-width="1" opacity="1" d="M 186.5 342 L 187.5 344 L 186.5 342 Z " /><path fill="rgb(162,44,66)" stroke="rgb(162,44,66)" stroke-width="1" opacity="1" d="M 359.5 485 L 358.5 487 L 359.5 485 Z " /><path fill="rgb(162,44,66)" stroke="rgb(162,44,66)" stroke-width="1" opacity="1" d="M 751.5 534 L 752 567.5 L 751 567.5 L 751.5 534 Z " /><path fill="rgb(162,44,66)" stroke="rgb(162,44,66)" stroke-width="1" opacity="1" d="M 517.5 603 L 518 605.5 L 517 605.5 L 517.5 603 Z " /><path fill="rgb(162,44,66)" stroke="rgb(162,44,66)" stroke-width="1" opacity="1" d="M 751.5 607 L 752 609.5 L 751 609.5 L 751.5 607 Z " /><path fill="rgb(162,44,66)" stroke="rgb(162,44,66)" stroke-width="1" opacity="1" d="M 483.5 619 L 481.5 622 L 483.5 619 Z " /><path fill="rgb(162,44,66)" stroke="rgb(162,44,66)" stroke-width="1" opacity="1" d="M 476.5 766 L 477.5 768 L 476.5 766 Z " /><path fill="rgb(162,44,66)" stroke="rgb(162,44,66)" stroke-width="1" opacity="1" d="M 450.5 780 L 451.5 782 L 450.5 780 Z " /><path fill="rgb(162,44,66)" stroke="rgb(162,44,66)" stroke-width="1" opacity="1" d="M 461.5 784 L 462.5 786 L 461.5 784 Z " /><path fill="rgb(162,44,66)" stroke="rgb(162,44,66)" stroke-width="1" opacity="1" d="M 471.5 791 L 472.5 793 L 471.5 791 Z " /><path fill="rgb(162,44,66)" stroke="rgb(162,44,66)" stroke-width="1" opacity="1" d="M 778.5 796 L 776.5 799 L 778.5 796 Z " /><path fill="rgb(162,44,66)" stroke="rgb(162,44,66)" stroke-width="1" opacity="1" d="M 569.5 851 L 568.5 853 L 569.5 851 Z " /><path fill="rgb(162,44,66)" stroke="rgb(162,44,66)" stroke-width="1" opacity="1" d="M 517.5 877 L 518 880.5 L 517 880.5 L 517.5 877 Z " /><path fill="rgb(0,0,0)" stroke="rgb(0,0,0)" stroke-width="1" opacity="0" d="M 421.5 68 L 425 70.5 Q 424.3 72.8 426.5 72 L 428 75 L 432 76.5 Q 431.2 79.1 434.5 78 L 441.5 82 L 447 83 Q 445.8 86 449.5 85 L 454 86 Q 452.8 89 456.5 88 L 461 89 Q 459.8 92 463.5 91 L 471 93 Q 469.8 96 473.5 95 L 477 96 Q 475.8 99 479.5 98 L 483 99 L 484.5 102 L 487 102 Q 485.9 104.7 488.5 104 L 493 106 Q 491.8 109 495.5 108 L 497 111 L 500 112.5 Q 499.2 115.1 502.5 114 L 509 119 L 510.5 122 Q 512.8 121.3 512 123.5 L 519 129 L 520 134 L 523 135.5 L 527 144 L 530 145.5 L 530 148 Q 533 146.8 532 150.5 L 535 152 L 536 159.5 L 540 165.5 L 540 168 Q 543.7 166.7 542 172.5 L 543 177 Q 546.3 175.7 545 180.5 L 547 191.5 L 549 193.5 L 550 210 L 552 210.5 L 552 253 Q 548.5 251.9 550 259.5 L 549 260.5 L 549 269 Q 553.1 270.7 552 266.5 L 555 265 L 556 260 Q 558.7 261.1 558 258.5 L 560.5 255 Q 563.1 255.8 562 252.5 L 563 250 L 566 248.5 Q 565.3 246.3 567.5 247 L 570 243 L 573 241.5 Q 572.3 239.3 574.5 240 L 576 237 L 583 231.5 Q 582.3 229.3 584.5 230 L 586 227 L 589 225.5 Q 588.2 222.9 591.5 224 L 595 222 L 596.5 219 L 599 219 Q 597.9 216.3 600.5 217 L 602 214 L 606 212.5 Q 605.2 209.9 608.5 211 L 614.5 207 L 619 206 Q 617.8 203 621.5 204 L 625 203 Q 623.7 199.7 628.5 201 L 635.5 199 L 637.5 197 L 645 196 Q 643.6 192 650.5 194 L 657 193 L 657.5 191 L 664.5 191 L 665.5 190 L 695.5 190 L 696.5 191 L 704 191 L 704.5 193 L 711.5 193 L 717 194 Q 715.6 198 722.5 196 L 728.5 199 L 739.5 201 L 757.5 201 L 770 196 Q 768.9 192.7 773 194 Q 770.4 197.6 771 204 L 769 204.5 L 769 251.5 L 768 252.5 L 768 269 L 766 269.5 L 766 278.5 L 765 285 Q 761 283.6 763 290.5 L 762 295.5 L 760 297.5 L 758 308 Q 754.7 306.7 756 311.5 L 755 315 Q 752 313.8 753 317.5 L 752 321 Q 749 319.8 750 323.5 L 748 330 L 745 331.5 L 745 334 Q 742 332.8 743 336.5 L 740 338 L 734.5 348 Q 732.3 347.3 733 349.5 L 730 351 L 728.5 354 Q 725.9 353.2 727 356.5 L 722 363 L 713 368.5 L 711.5 371 Q 709.3 370.3 710 372.5 L 706 374 Q 707.1 376.7 704.5 376 Q 702 380.5 697 381 Q 698.3 384 694.5 383 L 691 384 L 689.5 387 L 687 387 Q 688.3 390 684.5 389 L 675.5 394 L 673 394 Q 674.3 397 670.5 396 L 664.5 399 L 653 401 Q 654.4 404.7 648.5 403 L 643.5 404 L 641.5 406 L 628 407 Q 626.3 411.5 631.5 410 L 633.5 412 L 645 414 Q 643.6 417.7 649.5 416 L 653 417 Q 651.7 420.3 656.5 419 L 660 420 Q 658.8 423 662.5 422 L 668 424 Q 666.8 427 670.5 426 L 674 427 Q 672.8 430 676.5 429 L 690 437.5 Q 689.2 440.1 692.5 439 L 694 442 L 699 443 L 701.5 447 Q 703.8 446.3 703 448.5 L 706 450 L 707.5 453 Q 709.8 452.3 709 454.5 L 712 456 L 714.5 460 Q 716.8 459.3 716 461.5 L 719 463 L 720 468 L 724 470.5 L 724 473 Q 726.7 471.9 726 474.5 L 727 478 L 730 479.5 L 730 482 Q 733 480.8 732 484.5 L 735 486 L 737 495 Q 740 493.8 739 497.5 L 740 501 Q 743.3 499.7 742 504.5 L 743 509 Q 746.7 507.6 745 513.5 L 746 519 Q 750 517.6 748 524.5 L 750 534.5 L 750 567.5 L 749 568.5 L 749 579.5 L 748 580.5 L 748 599.5 L 750 610.5 L 752 612.5 L 753 619 L 755 619.5 L 749.5 620 L 748.5 619 L 742 619 L 741.5 617 L 712 617 L 711.5 619 L 701.5 619 L 700.5 620 L 691 620 L 690.5 622 L 658 622 L 657.5 620 L 648.5 620 L 642 619 Q 643.4 615.3 637.5 617 L 632 616 Q 633.3 612.7 628.5 614 L 621 612 Q 622.3 608.7 617.5 610 L 614 609 Q 615.3 606 611.5 607 L 608 606 Q 609.3 603 605.5 604 L 601 601.5 Q 601.8 598.9 598.5 600 L 596 599 Q 597.3 596 593.5 597 L 591 596 Q 592.1 593.3 589.5 594 L 588 591 L 582 588.5 Q 582.8 585.9 579.5 587 L 578 584 L 573 583 L 571.5 580 Q 569.3 580.8 570 578.5 L 566 576 L 564.5 573 Q 562.3 573.8 563 571.5 L 560 570 L 557.5 566 Q 555.3 566.8 556 564.5 L 553 563 L 551.5 560 Q 549.3 560.8 550 558.5 L 549 555 L 545 552.5 Q 545.7 549.9 543 551 L 543 548.5 L 540 547 L 536 540.5 L 536 538 L 533 536.5 L 531.5 533 L 531 536.5 L 532 542 Q 535.7 540.6 534 546.5 L 535 551 Q 539 549.6 537 556.5 L 538 561 Q 541 559.8 540 563.5 L 541 568 Q 545 566.6 543 573.5 L 545 583 Q 548.3 581.7 547 586.5 L 548 593 Q 551.3 591.7 550 596.5 L 551 601 Q 554.7 599.6 553 605.5 L 555 614.5 L 557 616.5 L 558 627 Q 562 625.6 560 632.5 L 561 639 Q 565 637.6 563 644.5 L 564 645.5 L 564 652 Q 568 650.6 566 657.5 L 568 665.5 L 568 673 L 570 673.5 L 570 681.5 L 571 682.5 L 571 692 L 573 692.5 L 573 704.5 L 574 705.5 L 574 722 L 576 722.5 L 576 763 L 574 763.5 L 574 783.5 L 573 784.5 L 573 797 L 571 797.5 L 571 808.5 L 570 809.5 L 570 819 L 568 819.5 L 568 826.5 L 567 827.5 L 566 842 Q 562 840.6 564 847.5 L 563 853 Q 559 851.6 561 858.5 L 560 865 Q 556 863.6 558 870.5 L 557 875 Q 553.7 873.7 555 878.5 L 553 888 Q 550 886.8 551 890.5 L 550 895 Q 546.7 893.7 548 898.5 L 547 902 Q 543.3 900.6 545 906.5 L 543 912 Q 540 910.8 541 914.5 L 540 918 Q 537 916.8 538 920.5 L 537 924 L 534 925.5 L 534 928 Q 531 926.8 532 930.5 L 530 937 L 527 938.5 L 527 941 Q 524 939.8 525 943.5 Q 520.4 946.6 520 953 L 480.5 953 L 480 951.5 L 483 950 L 484 945 L 487 943.5 L 488.5 940 Q 491.1 940.8 490 937.5 L 491 935 Q 494 936.3 493 932.5 Q 497.9 929.1 498 922 Q 501 923.3 500 919.5 L 503 918 L 504 912 Q 507 913.3 506 909.5 L 510 903.5 L 511 896 Q 513.7 897.1 513 894.5 L 514 891 Q 517.7 892.4 516 886.5 L 517 882 Q 520.3 883.3 519 878.5 L 521 869 Q 524.3 870.3 523 865.5 L 524 859 Q 527.3 860.3 526 855.5 L 527 849 Q 531 850.4 529 843.5 L 530 837 Q 533.5 838.1 532 830.5 L 533 829.5 L 534 814 L 536 813.5 L 536 804.5 L 537 803.5 L 537 793 L 539 792.5 L 539 771.5 L 540 770.5 L 540 720.5 L 539 719.5 L 539 701 L 537 700.5 L 537 688.5 L 536 687.5 L 536 678 L 534 677.5 L 534 669.5 L 533 668.5 L 532 654.5 L 530 652.5 L 529 647.5 L 529 640 Q 525.3 641.4 527 635.5 L 526 634.5 L 526 627 Q 522.3 628.4 524 622.5 L 523 616 Q 519.7 617.3 521 612.5 L 519 602.5 L 517 600.5 L 516 591 Q 512.3 592.4 514 586.5 L 513 581 Q 509.7 582.3 511 577.5 L 510 573.5 L 507.5 571 L 506 577.5 L 503 581.5 L 503 586 Q 500 584.8 501 588.5 L 499 594 Q 496 592.8 497 596.5 L 496 600 Q 493.3 598.9 494 601.5 L 493 604 Q 490 602.8 491 606.5 L 490 609 Q 487 607.8 488 611.5 Q 485.3 612.6 486 616 L 483 617.5 Q 483.8 619.8 481.5 619 L 480 623 Q 477.3 621.9 478 624.5 L 474 627 L 472.5 630 Q 470.3 629.3 471 631.5 L 468 633 L 466.5 636 L 464 637.5 L 462.5 640 Q 460.3 639.3 461 641.5 L 458 643 L 456.5 646 L 453.5 648 L 450 650.5 Q 450.8 653.1 447.5 652 L 445 653 Q 446.3 656 442.5 655 L 441 658 L 435 659 L 433.5 662 L 428 663 Q 429.3 666.3 424.5 665 L 421 666 Q 422.3 669 418.5 668 L 414 669 Q 415.3 672 411.5 671 L 401 673 Q 402.1 676.5 394.5 675 L 393.5 676 L 384.5 676 L 382.5 678 L 352.5 678 L 351.5 679 L 342 679 Q 343.4 683 336.5 681 L 332 682 Q 333.4 685.7 327.5 684 L 323 686.5 Q 323.8 689.1 320.5 688 L 317 689 L 317 686 Q 320 687.3 319 683.5 L 320 678.5 L 322 676.5 L 323 655.5 L 322 654.5 L 322 648 Q 318 649.4 320 642.5 L 319 636 Q 315.7 637.3 317 632.5 L 316 626 Q 312 627.4 314 620.5 L 313 619.5 L 313 609 L 311 608.5 L 311 581 L 313 580.5 L 313 571.5 L 314 570.5 L 314 564 Q 318 565.4 316 558.5 L 320 545 Q 323.3 546.3 322 541.5 L 324 535 Q 327 536.3 326 532.5 L 330 526.5 L 330 524 Q 332.7 525.1 332 522.5 L 334.5 518 Q 337.1 518.8 336 515.5 L 339 514 L 340 509 L 343 507.5 L 345 504.5 L 347.5 501 Q 349.8 501.8 349 499.5 L 352 498 L 353.5 495 L 356 493.5 L 357 489 L 360 487.5 Q 359.3 485.3 361.5 486 L 365 485 L 366.5 482 L 369 480.5 L 370.5 478 Q 372.8 478.8 372 476.5 L 376 475 Q 374.9 472.3 377.5 473 Q 379.9 468.6 385 468 L 386.5 465 Q 389.1 465.7 388 463 L 390.5 463 L 392 460 Q 396.1 461.3 395 458 L 381 460 Q 382.4 464 375.5 462 L 369.5 465 L 353 466 L 352.5 468 L 337.5 468 L 333.5 469 L 332.5 468 L 316 468 Q 317.1 464.5 309.5 466 L 308.5 465 L 301 465 Q 302.3 461.7 297.5 463 L 291 462 Q 292.3 459 288.5 460 L 280 458 Q 281.3 455 277.5 456 L 274 455 Q 275.3 452 271.5 453 L 268 452 Q 269.3 449 265.5 450 L 260 448 Q 261.1 445.3 258.5 446 L 255 445 L 253.5 442 L 250.5 440 L 248 439 L 246.5 436 L 242 435 L 240.5 432 Q 238.3 432.8 239 430.5 L 231 424.5 Q 231.7 421.9 229 423 L 229 420.5 L 221 412.5 L 221 410 L 218 408.5 Q 218.7 405.9 216 407 L 216 404.5 Q 213.2 403.4 214 400 L 211 398.5 L 211 396 Q 208 397.3 209 393.5 L 208 391 Q 205.3 392.1 206 389.5 L 205 384.5 L 201 377.5 L 201 374 Q 198 375.3 199 371.5 L 198 367 Q 194.7 368.3 196 363.5 L 195 358 Q 191.7 359.3 193 354.5 L 191 347 Q 187.3 348.4 189 342.5 L 188 340 Q 185.3 341.1 186 338.5 L 183 337 L 182 332 Q 179.3 333.1 180 330.5 L 178 325 Q 183.3 323.8 182.5 327 L 189 327 L 189.5 325 L 198.5 325 L 209 321 Q 207.8 318 211.5 319 L 216 317 Q 214.9 314.3 217.5 315 L 221 314 L 222.5 311 L 225 311 Q 223.9 308.3 226.5 309 L 229 308 Q 227.9 305.3 230.5 306 L 235 303.5 Q 234.2 300.9 237.5 302 L 241 301 L 242.5 298 L 245 298 L 245.5 296 L 249.5 296 L 255 294 Q 253.7 290.3 259.5 292 L 264 291 Q 262.7 287.7 267.5 289 L 274 288 Q 272.9 284.5 280.5 286 L 281.5 285 L 294 285 L 294.5 283 L 310 283 L 310.5 285 L 322.5 285 L 323.5 286 L 332 286 Q 330.9 289.5 338.5 288 L 345 289 Q 343.7 292.3 348.5 291 L 354.5 294 L 365 296 Q 363.8 299 367.5 298 L 372 299 Q 370.8 302 374.5 301 L 378 302 Q 376.8 305 380.5 304 L 386 306 Q 384.9 308.7 387.5 308 L 391 309 Q 389.8 312 393.5 311 L 395 314 L 401 315 L 402.5 318 L 406 319.5 Q 405.3 322.1 408 321 L 408 324 L 409.5 324 L 412 325 Q 410.9 327.7 413.5 327 L 418 329.5 Q 417.2 332.1 420.5 331 Q 422.7 335.9 429 335 Q 430 328.6 424.5 327 Q 421.2 328.1 422 325.5 L 419 324 L 417.5 321 Q 414.5 321.8 416 318 L 412 318 L 412 315.5 L 409 314 L 408 309 L 405 307.5 L 403.5 304 Q 400.9 304.8 402 301.5 L 401 299 Q 398 300.3 399 296.5 L 398 294 Q 395.3 295.1 396 292.5 L 395 289 Q 392 290.3 393 286.5 L 391 281 Q 388.3 282.1 389 279.5 L 388 276 Q 385 277.3 386 273.5 L 385 269 Q 382 270.3 383 266.5 L 379 258.5 L 378 252 Q 374.7 253.3 376 248.5 L 375 242 Q 371 243.4 373 236.5 L 372 235.5 L 372 229 L 370 228.5 L 370 217.5 L 369 216.5 L 369 183.5 L 370 182.5 L 370 173 Q 374 174.4 372 167.5 L 373 161 Q 376.3 162.3 375 157.5 L 376 152 Q 379.3 153.3 378 148.5 L 379 145 Q 382 146.3 381 142.5 L 383 137 Q 386 138.3 385 134.5 L 386 131 Q 389 132.3 388 128.5 Q 392.6 125.4 393 119 L 398 115.5 L 399 112 L 402 110.5 L 402 108 Q 404.7 109.1 404 106.5 Q 406.8 105.4 406 102 L 409 100.5 L 409 98 Q 411.7 99.1 411 96.5 L 412 93 Q 414.7 94.1 414 91.5 Q 416.8 88.5 416 83 Q 419.3 84.3 418 79.5 L 419 78.5 L 419 69 L 421.5 68 Z " /><path fill="rgb(0,0,0)" stroke="rgb(0,0,0)" stroke-width="1" opacity="0" d="M 848.5 718 L 850 718.5 Q 848.7 722.8 844 722 Q 845.1 724.7 842.5 724 L 839.5 728 Q 836.9 727.3 838 730 L 835.5 730 L 834 734 L 831 735.5 L 829.5 738 Q 827.3 737.3 828 739.5 L 825 741 L 823.5 744 L 821 745.5 Q 821.8 747.8 819.5 747 L 817 753 L 809 758 L 806.5 764 Q 804.3 763.3 805 765.5 L 801 768.5 Q 801.7 771.1 799 770 L 799 772.5 L 796 774 L 791 780.5 L 791 783 L 788 784.5 Q 788.8 786.8 786.5 786 L 785 789 L 781 791.5 Q 781.8 793.8 779.5 793 L 778 796 L 775 797.5 Q 775.8 799.8 773.5 799 L 770.5 803 L 768 804.5 Q 768.8 806.8 766.5 806 L 765 809 L 762 810.5 Q 762.8 812.8 760.5 812 L 753 817 Q 754.3 820 750.5 819 L 749 822 L 745 823.5 Q 745.8 826.1 742.5 825 L 735.5 830 L 733 830 Q 734.3 833 730.5 832 L 727 833 Q 728.3 836 724.5 835 L 718.5 839 L 712 840 Q 713.4 843.7 707.5 842 L 703 843 Q 704.3 846.3 699.5 845 L 693 846 Q 694.1 849.5 686.5 848 L 677.5 850 L 666.5 850 L 664.5 852 L 622 852 L 621.5 850 L 601.5 850 L 600.5 849 L 588.5 849 L 586 848 Q 584.8 845 588.5 846 L 592 845 L 593.5 842 L 596 842 Q 594.8 839 598.5 840 L 602 839 Q 600.9 836.3 603.5 837 L 609 835 Q 607.9 832.3 610.5 833 L 614 832 Q 612.8 829 616.5 830 L 619 829 Q 617.9 826.3 620.5 827 L 628.5 822 L 631 822 Q 629.8 819 633.5 820 L 635 817 L 641 816 Q 639.8 813 643.5 814 Q 644.6 811.3 648 812 Q 646.8 809 650.5 810 L 654 809 L 655.5 806 L 658 806 Q 656.8 803 660.5 804 L 664 803 Q 662.8 800 666.5 801 L 678 796 Q 676.8 793 680.5 794 L 684 793 Q 682.8 790 686.5 791 L 694.5 786 L 697.5 786 Q 699.4 782.4 704 783 Q 702.8 780 706.5 781 L 710 780 Q 708.7 776.7 713.5 778 L 720 776 Q 718.8 773 722.5 774 L 726 773 Q 724.7 769.7 729.5 771 L 733 770 Q 731.8 767 735.5 768 L 743.5 764 L 750 763 Q 748.8 760 752.5 761 L 760.5 757 L 765 757 Q 763.8 754 767.5 755 L 776 753 Q 774.6 749.3 780.5 751 L 785 750 L 785 747 L 778.5 747 L 772 748 Q 773.4 752 766.5 750 L 760 751 Q 761.3 754.3 756.5 753 L 745 755 Q 746.4 759 739.5 757 L 733 758 Q 734.4 762 727.5 760 L 723 761 Q 724.3 764.3 719.5 763 L 714 764 Q 715.3 767.3 710.5 766 L 694 771 Q 695.3 774.3 690.5 773 L 687 774 Q 688.3 777.3 683.5 776 L 676.5 780 L 670 781 Q 671.3 784 667.5 783 L 664 784 Q 665.3 787 661.5 786 L 658 787 Q 659.3 790 655.5 789 L 650 791 Q 651.3 794 647.5 793 L 645 794 Q 646.3 797 642.5 796 L 640 797 Q 641.3 800 637.5 799 L 635 800 Q 636.3 803 632.5 802 L 628 804 Q 629.3 807 625.5 806 L 622 807 L 620.5 810 Q 617.2 808.9 618 811.5 L 608 817.5 Q 608.8 820.1 605.5 819 L 604 822 L 599 823 Q 600.3 826 596.5 825 L 594 829 L 589 830 L 587.5 833 Q 585.3 832.3 586 834.5 L 581 837.5 Q 581.8 839.8 579.5 839 L 578 842 L 575 843.5 Q 575.8 845.8 573.5 845 L 570.5 849 L 568.5 850 L 570 847.5 L 570 845 Q 572.7 846.1 572 843.5 L 573 840 L 576 838.5 L 576 836 Q 579 837.3 578 833.5 L 586 822.5 L 586 820 L 589 818.5 L 589 816 Q 591.7 817.1 591 814.5 L 593 810 Q 596 811.3 595 807.5 L 598 806 L 599 801 L 605 796.5 L 606.5 793 Q 608.8 793.8 608 791.5 L 612 788.5 Q 611.3 785.9 614 787 L 614 784.5 L 619 778 L 624 776 L 625.5 773 Q 628.8 774.1 628 771.5 L 631 770 L 632.5 767 Q 634.8 767.8 634 765.5 L 641.5 760 L 644 760 L 645.5 757 L 648 757 Q 646.9 754.3 649.5 755 L 654 753 Q 652.8 750 656.5 751 L 658 748 L 664 747 Q 662.8 744 666.5 745 L 670 744 Q 668.8 741 672.5 742 L 680 740 Q 678.8 737 682.5 738 L 687 737 Q 685.7 733.7 690.5 735 L 696 734 Q 694.6 730.3 700.5 732 L 707.5 730 L 714 730 L 714.5 728 L 722.5 728 L 723.5 727 L 743 727 L 743.5 725 L 759.5 725 L 761.5 727 L 817.5 728 L 818.5 727 L 827 727 Q 825.6 723.3 831.5 725 L 837 724 Q 835.7 720.7 840.5 722 L 844 721 Q 842.7 717.7 847.5 719 L 848.5 718 Z " /><path fill="rgb(0,0,0)" stroke="rgb(0,0,0)" stroke-width="1" opacity="0" d="M 386 735 Q 389 734 388 737 L 391.5 737 L 398 738 Q 396.6 742 403.5 740 Q 407.4 742.9 414 742 Q 412.6 745.7 418.5 744 L 425 745 Q 423.6 749 430.5 747 L 437 748 Q 435.7 751.3 440.5 750 L 448.5 754 L 455 755 Q 453.8 758 457.5 757 L 461 758 Q 459.8 761 463.5 760 L 467 761 L 468.5 764 L 477 768.5 L 478.5 771 L 481 771 Q 479.9 773.7 482.5 773 L 484 776 L 491 781.5 Q 490.3 783.8 492.5 783 L 494 786 L 497 787.5 Q 495.9 790.8 498.5 790 L 501 796 Q 504 794.8 503 798.5 L 506 800 L 507 806 L 510 807.5 L 510 810 Q 513 808.8 512 812.5 L 514 820 Q 517 818.8 516 822.5 L 517 827 Q 521 825.6 519 832.5 L 520 835.5 L 519 835.5 Q 520.1 832.2 517.5 833 L 516 829 Q 513.3 830.1 514 827.5 L 510 824.5 L 508.5 822 Q 506.3 822.8 507 820.5 L 504 819 L 502.5 816 Q 500.3 816.8 501 814.5 L 497 812 L 495.5 809 Q 493.3 809.8 494 807.5 L 490 806 Q 491.1 803.3 488.5 804 L 486 800 L 481 799 L 479.5 796 Q 476.9 796.7 478 794 L 475.5 794 L 472.5 790 L 468 789 L 466.5 786 Q 463.2 787.1 464 784.5 L 460 783 Q 461.1 780.3 458.5 781 L 455 780 L 453.5 777 L 450 776 Q 451.1 773.3 448.5 774 L 445 773 L 443.5 770 L 441 770 Q 442.1 767.3 439.5 768 L 435 766 Q 436.3 763 432.5 764 L 431 761 L 424 760 L 425.5 764 L 427.5 764 L 431.5 768 L 434 768 L 435.5 771 Q 438.1 770.3 437 773 L 439.5 773 L 442.5 777 L 447 778 L 448.5 781 Q 450.8 780.3 450 782.5 L 453 784 Q 451.9 786.7 454.5 786 L 457 787 L 458.5 790 L 461 791.5 Q 460.3 793.8 462.5 793 L 468 797.5 Q 467.3 799.8 469.5 799 Q 470.6 801.7 474 801 Q 472.9 803.7 475.5 803 L 478.5 807 Q 480.8 806.3 480 808.5 L 483 810 L 484.5 813 L 491 817.5 Q 490.3 819.8 492.5 819 L 494 822 L 500.5 827 L 503 827 L 504.5 830 Q 506.8 829.3 506 831.5 L 509 833 L 509 835 L 504 835 L 503.5 833 L 494.5 833 L 493.5 832 L 487 832 Q 488.4 828 481.5 830 L 475 829 Q 476.3 825.7 471.5 827 L 464 825 Q 465.3 822 461.5 823 L 458 822 Q 459.3 819 455.5 820 L 452 819 L 450.5 816 Q 447.2 817.1 448 814.5 L 442 812 L 438.5 807 L 435 806 L 433.5 803 L 431 801.5 Q 431.8 799.3 429.5 800 L 421 789.5 L 421 787 L 418 785.5 Q 418.8 783.3 416.5 784 L 411 774 Q 408 775.3 409 771.5 L 408 768 L 405 766.5 L 401 757 Q 398 758.3 399 754.5 L 396 753 L 395 747 Q 392.3 748.1 393 745.5 L 391 741 L 388 739.5 Q 388.7 736.9 386 738 L 386 735 Z " /><path fill="rgb(163,44,67)" stroke="rgb(163,44,67)" stroke-width="1" opacity="1" d="M 0 0 L 1024 0 L 1024 1024 L 0 1024 L 0 0 Z M 422 66 L 420 67 L 418 69 L 417 82 Q 414 83 414 89 L 400 111 L 397 113 L 397 115 L 395 115 L 384 134 Q 385 137 382 136 L 374 157 Q 375 161 372 160 L 371 167 Q 373 173 369 172 L 369 182 L 368 183 L 368 218 L 369 219 L 369 229 L 371 231 L 373 247 L 375 249 Q 373 254 377 253 L 379 261 Q 378 265 381 264 L 382 268 Q 381 271 384 270 L 385 277 Q 390 281 392 289 Q 391 291 394 290 L 394 293 L 399 301 Q 398 303 401 302 L 401 305 L 403 305 L 405 311 L 407 310 Q 407 315 411 317 L 411 319 L 414 319 L 424 330 Q 423 332 426 331 L 428 334 L 418 327 Q 415 328 416 325 L 411 323 L 406 317 Q 402 318 403 316 L 399 313 Q 395 314 396 311 L 394 310 Q 391 311 392 308 L 389 307 Q 386 308 387 305 L 385 305 L 376 300 Q 372 301 373 298 L 367 297 L 363 294 L 360 294 L 354 291 Q 349 293 350 290 L 349 290 L 340 287 L 334 287 L 332 285 L 312 284 L 310 282 L 295 282 L 293 284 L 281 284 L 280 285 Q 272 284 273 287 L 267 288 Q 262 287 263 290 L 255 291 L 249 295 L 245 295 L 244 297 L 242 297 L 240 300 L 237 301 Q 233 300 234 303 L 230 305 Q 227 304 228 307 L 226 308 Q 223 307 224 310 L 222 310 L 216 315 Q 212 314 213 317 L 198 324 L 189 324 L 188 326 Q 182 328 183 324 L 175 324 L 179 331 Q 178 334 181 333 L 182 337 L 187 342 L 186 343 L 191 352 L 195 368 L 197 370 L 202 383 Q 201 386 204 385 L 205 392 L 210 398 L 210 400 L 213 401 L 215 407 L 217 410 L 220 411 L 221 415 Q 220 417 223 416 L 230 426 Q 231 429 235 428 L 244 437 Q 247 436 246 439 L 258 447 Q 260 446 259 449 L 267 451 L 269 453 Q 271 452 270 455 L 272 454 Q 274 453 273 456 L 277 457 Q 280 456 279 459 L 287 460 L 291 463 Q 297 462 296 465 L 298 464 L 302 466 L 314 467 L 316 469 L 332 469 L 333 470 Q 337 471 339 469 L 354 469 L 354 467 L 371 466 L 373 464 L 385 462 L 391 459 L 392 460 L 375 474 L 373 474 L 368 480 L 366 481 L 364 484 L 360 485 L 358 488 L 355 489 L 354 493 Q 355 495 353 494 L 343 504 L 329 524 L 320 542 L 315 558 Q 317 564 313 563 L 312 580 L 310 582 L 310 609 L 312 611 L 312 621 L 313 622 Q 311 628 315 627 L 316 634 Q 315 638 318 637 L 320 655 L 322 657 L 322 668 L 320 670 L 319 682 L 316 687 L 316 690 L 322 689 Q 325 690 324 688 Q 326 684 332 685 L 334 683 L 342 682 L 344 680 L 353 680 L 354 679 L 384 679 L 386 677 L 402 676 L 407 673 L 412 673 L 426 666 Q 430 667 429 664 L 435 663 L 436 660 L 439 660 L 447 655 Q 449 656 448 653 L 454 649 Q 457 650 456 647 L 459 646 Q 458 643 461 644 L 462 641 L 467 639 L 469 634 L 472 633 Q 471 630 474 631 L 475 629 L 477 629 L 477 628 L 480 626 L 479 625 L 481 624 L 491 610 Q 490 607 493 608 L 492 607 L 495 603 Q 494 600 497 601 L 509 574 L 510 579 Q 509 583 512 582 L 513 592 L 515 594 L 517 606 L 519 608 L 520 616 L 522 618 Q 521 622 523 624 Q 521 630 525 629 L 525 636 L 526 641 L 528 643 L 528 649 L 530 656 Q 529 663 532 662 L 532 670 L 533 671 L 533 679 L 535 679 L 536 701 L 538 703 L 538 721 L 539 722 L 538 791 L 536 793 L 536 803 L 535 804 L 535 813 L 533 813 L 533 821 L 532 822 L 532 829 L 530 829 Q 531 837 528 843 Q 530 849 526 848 L 525 855 Q 526 859 523 858 L 522 868 L 519 874 Q 520 878 517 877 L 515 889 L 512 894 Q 513 896 510 895 L 509 899 Q 511 904 507 903 L 505 909 Q 506 912 503 911 L 502 915 Q 503 918 500 917 L 492 934 L 477 953 L 479 954 L 520 954 L 526 945 Q 525 941 528 942 L 528 940 L 531 938 L 532 935 Q 531 931 534 932 L 535 927 L 538 925 L 539 922 Q 538 918 541 919 L 542 916 Q 541 912 544 913 L 546 905 L 549 901 Q 547 895 551 896 L 555 881 L 558 876 Q 556 871 560 872 L 559 871 Q 557 865 561 866 L 562 860 Q 560 854 564 855 L 565 844 L 567 842 L 568 829 L 570 827 Q 569 821 571 820 L 571 811 L 573 810 L 572 809 L 572 800 L 574 798 L 574 786 L 575 785 L 575 765 L 577 764 L 577 722 L 575 721 L 575 705 L 574 704 L 574 692 L 572 691 L 570 666 L 568 664 Q 570 658 567 657 Q 569 650 565 651 L 565 645 L 564 644 Q 566 637 562 638 L 562 633 L 561 628 L 559 626 L 557 612 L 555 610 L 554 602 L 551 596 Q 552 591 549 592 L 548 583 L 546 581 L 544 569 L 541 563 L 541 559 Q 538 560 539 558 L 540 556 L 538 556 L 538 550 L 536 550 L 534 542 L 535 539 L 538 545 Q 537 548 540 547 Q 543 549 543 554 L 546 556 Q 545 558 548 557 L 556 568 L 558 568 L 575 584 L 576 587 L 579 588 Q 582 587 581 590 L 605 605 Q 608 604 607 607 L 617 611 Q 621 610 620 613 L 624 614 Q 628 613 627 616 L 641 618 L 643 620 L 648 621 L 657 621 L 659 623 L 693 623 L 693 621 L 701 621 L 702 622 L 702 620 L 712 620 L 714 618 L 740 618 L 742 620 L 756 621 Q 757 616 753 615 L 752 608 L 750 606 Q 752 600 749 599 L 750 571 L 752 568 L 752 535 L 750 533 L 749 520 L 747 518 L 747 514 L 744 508 L 743 501 L 736 487 L 733 484 Q 734 480 731 481 L 731 479 L 726 473 Q 727 468 725 469 L 714 458 Q 715 455 713 456 L 704 448 L 704 446 L 678 428 Q 674 429 675 426 L 672 425 Q 668 426 669 423 L 667 423 L 661 419 Q 657 420 658 418 L 657 418 L 651 415 Q 645 417 646 413 L 643 412 Q 638 413 639 410 L 629 409 L 643 407 L 645 405 L 650 405 L 657 403 L 659 401 L 666 400 L 692 387 Q 694 388 693 386 L 695 386 Q 694 383 698 384 L 698 382 L 702 381 L 711 374 Q 710 371 713 372 L 714 370 L 718 368 L 728 358 Q 727 354 730 355 L 731 352 L 734 351 Q 733 348 736 349 L 741 339 L 744 338 Q 743 334 746 335 L 746 333 L 753 322 Q 752 318 755 319 L 754 318 L 756 316 L 757 310 L 760 306 L 760 303 L 763 297 Q 761 291 765 292 L 764 291 L 764 286 L 766 286 L 766 281 L 768 280 L 767 279 L 767 271 L 769 270 L 769 254 L 770 253 L 770 206 L 772 205 L 772 200 L 774 195 L 775 193 L 771 193 L 764 197 Q 760 196 761 199 L 756 200 L 741 200 L 724 195 Q 718 197 719 193 L 713 192 Q 705 194 706 190 L 698 190 L 697 189 L 666 189 L 665 190 L 657 190 L 656 192 L 650 193 Q 643 191 644 195 L 633 197 Q 631 201 626 200 L 602 214 Q 599 213 600 216 L 579 232 L 575 238 Q 572 237 573 240 L 565 246 L 561 252 Q 562 255 560 254 L 556 258 L 551 268 L 550 268 L 551 256 L 553 254 L 553 210 L 551 209 L 550 193 L 546 180 Q 547 175 544 176 L 543 169 L 531 145 L 528 143 L 524 135 L 521 133 Q 520 128 516 126 Q 517 123 515 124 L 504 112 L 501 113 L 500 110 Q 497 111 498 109 L 492 104 Q 489 105 490 102 L 486 101 L 484 98 L 481 97 Q 477 98 478 95 L 475 94 Q 471 95 472 92 L 466 91 L 462 88 Q 457 89 458 87 L 457 87 Q 454 88 455 85 Q 448 85 445 81 Q 441 82 442 79 Q 435 79 432 74 Q 428 75 429 73 L 426 71 L 425 68 L 422 66 Z M 848 717 L 847 718 Q 842 717 843 720 L 837 721 L 835 723 L 827 724 L 825 726 Q 818 724 817 727 L 763 726 L 761 724 L 743 724 L 742 726 L 723 726 L 722 727 L 708 728 L 706 730 Q 701 729 700 731 Q 694 729 695 733 L 690 734 Q 685 733 686 736 L 683 735 L 682 737 L 672 741 Q 668 740 669 743 L 666 744 Q 662 743 663 746 L 654 750 L 639 761 Q 636 760 637 763 L 634 763 L 634 765 L 630 768 Q 631 770 629 769 L 627 772 L 625 771 L 624 773 L 615 780 L 613 784 L 613 786 Q 610 785 611 788 L 607 791 Q 608 793 606 792 L 597 804 Q 598 806 596 805 L 591 812 Q 592 814 589 813 L 588 818 L 581 827 Q 582 829 579 828 Q 580 831 577 833 Q 578 836 575 835 L 575 838 L 571 843 Q 572 845 569 844 L 569 847 L 565 852 Q 564 855 569 853 L 570 851 L 584 837 L 586 837 L 587 834 L 607 820 Q 610 821 609 818 L 614 816 Q 616 817 615 814 L 623 810 Q 625 811 624 808 L 627 807 Q 630 808 629 805 L 634 803 Q 637 804 636 801 L 640 800 Q 641 796 643 799 L 643 797 L 647 796 Q 649 797 648 794 L 653 793 L 663 787 L 665 787 Q 664 784 667 785 L 668 786 Q 667 782 671 784 L 671 782 L 679 780 Q 682 781 681 778 L 685 777 Q 689 778 688 775 L 695 774 Q 696 770 698 773 L 698 771 L 703 770 Q 708 772 707 768 L 715 767 L 721 764 Q 725 765 724 762 L 730 761 Q 735 763 734 759 Q 741 760 746 757 Q 752 759 751 755 L 757 755 L 763 752 Q 767 753 769 751 Q 772 750 771 753 L 765 754 L 749 762 L 740 764 L 732 769 L 726 770 L 716 776 L 711 777 L 697 785 L 694 785 L 689 789 L 655 805 L 653 808 L 646 810 L 626 823 Q 622 822 623 825 L 621 825 L 618 828 L 614 829 L 598 839 Q 594 838 595 841 L 593 842 Q 590 841 591 844 Q 585 844 582 848 L 587 850 L 600 850 L 602 852 L 621 852 L 622 853 L 667 853 L 668 852 L 679 852 L 681 850 L 693 849 L 695 847 Q 699 848 701 846 Q 705 847 704 844 L 720 840 L 734 833 L 748 823 Q 751 824 750 822 L 756 819 L 760 814 Q 763 815 762 813 L 766 810 L 769 806 Q 771 807 770 805 L 777 799 L 779 796 L 786 790 L 788 787 Q 790 788 789 786 L 792 784 L 792 782 L 800 774 L 800 771 L 802 771 Q 801 768 804 769 L 805 767 L 808 765 L 821 748 Q 823 749 822 747 L 826 744 Q 825 741 828 742 L 829 739 L 833 737 Q 832 734 835 735 L 837 731 Q 840 732 839 729 L 843 727 Q 842 724 845 725 L 845 723 Q 850 724 851 720 Q 852 715 848 717 Z M 384 734 L 385 737 L 385 739 Q 388 738 387 741 L 390 742 L 389 744 L 391 744 L 395 753 L 398 756 Q 397 759 400 758 L 400 761 L 405 769 Q 404 771 407 770 L 408 774 Q 407 776 410 775 L 416 785 Q 418 784 417 787 L 420 788 L 420 791 L 427 800 L 431 803 Q 430 805 433 804 L 434 807 L 438 808 L 447 816 Q 446 819 450 817 L 450 819 Q 456 820 461 824 Q 464 823 463 826 L 467 826 L 476 830 Q 481 828 480 832 L 482 831 Q 487 829 486 833 L 503 834 Q 504 838 511 836 L 507 829 L 502 826 L 493 818 L 493 816 L 487 813 L 484 809 L 481 808 Q 482 805 480 806 L 478 803 L 464 792 Q 461 793 462 791 L 460 789 L 458 786 L 455 785 L 452 782 L 446 776 L 444 776 L 442 774 L 439 772 L 437 769 L 433 767 L 432 765 L 434 765 L 441 771 Q 444 770 443 773 Q 455 778 464 787 L 466 787 L 468 791 L 471 791 L 475 795 L 477 795 L 481 801 L 484 801 L 490 807 L 492 807 L 500 816 Q 499 818 502 817 L 504 821 L 509 825 Q 508 827 511 826 L 517 834 Q 520 833 518 837 L 521 837 L 520 828 L 518 826 L 517 820 L 514 816 L 514 813 L 511 807 L 508 805 L 507 802 Q 508 798 506 799 L 503 794 L 498 789 L 498 787 L 482 770 L 480 770 L 477 766 Q 473 767 474 764 L 470 763 L 468 760 L 459 756 Q 456 757 457 754 L 454 754 L 446 750 L 439 749 L 437 747 L 432 746 Q 425 748 426 744 L 416 743 L 414 741 Q 407 742 405 739 Q 398 741 399 737 L 394 737 L 388 734 L 384 734 Z " /><path fill="rgb(163,44,67)" stroke="rgb(163,44,67)" stroke-width="1" opacity="1" d="M 779.5 748 L 784 748.5 L 773 751 Q 771.6 747 778.5 749 L 779.5 748 Z " /><path fill="rgb(163,44,67)" stroke="rgb(163,44,67)" stroke-width="1" opacity="1" d="M 425.5 761 L 430 762 L 429.5 764 Q 425.5 763.5 425.5 761 Z " /></svg>