<svg width="1024" height="1024" version="1.1" xmlns="http://www.w3.org/2000/svg" desc="Created with imagetracer.js version 0.2.1" ><path fill="rgb(234,158,55)" stroke="rgb(234,158,55)" stroke-width="1" opacity="0.47058823529411764" d="M 491.5 118 L 495.5 118 L 505.5 128 L 507 128 L 507 129.5 L 520.5 143 L 525.5 147 L 548 169.5 L 548 171 L 550 171 L 550 173 Q 552.7 171.9 552 174.5 L 562.5 186 Q 564.8 185.3 564 187.5 L 567 192 L 569 192 L 569 194 Q 571.7 192.9 571 195.5 L 582 207.5 L 585 213 Q 587.7 211.9 587 214.5 L 601 231.5 L 614 258.5 L 620 283.5 L 621 302.5 L 621 304.5 L 621 322.5 L 620 327.5 L 621 331.5 L 619 339.5 L 619 352.5 L 617 363.5 L 614 369.5 L 613 377.5 Q 609.5 382 609 389.5 L 616 383.5 Q 615.3 381.3 617.5 382 L 621 377 L 625 374.5 Q 624.3 372.3 626.5 373 L 633.5 367 L 637 366 Q 635.9 363.3 638.5 364 L 643.5 360 L 675.5 344 L 693.5 337 L 707.5 334 L 710.5 332 Q 712 334.5 713.5 331 L 718.5 330 L 720.5 331 Q 722 327.5 723.5 330 L 738.5 327 L 754.5 327 L 755.5 326 L 756.5 327 L 771.5 327 L 787.5 330 L 798.5 330 L 817.5 334 L 892.5 344 L 897 346 Q 896.3 349.1 899 348.5 L 899 355.5 L 895 364.5 L 895 368.5 L 891 377.5 L 890 384.5 L 888 386.5 L 884 400.5 L 878 412.5 L 877 418.5 L 875 420.5 L 874 426.5 L 868 439.5 L 867 445.5 L 860 461.5 L 860 464.5 L 849 488.5 L 841 500.5 L 841 503 Q 838.3 501.9 839 504.5 L 834 513 Q 831.3 511.9 832 514.5 L 829 519 Q 826.3 517.9 827 520.5 L 813.5 534 L 812 534 L 807.5 540 L 795 549 Q 796.1 551.7 793.5 551 L 768.5 569 L 758.5 574 L 744.5 579 L 707.5 587 L 705.5 586 L 699.5 588 L 685.5 589 L 684.5 590 L 680.5 589 L 680.5 590 L 687.5 595 L 690 595 Q 688.9 597.7 691.5 597 L 707 607 Q 705.8 610 709.5 609 L 726 621 Q 724.9 623.7 727.5 623 L 736.5 632 L 738 632 L 750 647 L 752 647 L 752 649 L 754 649 L 754 651 Q 756.7 649.9 756 652.5 L 757 655 Q 759.7 653.9 759 656.5 Q 766.9 664.1 772 674.5 L 783 699.5 L 792 740.5 L 792 750.5 L 794 758.5 L 794 769.5 L 796 779.5 L 795 784.5 L 796 785.5 L 796 798.5 L 797 799.5 L 797 814.5 L 798 815.5 L 798 830.5 L 799 833.5 L 798 837.5 L 799 838.5 L 799 852.5 L 800 853.5 L 801 874.5 L 798.5 880 L 794.5 881 L 753.5 873 L 742.5 872 L 736.5 870 L 725.5 869 L 719.5 867 L 714.5 867 L 708.5 865 L 703.5 865 L 692.5 861 L 675.5 858 L 669.5 855 L 659.5 853 L 657.5 851 L 650.5 850 L 638.5 844 L 635.5 844 L 617.5 835 L 599 823 Q 600.1 820.3 597.5 821 L 587 811.5 Q 587.8 809.3 585.5 810 L 576.5 801 L 575 801 L 575 799 L 573 799 Q 574.1 796.3 571.5 797 L 569 793 Q 566.3 794.1 567 791.5 L 561 785.5 L 543 759.5 L 514.5 704 L 511 710.5 L 511 714.5 L 508 718.5 L 507 724.5 L 505 726.5 L 501 740.5 L 498 744.5 L 498 747.5 L 481 781 L 479 781 L 479 784 Q 476.3 782.9 477 785.5 L 472 793 Q 469.3 791.9 470 794.5 L 465 801 L 463 801 L 463 803 L 461 803 L 461 805 L 459 805 Q 460.1 807.7 457.5 807 L 433.5 826 L 396.5 846 L 362.5 858 L 339.5 863 L 336.5 862 L 315.5 866 L 313.5 865 L 294.5 869 L 284.5 869 L 273.5 871 L 270.5 870 L 269.5 871 L 250.5 872 L 235.5 875 L 233.5 875 L 226.5 875 L 218.5 878 L 214 878 L 212 872.5 L 215 857.5 L 218 852.5 Q 218.4 839.4 223 830.5 L 223 825.5 Q 228.2 809.7 230 790.5 L 234 777.5 L 239 753.5 L 239 748.5 Q 243.5 741.5 244 730.5 L 247 725.5 L 248 718.5 L 260 690.5 L 275 666 Q 277.7 667.1 277 664.5 L 286 655.5 L 286 654 L 288 654 L 288 652 L 290 652 Q 288.9 649.3 291.5 650 L 301 642 L 301 640 L 303 640 L 303 638 L 305 638 L 305 636 Q 307.7 637.1 307 634.5 L 320.5 623 L 344.5 607 L 354 602.5 L 343.5 601 L 338.5 602 L 337.5 601 L 325.5 601 L 324.5 600 L 317.5 600 L 316.5 599 L 299.5 597 L 290.5 595 L 284.5 592 L 276.5 591 L 271.5 588 L 258.5 584 L 237 573 L 237 571 L 234 571 Q 235.1 568.3 232.5 569 L 210 551.5 Q 210.8 549.3 208.5 550 L 206 546 L 204 546 Q 205.1 543.3 202.5 544 L 200 540 Q 197.3 541.1 198 538.5 L 192 532.5 L 184 519 Q 181.3 520.1 182 517.5 L 174 505.5 L 165 487.5 L 164 482.5 L 161 478.5 L 155 461.5 L 142 433.5 L 140 425.5 L 134 412.5 L 133 406.5 L 131 404.5 L 128 393.5 L 121 380.5 L 120 375.5 L 122.5 372 L 126.5 370 L 135.5 369 L 150.5 365 L 152.5 365 L 157.5 365 L 162.5 363 L 167.5 363 L 191.5 358 L 194.5 359 L 195.5 358 L 206.5 357 L 210.5 358 Q 211.7 355.8 216.5 357 L 218.5 358 L 219.5 357 L 247.5 357 L 251.5 358 L 255.5 357 L 263.5 359 L 277.5 359 L 305.5 364 L 310.5 367 L 317.5 368 L 322.5 371 L 326.5 371 L 329.5 374 Q 337.3 373.7 340.5 378 L 344.5 378 L 347.5 381 L 352 381 Q 350.9 383.7 353.5 383 L 357 384 Q 355.7 387.3 360.5 386 Q 361.9 390 367 389 Q 365.8 392 369.5 391 L 372 392 Q 370.8 395 374.5 394 L 393.5 406 L 411 420 L 411 422 L 413 422 Q 411.9 424.7 414.5 424 L 423 431.5 L 417 415.5 L 401 386.5 L 395 369.5 L 388 337.5 L 388 328.5 L 386 320.5 L 386 306.5 L 392 273.5 Q 395.8 268.8 396 260.5 L 404 246.5 L 405 242 L 407 242 L 407 239 Q 410 240.3 409 236.5 L 415 226.5 L 415 224 Q 418 225.3 417 221.5 L 438 185 Q 441 186.3 440 182.5 L 452 165 Q 454.7 166.1 454 163.5 L 463 152 Q 465.7 153.1 465 150.5 L 472 145 L 474 140 Q 476.7 141.1 476 138.5 L 491.5 118 Z M 494 120 L 493 121 Q 490 120 491 123 L 489 123 Q 490 127 486 129 Q 487 131 484 130 L 484 133 L 479 139 Q 480 141 477 140 L 475 144 L 473 147 L 468 151 Q 469 153 466 152 L 464 156 Q 465 158 462 157 L 461 160 Q 458 159 459 162 L 457 162 Q 458 166 455 165 L 455 168 L 453 168 L 452 171 Q 449 170 450 174 L 448 174 L 448 177 L 446 177 L 443 183 Q 444 186 441 185 L 441 188 L 438 190 Q 439 193 436 192 Q 437 196 433 198 Q 434 201 431 200 L 431 204 L 430 204 L 420 222 Q 421 224 418 223 L 417 228 Q 418 230 415 229 L 415 233 L 413 233 L 412 237 Q 413 239 410 238 Q 411 243 407 245 Q 408 247 405 246 L 405 251 L 404 251 L 399 260 L 399 263 L 396 267 L 396 272 L 394 278 Q 395 280 392 279 L 388 303 L 389 307 Q 390 311 388 313 L 389 322 Q 386 323 390 325 L 389 327 L 394 352 L 393 355 L 395 355 L 394 359 Q 393 361 396 360 L 395 364 L 397 364 L 399 375 L 401 378 Q 400 382 403 381 L 405 390 L 410 399 Q 409 401 412 400 L 414 406 Q 413 409 416 408 L 418 413 Q 417 417 420 416 Q 420 421 424 425 L 423 427 L 425 427 L 427 434 Q 426 436 429 435 L 429 439 L 425 438 L 422 434 L 417 431 Q 418 428 415 429 L 415 427 L 413 427 L 413 425 L 408 423 L 404 418 Q 405 415 401 416 L 401 414 L 398 414 L 398 412 L 385 404 Q 386 401 382 402 L 382 400 Q 377 401 376 397 Q 373 398 374 395 L 371 395 L 371 394 L 368 392 Q 365 393 366 390 L 361 390 L 360 387 Q 355 388 356 385 L 353 384 Q 350 385 351 382 L 345 381 L 345 380 L 339 378 Q 335 379 336 376 L 332 375 Q 325 376 326 374 L 325 372 L 315 371 L 312 368 L 302 367 L 288 362 L 284 363 L 279 363 L 267 360 L 262 361 L 251 359 Q 246 358 245 360 L 241 359 Q 235 358 234 360 L 231 359 Q 226 358 225 360 L 221 359 L 216 360 L 211 359 L 202 360 Q 200 357 199 361 L 196 360 L 186 362 L 182 361 L 181 363 L 174 364 Q 172 361 171 365 L 169 364 Q 165 363 166 366 L 164 365 L 126 373 L 123 376 L 124 381 Q 123 383 126 382 L 129 391 Q 128 394 131 393 L 130 397 L 132 397 L 134 406 Q 137 407 135 409 L 137 411 L 140 422 Q 143 423 141 425 L 145 432 Q 143 436 147 435 L 146 437 L 151 448 Q 150 451 153 450 L 155 456 Q 154 459 157 458 L 156 461 L 159 465 L 159 468 L 164 477 L 165 482 Q 168 483 166 485 L 168 485 L 170 492 Q 169 494 172 493 Q 171 497 174 500 Q 173 502 176 501 L 178 508 L 185 518 Q 184 520 187 519 L 188 522 Q 187 524 190 523 L 192 528 Q 191 530 194 529 L 195 532 Q 194 534 197 533 L 198 536 Q 197 538 200 537 L 200 539 L 203 539 L 204 543 L 211 549 Q 210 551 213 550 L 213 552 L 216 552 L 216 554 L 221 557 Q 223 556 222 559 L 225 559 L 231 564 L 234 566 L 234 568 Q 238 567 237 570 L 240 571 Q 242 570 241 573 L 245 573 L 245 575 L 249 576 Q 251 575 250 578 L 255 579 Q 257 578 256 581 L 261 581 L 264 584 L 268 584 L 271 587 Q 275 586 277 588 Q 280 587 279 590 L 299 593 L 302 596 L 306 595 L 317 596 L 335 600 L 338 599 Q 343 598 345 600 L 349 599 L 360 600 L 361 603 L 345 610 Q 342 609 343 612 L 342 611 L 341 613 L 339 614 Q 336 613 337 616 L 335 617 Q 332 616 333 619 L 331 620 Q 328 619 329 622 L 328 621 L 327 623 L 325 624 Q 322 623 323 626 L 321 627 Q 318 626 319 629 L 314 632 L 312 635 L 310 635 Q 311 637 308 636 L 306 641 L 304 641 L 302 644 L 295 650 L 293 653 L 292 652 L 289 656 L 287 659 L 286 658 L 284 662 Q 281 661 282 664 L 280 664 L 280 666 L 278 666 L 278 669 L 276 669 L 273 674 Q 274 676 271 675 L 271 679 L 269 679 L 268 682 Q 269 684 266 683 Q 267 688 263 690 Q 264 694 261 693 L 260 697 Q 261 700 258 699 L 258 703 L 254 711 Q 255 714 252 713 L 251 721 L 248 725 L 247 734 L 244 738 L 242 753 L 239 757 L 231 805 L 228 809 L 223 842 L 221 851 L 218 855 L 215 875 L 219 876 Q 221 877 220 874 L 223 873 L 227 874 L 230 873 L 232 873 L 241 871 L 246 872 L 246 870 L 251 871 L 253 870 L 255 870 L 264 869 Q 265 871 267 868 L 270 869 L 281 867 L 284 868 L 304 864 L 307 865 L 310 863 L 312 864 L 327 861 L 331 862 L 333 861 L 335 861 L 348 858 L 353 858 L 369 853 Q 373 854 372 851 L 375 852 L 375 850 L 379 851 L 379 849 Q 383 850 386 847 Q 390 848 389 846 L 391 846 Q 393 847 392 844 L 399 842 Q 401 843 400 840 L 407 838 Q 409 839 408 836 L 414 834 Q 417 835 416 833 L 418 833 L 418 831 Q 424 830 429 826 Q 431 827 430 824 L 433 823 Q 435 824 434 822 L 436 822 L 436 820 L 439 819 Q 441 820 440 817 L 443 816 Q 445 817 444 814 L 447 813 Q 449 814 448 812 L 450 812 L 450 810 L 454 808 Q 453 805 456 806 L 456 804 L 460 803 L 464 798 Q 466 799 465 795 L 467 795 L 469 790 L 472 789 Q 471 786 474 787 L 474 784 L 476 784 L 476 781 L 478 781 L 479 779 Q 478 776 481 777 L 481 773 L 483 773 L 484 771 Q 483 767 486 768 L 487 764 Q 486 761 489 762 L 489 759 L 492 756 L 492 753 L 495 749 Q 494 744 497 745 L 498 739 Q 502 737 501 731 L 504 728 Q 503 723 505 722 Q 504 719 507 720 L 507 716 L 511 708 L 511 704 L 516 697 Q 519 699 517 705 L 519 708 Q 518 710 521 709 L 527 723 Q 526 725 529 724 L 531 731 Q 530 733 533 732 L 532 735 L 535 739 Q 534 741 537 740 L 536 742 L 539 747 Q 538 749 541 748 L 540 750 L 542 750 L 543 755 L 550 765 Q 549 767 552 766 L 554 771 Q 553 773 556 772 L 557 775 Q 556 777 559 776 L 561 781 Q 560 783 563 782 L 564 785 Q 563 787 566 786 L 567 789 Q 566 791 569 790 L 569 792 L 572 792 L 573 796 L 578 800 Q 577 803 581 801 L 582 804 L 582 805 L 585 805 Q 584 808 587 807 L 587 809 L 590 811 Q 589 813 592 812 L 592 814 L 594 814 L 594 816 L 598 818 Q 600 817 599 820 L 602 822 Q 601 825 605 823 L 605 825 L 611 827 L 612 830 Q 617 829 620 833 Q 622 832 621 835 L 625 835 L 628 838 L 638 841 L 642 844 Q 647 842 646 846 Q 648 848 654 847 L 657 850 Q 665 849 669 854 L 679 855 L 687 859 L 714 863 L 726 866 L 729 868 L 774 876 L 776 875 L 788 876 L 795 878 L 799 877 L 798 868 Q 801 866 797 865 L 798 863 L 797 858 L 798 853 L 796 842 L 797 838 L 796 829 Q 798 827 795 826 L 796 824 L 795 819 L 796 814 L 794 811 L 795 809 L 794 804 L 795 798 Q 791 796 794 795 Q 795 790 793 789 L 794 785 L 792 774 L 793 770 L 792 768 L 792 766 L 791 757 Q 793 755 790 754 L 791 750 Q 787 748 790 747 L 787 729 L 788 727 Q 785 728 786 725 Q 789 723 785 722 L 786 719 L 784 718 L 785 715 L 782 709 L 783 706 L 781 705 L 778 693 Q 774 691 777 690 L 773 683 Q 774 679 771 680 Q 770 674 766 670 Q 767 667 765 668 L 765 667 L 763 666 L 762 664 Q 763 661 760 662 L 759 660 Q 760 657 757 658 L 757 656 L 755 656 L 755 654 L 753 654 L 753 652 L 751 652 L 750 648 L 747 647 Q 748 644 745 645 L 745 643 L 743 643 L 743 641 L 741 641 L 741 639 L 740 639 L 740 637 Q 737 638 738 635 L 735 635 L 734 632 Q 731 633 732 630 L 730 630 L 730 628 L 726 626 L 726 624 L 723 624 Q 724 621 722 622 L 720 619 L 712 614 Q 709 615 710 612 L 707 612 L 707 610 L 704 610 L 704 608 L 701 607 Q 702 604 698 605 L 698 603 Q 694 604 693 600 Q 690 601 691 598 L 687 598 L 687 596 L 685 595 Q 682 596 683 593 L 675 590 L 677 587 L 680 588 L 694 586 Q 695 588 697 585 L 699 586 Q 702 587 701 585 L 703 585 L 730 580 L 751 574 Q 754 575 753 572 L 760 570 Q 763 571 762 569 L 764 569 L 764 567 L 769 566 Q 770 562 772 565 L 772 563 L 775 562 Q 777 563 776 560 L 779 559 Q 781 560 780 558 L 782 558 L 782 556 L 785 555 Q 787 556 786 553 L 789 552 Q 791 553 790 550 L 793 549 Q 795 550 794 547 L 802 542 Q 804 543 803 540 L 805 540 L 805 537 L 808 536 Q 810 537 809 534 L 811 534 L 814 530 L 817 528 L 818 525 L 822 523 Q 821 520 824 521 L 826 516 L 829 515 Q 828 512 831 513 L 831 510 L 833 510 L 836 504 L 838 504 Q 837 499 840 500 L 841 496 L 843 496 Q 841 490 845 491 L 846 489 Q 845 485 848 486 Q 847 482 850 481 L 851 481 L 851 476 L 853 476 L 854 474 Q 852 468 856 469 L 857 463 L 860 460 L 861 452 L 863 450 L 864 444 L 867 440 L 867 436 L 871 428 Q 869 422 873 423 L 874 417 L 877 414 Q 876 409 878 408 Q 877 405 880 406 L 881 401 Q 880 397 883 398 L 884 394 Q 883 389 886 390 L 888 382 Q 887 379 890 380 L 891 370 L 894 366 L 897 351 L 894 346 L 883 345 L 877 343 L 873 344 L 850 341 L 821 335 L 816 336 L 789 332 L 783 330 L 775 330 L 774 331 L 767 329 L 762 329 Q 760 327 759 330 L 752 329 Q 750 327 749 330 L 747 329 L 742 330 Q 737 331 736 329 L 735 331 L 731 330 Q 729 333 728 331 L 711 335 Q 706 333 707 337 L 706 336 L 702 338 Q 700 336 699 339 L 697 338 L 696 340 L 686 343 Q 682 342 683 345 L 675 348 Q 670 347 671 350 L 666 352 Q 662 351 663 354 Q 655 355 650 360 Q 647 359 648 362 Q 637 366 630 374 Q 627 373 628 376 L 621 380 L 619 385 L 615 388 Q 616 390 613 389 L 613 391 L 610 393 Q 611 395 608 394 L 608 397 L 603 398 Q 602 394 605 395 L 605 391 L 608 386 L 609 379 L 613 371 L 614 360 L 618 342 Q 619 337 617 336 L 619 326 L 618 321 L 619 316 Q 620 311 618 310 L 619 306 L 618 301 L 619 295 Q 615 293 618 292 L 616 278 L 617 276 Q 614 277 615 274 Q 618 272 614 271 L 615 268 L 613 267 L 614 264 L 612 263 L 610 257 Q 611 253 608 254 L 605 246 Q 606 241 603 242 Q 602 236 598 232 Q 599 229 596 230 L 595 227 L 589 222 L 588 220 Q 589 217 586 218 L 585 216 Q 586 213 584 214 L 574 201 Q 571 202 572 199 L 570 199 L 569 197 Q 570 194 567 195 L 567 193 L 563 191 Q 564 188 561 189 L 557 184 Q 558 181 555 182 L 553 178 Q 550 179 551 176 L 549 176 L 548 174 Q 549 171 547 172 L 541 165 Q 538 166 539 163 L 537 163 L 537 161 L 535 161 L 535 159 L 533 159 L 533 157 L 532 157 L 526 150 Q 523 151 524 148 L 521 146 Q 518 147 519 145 L 516 143 L 514 139 L 509 135 L 509 133 L 506 133 L 506 131 L 504 131 L 504 129 Q 501 130 502 128 L 500 126 L 500 125 L 494 120 Z " /><path fill="rgb(234,158,55)" stroke="rgb(234,158,55)" stroke-width="1" opacity="0.47058823529411764" d="M 499 132 L 503 134 L 503 137 Q 496.6 139.1 499 132 Z " /><path fill="rgb(234,158,55)" stroke="rgb(234,158,55)" stroke-width="1" opacity="0.47058823529411764" d="M 483.5 141 L 486 142.5 L 485 145 L 483 145 L 483 148 Q 479.7 146.9 481 151 L 479 151 Q 480.1 153.7 477.5 153 L 476 156 L 472 157 L 472 160 L 470 160 L 470 162 Q 467.3 160.9 468 163.5 Q 466.8 166.8 463 166 Q 464.5 169.8 461.5 169 Q 458.5 167.5 461.5 166 L 463 165.5 Q 460.7 164.3 463.5 163 Q 465.8 163.8 465 161.5 L 467 158 Q 469.7 159.1 469 156.5 L 474 150 L 480 148 L 480 144 Q 482.7 145.1 482 142.5 L 483.5 141 Z " /><path fill="rgb(234,158,55)" stroke="rgb(234,158,55)" stroke-width="1" opacity="0.47058823529411764" d="M 394 302 Q 398.5 300.3 397 305.5 L 396 310.5 L 393.5 313 L 393 304.5 L 394 302 Z " /><path fill="rgb(234,158,55)" stroke="rgb(234,158,55)" stroke-width="1" opacity="0.47058823529411764" d="M 831.5 344 Q 841.8 342.8 847 346.5 L 846.5 348 L 839.5 348 L 832.5 346 L 831.5 344 Z " /><path fill="rgb(234,158,55)" stroke="rgb(234,158,55)" stroke-width="1" opacity="0.47058823529411764" d="M 880.5 366 Q 884.3 364.8 883 368.5 L 882 372 Q 879.3 370.9 880 373.5 L 877 375 Q 875.8 369.7 879 370.5 L 879 367.5 L 880.5 366 Z " /><path fill="rgb(234,158,55)" stroke="rgb(234,158,55)" stroke-width="1" opacity="0.47058823529411764" d="M 163.5 378 Q 167.5 377.5 168 380.5 L 163.5 381 Q 160.5 379.5 163.5 378 Z " /><path fill="rgb(234,158,55)" stroke="rgb(234,158,55)" stroke-width="1" opacity="0.47058823529411764" d="M 203.5 378 Q 207.7 376.9 206 381 Q 203 380 204 383 L 201.5 383 L 199.5 380 L 203.5 378 Z " /><path fill="rgb(234,158,55)" stroke="rgb(234,158,55)" stroke-width="1" opacity="0.47058823529411764" d="M 149.5 379 L 152 380 Q 153.2 383.7 148 382 L 149.5 379 Z " /><path fill="rgb(234,158,55)" stroke="rgb(234,158,55)" stroke-width="1" opacity="0.47058823529411764" d="M 155 379 Q 159.6 377.8 161 380.5 Q 160.3 382.8 156.5 382 L 155 379 Z " /><path fill="rgb(234,158,55)" stroke="rgb(234,158,55)" stroke-width="1" opacity="0.47058823529411764" d="M 143.5 381 Q 146.8 379.9 146 382.5 L 144.5 382 L 143.5 381 Z " /><path fill="rgb(234,158,55)" stroke="rgb(234,158,55)" stroke-width="1" opacity="0.47058823529411764" d="M 182.5 385 L 187.5 386 L 192 385 Q 193.5 388.7 190.5 388 Q 189 385.5 187.5 389 L 183.5 390 L 181 389 L 182.5 385 Z " /><path fill="rgb(234,158,55)" stroke="rgb(234,158,55)" stroke-width="1" opacity="0.47058823529411764" d="M 152 435 L 155 435 L 155 437 Q 157.7 435.9 157 438.5 L 159 446.5 Q 157.5 449.5 156 446.5 Q 152 442.3 152 435 Z " /><path fill="rgb(234,158,55)" stroke="rgb(234,158,55)" stroke-width="1" opacity="0.47058823529411764" d="M 786.5 772 Q 788.8 771.3 788 773.5 Q 786.5 776.5 785 773.5 L 786.5 772 Z " /><path fill="rgb(234,158,55)" stroke="rgb(234,158,55)" stroke-width="1" opacity="0.47058823529411764" d="M 786 779 Q 789.8 777.5 789 780.5 L 788 783 L 785 781.5 L 786 779 Z " /><path fill="rgb(234,158,55)" stroke="rgb(234,158,55)" stroke-width="1" opacity="0.47058823529411764" d="M 786 786 L 789 786 L 789 791 L 786 791 L 786 786 Z " /><path fill="rgb(234,158,55)" stroke="rgb(234,158,55)" stroke-width="1" opacity="0.47058823529411764" d="M 787 793 L 790 794.5 L 788.5 798 Q 784.8 799.3 786 795.5 L 787 793 Z " /><path fill="rgb(234,158,55)" stroke="rgb(234,158,55)" stroke-width="1" opacity="0.47058823529411764" d="M 787 801 Q 791.1 799.3 790 803.5 L 787 805 L 787 801 Z " /><path fill="rgb(234,158,55)" stroke="rgb(234,158,55)" stroke-width="1" opacity="0.47058823529411764" d="M 240.5 820 L 242 822.5 L 240 832.5 L 241 838 L 238 838 Q 239 841 236 840 L 238 823.5 L 240.5 820 Z " /><path fill="rgb(234,158,55)" stroke="rgb(234,158,55)" stroke-width="1" opacity="0.47058823529411764" d="M 770.5 845 L 771 848 Q 768.3 849.1 769 846.5 L 770.5 845 Z " /><path fill="rgb(234,158,55)" stroke="rgb(234,158,55)" stroke-width="1" opacity="0.47058823529411764" d="M 770.5 850 L 773 851.5 L 771.5 854 Q 767.8 855.3 769 851.5 L 770.5 850 Z " /><path fill="rgb(234,158,55)" stroke="rgb(234,158,55)" stroke-width="1" opacity="0.47058823529411764" d="M 784 858 L 787 858 L 787 864 L 782 863 L 782 860 Q 785 861 784 858 Z " /><path fill="rgb(234,158,55)" stroke="rgb(234,158,55)" stroke-width="1" opacity="0.47058823529411764" d="M 761 862 L 765 862 L 765 863.5 Q 763.8 866.3 762.5 864 Q 759.9 864.7 761 862 Z " /><path fill="rgb(232,154,60)" stroke="rgb(232,154,60)" stroke-width="1" opacity="0.996078431372549" d="M 490 116 L 499 117 L 500 121 L 502 121 Q 500.9 123.7 503.5 123 L 506 127.5 L 495.5 118 Q 489 117 488 121.5 L 481.5 131 L 481 128.5 L 484.5 124 L 486 124 L 486 121 L 488 121 L 488 118 Q 491 119 490 116 Z " /><path fill="rgb(232,154,60)" stroke="rgb(232,154,60)" stroke-width="1" opacity="0.996078431372549" d="M 507 128 L 509 128 L 509 130 Q 511.7 128.9 511 131.5 L 515 134 L 515 136 Q 517.7 134.9 517 137.5 L 520 139 L 521 142.5 L 507 129.5 L 507 128 Z " /><path fill="rgb(232,154,60)" stroke="rgb(232,154,60)" stroke-width="1" opacity="0.996078431372549" d="M 479.5 132 L 481 132.5 L 476 140 Q 473.3 138.9 474 141.5 L 472 145 L 465 150.5 L 463 153.5 Q 456.7 158.1 454 165 Q 451 166 452 163 Q 455 164.3 454 160.5 L 461 155 L 461 152 L 463 152 L 463 150 Q 465.7 151.1 465 148.5 L 472 143 L 472 140 Q 474.7 141.1 474 138.5 L 476 135 Q 478.7 136.1 478 133.5 L 479.5 132 Z " /><path fill="rgb(232,154,60)" stroke="rgb(232,154,60)" stroke-width="1" opacity="0.996078431372549" d="M 522 143 L 524 143 L 524 145 L 526 145 Q 524.9 147.7 527.5 147 L 534 152.5 L 533.5 154 Q 536.1 153.3 535 156 L 538 156 L 538 158 Q 540.7 156.9 540 159.5 L 544 162 L 547.5 167 Q 549.8 166.3 549 168.5 L 550 171 L 556 175.5 Q 555.3 177.8 557.5 177 L 557.5 179 L 560.5 181 L 562 184 Q 564.7 182.9 564 185.5 L 568 188 L 569 192 L 571 192 Q 569.9 194.7 572.5 194 L 582 207 L 584 207 L 584 209 Q 586.7 207.9 586 210.5 L 587 213 L 589 213 L 589 215 L 591 215 L 591 217 Q 593.7 215.9 593 218.5 L 594 221 Q 596.7 219.9 596 222.5 L 597 225 Q 599.7 223.9 599 226.5 L 600 229 Q 602.7 227.9 602 230.5 L 610 246 L 607 244.5 L 601 231.5 L 587 213 Q 584.3 214.1 585 211.5 L 571 194 L 569 194 L 569 192 Q 566.3 193.1 567 190.5 L 564 186 L 560 183.5 L 552 173 L 550 173 L 550 171 Q 547.3 172.1 548 169.5 L 525.5 147 L 524 147 L 522 143 Z " /><path fill="rgb(232,154,60)" stroke="rgb(232,154,60)" stroke-width="1" opacity="0.996078431372549" d="M 450.5 166 L 452 166.5 L 440 182.5 L 440 185 Q 437.3 183.9 438 186.5 L 425.5 206 L 425 203.5 Q 428.8 202.2 428 198 Q 431 199.3 430 195.5 Q 433.7 194.2 433 190 Q 436 191.3 435 187.5 L 443 175 L 445 175 L 445 172 L 447 172 L 447 169 Q 449.7 170.1 449 167.5 L 450.5 166 Z " /><path fill="rgb(232,154,60)" stroke="rgb(232,154,60)" stroke-width="1" opacity="0.996078431372549" d="M 423 207 Q 425.7 205.9 425 208.5 Q 419 214.8 417 224 Q 414 225.3 415 221.5 Q 418.6 219.6 418 215 Q 421 216.3 420 212.5 L 423 207 Z " /><path fill="rgb(232,154,60)" stroke="rgb(232,154,60)" stroke-width="1" opacity="0.996078431372549" d="M 414.5 225 L 415 226.5 L 412.5 230 L 412 227.5 L 414.5 225 Z " /><path fill="rgb(232,154,60)" stroke="rgb(232,154,60)" stroke-width="1" opacity="0.996078431372549" d="M 410.5 231 Q 413.8 232.8 410 234.5 L 409 239 Q 406 240.3 407 236.5 L 410.5 231 Z " /><path fill="rgb(232,154,60)" stroke="rgb(232,154,60)" stroke-width="1" opacity="0.996078431372549" d="M 405.5 240 Q 408.1 239.3 407 242 Q 404.3 240.9 405 243.5 L 396.5 260 L 396 256.5 L 397 254 Q 400.3 255.3 399 250.5 Q 403 249.1 402 244 Q 405 245.3 404 241.5 L 405.5 240 Z " /><path fill="rgb(232,154,60)" stroke="rgb(232,154,60)" stroke-width="1" opacity="0.996078431372549" d="M 609 247 Q 611.7 245.9 611 248.5 L 612 253 L 614 253.5 L 614 255.5 L 620 274.5 L 621 284.5 L 620 284.5 L 616 264.5 L 609 247 Z " /><path fill="rgb(232,154,60)" stroke="rgb(232,154,60)" stroke-width="1" opacity="0.996078431372549" d="M 395.5 261 L 396 263.5 L 392.5 273 L 392 269.5 L 393 264.5 L 395.5 261 Z " /><path fill="rgb(232,154,60)" stroke="rgb(232,154,60)" stroke-width="1" opacity="0.996078431372549" d="M 391.5 275 L 392 276.5 L 389 287.5 L 387 305.5 L 385.5 308 L 384 305.5 L 388 282.5 L 391.5 275 Z " /><path fill="rgb(232,154,60)" stroke="rgb(232,154,60)" stroke-width="1" opacity="0.996078431372549" d="M 620 286 Q 623 284.8 622 288.5 L 621 291.5 Q 623.5 293 622 298.5 L 621 298.5 L 620 296.5 L 620 286 Z " /><path fill="rgb(232,154,60)" stroke="rgb(232,154,60)" stroke-width="1" opacity="0.996078431372549" d="M 621.5 300 L 623 302.5 Q 620.5 304 622 309.5 L 623 313.5 L 621.5 319 L 621 304.5 L 620 303.5 L 621.5 300 Z " /><path fill="rgb(232,154,60)" stroke="rgb(232,154,60)" stroke-width="1" opacity="0.996078431372549" d="M 385.5 309 L 386 317.5 L 384 316.5 L 385.5 309 Z " /><path fill="rgb(232,154,60)" stroke="rgb(232,154,60)" stroke-width="1" opacity="0.996078431372549" d="M 385.5 319 L 387 321.5 L 388 335.5 L 386 334.5 L 387 331.5 L 385 324.5 L 385.5 319 Z " /><path fill="rgb(232,154,60)" stroke="rgb(232,154,60)" stroke-width="1" opacity="0.996078431372549" d="M 621 320 Q 624.3 318.7 623 323.5 L 621.5 329 Q 619 328 620 323.5 L 621 320 Z " /><path fill="rgb(232,154,60)" stroke="rgb(232,154,60)" stroke-width="1" opacity="0.996078431372549" d="M 741 325 L 747.5 326 Q 748.7 323.8 753.5 325 L 754.5 327 L 741.5 327 L 741 325 Z " /><path fill="rgb(232,154,60)" stroke="rgb(232,154,60)" stroke-width="1" opacity="0.996078431372549" d="M 759.5 325 L 770 326.5 L 756.5 327 L 756.5 326 L 759.5 325 Z " /><path fill="rgb(232,154,60)" stroke="rgb(232,154,60)" stroke-width="1" opacity="0.996078431372549" d="M 734.5 326 L 740 326.5 L 737.5 328 L 731.5 328 L 723 330 Q 721.6 326.3 727.5 328 L 734.5 326 Z " /><path fill="rgb(232,154,60)" stroke="rgb(232,154,60)" stroke-width="1" opacity="0.996078431372549" d="M 775.5 326 L 797 329.5 L 787.5 330 L 786.5 329 L 772 327.5 L 775.5 326 Z " /><path fill="rgb(232,154,60)" stroke="rgb(232,154,60)" stroke-width="1" opacity="0.996078431372549" d="M 719.5 328 L 722 329.5 L 719.5 331 L 717.5 331 Q 712.7 332.3 714 329 L 717.5 330 L 719.5 328 Z " /><path fill="rgb(232,154,60)" stroke="rgb(232,154,60)" stroke-width="1" opacity="0.996078431372549" d="M 710 330 L 713 331.5 Q 711.5 334.5 710 331.5 L 710 330 Z " /><path fill="rgb(232,154,60)" stroke="rgb(232,154,60)" stroke-width="1" opacity="0.996078431372549" d="M 799.5 330 L 803 330.5 L 799.5 331 L 799.5 330 Z " /><path fill="rgb(232,154,60)" stroke="rgb(232,154,60)" stroke-width="1" opacity="0.996078431372549" d="M 706.5 331 L 709 332.5 L 707.5 334 L 703.5 334 L 687.5 339 L 676 344 Q 674.9 341.3 677.5 342 L 688.5 337 L 704.5 333 L 706.5 331 Z " /><path fill="rgb(232,154,60)" stroke="rgb(232,154,60)" stroke-width="1" opacity="0.996078431372549" d="M 805.5 331 L 808 331.5 L 805.5 332 L 805.5 331 Z " /><path fill="rgb(232,154,60)" stroke="rgb(232,154,60)" stroke-width="1" opacity="0.996078431372549" d="M 817.5 331 L 858 338.5 L 853.5 339 L 845.5 337 L 817.5 334 L 815 332.5 L 817.5 331 Z " /><path fill="rgb(232,154,60)" stroke="rgb(232,154,60)" stroke-width="1" opacity="0.996078431372549" d="M 620.5 332 L 622 338.5 L 619.5 351 L 619 339.5 L 620.5 332 Z " /><path fill="rgb(232,154,60)" stroke="rgb(232,154,60)" stroke-width="1" opacity="0.996078431372549" d="M 811.5 332 L 814 332.5 L 811.5 333 L 811.5 332 Z " /><path fill="rgb(232,154,60)" stroke="rgb(232,154,60)" stroke-width="1" opacity="0.996078431372549" d="M 387 338 Q 391 336.6 389 343.5 L 396 372 Q 393 373.3 394 369.5 L 391 360.5 L 387 338 Z " /><path fill="rgb(232,154,60)" stroke="rgb(232,154,60)" stroke-width="1" opacity="0.996078431372549" d="M 860.5 339 L 864 339.5 L 860.5 340 L 860.5 339 Z " /><path fill="rgb(232,154,60)" stroke="rgb(232,154,60)" stroke-width="1" opacity="0.996078431372549" d="M 867.5 340 L 870 340.5 L 867.5 341 L 867.5 340 Z " /><path fill="rgb(232,154,60)" stroke="rgb(232,154,60)" stroke-width="1" opacity="0.996078431372549" d="M 874.5 340 L 895.5 343 L 900 346 L 899.5 354 L 899 348 L 897 348 Q 898.1 345.3 895.5 346 L 892.5 344 L 872 341.5 L 874.5 340 Z " /><path fill="rgb(232,154,60)" stroke="rgb(232,154,60)" stroke-width="1" opacity="0.996078431372549" d="M 673.5 343 Q 675.8 342.3 675 344.5 L 637 364 Q 638.1 366.7 635.5 366 L 625 373 L 622.5 377 Q 620.3 376.3 621 378.5 L 616 382 L 608.5 391 L 609 389.5 L 616.5 364 L 617 367.5 L 612 384 L 614 384 L 614 382 L 616 382 L 616 380 L 618 380 L 618 378 Q 620.7 379.1 620 376.5 L 627 372 Q 625.5 368.2 628.5 369 L 631 368 Q 629.9 365.3 632.5 366 L 635 365 Q 633.9 362.3 636.5 363 L 641 361 Q 639.9 358.3 642.5 359 L 647.5 356 L 649 356.5 Q 648.3 354.3 650.5 355 L 673.5 343 Z " /><path fill="rgb(232,154,60)" stroke="rgb(232,154,60)" stroke-width="1" opacity="0.996078431372549" d="M 618.5 353 L 619 356.5 L 618 356.5 L 618.5 353 Z " /><path fill="rgb(232,154,60)" stroke="rgb(232,154,60)" stroke-width="1" opacity="0.996078431372549" d="M 216.5 355 L 224.5 356 L 227.5 355 Q 228.8 357.3 233.5 356 L 237.5 355 Q 239 357.5 244.5 356 L 247.5 355 L 254 356.5 L 248.5 358 L 247.5 357 L 219.5 357 L 217.5 358 Q 216.3 355.8 211.5 357 L 207.5 358 L 206.5 356 L 215.5 356 L 216.5 355 Z " /><path fill="rgb(232,154,60)" stroke="rgb(232,154,60)" stroke-width="1" opacity="0.996078431372549" d="M 198.5 356 Q 205.4 354 204 358 L 192.5 359 L 191.5 357 Q 197 358.5 198.5 356 Z " /><path fill="rgb(232,154,60)" stroke="rgb(232,154,60)" stroke-width="1" opacity="0.996078431372549" d="M 262.5 356 L 276 358.5 L 263.5 359 L 261 357.5 L 262.5 356 Z " /><path fill="rgb(232,154,60)" stroke="rgb(232,154,60)" stroke-width="1" opacity="0.996078431372549" d="M 898.5 356 L 899 358.5 Q 896.8 359.8 898 364.5 L 894.5 372 L 894 369.5 L 898.5 356 Z " /><path fill="rgb(232,154,60)" stroke="rgb(232,154,60)" stroke-width="1" opacity="0.996078431372549" d="M 186.5 357 L 190 358.5 L 162.5 363 L 151.5 366 L 149.5 366 L 141 367 Q 139.8 364 143.5 365 L 145.5 365 L 147.5 364 L 149.5 365 L 152.5 363 L 154.5 364 Q 156 360.5 157.5 363 L 186.5 357 Z " /><path fill="rgb(232,154,60)" stroke="rgb(232,154,60)" stroke-width="1" opacity="0.996078431372549" d="M 256.5 357 L 260 357.5 L 256.5 358 L 256.5 357 Z " /><path fill="rgb(232,154,60)" stroke="rgb(232,154,60)" stroke-width="1" opacity="0.996078431372549" d="M 278.5 359 L 281 359.5 L 278.5 360 L 278.5 359 Z " /><path fill="rgb(232,154,60)" stroke="rgb(232,154,60)" stroke-width="1" opacity="0.996078431372549" d="M 617.5 359 L 618 361.5 L 617 361.5 L 617.5 359 Z " /><path fill="rgb(232,154,60)" stroke="rgb(232,154,60)" stroke-width="1" opacity="0.996078431372549" d="M 284.5 360 L 287 360.5 L 284.5 361 L 284.5 360 Z " /><path fill="rgb(232,154,60)" stroke="rgb(232,154,60)" stroke-width="1" opacity="0.996078431372549" d="M 289.5 360 Q 295.6 359.3 298 361 Q 299.1 363.7 296.5 363 Q 295.3 360.8 290.5 362 L 289.5 360 Z " /><path fill="rgb(232,154,60)" stroke="rgb(232,154,60)" stroke-width="1" opacity="0.996078431372549" d="M 301.5 363 L 304 363.5 L 301.5 364 L 301.5 363 Z " /><path fill="rgb(232,154,60)" stroke="rgb(232,154,60)" stroke-width="1" opacity="0.996078431372549" d="M 306.5 364 Q 313.8 363.7 317 367.5 L 314.5 368 L 306.5 365 L 306.5 364 Z " /><path fill="rgb(232,154,60)" stroke="rgb(232,154,60)" stroke-width="1" opacity="0.996078431372549" d="M 138.5 366 L 139.5 368 L 137 367.5 L 138.5 366 Z " /><path fill="rgb(232,154,60)" stroke="rgb(232,154,60)" stroke-width="1" opacity="0.996078431372549" d="M 132 367 L 136 368.5 L 132 369 L 132 367 Z " /><path fill="rgb(232,154,60)" stroke="rgb(232,154,60)" stroke-width="1" opacity="0.996078431372549" d="M 128 368 Q 132.1 366.7 131 370 Q 126.9 371.3 128 368 Z " /><path fill="rgb(232,154,60)" stroke="rgb(232,154,60)" stroke-width="1" opacity="0.996078431372549" d="M 318.5 368 L 325 369 Q 326.3 372 322.5 371 Q 318.5 370.5 318.5 368 Z " /><path fill="rgb(232,154,60)" stroke="rgb(232,154,60)" stroke-width="1" opacity="0.996078431372549" d="M 124.5 369 Q 127.1 368.3 126 371 L 121 373.5 L 120 377 Q 117 378.3 118 374.5 L 119 372 L 124.5 369 Z " /><path fill="rgb(232,154,60)" stroke="rgb(232,154,60)" stroke-width="1" opacity="0.996078431372549" d="M 327.5 371 L 336 374.5 L 333.5 375 L 329.5 374 L 327.5 371 Z " /><path fill="rgb(232,154,60)" stroke="rgb(232,154,60)" stroke-width="1" opacity="0.996078431372549" d="M 395 373 Q 398 371.8 397 375.5 L 401 386.5 L 414 410.5 L 412 411 L 411 407 Q 408.3 408.1 409 405.5 L 403 394.5 L 403 391 Q 400 392.3 401 388.5 L 396 377.5 L 396.5 376 Q 393.5 376.7 395 373 Z " /><path fill="rgb(232,154,60)" stroke="rgb(232,154,60)" stroke-width="1" opacity="0.996078431372549" d="M 893.5 373 L 894 376.5 L 893 381 Q 889.7 382.3 891 377.5 L 893.5 373 Z " /><path fill="rgb(232,154,60)" stroke="rgb(232,154,60)" stroke-width="1" opacity="0.996078431372549" d="M 337.5 375 L 340 375 Q 338.8 378 342.5 377 L 342.5 378 Q 337.5 377.9 337.5 375 Z " /><path fill="rgb(232,154,60)" stroke="rgb(232,154,60)" stroke-width="1" opacity="0.996078431372549" d="M 119 378 Q 122 376.8 121 380.5 L 128 393.5 L 136 417 Q 133.3 418.1 134 415.5 L 132 408.5 L 130 406.5 Q 132.5 405 129 403.5 L 127 394.5 L 121 383.5 L 121 381 Q 117.7 382.1 119 378 Z " /><path fill="rgb(232,154,60)" stroke="rgb(232,154,60)" stroke-width="1" opacity="0.996078431372549" d="M 347.5 380 L 350 380.5 L 347.5 381 L 347.5 380 Z " /><path fill="rgb(232,154,60)" stroke="rgb(232,154,60)" stroke-width="1" opacity="0.996078431372549" d="M 354.5 383 L 359 384 Q 360 387 357 386 Q 358.3 383 354.5 384 L 354.5 383 Z " /><path fill="rgb(232,154,60)" stroke="rgb(232,154,60)" stroke-width="1" opacity="0.996078431372549" d="M 889.5 385 L 890 389.5 L 888.5 392 L 887 389.5 L 889.5 385 Z " /><path fill="rgb(232,154,60)" stroke="rgb(232,154,60)" stroke-width="1" opacity="0.996078431372549" d="M 361.5 386 Q 364.8 384.9 364 387.5 L 364.5 389 L 361.5 386 Z " /><path fill="rgb(232,154,60)" stroke="rgb(232,154,60)" stroke-width="1" opacity="0.996078431372549" d="M 367 389 L 374 392 Q 375 395 372 394 Q 373.1 391.3 370.5 392 L 367 391 L 367 389 Z " /><path fill="rgb(232,154,60)" stroke="rgb(232,154,60)" stroke-width="1" opacity="0.996078431372549" d="M 886.5 393 L 887 396.5 L 884 401.5 L 883 408 Q 880 406.8 881 410.5 L 880 415.5 L 877.5 418 L 877 415.5 L 886.5 393 Z " /><path fill="rgb(232,154,60)" stroke="rgb(232,154,60)" stroke-width="1" opacity="0.996078431372549" d="M 375.5 394 L 379 394 Q 377.9 396.7 380.5 396 L 384.5 399 L 387 399 Q 385.9 401.7 388.5 401 L 391 402 L 391 404 Q 393.7 402.9 393 405.5 L 390.5 404 L 376.5 396 L 375.5 394 Z " /><path fill="rgb(232,154,60)" stroke="rgb(232,154,60)" stroke-width="1" opacity="0.996078431372549" d="M 394.5 406 L 398 407.5 L 398 409 L 401 409 L 401 411 Q 404 410 403 413 L 406 413 L 406 414.5 L 409 416 Q 407.9 418.7 410.5 418 L 409.5 420 L 396.5 409 L 394.5 406 Z " /><path fill="rgb(232,154,60)" stroke="rgb(232,154,60)" stroke-width="1" opacity="0.996078431372549" d="M 413.5 412 L 416 413.5 L 424 432.5 L 414.5 424 Q 411.9 424.7 413 422 L 411 422 L 411 420 L 413 420 Q 411.9 422.7 414.5 422 L 418 424 L 418.5 426 L 419 423.5 L 413.5 412 Z " /><path fill="rgb(232,154,60)" stroke="rgb(232,154,60)" stroke-width="1" opacity="0.996078431372549" d="M 135 418 Q 138 416.8 137 420.5 L 162 479.5 L 160 480 L 158 472.5 L 156 470.5 L 156.5 469 Q 153.5 469.9 155 465.5 Q 152.2 463.5 153 459 L 151 458.5 L 151.5 457 Q 148.5 457.9 150 453.5 L 145 445.5 L 143 436 Q 139.7 437.3 141 432.5 L 137 421 Q 133.7 422.1 135 418 Z " /><path fill="rgb(232,154,60)" stroke="rgb(232,154,60)" stroke-width="1" opacity="0.996078431372549" d="M 876.5 419 L 877 422.5 L 876 425 Q 873.3 426.1 874 423.5 L 876.5 419 Z " /><path fill="rgb(232,154,60)" stroke="rgb(232,154,60)" stroke-width="1" opacity="0.996078431372549" d="M 873.5 427 L 874 430.5 L 870 438.5 L 870 443 Q 867.3 441.9 868 444.5 L 867 444.5 L 873.5 427 Z " /><path fill="rgb(232,154,60)" stroke="rgb(232,154,60)" stroke-width="1" opacity="0.996078431372549" d="M 866.5 446 L 867 449.5 L 866 453 Q 863 454.3 864 450.5 L 866.5 446 Z " /><path fill="rgb(232,154,60)" stroke="rgb(232,154,60)" stroke-width="1" opacity="0.996078431372549" d="M 863.5 454 L 864 456.5 L 863 461.5 L 860.5 464 L 860 461.5 L 863.5 454 Z " /><path fill="rgb(232,154,60)" stroke="rgb(232,154,60)" stroke-width="1" opacity="0.996078431372549" d="M 859.5 465 L 860 469.5 L 857 471 L 859.5 465 Z " /><path fill="rgb(232,154,60)" stroke="rgb(232,154,60)" stroke-width="1" opacity="0.996078431372549" d="M 856.5 472 L 857 475.5 L 856 478 Q 853.3 479.1 854 476.5 L 856.5 472 Z " /><path fill="rgb(232,154,60)" stroke="rgb(232,154,60)" stroke-width="1" opacity="0.996078431372549" d="M 853.5 479 L 854 483 Q 851.3 481.9 852 484.5 L 851 489 Q 848 487.8 849 491.5 L 846 493 L 853.5 479 Z " /><path fill="rgb(232,154,60)" stroke="rgb(232,154,60)" stroke-width="1" opacity="0.996078431372549" d="M 162.5 481 L 174 505.5 L 182 519 Q 184.7 517.9 184 520.5 L 198 540 Q 200.7 538.9 200 541.5 L 204 544 L 204 546 Q 206.7 544.9 206 547.5 L 210 550 L 211.5 553 L 234 569 Q 235.1 572.3 231 571 Q 232.1 568.3 229.5 569 L 225.5 564 L 216 559 L 214 555 L 211 555 Q 212.1 552.3 209.5 553 L 203 547.5 L 203.5 546 L 197 542 L 196 538 L 194 537.5 L 194.5 536 L 190 532.5 L 189 529 Q 186.3 530.1 187 527.5 L 186 525 Q 183.3 526.1 184 523.5 L 182 519 Q 179.3 520.1 180 517.5 L 179 515 Q 176.3 516.1 177 513.5 L 171 502.5 L 171 500 Q 168.3 501.1 169 498.5 L 164 489.5 L 163 484 Q 160.3 485.1 161 482.5 L 162.5 481 Z " /><path fill="rgb(232,154,60)" stroke="rgb(232,154,60)" stroke-width="1" opacity="0.996078431372549" d="M 845.5 494 L 846 498 Q 843.3 496.9 844 499.5 L 843 502 Q 840.3 503.1 841 500.5 L 845.5 494 Z " /><path fill="rgb(232,154,60)" stroke="rgb(232,154,60)" stroke-width="1" opacity="0.996078431372549" d="M 839 503 Q 842.3 501.9 841 506 Q 838.3 504.9 839 507.5 L 838 510 Q 835.3 508.9 836 511.5 L 832 518 L 829 519.5 Q 829.7 522.1 827 521 L 827 523 L 825 523 L 825 526 L 823.5 526 L 821 527 Q 822.5 530.8 819.5 530 L 816 535 L 812 536 L 810 541 L 806 542 Q 807.1 544.7 804.5 544 L 802 545 L 800.5 548 L 797.5 550 L 795 551 Q 796.1 553.7 793.5 553 L 791 554 L 790.5 556 L 789 555.5 L 787.5 558 L 777 564 L 776.5 566 L 775 565.5 Q 775.8 567.8 773.5 567 L 771 568 Q 772.1 570.7 769.5 570 L 763 572 Q 764.1 574.7 761.5 574 L 749.5 579 Q 748 576.5 746.5 580 Q 743.9 580.7 745 578 Q 758.1 575.3 768.5 569 L 795 551 Q 793.9 548.3 796.5 549 L 812 535.5 Q 811.3 533.3 813.5 534 L 827 520.5 L 827 519 Q 829.7 520.1 829 517.5 L 832 513 Q 834.7 514.1 834 511.5 L 839 503 Z " /><path fill="rgb(232,154,60)" stroke="rgb(232,154,60)" stroke-width="1" opacity="0.996078431372549" d="M 235.5 571 L 238.5 573 L 242 575.5 L 239.5 576 L 234 572.5 L 235.5 571 Z " /><path fill="rgb(232,154,60)" stroke="rgb(232,154,60)" stroke-width="1" opacity="0.996078431372549" d="M 243 576 L 258 583.5 L 254 584 Q 255.1 581.3 252.5 582 L 248 581 Q 249.3 578 245.5 579 L 243 578 L 243 576 Z " /><path fill="rgb(232,154,60)" stroke="rgb(232,154,60)" stroke-width="1" opacity="0.996078431372549" d="M 741 579 Q 745.1 577.7 744 581 Q 739.9 582.3 741 579 Z " /><path fill="rgb(232,154,60)" stroke="rgb(232,154,60)" stroke-width="1" opacity="0.996078431372549" d="M 736 580 Q 741.2 578.3 740 582 Q 734.8 583.7 736 580 Z " /><path fill="rgb(232,154,60)" stroke="rgb(232,154,60)" stroke-width="1" opacity="0.996078431372549" d="M 732 581 Q 736.1 579.7 735 583 Q 730.9 584.3 732 581 Z " /><path fill="rgb(232,154,60)" stroke="rgb(232,154,60)" stroke-width="1" opacity="0.996078431372549" d="M 728.5 582 Q 732.3 581 731 584 L 723 585 Q 721.6 581.3 727.5 583 L 728.5 582 Z " /><path fill="rgb(232,154,60)" stroke="rgb(232,154,60)" stroke-width="1" opacity="0.996078431372549" d="M 259.5 584 L 265 586.5 L 261 587 Q 262.1 584.3 259.5 585 L 259.5 584 Z " /><path fill="rgb(232,154,60)" stroke="rgb(232,154,60)" stroke-width="1" opacity="0.996078431372549" d="M 719.5 584 Q 723.3 583 722 586 L 714 587 Q 712.6 583.3 718.5 585 L 719.5 584 Z " /><path fill="rgb(232,154,60)" stroke="rgb(232,154,60)" stroke-width="1" opacity="0.996078431372549" d="M 705.5 586 Q 708.1 585.2 707 588.5 L 705.5 588 L 686.5 591 L 685 590.5 Q 684.2 593.1 687.5 592 Q 691 597 697 598 L 697 600 L 700 600 L 700 602 L 703 602 Q 701.9 604.7 704.5 604 Q 705.7 607.7 710 607 Q 708.9 609.7 711.5 609 L 717 612 L 717 614 L 720 614 Q 718.9 616.7 721.5 616 L 728 621 Q 726.9 623.7 729.5 623 L 733 625 L 734.5 628 Q 736.8 627.3 736 629.5 L 740 632 L 740 634 Q 742.7 632.9 742 635.5 L 746 638 L 746 640 Q 748.7 638.9 748 641.5 L 752 647 L 754 647 Q 752.9 649.7 755.5 649 L 758 653 Q 760.7 651.9 760 654.5 L 761 657 L 763 657.5 L 762.5 659 Q 764.8 658.3 764 660.5 L 765 663 Q 767.7 661.9 767 664.5 L 768 667 Q 770.7 665.9 770 668.5 Q 775.1 673.5 776 681 Q 779 679.8 778 683.5 L 781 694 Q 784 692.8 783 696.5 L 788 712.5 L 793 740 Q 789 741.4 791 734.5 L 785 706.5 L 778 686.5 L 766 664.5 L 759 655 Q 756.3 656.1 757 653.5 L 756 651 L 754 651 L 754 649 L 752 649 L 752 647 Q 749.3 648.1 750 645.5 L 738 633.5 L 738 632 L 726 623 Q 727.1 620.3 724.5 621 L 709.5 609 L 707 609 Q 708.1 606.3 705.5 607 L 693.5 598 L 690 597 Q 691.3 594 687.5 595 L 680 589.5 L 683.5 589 L 685.5 589 L 693.5 589 L 705.5 586 Z " /><path fill="rgb(232,154,60)" stroke="rgb(232,154,60)" stroke-width="1" opacity="0.996078431372549" d="M 708.5 586 L 713 586.5 L 710.5 588 L 708.5 586 Z " /><path fill="rgb(232,154,60)" stroke="rgb(232,154,60)" stroke-width="1" opacity="0.996078431372549" d="M 266.5 587 L 276 590.5 L 273.5 591 L 268.5 590 L 266.5 587 Z " /><path fill="rgb(232,154,60)" stroke="rgb(232,154,60)" stroke-width="1" opacity="0.996078431372549" d="M 277 591 Q 284.7 591 290 594.5 L 285.5 595 L 277 593 L 277 591 Z " /><path fill="rgb(232,154,60)" stroke="rgb(232,154,60)" stroke-width="1" opacity="0.996078431372549" d="M 291.5 595 L 294 595.5 L 291.5 596 L 291.5 595 Z " /><path fill="rgb(232,154,60)" stroke="rgb(232,154,60)" stroke-width="1" opacity="0.996078431372549" d="M 302.5 597 L 305 597.5 L 302.5 598 L 302.5 597 Z " /><path fill="rgb(232,154,60)" stroke="rgb(232,154,60)" stroke-width="1" opacity="0.996078431372549" d="M 308.5 598 L 311 598.5 L 308.5 599 L 308.5 598 Z " /><path fill="rgb(232,154,60)" stroke="rgb(232,154,60)" stroke-width="1" opacity="0.996078431372549" d="M 314.5 599 L 317 599.5 L 314.5 600 L 314.5 599 Z " /><path fill="rgb(232,154,60)" stroke="rgb(232,154,60)" stroke-width="1" opacity="0.996078431372549" d="M 319.5 600 L 338 601 Q 339.1 604.5 331.5 603 L 330.5 602 L 319.5 601 L 319.5 600 Z " /><path fill="rgb(232,154,60)" stroke="rgb(232,154,60)" stroke-width="1" opacity="0.996078431372549" d="M 343.5 601 Q 349.4 599.3 348 603 L 341 602.5 L 343.5 601 Z " /><path fill="rgb(232,154,60)" stroke="rgb(232,154,60)" stroke-width="1" opacity="0.996078431372549" d="M 350 602 L 354 602.5 L 344.5 607 L 320.5 623 L 307 634.5 L 307 636 L 305 636 L 305 638 L 303 638 L 303 640 L 301 640 Q 302.1 642.7 299.5 642 L 290 650 L 290 652 L 288 652 L 288 654 Q 285.3 652.9 286 655.5 L 277 664.5 L 277 666 Q 274.3 664.9 275 667.5 L 268.5 676 L 268 673 Q 271 674.3 270 670.5 L 273 669 L 275 664 Q 277.7 665.1 277 662.5 L 280.5 658 L 282 658 L 282 656 Q 284.7 657.1 284 654.5 L 288 652 L 288 650 Q 290.7 651.1 290 648.5 L 301 640 L 303 635 L 307 634 L 310.5 629 L 318 625 Q 316.9 622.3 319.5 623 L 324 621 Q 322.9 618.3 325.5 619 L 328 618 Q 326.9 615.3 329.5 616 L 338.5 609 L 342 608 L 342.5 606 L 344 606.5 Q 343.3 604.3 345.5 605 L 350 604 L 350 602 Z " /><path fill="rgb(232,154,60)" stroke="rgb(232,154,60)" stroke-width="1" opacity="0.996078431372549" d="M 266.5 677 Q 268.8 676.3 268 678.5 L 260.5 690 L 260 687.5 L 266.5 677 Z " /><path fill="rgb(232,154,60)" stroke="rgb(232,154,60)" stroke-width="1" opacity="0.996078431372549" d="M 258 691 Q 260.7 689.9 260 692.5 L 251.5 710 L 251 707.5 L 252 703 Q 255 704.3 254 700.5 L 258 691 Z " /><path fill="rgb(232,154,60)" stroke="rgb(232,154,60)" stroke-width="1" opacity="0.996078431372549" d="M 514.5 704 L 543 759.5 L 567 793 Q 569.7 791.9 569 794.5 L 573 797 L 573 799 L 575 799 Q 573.9 801.7 576.5 801 L 585.5 810 L 587 810 L 594.5 819 L 599 821 Q 597.9 823.7 600.5 823 L 614 832.5 L 610 833 Q 611.1 830.3 608.5 831 L 606 830 L 606 828 L 603 828 L 603 826 L 600 826 Q 601.1 823.3 598.5 824 L 597 821 L 594 821 L 594 819 Q 591 820 592 817 L 589 817 L 589 815.5 L 585 810 Q 582 811 583 808 L 580 808 L 580 806.5 L 579 804 L 576 804 Q 577.1 801.3 574.5 802 L 573 799 L 571 799 Q 572.1 796.3 569.5 797 L 567 793 L 565 793 L 565 791 Q 562.3 792.1 563 789.5 Q 555 782.3 551 772 Q 548.3 773.1 549 770.5 L 548 768 Q 545.3 769.1 546 766.5 L 544 762 Q 541 763.3 542 759.5 L 537 751.5 L 537 749 L 535 748.5 L 535.5 747 Q 533.3 747.8 534 745.5 L 528 734.5 L 528 731 Q 525.3 732.1 526 729.5 L 524 723 Q 521 724.3 522 720.5 L 514.5 708 L 511.5 714 L 511 710.5 L 514.5 704 Z " /><path fill="rgb(232,154,60)" stroke="rgb(232,154,60)" stroke-width="1" opacity="0.996078431372549" d="M 249 711 Q 252 709.8 251 713.5 L 248.5 718 L 248 714.5 L 249 711 Z " /><path fill="rgb(232,154,60)" stroke="rgb(232,154,60)" stroke-width="1" opacity="0.996078431372549" d="M 510.5 715 L 511 717.5 L 510 722 Q 507 720.8 508 724.5 L 507 729.5 L 504.5 732 L 504 730.5 L 507 724.5 L 508 718.5 L 510.5 715 Z " /><path fill="rgb(232,154,60)" stroke="rgb(232,154,60)" stroke-width="1" opacity="0.996078431372549" d="M 247.5 719 L 248 721.5 L 244.5 730 L 244 727.5 Q 246.3 726.3 245 721.5 L 247.5 719 Z " /><path fill="rgb(232,154,60)" stroke="rgb(232,154,60)" stroke-width="1" opacity="0.996078431372549" d="M 243.5 732 L 244 734.5 L 239.5 748 L 239 745.5 L 241 739.5 L 241 734.5 L 243.5 732 Z " /><path fill="rgb(232,154,60)" stroke="rgb(232,154,60)" stroke-width="1" opacity="0.996078431372549" d="M 503.5 733 L 504 737.5 L 503 740 Q 500 741.3 501 737.5 L 503.5 733 Z " /><path fill="rgb(232,154,60)" stroke="rgb(232,154,60)" stroke-width="1" opacity="0.996078431372549" d="M 500.5 741 L 501 744.5 L 500 747 Q 497 748.3 498 744.5 L 500.5 741 Z " /><path fill="rgb(232,154,60)" stroke="rgb(232,154,60)" stroke-width="1" opacity="0.996078431372549" d="M 792.5 741 L 794 743.5 L 793 747.5 L 795 758.5 L 793 757.5 L 792.5 741 Z " /><path fill="rgb(232,154,60)" stroke="rgb(232,154,60)" stroke-width="1" opacity="0.996078431372549" d="M 497.5 748 L 498 751.5 L 497 754 Q 493.7 752.7 495 757.5 L 492 759.5 L 497.5 748 Z " /><path fill="rgb(232,154,60)" stroke="rgb(232,154,60)" stroke-width="1" opacity="0.996078431372549" d="M 238.5 751 L 239 753.5 L 230.5 790 L 230 786.5 L 232 780.5 L 235 758.5 L 238.5 751 Z " /><path fill="rgb(232,154,60)" stroke="rgb(232,154,60)" stroke-width="1" opacity="0.996078431372549" d="M 794.5 760 L 796 762.5 L 795 765.5 L 796 766.5 L 797 777.5 L 795 778.5 L 794.5 760 Z " /><path fill="rgb(232,154,60)" stroke="rgb(232,154,60)" stroke-width="1" opacity="0.996078431372549" d="M 491.5 761 L 492 763.5 Q 488.4 765.4 489 770 Q 485.7 768.7 487 773.5 L 484 775 L 491.5 761 Z " /><path fill="rgb(232,154,60)" stroke="rgb(232,154,60)" stroke-width="1" opacity="0.996078431372549" d="M 483.5 776 L 484 778.5 L 480.5 783 Q 477.9 783.7 479 781 Q 481.7 782.1 481 779.5 L 483.5 776 Z " /><path fill="rgb(232,154,60)" stroke="rgb(232,154,60)" stroke-width="1" opacity="0.996078431372549" d="M 795 780 L 797 780.5 L 797 787.5 L 798 791.5 L 797 794.5 L 798 795.5 L 799 806.5 L 798 809.5 Q 800.5 811 799 816.5 L 798 816.5 L 797 814.5 L 797 799.5 L 796 798.5 L 796 785.5 L 795 780 Z " /><path fill="rgb(232,154,60)" stroke="rgb(232,154,60)" stroke-width="1" opacity="0.996078431372549" d="M 477 784 Q 480 783 479 786 L 477 786 L 477 789 Q 474.3 787.9 475 790.5 L 474 793 Q 471.3 791.9 472 794.5 L 468 800 Q 465.3 798.9 466 801.5 L 459 807.5 Q 459.7 810.1 457 809 L 457 811 L 455.5 811 L 453 812 Q 454.1 814.7 451.5 814 L 439.5 824 L 436 825 Q 437.1 827.7 434.5 827 L 429 829 Q 430.1 831.7 427.5 831 Q 423.4 835.4 417 836 Q 418.1 838.7 415.5 838 L 408.5 842 L 407 841.5 Q 407.8 843.8 405.5 843 L 400.5 846 L 399 845.5 Q 399.9 848.5 395.5 847 L 386.5 852 Q 375.5 853 368.5 858 L 366.5 857 L 363 859 Q 361.8 856 365.5 857 L 396.5 846 L 414.5 837 L 439.5 822 L 459 807 L 459 805 L 461 805 L 461 803 L 463 803 L 463 801 Q 465.7 802.1 465 799.5 L 470 793 Q 472.7 794.1 472 791.5 L 477 784 Z " /><path fill="rgb(232,154,60)" stroke="rgb(232,154,60)" stroke-width="1" opacity="0.996078431372549" d="M 229.5 792 L 230 794.5 L 229 794.5 L 229.5 792 Z " /><path fill="rgb(232,154,60)" stroke="rgb(232,154,60)" stroke-width="1" opacity="0.996078431372549" d="M 228.5 798 L 229 800.5 L 228 800.5 L 228.5 798 Z " /><path fill="rgb(232,154,60)" stroke="rgb(232,154,60)" stroke-width="1" opacity="0.996078431372549" d="M 227.5 803 L 228 805.5 L 220.5 838 L 220 833.5 L 225 805 Q 227.8 806 227.5 803 Z " /><path fill="rgb(232,154,60)" stroke="rgb(232,154,60)" stroke-width="1" opacity="0.996078431372549" d="M 798 818 Q 801 816.8 800 820.5 L 799 825.5 L 800 831 L 798 830.5 L 798 818 Z " /><path fill="rgb(232,154,60)" stroke="rgb(232,154,60)" stroke-width="1" opacity="0.996078431372549" d="M 615.5 833 L 629 840.5 L 625.5 841 L 622.5 838 L 619.5 838 L 614 834.5 L 615.5 833 Z " /><path fill="rgb(232,154,60)" stroke="rgb(232,154,60)" stroke-width="1" opacity="0.996078431372549" d="M 799.5 833 L 801 845.5 L 800 848.5 L 802 859.5 L 801 862.5 L 802 863.5 L 803 874.5 L 802 878.5 L 798.5 882 Q 795.9 882.7 797 880 L 800 878.5 L 801 868.5 L 800 867.5 L 800 853.5 L 799 852.5 Q 800.4 841.6 798 834.5 L 799.5 833 Z " /><path fill="rgb(232,154,60)" stroke="rgb(232,154,60)" stroke-width="1" opacity="0.996078431372549" d="M 219.5 839 L 220 841.5 L 219 841.5 L 219.5 839 Z " /><path fill="rgb(232,154,60)" stroke="rgb(232,154,60)" stroke-width="1" opacity="0.996078431372549" d="M 630.5 841 L 635 843.5 L 631 844 L 630.5 841 Z " /><path fill="rgb(232,154,60)" stroke="rgb(232,154,60)" stroke-width="1" opacity="0.996078431372549" d="M 218.5 844 L 219 846.5 L 218 846.5 L 218.5 844 Z " /><path fill="rgb(232,154,60)" stroke="rgb(232,154,60)" stroke-width="1" opacity="0.996078431372549" d="M 637 844 L 643 846.5 L 638.5 847 L 637 844 Z " /><path fill="rgb(232,154,60)" stroke="rgb(232,154,60)" stroke-width="1" opacity="0.996078431372549" d="M 644 847 L 650 849.5 L 646.5 850 L 644 849 L 644 847 Z " /><path fill="rgb(232,154,60)" stroke="rgb(232,154,60)" stroke-width="1" opacity="0.996078431372549" d="M 217.5 850 L 218 852.5 L 215 857.5 L 214.5 862 L 214 857.5 L 215 852.5 L 217.5 850 Z " /><path fill="rgb(232,154,60)" stroke="rgb(232,154,60)" stroke-width="1" opacity="0.996078431372549" d="M 651.5 850 L 657.5 851 L 662 853.5 L 658.5 854 L 654.5 853 L 651.5 850 Z " /><path fill="rgb(232,154,60)" stroke="rgb(232,154,60)" stroke-width="1" opacity="0.996078431372549" d="M 663.5 854 L 675 857.5 L 670.5 858 L 664.5 856 L 663.5 854 Z " /><path fill="rgb(232,154,60)" stroke="rgb(232,154,60)" stroke-width="1" opacity="0.996078431372549" d="M 359 858 L 362 858.5 L 359 860 L 359 858 Z " /><path fill="rgb(232,154,60)" stroke="rgb(232,154,60)" stroke-width="1" opacity="0.996078431372549" d="M 676.5 858 L 679 858.5 L 676.5 859 L 676.5 858 Z " /><path fill="rgb(232,154,60)" stroke="rgb(232,154,60)" stroke-width="1" opacity="0.996078431372549" d="M 355.5 859 Q 359.3 858 358 861 L 350 862 Q 348.6 858.3 354.5 860 L 355.5 859 Z " /><path fill="rgb(232,154,60)" stroke="rgb(232,154,60)" stroke-width="1" opacity="0.996078431372549" d="M 680.5 859 L 692.5 861 L 699 863.5 L 694.5 864 L 688.5 862 L 683.5 862 L 680.5 859 Z " /><path fill="rgb(232,154,60)" stroke="rgb(232,154,60)" stroke-width="1" opacity="0.996078431372549" d="M 345.5 861 L 349 861.5 L 346.5 863 L 345.5 861 Z " /><path fill="rgb(232,154,60)" stroke="rgb(232,154,60)" stroke-width="1" opacity="0.996078431372549" d="M 336.5 862 Q 340.3 861 339 864 L 322.5 866 L 322.5 865 L 336.5 862 Z " /><path fill="rgb(232,154,60)" stroke="rgb(232,154,60)" stroke-width="1" opacity="0.996078431372549" d="M 340.5 862 L 344 862.5 L 341.5 864 L 340.5 862 Z " /><path fill="rgb(232,154,60)" stroke="rgb(232,154,60)" stroke-width="1" opacity="0.996078431372549" d="M 213.5 863 L 214 866.5 L 213 866.5 L 213.5 863 Z " /><path fill="rgb(232,154,60)" stroke="rgb(232,154,60)" stroke-width="1" opacity="0.996078431372549" d="M 700.5 864 L 703 864.5 L 700.5 865 L 700.5 864 Z " /><path fill="rgb(232,154,60)" stroke="rgb(232,154,60)" stroke-width="1" opacity="0.996078431372549" d="M 313.5 865 L 316 866.5 L 295 870 Q 293.6 866 300.5 868 L 313.5 865 Z " /><path fill="rgb(232,154,60)" stroke="rgb(232,154,60)" stroke-width="1" opacity="0.996078431372549" d="M 317.5 865 Q 322.3 863.7 321 867 Q 317.2 867.8 317.5 865 Z " /><path fill="rgb(232,154,60)" stroke="rgb(232,154,60)" stroke-width="1" opacity="0.996078431372549" d="M 706.5 865 L 709 865.5 L 706.5 866 L 706.5 865 Z " /><path fill="rgb(232,154,60)" stroke="rgb(232,154,60)" stroke-width="1" opacity="0.996078431372549" d="M 711.5 866 L 714 866.5 L 711.5 867 L 711.5 866 Z " /><path fill="rgb(232,154,60)" stroke="rgb(232,154,60)" stroke-width="1" opacity="0.996078431372549" d="M 717.5 867 L 720 867.5 L 717.5 868 L 717.5 867 Z " /><path fill="rgb(232,154,60)" stroke="rgb(232,154,60)" stroke-width="1" opacity="0.996078431372549" d="M 212.5 868 L 213 871.5 L 212 871.5 L 212.5 868 Z " /><path fill="rgb(232,154,60)" stroke="rgb(232,154,60)" stroke-width="1" opacity="0.996078431372549" d="M 722.5 868 L 782 878.5 L 776.5 880 L 725.5 871 L 722.5 868 Z " /><path fill="rgb(232,154,60)" stroke="rgb(232,154,60)" stroke-width="1" opacity="0.996078431372549" d="M 284.5 869 L 294 869.5 L 290.5 871 L 287.5 870 L 276 872 L 276.5 870 L 283.5 870 L 284.5 869 Z " /><path fill="rgb(232,154,60)" stroke="rgb(232,154,60)" stroke-width="1" opacity="0.996078431372549" d="M 270.5 870 L 274 871.5 L 271.5 873 L 267.5 872 Q 266.2 874.3 261.5 873 L 262.5 871 Q 268.8 872.8 270.5 870 Z " /><path fill="rgb(232,154,60)" stroke="rgb(232,154,60)" stroke-width="1" opacity="0.996078431372549" d="M 250.5 872 L 260 872.5 L 257.5 874 L 254.5 873 L 238 876 Q 236.6 872 243.5 874 L 250.5 872 Z " /><path fill="rgb(232,154,60)" stroke="rgb(232,154,60)" stroke-width="1" opacity="0.996078431372549" d="M 211 874 Q 213.7 872.9 213 875.5 L 214 878 L 234.5 874 L 236 877 L 230.5 876 L 215.5 880 Q 214.4 877.3 211 878 L 211 874 Z " /><path fill="rgb(232,154,60)" stroke="rgb(232,154,60)" stroke-width="1" opacity="0.996078431372549" d="M 785.5 879 L 788 879.5 L 785.5 880 L 785.5 879 Z " /><path fill="rgb(232,154,60)" stroke="rgb(232,154,60)" stroke-width="1" opacity="0.996078431372549" d="M 791.5 880 L 794 880.5 L 791.5 881 L 791.5 880 Z " /><path fill="rgb(232,154,60)" stroke="rgb(232,154,60)" stroke-width="1" opacity="1" d="M 0 0 L 1024 0 L 1024 1024 L 0 1024 L 0 0 Z M 490 116 Q 491 119 488 118 L 488 121 L 486 121 L 486 124 L 485 124 L 481 129 L 481 132 L 478 134 Q 479 136 476 135 L 474 139 Q 475 141 472 140 L 472 143 L 465 149 Q 466 151 463 150 L 463 152 L 461 152 L 461 155 L 454 161 Q 455 164 452 163 L 452 166 L 449 168 Q 450 170 447 169 L 447 172 L 445 172 L 445 175 L 443 175 L 435 188 Q 436 191 433 190 Q 434 194 430 196 Q 431 199 428 198 Q 429 202 425 204 Q 426 208 423 207 L 420 213 Q 421 216 418 215 Q 419 220 415 222 L 415 225 L 412 228 L 412 232 L 411 231 L 407 237 L 407 240 L 404 242 Q 405 245 402 244 Q 403 249 399 251 Q 400 255 397 254 L 396 261 L 393 265 L 392 275 L 389 279 L 384 306 L 386 309 L 384 317 Q 387 318 385 320 L 386 331 L 387 332 L 386 334 L 388 337 L 387 339 L 391 361 L 394 370 Q 393 373 396 372 L 395 374 Q 394 377 397 376 L 396 378 L 401 389 Q 400 392 403 391 L 403 395 L 409 406 Q 408 408 411 407 L 412 410 Q 411 412 414 411 L 413 413 L 419 424 L 419 426 L 418 424 L 415 422 Q 412 423 413 420 L 411 420 L 411 418 Q 408 419 409 416 L 406 415 L 406 413 L 403 413 Q 404 410 401 411 L 401 409 L 398 409 L 397 406 L 393 406 L 391 402 L 389 401 Q 386 402 387 399 L 385 399 L 381 396 Q 378 397 379 394 L 374 394 L 374 392 L 364 388 L 364 386 L 359 386 L 359 384 L 357 383 Q 352 384 353 381 L 347 380 L 347 379 L 343 377 Q 339 378 340 375 L 334 374 L 329 371 Q 324 372 325 369 L 318 368 L 314 365 L 304 363 Q 297 365 298 361 L 296 360 Q 290 359 289 361 L 264 356 L 261 358 L 248 355 L 245 356 Q 239 358 238 355 L 234 356 Q 229 357 228 355 L 225 356 Q 219 358 218 355 Q 214 358 207 356 L 206 357 L 204 356 L 192 357 L 191 358 L 189 357 L 158 363 Q 156 361 155 364 L 153 363 L 150 365 L 148 364 L 146 365 L 144 365 L 141 365 Q 142 368 140 367 Q 138 365 137 368 L 135 367 Q 131 366 132 369 L 131 368 Q 127 367 128 370 L 126 369 L 119 372 L 118 375 Q 117 378 120 377 L 119 379 Q 118 382 121 381 L 121 384 L 127 395 L 129 404 Q 132 405 130 407 L 132 409 L 134 416 Q 133 418 136 417 L 135 419 Q 134 422 137 421 L 141 433 Q 140 437 143 436 L 145 446 L 150 454 Q 149 458 152 457 L 151 459 L 153 459 Q 152 463 155 466 Q 153 470 157 469 L 156 471 L 160 479 Q 159 481 162 480 L 161 483 Q 160 485 163 484 L 164 490 L 169 499 Q 168 501 171 500 L 171 503 L 177 514 Q 176 516 179 515 L 180 518 Q 179 520 182 519 L 184 524 Q 183 526 186 525 L 187 528 Q 186 530 189 529 L 190 533 L 195 536 L 194 538 L 196 538 L 197 542 L 204 546 L 203 548 L 210 553 Q 212 552 211 555 L 214 555 L 216 559 L 226 564 L 230 569 Q 232 568 231 571 L 235 571 L 234 573 L 240 576 Q 244 575 243 578 L 246 579 Q 249 578 248 581 L 253 582 Q 255 581 254 584 L 260 585 Q 262 584 261 587 L 266 587 L 269 590 L 274 591 Q 278 590 277 593 L 332 603 Q 337 605 339 602 L 342 603 Q 347 605 349 602 Q 351 601 350 604 L 346 605 Q 343 604 344 607 L 343 606 L 342 608 L 339 609 L 330 616 Q 327 615 328 618 L 326 619 Q 323 618 324 621 L 320 623 Q 317 622 318 625 L 311 629 L 307 634 L 303 635 L 301 640 L 290 649 Q 291 651 288 650 L 288 652 L 284 655 Q 285 657 282 656 L 282 658 L 281 658 L 277 663 Q 278 665 275 664 L 273 669 L 270 671 Q 271 674 268 673 L 268 677 L 267 677 L 260 688 Q 261 692 258 691 L 254 701 Q 255 704 252 703 L 251 708 Q 252 712 249 711 L 248 719 L 245 722 L 244 732 L 241 735 L 239 751 L 235 759 L 229 798 L 227 804 Q 228 806 225 805 L 218 850 L 215 853 L 211 878 Q 214 877 216 880 L 231 876 L 235 877 Q 237 878 236 875 L 239 876 L 255 873 L 259 874 Q 260 870 262 873 Q 266 874 268 872 L 272 873 L 275 871 L 277 872 L 288 870 L 293 871 Q 294 867 296 870 L 317 866 L 319 867 Q 322 868 321 866 L 323 866 L 334 865 L 340 863 L 342 864 L 345 862 L 348 863 Q 349 859 351 862 L 358 861 L 359 859 L 361 860 Q 362 856 364 859 L 367 857 L 369 858 Q 376 853 387 852 L 396 847 Q 400 848 399 846 L 401 846 L 406 843 Q 408 844 407 842 L 409 842 L 416 838 Q 418 839 417 836 Q 423 835 428 831 Q 430 832 429 829 L 435 827 Q 437 828 436 825 L 440 824 L 452 814 Q 454 815 453 812 L 456 811 L 457 811 L 457 809 Q 460 810 459 808 L 466 802 Q 465 799 468 800 L 472 795 Q 471 792 474 793 L 475 791 Q 474 788 477 789 L 477 786 L 479 786 L 479 783 L 481 783 L 484 779 L 484 775 L 487 774 Q 486 769 489 770 Q 488 765 492 764 L 492 761 L 495 758 Q 494 753 497 754 L 498 752 Q 496 746 500 747 L 501 745 Q 499 739 503 740 Q 505 738 504 733 L 507 730 L 508 725 Q 507 721 510 722 L 511 715 L 515 708 L 522 721 Q 521 724 524 723 L 526 730 Q 525 732 528 731 L 528 735 L 534 746 Q 533 748 536 747 L 535 749 L 537 749 L 537 752 L 542 760 Q 541 763 544 762 L 546 767 Q 545 769 548 768 L 549 771 Q 548 773 551 772 Q 555 782 563 790 Q 562 792 565 791 L 565 793 L 567 793 L 570 797 Q 572 796 571 799 L 573 799 L 575 802 Q 577 801 576 804 L 579 804 L 580 807 L 580 808 L 583 808 Q 582 811 585 810 L 589 816 L 589 817 L 592 817 Q 591 820 594 819 L 594 821 L 597 821 L 599 824 Q 601 823 600 826 L 603 826 L 603 828 L 606 828 L 606 830 L 609 831 Q 611 830 610 833 L 615 833 L 614 835 L 620 838 L 623 838 L 626 841 Q 630 840 631 843 L 632 844 L 637 844 L 639 847 Q 645 845 644 849 L 651 850 L 655 853 L 663 854 L 667 857 L 680 859 L 684 862 L 717 867 L 722 868 L 726 871 L 777 880 L 780 879 L 799 882 L 802 879 L 803 875 L 802 864 L 801 863 L 802 860 L 800 849 L 801 846 L 800 834 L 799 833 L 800 831 L 799 826 L 800 821 Q 801 817 799 818 L 799 817 Q 801 811 798 810 L 799 807 L 798 796 L 797 795 L 798 792 L 797 781 L 796 780 L 797 778 L 796 767 L 795 766 L 796 762 Q 792 760 795 759 L 793 748 L 794 744 L 793 742 L 793 740 L 788 713 L 783 697 Q 784 693 781 694 L 778 684 Q 779 680 776 681 Q 775 673 770 669 Q 771 666 768 667 L 767 665 Q 768 662 765 663 L 764 661 Q 765 658 763 659 L 763 658 L 761 657 L 760 655 Q 761 652 758 653 L 756 649 Q 753 650 754 647 L 752 647 L 748 642 Q 749 639 746 640 L 746 638 L 742 636 Q 743 633 740 634 L 740 632 L 736 630 Q 737 627 735 628 L 733 625 L 730 623 Q 727 624 728 621 L 722 616 Q 719 617 720 614 L 717 614 L 717 612 L 712 609 Q 709 610 710 607 Q 706 608 705 604 Q 702 605 703 602 L 700 602 L 700 600 L 697 600 L 697 598 Q 691 597 688 592 Q 684 593 685 591 L 687 591 L 703 588 L 707 589 L 707 587 L 712 588 Q 713 585 715 587 L 718 586 Q 723 588 722 585 L 724 585 L 731 584 L 732 582 L 735 583 L 736 581 L 740 582 L 741 580 L 744 581 L 745 579 L 747 580 Q 748 576 750 579 L 762 574 Q 764 575 763 572 L 770 570 Q 772 571 771 568 L 774 567 Q 776 568 775 566 L 777 566 L 777 564 L 788 558 L 789 556 L 791 556 L 791 554 L 794 553 Q 796 554 795 551 L 798 550 L 801 548 L 802 545 L 805 544 Q 807 545 806 542 L 810 541 L 812 536 L 816 535 L 820 530 Q 822 531 821 527 L 824 526 L 825 526 L 825 523 L 827 523 L 827 521 Q 830 522 829 520 L 832 518 L 836 512 Q 835 509 838 510 L 839 508 Q 838 505 841 506 L 841 502 L 843 502 L 844 500 Q 843 497 846 498 L 846 493 L 849 492 Q 848 488 851 489 L 852 485 Q 851 482 854 483 L 854 478 L 856 478 L 857 476 Q 855 470 859 471 L 864 457 Q 863 452 866 453 L 868 445 Q 867 442 870 443 L 870 439 L 874 431 Q 872 424 876 425 L 877 419 L 880 416 L 881 411 Q 880 407 883 408 L 884 402 L 887 397 L 887 392 L 889 392 L 891 384 Q 890 380 893 381 L 894 373 L 898 365 L 900 346 L 896 343 Q 886 343 880 340 Q 875 339 874 341 L 818 331 L 815 333 L 780 326 L 775 327 L 764 325 L 759 326 L 754 325 Q 749 324 748 326 L 744 325 Q 740 324 741 327 L 740 326 L 729 327 L 723 329 L 721 328 L 718 330 L 716 329 Q 713 328 714 331 L 712 330 Q 709 329 710 332 L 707 331 L 705 333 L 689 337 L 678 342 Q 675 341 676 344 L 675 343 L 651 355 Q 648 354 649 357 L 648 356 L 643 359 Q 640 358 641 361 L 637 363 Q 634 362 635 365 L 633 366 Q 630 365 631 368 L 629 369 Q 626 368 627 372 L 620 377 Q 621 379 618 378 L 618 380 L 616 380 L 616 382 L 614 382 L 614 384 L 612 384 L 616 373 L 622 339 L 621 335 L 623 320 L 621 320 L 623 314 L 622 310 L 623 302 Q 619 300 622 299 Q 624 293 621 292 L 622 289 Q 623 285 621 286 L 621 285 L 620 275 L 614 256 L 614 254 L 612 253 L 611 249 Q 612 246 610 247 L 610 246 L 602 231 Q 603 228 600 229 L 599 227 Q 600 224 597 225 L 596 223 Q 597 220 594 221 L 593 219 Q 594 216 591 217 L 591 215 L 589 215 L 589 213 L 587 213 L 586 211 Q 587 208 584 209 L 584 207 L 582 207 L 573 194 Q 570 195 571 192 L 569 192 L 568 188 L 564 186 Q 565 183 562 184 L 561 181 L 558 179 L 558 177 Q 555 178 556 176 L 550 171 L 549 169 Q 550 166 548 167 L 544 162 L 540 160 Q 541 157 538 158 L 538 156 L 535 156 Q 536 153 534 154 L 534 153 L 528 147 Q 525 148 526 145 L 524 145 L 524 143 L 521 143 L 520 139 L 517 138 Q 518 135 515 136 L 515 134 L 511 132 Q 512 129 509 130 L 509 128 L 506 128 L 504 123 Q 501 124 502 121 L 500 121 L 499 117 L 490 116 Z " /><path fill="rgb(0,0,0)" stroke="rgb(0,0,0)" stroke-width="1" opacity="0" d="M 493.5 120 L 500 124.5 L 499.5 126 L 502 127.5 Q 501.3 130.1 504 129 L 504 131 L 506 131 L 506 133 L 508.5 133 L 508.5 135 L 513.5 139 L 516 143 L 519 144.5 Q 518.3 146.8 520.5 146 L 524 148 Q 522.9 150.7 525.5 150 L 531.5 157 L 533 157 L 533 159 L 535 159 L 535 161 L 537 161 L 537 163 L 539 163 Q 537.9 165.7 540.5 165 L 546.5 172 Q 548.8 171.3 548 173.5 L 549 176 L 551 176 Q 549.9 178.7 552.5 178 L 555 182 Q 557.7 180.9 557 183.5 L 561 189 Q 563.7 187.9 563 190.5 L 567 193 L 567 195 Q 569.7 193.9 569 196.5 L 570 199 L 572 199 Q 570.9 201.7 573.5 201 L 583.5 214 Q 585.8 213.3 585 215.5 L 586 218 Q 588.7 216.9 588 219.5 L 589 222 L 595 226.5 L 596 230 Q 598.7 228.9 598 231.5 Q 602.2 235.5 603 242 Q 606.3 240.7 605 245.5 L 608 254 Q 611 252.8 610 256.5 L 612 263 L 614 263.5 L 613 267 L 615 267.5 L 614 270.5 Q 617.5 272 615 273.5 Q 613.9 276.8 616.5 276 L 616 277.5 L 618 291.5 Q 615.5 293 619 294.5 L 618 300.5 L 619 305.5 L 618 309.5 Q 620.3 310.8 619 315.5 L 618 320.5 L 619 325.5 L 617 335.5 Q 619.3 336.7 618 341.5 L 614 359.5 L 613 370.5 L 609 378.5 L 608 385.5 L 605 390.5 L 605 395 Q 601.7 393.9 603 398 L 608 397 L 608 394 Q 610.7 395.1 610 392.5 L 613 391 L 613 389 Q 615.7 390.1 615 387.5 L 619 385 L 621 380 L 628 376 Q 626.9 373.3 629.5 374 Q 636.8 365.6 648 362 Q 646.9 359.3 649.5 360 Q 654.7 355 663 354 Q 661.8 351 665.5 352 L 671 350 Q 669.7 346.7 674.5 348 L 683 345 Q 681.8 342 685.5 343 L 696 340 L 696.5 338 L 698.5 339 Q 700 335.5 701.5 338 L 705.5 336 L 707 336.5 Q 706.1 333.5 710.5 335 L 727.5 331 Q 729 333.5 730.5 330 L 735 331 L 735.5 329 Q 736.8 331.3 741.5 330 L 746.5 329 L 748.5 330 Q 750 326.5 751.5 329 L 758.5 330 Q 760 326.5 761.5 329 L 766.5 329 L 773.5 331 L 774.5 330 L 782.5 330 L 788.5 332 L 815.5 336 L 820.5 335 L 849.5 341 L 872.5 344 L 876.5 343 L 882.5 345 L 894 346 L 897 350.5 L 894 365.5 L 891 369.5 L 890 380 Q 887.3 378.9 888 381.5 L 886 390 Q 882.7 388.7 884 393.5 L 883 398 Q 880 396.8 881 400.5 L 880 406 Q 877.3 404.9 878 407.5 Q 875.8 408.8 877 413.5 L 874 416.5 L 873 423 Q 869.3 421.6 871 427.5 L 867 435.5 L 867 439.5 L 864 443.5 L 863 449.5 L 861 451.5 L 860 459.5 L 857 462.5 L 856 469 Q 852.3 467.6 854 473.5 L 853 476 L 851 476 L 851 481 L 849.5 481 Q 847 482.2 848 486 Q 845 484.8 846 488.5 L 845 491 Q 841.3 489.6 843 495.5 L 841 495.5 L 840 500 Q 836.7 498.7 838 503.5 L 836 503.5 L 833 510 L 831 510 L 831 513 Q 828.3 511.9 829 514.5 L 826 516 L 824 521 Q 821.3 519.9 822 522.5 L 818 525 L 816.5 528 L 813.5 530 L 811 534 L 809 534 Q 810.1 536.7 807.5 536 L 805 537 L 805 540 L 803 540 Q 804.1 542.7 801.5 542 L 794 547 Q 795.1 549.7 792.5 549 L 790 550 Q 791.1 552.7 788.5 552 L 786 553 Q 787.1 555.7 784.5 555 L 782 556 L 781.5 558 L 780 557.5 Q 780.8 559.8 778.5 559 L 776 560 Q 777.1 562.7 774.5 562 L 772 563 L 771.5 565 Q 770 562.5 768.5 566 L 764 567 L 763.5 569 L 762 568.5 Q 762.8 571.1 759.5 570 L 753 572 Q 754.3 575 750.5 574 L 729.5 580 L 702.5 585 L 701 584.5 Q 701.8 587.1 698.5 586 L 696.5 585 Q 695 588.5 693.5 586 L 679.5 588 L 676.5 587 L 675 590 L 683 593 Q 681.9 595.7 684.5 595 L 687 596 L 687 598 L 691 598 Q 689.9 600.7 692.5 600 Q 693.7 603.7 698 603 L 698 605 Q 701.8 603.5 701 606.5 L 704 608 L 704 610 L 707 610 L 707 612 L 710 612 Q 708.9 614.7 711.5 614 L 720 619 L 721.5 622 Q 724.1 621.3 723 624 L 726 624 L 726 625.5 L 730 628 L 730 630 L 732 630 Q 730.9 632.7 733.5 632 L 735 635 L 738 635 Q 736.9 637.7 739.5 637 L 739.5 639 L 741 639 L 741 641 L 743 641 L 743 643 L 745 643 L 745 645 Q 747.7 643.9 747 646.5 L 750 648 L 751 652 L 753 652 L 753 654 L 755 654 L 755 656 L 757 656 L 757 658 Q 759.7 656.9 759 659.5 L 760 662 Q 762.7 660.9 762 663.5 L 763 666 L 765 666.5 L 764.5 668 Q 766.8 667.3 766 669.5 Q 770.2 673.5 771 680 Q 774 678.8 773 682.5 L 777 689.5 Q 774.5 691 778 692.5 L 781 705 L 783 705.5 L 782 708.5 L 785 714.5 L 784 718 L 786 718.5 L 785 721.5 Q 788.5 723 786 724.5 Q 784.9 727.8 787.5 727 L 787 728.5 L 790 746.5 Q 787.5 748 791 749.5 L 790 753.5 Q 793.5 755 791 756.5 L 792 765.5 L 792 767.5 L 793 769.5 L 792 773.5 L 794 784.5 L 793 788.5 Q 795.2 789.8 794 794.5 Q 791.5 796 795 797.5 L 794 803.5 L 795 808.5 L 794 810.5 L 796 813.5 L 795 818.5 L 796 823.5 L 795 825.5 Q 798.5 827 796 828.5 L 797 837.5 L 796 841.5 L 798 852.5 L 797 857.5 L 798 862.5 L 797 864.5 Q 800.5 866 798 867.5 L 799 877 L 794.5 878 L 787.5 876 L 775.5 875 L 773.5 876 L 728.5 868 L 725.5 866 L 713.5 863 L 686.5 859 L 678.5 855 L 668.5 854 Q 665 849.5 656.5 850 L 653.5 847 Q 648.1 847.6 646 846 Q 647.4 842.3 641.5 844 L 637.5 841 L 627.5 838 L 624.5 835 L 621 835 Q 622.1 832.3 619.5 833 Q 617.4 829.1 612 830 L 610.5 827 L 605 825 L 605 823 Q 601.3 824.5 602 821.5 L 599 820 Q 600.1 817.3 597.5 818 L 594 816 L 594 814 L 592 814 L 592 812 Q 589.3 813.1 590 810.5 L 587 809 L 587 807 Q 584 808 585 805 L 582 805 L 582 803.5 L 581 801 Q 577.2 802.5 578 799.5 L 573 796 L 572 792 L 569 792 L 569 790 Q 566.3 791.1 567 788.5 L 566 786 Q 563.3 787.1 564 784.5 L 563 782 Q 560.3 783.1 561 780.5 L 559 776 Q 556.3 777.1 557 774.5 L 556 772 Q 553.3 773.1 554 770.5 L 552 766 Q 549.3 767.1 550 764.5 L 543 754.5 L 542 750 L 540 749.5 L 540.5 748 Q 538.3 748.8 539 746.5 L 536 741.5 L 536.5 740 Q 534.3 740.8 535 738.5 L 532 734.5 L 533 732 Q 530.3 733.1 531 730.5 L 529 724 Q 526.3 725.1 527 722.5 L 521 709 Q 518.3 710.1 519 707.5 L 517 704.5 Q 518.5 698.5 515.5 697 L 511 703.5 L 511 707.5 L 507 715.5 L 507 720 Q 504.3 718.9 505 721.5 Q 502.7 722.8 504 727.5 L 501 730.5 Q 501.9 736.9 498 738.5 L 497 745 Q 493.7 743.7 495 748.5 L 492 752.5 L 492 755.5 L 489 758.5 L 489 762 Q 486.3 760.9 487 763.5 L 486 768 Q 483 766.8 484 770.5 L 483 773 L 481 773 L 481 777 Q 478.3 775.9 479 778.5 L 478 781 L 476 781 L 476 784 L 474 784 L 474 787 Q 471.3 785.9 472 788.5 L 469 790 L 467 795 L 465 795 Q 466.5 798.8 463.5 798 L 460 803 L 456 804 L 456 806 Q 453.3 804.9 454 807.5 L 450 810 L 449.5 812 L 448 811.5 Q 448.8 813.8 446.5 813 L 444 814 Q 445.1 816.7 442.5 816 L 440 817 Q 441.1 819.7 438.5 819 L 436 820 L 435.5 822 L 434 821.5 Q 434.8 823.8 432.5 823 L 430 824 Q 431.1 826.7 428.5 826 Q 424.4 830.4 418 831 L 417.5 833 L 416 832.5 Q 416.8 835.1 413.5 834 L 408 836 Q 409.1 838.7 406.5 838 L 400 840 Q 401.1 842.7 398.5 842 L 392 844 Q 393.1 846.7 390.5 846 L 389 845.5 Q 389.9 848.5 385.5 847 Q 383.5 849.8 379 849 L 378.5 851 L 375 850 L 374.5 852 L 372 851 Q 373.3 854.3 368.5 853 L 352.5 858 L 347.5 858 L 334.5 861 L 332.5 861 L 330.5 862 L 326.5 861 L 311.5 864 L 309.5 863 L 306.5 865 L 303.5 864 L 283.5 868 L 280.5 867 L 269.5 869 L 266.5 868 Q 265 871.5 263.5 869 L 254.5 870 L 252.5 870 L 250.5 871 L 246 870 L 245.5 872 L 240.5 871 L 231.5 873 L 229.5 873 L 226.5 874 L 222.5 873 L 220 874 Q 221.1 876.7 218.5 876 L 215 875 L 218 854.5 L 221 850.5 L 223 841.5 L 228 808.5 L 231 804.5 L 239 756.5 L 242 752.5 L 244 737.5 L 247 733.5 L 248 724.5 L 251 720.5 L 252 713 Q 255 714.3 254 710.5 L 258 702.5 L 258 699 Q 261 700.3 260 696.5 L 261 693 Q 264.3 694.3 263 689.5 Q 267 688.1 266 683 Q 268.7 684.1 268 681.5 L 269 679 L 271 679 L 271 675 Q 273.7 676.1 273 673.5 L 276 669 L 278 669 L 278 666 L 280 666 L 280 664 L 282 664 Q 280.9 661.3 283.5 662 L 285.5 658 L 287 658.5 L 289 655.5 L 291.5 652 L 293 652.5 L 295 649.5 L 302 643.5 L 304 640.5 L 306 640.5 L 308 636 Q 310.7 637.1 310 634.5 L 312 634.5 L 314 631.5 L 319 629 Q 317.9 626.3 320.5 627 L 323 626 Q 321.9 623.3 324.5 624 L 327 623 L 327.5 621 L 329 621.5 Q 328.3 619.3 330.5 620 L 333 619 Q 331.9 616.3 334.5 617 L 337 616 Q 335.9 613.3 338.5 614 L 341 613 L 341.5 611 L 343 611.5 Q 342.3 609.3 344.5 610 L 361 602.5 L 359.5 600 L 348.5 599 L 344.5 600 Q 343 597.5 337.5 599 L 334.5 600 L 316.5 596 L 305.5 595 L 301.5 596 L 298.5 593 L 279 590 Q 280.3 587 276.5 588 Q 275.2 585.7 270.5 587 L 267.5 584 L 263.5 584 L 260.5 581 L 256 581 Q 257.1 578.3 254.5 579 L 250 578 Q 251.1 575.3 248.5 576 L 245 575 L 245 573 L 241 573 Q 242.1 570.3 239.5 571 L 237 570 Q 238.3 566.7 233.5 568 L 233.5 566 L 230.5 564 L 224.5 559 L 222 559 Q 223.1 556.3 220.5 557 L 216 554 L 216 552 L 213 552 L 213 550 Q 210.3 551.1 211 548.5 L 204 543 L 203 539 L 200 539 L 200 537 Q 197.3 538.1 198 535.5 L 197 533 Q 194.3 534.1 195 531.5 L 194 529 Q 191.3 530.1 192 527.5 L 190 523 Q 187.3 524.1 188 521.5 L 187 519 Q 184.3 520.1 185 517.5 L 178 507.5 L 176 501 Q 173.3 502.1 174 499.5 Q 171.2 497.5 172 493 Q 169.3 494.1 170 491.5 L 168 485 L 166 484.5 Q 168.5 483 165 481.5 L 164 476.5 L 159 467.5 L 159 464.5 L 156 460.5 L 157 458 Q 154 459.3 155 455.5 L 153 450 Q 150 451.3 151 447.5 L 146 436.5 L 146.5 435 Q 143.5 435.9 145 431.5 L 141 424.5 Q 143.5 423 140 421.5 L 137 410.5 L 135 408.5 Q 137.5 407 134 405.5 L 132 397 L 130 396.5 L 131 393 Q 128 394.3 129 390.5 L 126 382 Q 123.3 383.1 124 380.5 L 123 375.5 L 125.5 373 L 163.5 365 L 166 366 Q 164.8 363 168.5 364 L 170.5 365 Q 172 361.5 173.5 364 L 181 363 L 181.5 361 L 185.5 362 L 195.5 360 L 198.5 361 Q 200 357.5 201.5 360 L 210.5 359 L 215.5 360 L 220.5 359 L 224.5 360 Q 225.7 357.8 230.5 359 L 233.5 360 Q 235 357.5 240.5 359 L 244.5 360 Q 245.7 357.8 250.5 359 L 261.5 361 L 266.5 360 L 278.5 363 L 283.5 363 L 287.5 362 L 301.5 367 L 311.5 368 L 314.5 371 L 324.5 372 L 326 373.5 Q 325.4 376.3 331.5 375 L 336 376 Q 334.8 379 338.5 378 L 345 379.5 L 344.5 381 L 351 382 Q 349.9 384.7 352.5 384 L 356 385 Q 354.7 388.3 359.5 387 L 361 390 L 366 390 Q 364.9 392.7 367.5 392 L 371 393.5 L 370.5 395 L 374 395 Q 372.9 397.7 375.5 397 Q 376.9 401 382 400 L 382 402 Q 385.7 400.5 385 403.5 L 398 412 L 398 414 L 401 414 L 401 416 Q 404.7 414.5 404 417.5 L 408 423 L 413 425 L 413 427 L 415 427 L 415 429 Q 417.7 427.9 417 430.5 L 422 434 L 424.5 438 L 429 439 L 429 435 Q 426.3 436.1 427 433.5 L 425 427 L 423 426.5 L 424 424.5 Q 420.3 421.4 420 416 Q 416.7 417.3 418 412.5 L 416 408 Q 413 409.3 414 405.5 L 412 400 Q 409.3 401.1 410 398.5 L 405 389.5 L 403 381 Q 399.7 382.3 401 377.5 L 399 374.5 L 397 364 L 395 363.5 L 396 360 Q 393.3 361.1 394 358.5 L 395 355 L 393 354.5 L 394 351.5 L 389 326.5 L 390 324.5 Q 386.5 323 389 321.5 L 388 312.5 Q 390.2 311.2 389 306.5 L 388 302.5 L 392 279 Q 394.7 280.1 394 277.5 L 396 271.5 L 396 266.5 L 399 262.5 L 399 259.5 L 403.5 251 L 405 251 L 405 246 Q 407.7 247.1 407 244.5 Q 411 243.1 410 238 Q 412.7 239.1 412 236.5 L 413 233 L 415 233 L 415 229 Q 417.7 230.1 417 227.5 L 418 223 Q 420.7 224.1 420 221.5 L 429.5 204 L 431 204 L 431 200 Q 434 201.3 433 197.5 Q 436.8 196.3 436 192 Q 439 193.3 438 189.5 L 441 188 L 441 185 Q 444 186.3 443 182.5 L 446 177 L 448 177 L 448 174 L 450 174 Q 448.5 170.2 451.5 171 L 453 168 L 455 168 L 455 165 Q 458.3 166.1 457 162 L 459 162 Q 457.9 159.3 460.5 160 L 462 157 Q 464.7 158.1 464 155.5 L 466 152 Q 468.7 153.1 468 150.5 L 473 146.5 L 475 143.5 L 477 140 Q 479.7 141.1 479 138.5 L 484 132.5 L 484 130 Q 486.7 131.1 486 128.5 Q 489.8 127.3 489 123 L 491 123 Q 489.9 120.3 492.5 121 L 493.5 120 Z M 499 132 Q 497 139 503 137 L 503 134 L 499 132 Z M 484 141 L 482 144 L 485 145 L 486 143 L 484 141 Z M 480 144 L 480 148 L 474 150 L 469 157 Q 470 159 467 158 L 465 162 Q 466 164 464 163 Q 461 165 464 166 Q 467 167 468 164 Q 467 161 470 162 L 470 160 L 472 160 L 472 157 L 476 156 L 478 153 Q 480 154 479 151 L 481 151 L 481 148 Q 484 149 483 146 L 480 144 Z M 462 166 L 460 168 L 463 169 Q 464 165 462 166 Z M 394 302 L 393 305 L 394 313 L 396 311 L 397 306 Q 399 300 394 302 Z M 832 344 L 833 346 L 840 348 L 847 348 L 847 347 Q 842 343 832 344 Z M 881 366 L 879 368 L 879 371 Q 876 370 877 375 L 880 374 Q 879 371 882 372 L 883 369 Q 884 365 881 366 Z M 164 378 Q 161 380 164 381 L 168 381 Q 168 378 164 378 Z M 204 378 L 200 380 L 202 383 L 204 383 Q 203 380 206 381 Q 208 377 204 378 Z M 150 379 L 148 382 Q 153 384 152 380 L 150 379 Z M 155 379 L 157 382 Q 160 383 161 381 Q 160 378 155 379 Z M 144 381 L 145 382 L 146 383 Q 147 380 144 381 Z M 183 385 L 181 389 L 184 390 L 188 389 Q 189 385 191 388 Q 194 389 192 385 L 188 386 L 183 385 Z M 152 435 Q 152 442 156 447 Q 158 450 159 447 L 157 439 Q 158 436 155 437 L 155 435 L 152 435 Z M 787 772 L 785 774 Q 787 777 788 774 Q 789 771 787 772 Z M 786 779 L 785 782 L 788 783 L 789 781 Q 790 777 786 779 Z M 786 786 L 786 791 L 789 791 L 789 786 L 786 786 Z M 787 793 L 786 796 Q 785 799 789 798 L 790 795 L 787 793 Z M 787 801 L 787 805 L 790 804 Q 791 799 787 801 Z M 241 820 L 238 824 L 236 840 Q 239 841 238 838 L 241 838 L 240 833 L 242 823 L 241 820 Z M 771 845 L 769 847 Q 768 849 771 848 L 771 845 Z M 771 850 L 769 852 Q 768 855 772 854 L 773 852 L 771 850 Z M 784 858 Q 785 861 782 860 L 782 863 L 787 864 L 787 858 L 784 858 Z M 761 862 Q 760 865 763 864 Q 764 866 765 864 L 765 862 L 761 862 Z " /></svg>