<svg width="1024" height="1024" version="1.1" xmlns="http://www.w3.org/2000/svg" desc="Created with imagetracer.js version 0.2.1" ><path fill="rgb(56,98,72)" stroke="rgb(56,98,72)" stroke-width="1" opacity="0.596078431372549" d="M 427.5 81 L 470.5 109 L 487.5 123 L 492 125 Q 490.9 127.7 493.5 127 L 525 153.5 L 530 162 Q 532.7 160.9 532 163.5 L 539 173.5 L 548 195.5 L 553 223.5 L 553 231.5 L 555 241.5 L 555 254.5 L 554 255.5 L 552 273.5 L 553 273.5 Q 561.3 257.3 574.5 246 Q 576.8 246.8 576 244.5 L 581 242 Q 579.9 239.3 582.5 240 Q 595 229 610.5 221 L 627.5 213 L 632.5 212 L 634.5 210 L 645.5 208 L 648.5 206 L 661.5 205 L 662.5 204 L 672.5 204 L 673.5 203 L 683.5 203 L 684.5 202 L 715.5 202 L 716.5 201 L 754.5 201 Q 756.3 198.3 762.5 200 L 768 202 L 766 231.5 L 764 235.5 L 762 252.5 L 759 261.5 L 758 273.5 L 756 277.5 L 754 296.5 L 746 323.5 Q 729.3 361.8 699.5 387 L 690.5 394 L 672.5 403 L 643.5 414 L 634 415.5 L 676.5 436 L 702.5 455 L 713 465.5 L 727 485.5 L 738 511.5 L 739 518.5 L 745 534.5 L 747 547.5 L 750 554.5 L 751 563.5 L 753 566.5 L 754 576.5 L 757 583.5 L 757 588.5 L 761 601.5 L 762 610.5 L 764 613.5 L 764 619.5 L 763 622 L 679.5 622 L 678.5 621 L 655.5 620 L 650.5 618 L 634.5 616 L 614.5 609 L 610.5 609 L 606.5 606 L 603.5 606 L 594.5 602 L 560 578 Q 561.1 575.3 558.5 576 L 553.5 572 L 553 573.5 L 557 584.5 L 559 596.5 L 561 599.5 L 562 610.5 L 565 617.5 L 577 668.5 L 580 695.5 L 581 696.5 L 582 713.5 L 583 714.5 L 584 750.5 L 583 751.5 L 582 784.5 L 581 785.5 L 580 802.5 L 579 803.5 L 579 810.5 L 576 827.5 L 578.5 826 L 585 821.5 Q 583.9 818.2 586.5 819 L 595.5 805 Q 597.8 805.8 597 803.5 L 605.5 792 Q 607.8 792.8 607 790.5 L 610 789 L 611.5 786 Q 614.1 786.8 613 783.5 L 624.5 772 L 627 772 L 628.5 769 Q 630.8 769.8 630 767.5 L 633 766 L 634.5 763 L 636.5 763 L 640.5 759 L 643 759 L 644.5 756 L 646.5 756 L 657 748.5 Q 656.2 745.9 659.5 747 L 663 746 Q 661.8 743 665.5 744 L 669 743 Q 667.8 740 671.5 741 L 675.5 738 L 686 736 Q 684.7 732.7 689.5 734 L 695.5 731 L 705.5 730 L 707.5 728 Q 712.3 729.2 713.5 727 L 742 726 L 742.5 724 L 760.5 724 L 762.5 726 L 816.5 727 Q 818.3 724.3 824.5 726 L 826.5 724 L 834.5 723 L 836.5 721 L 843 720 Q 841.7 716.7 846.5 718 L 851 717 L 851 719.5 L 846.5 724 L 842 726 L 840.5 729 Q 837.9 728.3 839 731 L 836.5 731 L 835 735 L 832 736.5 L 830.5 739 Q 828.3 738.3 829 740.5 L 826 742 L 824.5 745 L 822 746.5 L 820.5 749 Q 818.3 748.3 819 750.5 L 809 761.5 L 807.5 765 Q 805.3 764.3 806 766.5 L 802 769.5 Q 802.7 772.1 800 771 L 800 773.5 L 792 781.5 L 792 784 L 789 785.5 Q 789.8 787.8 787.5 787 L 782 794 L 779 795.5 Q 779.8 797.8 777.5 797 L 776 800 L 769 805.5 Q 769.8 807.8 767.5 807 L 766 810 L 763 811.5 Q 763.8 813.8 761.5 813 L 750 821.5 Q 750.8 824.1 747.5 823 L 741 827 Q 742.3 830 738.5 829 Q 737.4 831.8 734 831 Q 735.3 834 731.5 833 L 715.5 842 L 704 844 Q 705.3 847.3 700.5 846 Q 699.2 848.2 694.5 847 L 692.5 849 L 680.5 850 L 678.5 852 L 666.5 852 L 665.5 853 L 621.5 853 L 620.5 852 L 600 852 Q 601.1 849.3 598.5 850 L 582.5 859 L 577.5 860 L 567 865 L 560 889.5 L 551 911.5 Q 540.3 933.8 526.5 953 Q 521 951.5 519.5 954 L 478.5 954 L 477 952.5 L 482 947.5 L 483 944 L 486 942.5 L 486 940.5 L 492 933.5 L 500.5 917 Q 503.1 917.8 502 914.5 L 503 911 Q 506 912.3 505 908.5 L 507 903 Q 510.7 904.4 509 898.5 L 515 888.5 L 516 881.5 L 519 876.5 L 519 872.5 L 522 867.5 L 523 860.5 L 512 846 Q 509.3 847.1 510 844.5 L 504 837 Q 501.3 838.1 502 835.5 L 500.5 834 L 486 833 Q 487.4 829 480.5 831 L 463 826 Q 464.3 823 460.5 824 L 446 815.5 Q 446.8 812.9 443.5 814 Q 440.4 807.9 434 807 L 432.5 804 L 430 802.5 Q 430.8 800.3 428.5 801 L 420 790.5 L 420 788 L 417 786.5 Q 417.8 784.3 415.5 785 L 410 775 Q 407 776.3 408 772.5 L 400 760.5 L 400 758 Q 397 759.3 398 755.5 L 391 744.5 L 385 738.5 L 384 734 L 388.5 734 Q 387.5 737 392.5 736 L 403.5 738 L 409.5 741 L 413.5 741 L 415.5 743 L 426 744 Q 424.6 748 431.5 746 L 436.5 747 L 438.5 749 L 445.5 750 L 449.5 753 L 455.5 754 Q 457.4 757.6 462 757 Q 460.8 760 464.5 759 L 468 760 L 469.5 763 L 478 767.5 L 479.5 770 L 481.5 770 L 498 786.5 Q 496.9 789.8 499.5 789 L 505.5 799 Q 508.1 798.2 507 801.5 L 508 805 L 511 806.5 L 514 812.5 L 514 815.5 L 517 819.5 L 518 825.5 L 525 835 Q 527.7 833.9 527 836.5 Q 528.5 839.5 530 836.5 Q 528.5 830 532 828.5 L 533 814.5 L 535 812.5 L 536 792 L 538 791.5 L 538 770.5 L 539 769.5 L 539 721.5 L 538 720.5 L 538 702 L 536 701.5 L 536 689.5 L 535 688.5 L 535 679.5 L 533 677.5 L 532 662.5 L 530 660.5 L 528 642.5 L 526 640.5 L 525 635.5 L 525 629.5 L 523 627.5 L 522 617.5 L 519 612.5 L 519 607.5 L 517 605.5 L 515 593.5 L 513 591.5 L 512 583.5 L 510.5 582 Q 507.9 581.2 509 584.5 Q 496.7 615.2 472.5 634 L 450.5 651 L 422.5 666 L 416.5 667 L 414.5 669 L 395.5 674 L 377.5 681 L 370.5 682 L 367.5 684 Q 356.1 684.6 348.5 689 L 344.5 689 L 318.5 699 Q 313.3 696.3 315 686.5 L 316 684.5 L 315 682.5 L 317 679.5 L 317 648.5 L 318 647.5 L 318 618.5 L 319 617.5 L 319 615.5 L 319 593.5 L 320 592.5 L 322 570.5 L 331 537.5 L 338 524.5 L 358 496.5 L 381.5 473 L 386 470.5 L 379.5 470 L 378.5 471 L 361.5 472 L 360.5 473 L 338.5 473 L 337.5 472 L 311.5 469 L 308.5 467 L 293.5 463 L 270.5 451 L 253 437.5 Q 253.8 435.3 251.5 436 L 249 432 L 245 429.5 Q 245.8 427.3 243.5 428 L 240.5 424 Q 238.3 424.8 239 422.5 L 227 407.5 Q 217 388.5 204 372.5 L 204 370.5 L 193 354.5 L 192 350.5 Q 186.2 345.8 184 337.5 L 178 330.5 L 178 326.5 L 182.5 323 L 190.5 321 L 192.5 319 L 200.5 317 L 202.5 315 L 221.5 308 L 231.5 306 L 234.5 304 L 248.5 302 L 252.5 300 L 264.5 299 L 276.5 296 L 320.5 295 L 321.5 296 L 334.5 297 L 337.5 299 L 354.5 301 L 356.5 303 L 375.5 308 L 393.5 316 L 415.5 330 L 415 328.5 L 403 310 L 400 308.5 L 399 305 Q 396.3 306.1 397 303.5 Q 390 297 388 287 Q 385 288.3 386 284.5 L 382 277.5 L 380 269.5 L 378 267.5 L 377 260.5 L 375 257.5 L 373 246.5 L 371 242.5 L 371 213.5 L 373 207.5 L 374 197.5 L 381 180.5 L 386 161.5 L 397 134.5 L 400 130.5 L 402 123 Q 405 124.3 404 120.5 L 416 102.5 L 424 84.5 L 427.5 81 Z M 428 83 L 417 105 L 405 123 Q 406 126 403 125 L 401 131 Q 402 134 399 133 L 397 142 L 393 150 Q 394 153 391 152 L 391 156 L 387 164 L 382 183 L 378 191 Q 380 196 376 195 L 374 206 L 374 216 L 372 218 L 372 240 L 374 242 L 375 253 L 377 255 L 379 265 L 381 267 L 383 276 L 387 283 Q 386 286 389 285 L 391 291 Q 390 294 393 293 L 394 297 L 404 311 L 408 313 L 410 318 Q 409 320 412 319 L 413 323 L 421 333 L 421 335 L 419 335 L 414 331 Q 411 332 412 329 L 408 327 Q 405 328 406 325 L 402 323 Q 399 324 400 321 L 398 321 L 384 313 L 377 311 Q 373 312 374 309 L 367 307 Q 362 308 363 305 L 359 304 Q 354 305 355 302 L 343 300 L 336 300 L 335 298 L 314 297 L 313 296 L 284 297 L 279 299 L 256 301 L 254 303 L 243 304 L 242 305 Q 235 303 236 307 L 226 309 Q 221 308 222 311 L 216 312 L 201 319 L 198 319 Q 193 323 185 324 L 179 329 L 187 340 Q 186 342 189 341 L 195 355 L 206 371 Q 205 374 208 373 L 214 384 Q 213 386 216 385 L 218 390 Q 217 392 220 391 L 229 407 Q 228 409 231 408 L 233 412 Q 232 415 235 414 L 237 418 Q 236 420 239 419 L 242 423 Q 244 422 243 425 L 258 438 L 259 441 L 269 447 Q 271 446 270 449 L 273 449 L 278 453 L 289 458 Q 291 457 290 460 L 309 466 Q 314 464 313 468 L 327 469 L 328 470 L 342 470 L 345 472 Q 350 473 351 470 L 374 470 L 387 467 L 391 468 Q 393 467 392 470 L 382 474 L 380 478 Q 377 477 378 480 L 376 481 L 374 484 L 372 485 L 370 488 L 368 489 L 365 493 Q 362 492 363 495 L 359 497 Q 360 500 357 502 Q 358 504 355 503 L 354 507 L 342 523 Q 343 525 340 524 L 334 537 Q 335 540 332 539 L 330 550 L 327 556 L 326 566 L 324 568 L 323 584 L 322 585 L 322 596 L 320 602 L 320 640 L 319 641 L 319 676 L 318 677 L 318 696 Q 323 697 326 693 L 337 691 L 342 688 L 350 687 L 352 685 L 366 683 L 368 681 L 376 680 L 381 677 L 388 676 L 390 674 L 397 672 L 401 672 L 403 670 L 410 669 Q 414 665 423 664 L 449 650 L 474 630 Q 476 631 475 629 L 479 626 L 482 622 Q 484 623 483 621 L 487 618 L 493 610 Q 492 607 495 608 L 500 600 Q 499 596 502 597 L 504 592 Q 503 588 506 589 L 508 580 L 511 578 Q 510 582 513 581 L 514 587 Q 512 592 516 591 L 517 601 L 519 603 L 521 613 Q 520 617 523 616 L 524 623 Q 522 628 526 627 L 526 635 L 527 636 Q 525 641 529 640 L 529 648 L 530 653 L 532 655 L 533 669 L 534 670 L 534 678 L 536 678 L 536 688 L 537 689 L 537 701 L 539 701 L 539 720 L 540 721 L 540 771 L 539 772 L 539 793 L 537 793 L 537 804 L 536 805 L 536 814 L 534 814 L 533 830 L 532 831 L 532 837 Q 529 836 530 842 L 526 839 Q 527 836 525 837 L 519 830 Q 520 826 517 827 L 516 823 Q 517 819 514 820 L 512 813 Q 513 809 510 810 L 510 808 L 507 806 L 506 800 L 503 799 Q 504 795 501 796 L 499 790 Q 496 791 497 788 L 494 786 L 493 783 Q 490 784 491 782 L 484 776 L 483 773 Q 480 774 481 771 L 479 771 L 477 769 L 469 764 L 467 761 L 464 760 Q 460 761 461 758 L 458 757 Q 454 758 455 755 L 449 754 L 441 750 Q 436 751 437 748 L 431 747 Q 424 749 425 745 L 419 744 Q 413 746 414 742 Q 407 743 404 740 Q 397 742 398 738 L 392 737 L 388 737 Q 389 734 386 735 L 386 738 Q 389 737 388 740 L 391 741 L 393 746 Q 392 748 395 747 L 396 753 L 399 755 Q 398 758 401 757 L 405 767 L 408 768 L 409 772 Q 408 775 411 774 L 417 784 Q 419 783 418 786 L 421 787 L 421 790 L 430 800 Q 432 799 431 802 L 434 803 L 435 806 L 439 807 L 442 812 L 448 815 Q 447 817 451 816 L 452 819 L 456 820 Q 459 819 458 822 L 462 823 Q 465 822 464 825 L 472 827 Q 476 826 475 829 L 482 830 Q 488 828 487 832 L 503 833 L 505 836 Q 507 835 506 838 L 509 839 L 511 843 Q 510 845 513 844 L 514 848 L 517 850 Q 516 852 519 851 L 524 859 Q 526 864 523 866 Q 524 870 521 869 L 519 879 Q 520 883 517 882 L 516 887 Q 518 892 514 891 L 513 895 Q 514 897 511 896 L 510 904 L 506 910 Q 507 913 504 912 L 503 918 L 500 920 Q 501 923 498 922 Q 498 929 493 933 Q 494 936 491 935 L 490 938 Q 491 941 489 940 L 487 944 L 484 945 L 483 948 Q 484 951 482 950 L 480 953 L 520 953 L 520 951 L 526 951 L 527 947 L 538 931 L 549 910 L 553 897 L 555 895 Q 556 886 560 882 L 561 875 L 564 871 L 565 865 L 572 861 Q 575 862 574 859 L 580 858 L 597 849 L 602 850 L 622 850 L 622 852 L 665 852 L 667 850 L 678 850 L 687 848 Q 694 850 693 846 L 700 845 Q 704 846 703 843 L 708 842 Q 713 844 712 840 L 719 839 L 725 835 Q 728 836 727 833 L 731 832 Q 734 833 733 830 L 736 830 L 743 825 Q 746 826 745 824 L 749 822 L 751 819 Q 754 820 753 817 L 761 812 Q 763 813 762 811 L 765 809 L 767 806 Q 769 807 768 805 L 771 803 L 774 799 Q 776 800 775 798 L 778 796 L 780 793 Q 782 794 781 792 L 785 789 L 787 786 Q 789 787 788 785 L 791 783 L 791 781 L 796 774 L 799 773 L 799 770 Q 802 771 801 769 L 805 766 Q 804 763 807 764 L 809 758 L 817 753 L 820 747 Q 822 748 821 746 L 824 744 L 825 741 L 828 740 Q 827 737 830 738 L 831 736 L 834 734 L 836 730 L 838 730 Q 837 727 840 728 L 843 724 Q 845 725 844 722 L 847 722 L 850 718 L 848 719 Q 843 718 844 721 L 841 722 Q 836 721 837 724 L 832 725 Q 826 723 827 727 L 819 727 L 818 728 L 762 727 L 760 725 L 744 725 L 743 727 L 724 727 L 723 728 L 715 728 L 714 730 L 708 730 L 701 732 Q 695 730 696 734 L 691 735 Q 686 734 687 737 L 683 738 Q 679 737 680 740 L 673 742 Q 669 741 670 744 L 667 745 Q 663 744 664 747 L 658 748 L 657 751 Q 653 750 654 753 L 650 755 Q 647 754 648 757 L 646 757 L 644 760 L 642 760 L 634 766 Q 635 768 633 767 L 631 770 L 628 772 Q 629 774 626 773 L 624 776 L 619 778 L 614 785 L 614 787 Q 611 786 612 789 L 608 792 Q 609 794 607 793 L 605 797 L 599 801 L 598 806 L 595 808 Q 596 811 593 810 L 591 815 Q 592 817 589 816 L 589 819 L 586 820 L 586 823 L 582 827 Q 579 826 580 829 L 573 832 L 574 818 L 576 815 L 576 807 L 577 806 L 577 796 L 579 785 L 579 772 L 581 768 L 581 720 L 579 716 L 576 679 L 574 676 L 572 655 L 570 653 L 568 638 L 566 636 Q 566 623 561 616 L 560 604 L 558 601 L 556 587 L 554 585 L 550 569 Q 554 568 556 571 Q 558 570 557 573 L 560 574 Q 562 573 561 576 L 569 581 L 570 584 Q 573 583 575 586 Q 577 585 576 588 Q 582 589 586 594 Q 589 593 588 596 L 614 608 L 621 609 L 623 611 L 631 613 L 635 613 L 637 615 L 657 617 L 659 619 L 696 620 L 697 621 L 753 621 L 754 620 L 763 620 L 763 616 L 761 614 L 760 604 L 757 598 L 756 587 L 754 585 L 752 570 L 750 568 L 748 557 Q 750 551 746 552 L 744 541 Q 746 535 742 536 L 741 527 L 739 525 L 737 517 Q 738 512 735 513 L 733 506 Q 734 501 731 502 L 730 496 L 718 476 Q 719 473 716 474 L 710 466 Q 711 463 709 464 L 706 460 L 700 455 Q 697 456 698 453 L 689 447 Q 686 448 687 445 L 671 435 Q 668 436 669 433 L 662 431 L 650 424 Q 645 425 646 422 L 640 420 Q 636 421 637 418 L 634 417 Q 629 418 630 416 L 636 413 L 645 412 L 647 410 L 654 408 Q 658 409 657 406 L 664 405 L 675 399 L 680 398 L 694 389 Q 696 390 695 387 L 699 386 L 700 384 L 703 382 L 706 378 Q 708 379 707 377 L 710 375 L 711 373 L 714 371 L 718 365 L 722 362 L 724 358 Q 723 355 726 356 L 727 353 L 730 351 L 730 349 L 741 332 L 747 315 Q 746 310 749 311 L 751 296 L 753 294 L 755 273 L 757 271 L 759 252 L 761 250 L 763 230 L 765 228 L 766 203 L 763 202 L 701 203 L 691 205 L 671 205 L 670 206 L 652 207 L 650 209 Q 643 208 640 211 Q 635 210 636 213 L 633 213 L 623 217 L 606 226 Q 603 225 604 228 L 600 230 Q 597 229 598 232 L 595 233 L 580 244 L 578 247 L 575 249 Q 572 248 573 251 L 569 254 Q 570 256 567 255 L 566 259 L 563 260 L 562 263 Q 563 265 560 264 L 558 269 Q 559 271 556 270 L 554 275 Q 555 277 552 276 L 552 279 L 551 279 L 549 280 L 552 263 L 552 230 L 551 229 L 550 212 L 548 210 L 547 199 L 544 193 L 543 186 L 539 179 Q 540 175 537 176 Q 534 166 527 160 Q 528 157 525 158 L 523 153 L 511 144 L 509 141 L 506 140 L 504 137 L 493 128 Q 489 129 490 127 L 487 124 Q 484 125 485 122 L 477 116 Q 474 117 475 114 L 472 113 L 462 105 L 460 105 L 458 102 L 455 101 Q 452 102 453 99 L 449 97 Q 446 98 447 95 L 443 93 Q 440 94 441 91 L 438 90 L 436 87 L 434 87 L 430 83 L 428 83 Z " /><path fill="rgb(56,98,72)" stroke="rgb(56,98,72)" stroke-width="1" opacity="0.596078431372549" d="M 435 93 Q 438 92 437 95 Q 434 96 435 93 Z " /><path fill="rgb(56,98,72)" stroke="rgb(56,98,72)" stroke-width="1" opacity="0.596078431372549" d="M 718.5 208 L 727 208.5 Q 725.3 210.8 720.5 210 L 718.5 208 Z " /><path fill="rgb(56,98,72)" stroke="rgb(56,98,72)" stroke-width="1" opacity="0.596078431372549" d="M 377 236 L 379 236 L 379 242 L 377 242 L 377 236 Z " /><path fill="rgb(56,98,72)" stroke="rgb(56,98,72)" stroke-width="1" opacity="0.596078431372549" d="M 241.5 320 Q 243.8 319.3 243 321.5 Q 241.5 324.5 240 321.5 L 241.5 320 Z " /><path fill="rgb(56,98,72)" stroke="rgb(56,98,72)" stroke-width="1" opacity="0.596078431372549" d="M 228.5 327 L 232 328.5 L 228.5 330 Q 225.5 328.5 228.5 327 Z " /><path fill="rgb(56,98,72)" stroke="rgb(56,98,72)" stroke-width="1" opacity="0.596078431372549" d="M 492 340 L 517.5 340 L 519.5 342 L 532.5 344 L 539.5 348 L 544 348 Q 542.9 350.7 545.5 350 Q 546.8 353 551 352 L 552.5 355 Q 559 356.5 561.5 362 L 565 363 L 567.5 367 Q 570.1 366.2 569 369.5 L 578 379.5 L 578 382 Q 581 380.8 580 384.5 L 582 389 Q 585.7 387.6 584 393.5 L 586 400 Q 590 398.6 588 405.5 L 590 412.5 L 590 439.5 L 588 445.5 L 588 450.5 L 584 458.5 L 584 463 L 581 464.5 L 580 470 Q 577.3 468.9 578 471.5 L 576 475 Q 573 473.8 574 477.5 L 562.5 490 L 553.5 497 L 549 498 Q 550.1 500.7 547.5 500 Q 546.3 503 542 502 Q 543.3 505 539.5 504 Q 537 507.2 531 506 Q 532.3 509 528.5 508 L 518.5 511 L 491.5 511 L 473.5 506 L 471.5 504 L 464 502 L 464 500 L 461 500 Q 462.3 497 458.5 498 L 455 495.5 Q 455.8 493.3 453.5 494 L 450 491.5 Q 450.8 488.9 447.5 490 L 445 486 L 441 483.5 L 436 477.5 L 436 475 Q 433 476.3 434 472.5 Q 430 470.3 430 465 Q 427.3 466.1 428 463.5 L 426 455 Q 423 456.3 424 452.5 L 420 439.5 L 420 412.5 L 428 386 Q 430.7 387.1 430 384.5 L 432 380 Q 435 381.3 434 377.5 L 436 374 Q 438.7 375.1 438 372.5 L 447.5 362 L 450 360.5 Q 449.3 358.3 451.5 359 L 466 349.5 Q 465.1 346.1 470.5 348 L 477.5 344 L 492 342 L 492 340 Z M 493 343 L 492 344 L 484 344 Q 480 348 473 348 L 454 360 Q 451 359 452 362 L 443 370 L 441 373 L 437 375 L 436 380 L 433 383 L 425 399 L 424 408 L 422 410 L 421 415 L 421 438 L 423 441 L 425 453 L 429 460 Q 427 465 431 464 L 433 470 L 443 483 Q 455 495 471 503 Q 478 503 483 507 L 492 508 L 494 510 L 518 509 L 524 507 L 529 507 L 537 503 Q 542 505 541 501 L 547 499 L 562 488 L 576 472 L 584 456 L 584 452 L 588 443 L 588 410 L 584 400 L 584 396 L 580 389 Q 581 385 578 386 L 576 381 L 564 365 L 560 363 L 558 361 L 555 358 Q 552 359 553 356 Q 547 356 544 351 Q 540 352 541 349 L 534 348 L 526 344 Q 519 346 518 343 L 493 343 Z " /><path fill="rgb(56,98,72)" stroke="rgb(56,98,72)" stroke-width="1" opacity="0.596078431372549" d="M 211.5 369 Q 213.8 368.3 213 370.5 L 216 374.5 L 215 375.5 L 216.5 378 Q 214.3 378.8 215 376.5 L 210 370.5 L 211.5 369 Z " /><path fill="rgb(56,98,72)" stroke="rgb(56,98,72)" stroke-width="1" opacity="0.596078431372549" d="M 742.5 551 L 743 554 Q 740.3 555.1 741 552.5 L 742.5 551 Z " /><path fill="rgb(56,98,72)" stroke="rgb(56,98,72)" stroke-width="1" opacity="0.596078431372549" d="M 743.5 557 L 744 559.5 L 743 559.5 L 743.5 557 Z " /><path fill="rgb(56,98,72)" stroke="rgb(56,98,72)" stroke-width="1" opacity="0.596078431372549" d="M 534.5 590 L 535 592.5 L 534 592.5 L 534.5 590 Z " /><path fill="rgb(56,98,72)" stroke="rgb(56,98,72)" stroke-width="1" opacity="0.596078431372549" d="M 540.5 607 L 541 610.5 L 540 610.5 L 540.5 607 Z " /><path fill="rgb(56,98,72)" stroke="rgb(56,98,72)" stroke-width="1" opacity="0.596078431372549" d="M 329.5 652 L 331 656.5 L 329.5 661 L 329.5 652 Z " /><path fill="rgb(56,98,72)" stroke="rgb(56,98,72)" stroke-width="1" opacity="0.596078431372549" d="M 330.5 662 L 331.5 664 Q 328.7 664.7 330.5 662 Z " /><path fill="rgb(56,98,72)" stroke="rgb(56,98,72)" stroke-width="1" opacity="1" d="M 0 0 L 1024 0 L 1024 1024 L 0 1024 L 0 0 Z M 428 81 L 424 85 L 416 103 L 404 121 Q 405 124 402 123 L 400 131 L 397 135 L 386 162 L 381 181 L 374 198 L 373 208 L 371 214 L 371 243 L 373 247 L 375 258 L 377 261 L 378 268 L 380 270 L 382 278 L 386 285 Q 385 288 388 287 Q 390 297 397 304 Q 396 306 399 305 L 400 309 L 403 310 L 415 329 L 416 330 L 394 316 L 376 308 L 357 303 L 355 301 L 338 299 L 335 297 L 322 296 L 321 295 L 277 296 L 265 299 L 253 300 L 249 302 L 235 304 L 232 306 L 222 308 L 203 315 L 201 317 L 193 319 L 191 321 L 183 323 L 178 327 L 178 331 L 184 338 Q 186 346 192 351 L 193 355 L 204 371 L 204 373 Q 217 388 227 408 L 239 423 Q 238 425 241 424 L 244 428 Q 246 427 245 430 L 249 432 L 252 436 Q 254 435 253 438 L 271 451 L 294 463 L 309 467 L 312 469 L 338 472 L 339 473 L 361 473 L 362 472 L 379 471 L 380 470 L 386 471 L 382 473 L 358 497 L 338 525 L 331 538 L 322 571 L 320 593 L 319 594 L 319 616 L 319 618 L 318 619 L 318 648 L 317 649 L 317 680 L 315 683 L 316 685 L 315 687 Q 313 696 319 699 L 345 689 L 349 689 Q 356 685 368 684 L 371 682 L 378 681 L 396 674 L 415 669 L 417 667 L 423 666 L 451 651 L 473 634 Q 497 615 509 585 Q 508 581 511 582 L 512 584 L 513 592 L 515 594 L 517 606 L 519 608 L 519 613 L 522 618 L 523 628 L 525 630 L 525 636 L 526 641 L 528 643 L 530 661 L 532 663 L 533 678 L 535 680 L 535 689 L 536 690 L 536 702 L 538 702 L 538 721 L 539 722 L 539 770 L 538 771 L 538 792 L 536 792 L 535 813 L 533 815 L 532 829 Q 529 830 530 837 Q 529 840 527 837 Q 528 834 525 835 L 518 826 L 517 820 L 514 816 L 514 813 L 511 807 L 508 805 L 507 802 Q 508 798 506 799 L 500 789 Q 497 790 498 787 L 482 770 L 480 770 L 478 768 L 470 763 L 468 760 L 465 759 Q 461 760 462 757 Q 457 758 456 754 L 450 753 L 446 750 L 439 749 L 437 747 L 432 746 Q 425 748 426 744 L 416 743 L 414 741 L 410 741 L 404 738 L 393 736 Q 388 737 389 734 L 384 734 L 385 739 L 391 745 L 398 756 Q 397 759 400 758 L 400 761 L 408 773 Q 407 776 410 775 L 416 785 Q 418 784 417 787 L 420 788 L 420 791 L 429 801 Q 431 800 430 803 L 433 804 L 434 807 Q 440 808 444 814 Q 447 813 446 816 L 461 824 Q 464 823 463 826 L 481 831 Q 487 829 486 833 L 501 834 L 502 836 Q 501 838 504 837 L 510 845 Q 509 847 512 846 L 523 861 L 522 868 L 519 873 L 519 877 L 516 882 L 515 889 L 509 899 Q 511 904 507 903 L 505 909 Q 506 912 503 911 L 502 915 Q 503 918 501 917 L 492 934 L 486 941 L 486 943 L 483 944 L 482 948 L 477 953 L 479 954 L 520 954 Q 521 952 527 953 Q 540 934 551 912 L 560 890 L 567 865 L 578 860 L 583 859 L 599 850 Q 601 849 600 852 L 621 852 L 622 853 L 666 853 L 667 852 L 679 852 L 681 850 L 693 849 L 695 847 Q 699 848 701 846 Q 705 847 704 844 L 716 842 L 732 833 Q 735 834 734 831 Q 737 832 739 829 Q 742 830 741 827 L 748 823 Q 751 824 750 822 L 762 813 Q 764 814 763 812 L 766 810 L 768 807 Q 770 808 769 806 L 776 800 L 778 797 Q 780 798 779 796 L 782 794 L 788 787 Q 790 788 789 786 L 792 784 L 792 782 L 800 774 L 800 771 Q 803 772 802 770 L 806 767 Q 805 764 808 765 L 809 762 L 819 751 Q 818 748 821 749 L 822 747 L 825 745 L 826 742 L 829 741 Q 828 738 831 739 L 832 737 L 835 735 L 837 731 L 839 731 Q 838 728 841 729 L 842 726 L 847 724 L 851 720 L 851 717 L 847 718 Q 842 717 843 720 L 837 721 L 835 723 L 827 724 L 825 726 Q 818 724 817 727 L 763 726 L 761 724 L 743 724 L 742 726 L 714 727 Q 712 729 708 728 L 706 730 L 696 731 L 690 734 Q 685 733 686 736 L 676 738 L 672 741 Q 668 740 669 743 L 666 744 Q 662 743 663 746 L 660 747 Q 656 746 657 749 L 647 756 L 645 756 L 643 759 L 641 759 L 637 763 L 635 763 L 633 766 L 630 768 Q 631 770 629 769 L 627 772 L 625 772 L 613 784 Q 614 787 612 786 L 610 789 L 607 791 Q 608 793 606 792 L 597 804 Q 598 806 596 805 L 587 819 Q 584 818 585 822 L 579 826 L 576 828 L 579 811 L 579 804 L 580 803 L 581 786 L 582 785 L 583 752 L 584 751 L 583 715 L 582 714 L 581 697 L 580 696 L 577 669 L 565 618 L 562 611 L 561 600 L 559 597 L 557 585 L 553 574 L 554 572 L 559 576 Q 561 575 560 578 L 595 602 L 604 606 L 607 606 L 611 609 L 615 609 L 635 616 L 651 618 L 656 620 L 679 621 L 680 622 L 763 622 L 764 620 L 764 614 L 762 611 L 761 602 L 757 589 L 757 584 L 754 577 L 753 567 L 751 564 L 750 555 L 747 548 L 745 535 L 739 519 L 738 512 L 727 486 L 713 466 L 703 455 L 677 436 L 634 416 L 644 414 L 673 403 L 691 394 L 700 387 Q 729 362 746 324 L 754 297 L 756 278 L 758 274 L 759 262 L 762 253 L 764 236 L 766 232 L 768 202 L 763 200 Q 756 198 755 201 L 717 201 L 716 202 L 685 202 L 684 203 L 674 203 L 673 204 L 663 204 L 662 205 L 649 206 L 646 208 L 635 210 L 633 212 L 628 213 L 611 221 Q 595 229 583 240 Q 580 239 581 242 L 576 245 Q 577 247 575 246 Q 561 257 553 274 L 552 274 L 554 256 L 555 255 L 555 242 L 553 232 L 553 224 L 548 196 L 539 174 L 532 164 Q 533 161 530 162 L 525 154 L 494 127 Q 491 128 492 125 L 488 123 L 471 109 L 428 81 Z " /><path fill="rgb(56,98,72)" stroke="rgb(56,98,72)" stroke-width="1" opacity="1" d="M 492.5 343 L 517.5 343 Q 519.3 345.8 525.5 344 L 533.5 348 L 541 349 Q 539.8 352 543.5 351 Q 546.8 355.6 553 356 Q 551.9 358.7 554.5 358 L 558 360.5 L 559.5 363 L 564 365 L 576 380.5 L 578 386 Q 581 384.8 580 388.5 L 584 395.5 L 584 399.5 L 588 409.5 L 588 442.5 L 584 451.5 L 584 455.5 L 576 471.5 L 561.5 488 L 546.5 499 L 541 501 Q 542.4 504.7 536.5 503 L 528.5 507 L 523.5 507 L 517.5 509 L 493.5 510 L 491.5 508 L 482.5 507 Q 478 503.5 470.5 503 Q 454.5 495 443 482.5 L 433 469.5 L 431 464 Q 427.3 465.4 429 459.5 L 425 452.5 L 423 440.5 L 421 437.5 L 421 414.5 L 422 409.5 L 424 407.5 L 425 398.5 L 433 382.5 L 436 379.5 L 437 375 L 441 372.5 L 443 369.5 L 452 361.5 Q 451.3 359.3 453.5 360 L 472.5 348 Q 480.3 348.3 483.5 344 L 491.5 344 L 492.5 343 Z " /><path fill="rgb(0,0,0)" stroke="rgb(0,0,0)" stroke-width="1" opacity="0" d="M 427.5 83 L 429.5 83 L 433.5 87 L 436 87 L 437.5 90 L 441 91 Q 439.9 93.7 442.5 93 L 447 95 Q 445.9 97.7 448.5 97 L 453 99 Q 451.9 101.7 454.5 101 L 458 102 L 459.5 105 L 461.5 105 L 471.5 113 L 475 114 Q 473.9 116.7 476.5 116 L 485 122 Q 483.9 124.7 486.5 124 L 490 126.5 Q 489.2 129.1 492.5 128 L 504 137 L 505.5 140 L 509 141 L 510.5 144 L 523 153 L 525 158 Q 527.7 156.9 527 159.5 Q 534.3 166.3 537 176 Q 540 174.8 539 178.5 L 543 185.5 L 544 192.5 L 547 198.5 L 548 209.5 L 550 211.5 L 551 228.5 L 552 229.5 L 552 262.5 L 551 263.5 L 550 279 L 552 279 L 552 276 Q 554.7 277.1 554 274.5 L 556 270 Q 558.7 271.1 558 268.5 L 560 264 Q 562.7 265.1 562 262.5 L 563 260 L 566 258.5 L 567 255 Q 569.7 256.1 569 253.5 L 573 251 Q 571.9 248.3 574.5 249 L 578 247 L 579.5 244 L 594.5 233 L 598 232 Q 596.9 229.3 599.5 230 L 604 228 Q 602.9 225.3 605.5 226 L 622.5 217 L 632.5 213 L 636 213 Q 634.7 209.7 639.5 211 Q 642.8 208.3 649.5 209 L 651.5 207 L 669.5 206 L 670.5 205 L 690.5 205 L 700.5 203 L 762.5 202 L 766 203 L 765 227.5 L 763 229.5 L 761 249.5 L 759 251.5 L 757 270.5 L 755 272.5 L 753 293.5 L 751 295.5 L 749 311 Q 745.7 309.7 747 314.5 L 741 331.5 L 730 348.5 L 730 351 L 727 352.5 L 726 356 Q 723.3 354.9 724 357.5 L 722 362 L 718 364.5 L 713.5 371 L 711 372.5 L 709.5 375 L 707 376.5 Q 707.8 378.8 705.5 378 L 703 382 L 700 383.5 L 698.5 386 L 695 387 Q 696.1 389.7 693.5 389 L 679.5 398 L 674.5 399 L 663.5 405 L 657 406 Q 658.3 409.3 653.5 408 L 646.5 410 L 644.5 412 L 635.5 413 L 630 415.5 Q 629.1 418.5 633.5 417 L 637 418 Q 635.8 421 639.5 420 L 646 422 Q 644.7 425.3 649.5 424 L 661.5 431 L 669 433 Q 667.9 435.7 670.5 435 L 687 445 Q 685.9 447.7 688.5 447 L 698 453 Q 696.9 455.7 699.5 455 L 706 460 L 708.5 464 Q 710.8 463.3 710 465.5 L 716 474 Q 718.7 472.9 718 475.5 L 730 495.5 L 731 502 Q 734.3 500.7 733 505.5 L 735 513 Q 738.3 511.7 737 516.5 L 739 524.5 L 741 526.5 L 742 536 Q 745.7 534.6 744 540.5 L 746 552 Q 749.7 550.6 748 556.5 L 750 567.5 L 752 569.5 L 754 584.5 L 756 586.5 L 757 597.5 L 760 603.5 L 761 613.5 L 763 615.5 L 763 620 L 753.5 620 L 752.5 621 L 696.5 621 L 695.5 620 L 658.5 619 L 656.5 617 L 636.5 615 L 634.5 613 L 630.5 613 L 622.5 611 L 620.5 609 L 613.5 608 L 588 596 Q 589.3 593 585.5 594 Q 582 589 576 588 Q 577.1 585.3 574.5 586 Q 573.4 583.2 570 584 L 568.5 581 L 561 575.5 Q 561.8 573.3 559.5 574 L 557 573 Q 558.1 570.3 555.5 571 Q 554.3 568 550 569 L 554 584.5 L 556 586.5 L 558 600.5 L 560 603.5 L 561 615.5 Q 565.6 623.4 566 635.5 L 568 637.5 L 570 652.5 L 572 654.5 L 574 675.5 L 576 678.5 L 579 715.5 L 581 719.5 L 581 767.5 L 579 771.5 L 579 784.5 L 577 795.5 L 577 805.5 L 576 806.5 L 576 814.5 L 574 817.5 L 573 832 L 580 829 Q 578.9 826.3 581.5 827 L 586 822.5 L 586 820 L 589 818.5 L 589 816 Q 591.7 817.1 591 814.5 L 593 810 Q 596 811.3 595 807.5 L 598 806 L 599 801 L 605 796.5 L 606.5 793 Q 608.8 793.8 608 791.5 L 612 788.5 Q 611.3 785.9 614 787 L 614 784.5 L 619 778 L 624 776 L 625.5 773 Q 628.8 774.1 628 771.5 L 631 770 L 632.5 767 Q 634.8 767.8 634 765.5 L 641.5 760 L 644 760 L 645.5 757 L 648 757 Q 646.9 754.3 649.5 755 L 654 753 Q 652.8 750 656.5 751 L 658 748 L 664 747 Q 662.8 744 666.5 745 L 670 744 Q 668.8 741 672.5 742 L 680 740 Q 678.8 737 682.5 738 L 687 737 Q 685.7 733.7 690.5 735 L 696 734 Q 694.6 730.3 700.5 732 L 707.5 730 L 714 730 L 714.5 728 L 722.5 728 L 723.5 727 L 743 727 L 743.5 725 L 759.5 725 L 761.5 727 L 817.5 728 L 818.5 727 L 827 727 Q 825.6 723.3 831.5 725 L 837 724 Q 835.7 720.7 840.5 722 L 844 721 Q 842.7 717.7 847.5 719 L 849.5 718 L 846.5 722 L 844 722 Q 845.1 724.7 842.5 724 L 839.5 728 Q 836.9 727.3 838 730 L 835.5 730 L 834 734 L 831 735.5 L 829.5 738 Q 827.3 737.3 828 739.5 L 825 741 L 823.5 744 L 821 745.5 Q 821.8 747.8 819.5 747 L 817 753 L 809 758 L 806.5 764 Q 804.3 763.3 805 765.5 L 801 768.5 Q 801.7 771.1 799 770 L 799 772.5 L 796 774 L 791 780.5 L 791 783 L 788 784.5 Q 788.8 786.8 786.5 786 L 785 789 L 781 791.5 Q 781.8 793.8 779.5 793 L 778 796 L 775 797.5 Q 775.8 799.8 773.5 799 L 770.5 803 L 768 804.5 Q 768.8 806.8 766.5 806 L 765 809 L 762 810.5 Q 762.8 812.8 760.5 812 L 753 817 Q 754.3 820 750.5 819 L 749 822 L 745 823.5 Q 745.8 826.1 742.5 825 L 735.5 830 L 733 830 Q 734.3 833 730.5 832 L 727 833 Q 728.3 836 724.5 835 L 718.5 839 L 712 840 Q 713.4 843.7 707.5 842 L 703 843 Q 704.3 846.3 699.5 845 L 693 846 Q 694.1 849.5 686.5 848 L 677.5 850 L 666.5 850 L 664.5 852 L 622 852 L 621.5 850 L 601.5 850 L 596.5 849 L 579.5 858 L 574 859 Q 575.3 862 571.5 861 L 565 864.5 L 564 870.5 L 561 874.5 L 560 881.5 Q 555.9 886.4 555 894.5 L 553 896.5 L 549 909.5 L 538 930.5 L 527 946.5 L 526 951 L 520 951 L 519.5 953 L 480 953 L 481.5 950 Q 484.1 950.8 483 947.5 L 484 945 L 487 943.5 L 488.5 940 Q 491.1 940.8 490 937.5 L 491 935 Q 494 936.3 493 932.5 Q 497.9 929.1 498 922 Q 501 923.3 500 919.5 L 503 918 L 504 912 Q 507 913.3 506 909.5 L 510 903.5 L 511 896 Q 513.7 897.1 513 894.5 L 514 891 Q 517.7 892.4 516 886.5 L 517 882 Q 520.3 883.3 519 878.5 L 521 869 Q 524.3 870.3 523 865.5 Q 525.5 864 524 858.5 L 518.5 851 Q 516.3 851.8 517 849.5 L 514 848 L 513 844 Q 510.3 845.1 511 842.5 L 509 839 L 506 837.5 Q 506.8 835.3 504.5 836 L 503 833 L 487 832 Q 488.4 828 481.5 830 L 475 829 Q 476.3 825.7 471.5 827 L 464 825 Q 465.3 822 461.5 823 L 458 822 Q 459.3 819 455.5 820 L 452 819 L 450.5 816 Q 447.2 817.1 448 814.5 L 442 812 L 438.5 807 L 435 806 L 433.5 803 L 431 801.5 Q 431.8 799.3 429.5 800 L 421 789.5 L 421 787 L 418 785.5 Q 418.8 783.3 416.5 784 L 411 774 Q 408 775.3 409 771.5 L 408 768 L 405 766.5 L 401 757 Q 398 758.3 399 754.5 L 396 753 L 395 747 Q 392.3 748.1 393 745.5 L 391 741 L 388 739.5 Q 388.7 736.9 386 738 L 386 735 Q 389 734 388 737 L 391.5 737 L 398 738 Q 396.6 742 403.5 740 Q 407.4 742.9 414 742 Q 412.6 745.7 418.5 744 L 425 745 Q 423.6 749 430.5 747 L 437 748 Q 435.7 751.3 440.5 750 L 448.5 754 L 455 755 Q 453.8 758 457.5 757 L 461 758 Q 459.8 761 463.5 760 L 467 761 L 468.5 764 L 477 768.5 L 478.5 771 L 481 771 Q 479.9 773.7 482.5 773 L 484 776 L 491 781.5 Q 490.3 783.8 492.5 783 L 494 786 L 497 787.5 Q 495.9 790.8 498.5 790 L 501 796 Q 504 794.8 503 798.5 L 506 800 L 507 806 L 510 807.5 L 510 810 Q 513 808.8 512 812.5 L 514 820 Q 517 818.8 516 822.5 L 517 827 Q 520 825.8 519 829.5 L 524.5 837 Q 526.8 836.3 526 838.5 L 530 841.5 Q 528.8 835.5 532 836.5 L 532 830.5 L 533 829.5 L 534 814 L 536 813.5 L 536 804.5 L 537 803.5 L 537 793 L 539 792.5 L 539 771.5 L 540 770.5 L 540 720.5 L 539 719.5 L 539 701 L 537 700.5 L 537 688.5 L 536 687.5 L 536 678 L 534 677.5 L 534 669.5 L 533 668.5 L 532 654.5 L 530 652.5 L 529 647.5 L 529 640 Q 525.3 641.4 527 635.5 L 526 634.5 L 526 627 Q 522.3 628.4 524 622.5 L 523 616 Q 519.7 617.3 521 612.5 L 519 602.5 L 517 600.5 L 516 591 Q 512.3 592.4 514 586.5 L 513 581 Q 509.7 582.3 511 577.5 L 508 579.5 L 506 589 Q 503 587.8 504 591.5 L 502 597 Q 499 595.8 500 599.5 L 495 608 Q 492.3 606.9 493 609.5 L 487 618 L 483 620.5 Q 483.8 622.8 481.5 622 L 479 626 L 475 628.5 Q 475.8 630.8 473.5 630 L 448.5 650 L 422.5 664 Q 414.4 664.9 409.5 669 L 402.5 670 L 400.5 672 L 396.5 672 L 389.5 674 L 387.5 676 L 380.5 677 L 375.5 680 L 367.5 681 L 365.5 683 L 351.5 685 L 349.5 687 L 341.5 688 L 336.5 691 L 325.5 693 Q 323.4 696.9 318 696 L 318 676.5 L 319 675.5 L 319 640.5 L 320 639.5 L 320 601.5 L 322 595.5 L 322 584.5 L 323 583.5 L 324 567.5 L 326 565.5 L 327 555.5 L 330 549.5 L 332 539 Q 335 540.3 334 536.5 L 340 524 Q 342.7 525.1 342 522.5 L 354 506.5 L 355 503 Q 357.7 504.1 357 501.5 Q 359.8 500.4 359 497 L 363 494.5 Q 362.3 492.3 364.5 493 L 367.5 489 L 370 487.5 L 371.5 485 L 374 483.5 L 375.5 481 L 378 479.5 Q 377.3 477.3 379.5 478 L 382 474 L 392 470 Q 393.1 467.3 390.5 468 L 386.5 467 L 373.5 470 L 350.5 470 Q 349.5 473 344.5 472 L 341.5 470 L 327.5 470 L 326.5 469 L 313 468 Q 314.4 464.3 308.5 466 L 290 460 Q 291.1 457.3 288.5 458 L 277.5 453 L 272.5 449 L 270 449 Q 271.1 446.3 268.5 447 L 259 440.5 L 257.5 438 L 243 424.5 Q 243.8 422.3 241.5 423 L 238.5 419 Q 236.3 419.8 237 417.5 L 234.5 414 Q 231.9 414.8 233 411.5 L 231 408 Q 228.3 409.1 229 406.5 L 220 391 Q 217.3 392.1 218 389.5 L 216 385 Q 213.3 386.1 214 383.5 L 208 373 Q 205 374.3 206 370.5 L 195 354.5 L 189 341 Q 186.3 342.1 187 339.5 L 179 328.5 L 184.5 324 Q 192.6 323.1 197.5 319 L 200.5 319 L 215.5 312 L 222 311 Q 220.7 307.7 225.5 309 L 236 307 Q 234.6 303 241.5 305 L 242.5 304 L 253.5 303 L 255.5 301 L 278.5 299 L 283.5 297 L 312.5 296 L 313.5 297 L 335 298 L 335.5 300 L 342.5 300 L 355 302 Q 353.7 305.3 358.5 304 L 363 305 Q 361.7 308.3 366.5 307 L 374 309 Q 372.8 312 376.5 311 L 383.5 313 L 397.5 321 L 400 321 Q 398.9 323.7 401.5 323 L 406 325 Q 404.9 327.7 407.5 327 L 412 329 Q 410.9 331.7 413.5 331 L 418.5 335 L 421 335 L 421 332.5 L 413 322.5 L 412 319 Q 409.3 320.1 410 317.5 L 408 313 L 404 310.5 L 394 296.5 L 393 293 Q 390 294.3 391 290.5 L 389 285 Q 386 286.3 387 282.5 L 383 275.5 L 381 266.5 L 379 264.5 L 377 254.5 L 375 252.5 L 374 241.5 L 372 239.5 L 372 217.5 L 374 215.5 L 374 205.5 L 376 195 Q 379.7 196.3 378 190.5 L 382 182.5 L 387 163.5 L 391 155.5 L 391 152 Q 394 153.3 393 149.5 L 397 141.5 L 399 133 Q 402 134.3 401 130.5 L 403 125 Q 406 126.3 405 122.5 L 417 104.5 L 427.5 83 Z M 435 93 Q 434 96 437 95 Q 438 92 435 93 Z M 719 208 L 721 210 Q 725 211 727 209 L 719 208 Z M 377 236 L 377 242 L 379 242 L 379 236 L 377 236 Z M 242 320 L 240 322 Q 242 325 243 322 Q 244 319 242 320 Z M 229 327 Q 226 329 229 330 L 232 329 L 229 327 Z M 492 340 L 492 342 L 478 344 L 471 348 Q 465 346 466 350 L 452 359 Q 449 358 450 361 L 448 362 L 438 373 Q 439 375 436 374 L 434 378 Q 435 381 432 380 L 430 385 Q 431 387 428 386 L 420 413 L 420 440 L 424 453 Q 423 456 426 455 L 428 464 Q 427 466 430 465 Q 430 470 434 473 Q 433 476 436 475 L 436 478 L 441 484 L 445 486 L 448 490 Q 451 489 450 492 L 454 494 Q 456 493 455 496 L 459 498 Q 462 497 461 500 L 464 500 L 464 502 L 472 504 L 474 506 L 492 511 L 519 511 L 529 508 Q 532 509 531 506 Q 537 507 540 504 Q 543 505 542 502 Q 546 503 548 500 Q 550 501 549 498 L 554 497 L 563 490 L 574 478 Q 573 474 576 475 L 578 472 Q 577 469 580 470 L 581 465 L 584 463 L 584 459 L 588 451 L 588 446 L 590 440 L 590 413 L 588 406 Q 590 399 586 400 L 584 394 Q 586 388 582 389 L 580 385 Q 581 381 578 382 L 578 380 L 569 370 Q 570 366 568 367 L 565 363 L 562 362 Q 559 357 553 355 L 551 352 Q 547 353 546 350 Q 543 351 544 348 L 540 348 L 533 344 L 520 342 L 518 340 L 492 340 Z M 212 369 L 210 371 L 212 374 Q 214 378 216 375 L 213 371 Q 214 368 212 369 Z M 216 376 Q 214 379 217 378 L 216 376 Z M 743 551 L 741 553 Q 740 555 743 554 L 743 551 Z M 744 557 L 743 560 L 744 560 L 744 557 Z M 535 590 L 534 593 L 535 593 L 535 590 Z M 541 607 L 540 611 L 541 611 L 541 607 Z M 330 652 L 330 661 L 331 657 L 330 652 Z M 331 662 Q 329 665 332 664 L 331 662 Z " /></svg>