<svg width="1024" height="1024" version="1.1" xmlns="http://www.w3.org/2000/svg" desc="Created with imagetracer.js version 0.2.1" ><path fill="rgb(163,45,67)" stroke="rgb(163,45,67)" stroke-width="1" opacity="0.5490196078431373" d="M 491.5 118 L 498 119 Q 496.9 121.7 499.5 121 L 501 124 Q 503.7 122.9 503 125.5 L 507 128 L 507 129.5 L 520.5 143 L 523.5 145 L 548 169.5 L 548 171 L 552 173.5 L 554 176.5 L 560 184 L 562 184 L 562 186 L 564 186 L 564 188 Q 566.7 186.9 566 189.5 L 567 192 L 573 196.5 L 585 213 L 589 215.5 L 600 229.5 L 613 255.5 L 618 272.5 L 621 291.5 L 620 295.5 L 621 296.5 L 621 323.5 L 620 325.5 Q 622.5 327 621 332.5 L 619 340.5 L 619 353.5 L 617 364.5 L 614 370.5 L 612 381.5 Q 608.5 383.5 609 389.5 L 612 387.5 Q 611.3 385.3 613.5 386 L 616 382 Q 618.7 383.1 618 380.5 L 623 377 L 623 375 L 625 375 Q 623.9 372.3 626.5 373 L 643.5 360 L 663.5 349 L 671.5 347 L 684.5 340 L 699.5 336 L 705.5 333 L 727.5 328 L 730.5 329 L 737.5 327 L 753.5 327 L 756.5 326 L 757.5 327 L 772.5 327 L 780.5 329 L 799.5 330 L 824.5 335 L 832.5 335 L 833.5 336 L 860.5 339 L 880.5 343 L 890.5 343 Q 897 344.5 900 349.5 L 898 359.5 L 895 365.5 L 894 372.5 L 892 375.5 L 887 393.5 L 884 397.5 L 880 411.5 L 874 423.5 L 874 426.5 Q 870.3 430.3 870 437.5 L 868 439.5 L 863 456.5 L 861 458.5 L 860 465.5 L 857 469.5 L 857 472.5 L 849 488.5 L 841 500.5 L 841 503 Q 838 501.8 839 505.5 L 829 519 Q 826.3 517.9 827 520.5 L 816 531.5 L 816 533 L 806 540 L 804.5 543 L 799 546 Q 800.1 548.7 797.5 548 Q 778.1 566.1 751.5 577 L 702.5 588 L 700.5 587 L 683.5 590 L 680.5 589 L 680.5 590 L 692.5 597 L 726 621 Q 724.9 623.7 727.5 623 L 736.5 632 L 738 632 L 738 634 L 740 634 L 740 636 L 742 636 L 742 638 Q 744.7 636.9 744 639.5 L 750 647 L 756 651.5 Q 771.7 669.3 781 693.5 L 787 714.5 L 793 746.5 L 792 749.5 L 795 765.5 L 794 769.5 L 796 780.5 L 795 783.5 L 797 794.5 L 796 798.5 L 798 809.5 L 797 813.5 L 798 814.5 L 798 829.5 L 799 834.5 L 798 836.5 L 799 837.5 L 800 848.5 L 799 851.5 L 801 862.5 L 800 867.5 L 801 868.5 L 801 876.5 L 797.5 881 L 698.5 864 Q 688.7 858.7 674.5 858 L 669.5 855 L 661.5 854 L 622 838 Q 623.3 835 619.5 836 L 596 821 Q 597.1 818.3 594.5 819 L 579.5 804 L 578 804 Q 579.1 801.3 576.5 802 L 573 797 L 569 794.5 L 565 789.5 L 544 761.5 L 514.5 704 L 505 727.5 L 504 733.5 L 495 751.5 L 495 754.5 L 479 784 L 477 784 L 477 787 Q 474.3 785.9 475 788.5 L 468 798 Q 465.3 796.9 466 799.5 L 457 807 Q 458.1 809.7 455.5 809 L 450.5 814 L 427.5 830 L 387.5 850 L 355.5 860 L 339.5 863 L 330.5 863 L 316.5 866 L 307.5 866 L 287.5 870 L 284.5 869 L 276.5 871 L 263.5 871 L 254.5 873 L 250.5 872 L 230.5 876 L 227.5 875 L 217.5 879 L 213 876.5 L 212 871.5 L 215 857.5 L 218 851.5 L 220 837.5 L 222 833.5 L 224 818.5 L 227 809.5 L 240 744.5 L 243 738.5 L 244 730.5 L 251 713.5 L 251 710.5 L 254 706.5 L 254 703.5 L 257 699.5 L 257 696.5 L 263 686.5 L 263 684 Q 266 685.3 265 681.5 L 275 666 Q 277.7 667.1 277 664.5 L 284 656 L 286 656 L 286 654 Q 288.7 655.1 288 652.5 L 301 642 L 305.5 636 Q 307.8 636.8 307 634.5 Q 327.3 615.3 354 602.5 L 344.5 601 Q 343 603.5 337.5 602 L 336.5 601 L 323.5 601 L 294.5 596 L 283.5 592 L 275.5 591 L 263.5 585 L 258.5 584 L 256.5 582 L 251 581 Q 252.3 577.7 247.5 579 L 230 567.5 L 228.5 565 Q 209.1 553.4 195 536.5 L 178 512.5 L 167 492.5 L 155 461.5 L 147 446.5 L 140 425.5 L 137 421.5 L 128 393.5 L 120 378.5 L 120 374.5 L 126.5 370 L 159.5 363 L 161.5 364 L 172.5 361 L 192.5 358 L 194.5 358 L 206.5 357 L 209.5 358 L 210.5 357 L 256.5 357 L 264.5 359 L 278.5 359 L 305.5 364 L 322.5 371 L 326.5 371 L 329.5 374 L 333.5 374 L 338.5 377 L 344.5 378 L 360.5 386 L 363.5 389 L 367 389 Q 365.8 392 369.5 391 L 372 392 Q 370.8 395 374.5 394 L 401 411 Q 399.9 413.7 402.5 413 L 407 416 L 407 418 L 409 418 L 409 420 L 411 420 L 411 422 L 413 422 Q 411.9 424.7 414.5 424 L 423 431.5 L 417 415.5 L 407 399.5 L 397 376.5 L 392 358.5 L 387 330.5 L 388 328.5 Q 384.2 319.8 386 305.5 L 392 272.5 Q 395.5 268 396 260.5 L 405 242.5 L 412 232.5 L 415 224 Q 418.3 225.3 417 220.5 L 420 217.5 L 423 209 Q 426 210.3 425 206.5 L 435 191.5 L 435 189 Q 437.7 190.1 437 187.5 L 438 185 Q 441 186.3 440 182.5 L 445 176.5 L 445 174 Q 447.7 175.1 447 172.5 L 452 165 L 454 165 L 454 162 Q 456.7 163.1 456 160.5 L 461 154 Q 463.7 155.1 463 152.5 L 474 141.5 L 486 125.5 L 486 123 Q 488.7 124.1 488 121.5 L 491.5 118 Z M 491 120 Q 492 124 489 123 L 489 126 L 487 126 L 479 138 Q 480 140 477 139 L 477 142 L 475 142 L 475 145 L 474 145 L 472 148 L 468 151 Q 469 153 466 152 L 466 154 L 464 154 L 464 157 L 459 161 Q 460 163 457 162 L 457 165 L 455 165 L 452 170 Q 453 172 450 171 L 450 174 L 448 174 L 448 177 L 446 177 L 438 190 L 438 192 L 437 191 Q 437 196 433 198 Q 434 200 431 199 Q 432 204 428 206 Q 429 209 426 208 L 426 212 L 424 212 L 423 215 Q 424 218 421 217 L 420 221 Q 421 223 418 222 L 418 227 L 415 230 L 408 244 L 405 245 Q 406 251 402 253 Q 403 257 400 256 L 399 260 Q 400 264 397 263 L 395 276 L 392 280 L 392 285 L 388 303 Q 387 307 389 309 L 388 313 Q 387 317 389 319 L 388 323 L 393 350 L 393 351 Q 395 350 394 354 Q 392 355 395 357 L 394 359 Q 393 361 396 360 L 395 364 L 397 364 L 400 379 L 407 394 L 407 396 L 409 396 L 414 407 Q 413 409 416 408 L 418 415 Q 417 417 420 416 Q 419 422 423 425 Q 422 428 425 427 L 427 435 Q 431 436 428 438 L 424 436 Q 421 437 422 435 L 417 431 L 415 427 L 410 423 L 407 419 L 404 418 Q 405 415 401 416 L 401 414 L 398 412 Q 395 413 396 410 L 387 404 Q 384 405 385 402 L 382 402 L 382 400 Q 377 401 376 397 Q 373 398 374 395 L 371 395 L 371 393 L 368 392 Q 365 393 366 390 L 361 390 L 360 387 Q 355 388 356 385 L 353 384 Q 350 385 351 382 L 347 382 L 345 379 L 339 378 Q 335 379 336 376 L 328 375 L 325 372 L 316 371 L 312 368 L 303 367 L 298 364 L 288 362 Q 282 361 281 363 L 267 360 L 252 360 L 251 359 Q 245 358 244 360 L 236 359 Q 234 357 233 360 L 231 359 Q 225 358 224 360 L 221 359 Q 216 358 215 360 L 211 359 L 207 360 L 200 359 Q 198 362 197 360 L 183 362 Q 181 359 180 363 L 177 362 Q 174 361 175 364 L 172 363 Q 170 366 169 364 L 129 372 L 123 375 Q 122 379 124 381 Q 123 383 126 382 L 129 393 L 131 395 L 130 397 L 132 397 L 131 401 L 133 401 L 135 410 Q 138 411 136 413 L 141 423 Q 140 427 143 426 L 146 436 Q 144 440 148 439 L 147 441 L 149 441 L 151 450 L 156 459 Q 155 463 158 462 L 161 473 L 163 475 L 162 477 L 164 477 L 166 484 Q 165 486 168 485 L 168 489 L 175 502 Q 174 505 177 504 L 182 515 L 195 532 Q 194 534 197 533 L 198 536 Q 197 538 200 537 L 200 539 L 202 539 L 202 541 L 204 541 L 204 543 L 206 543 Q 205 546 208 545 L 212 550 Q 214 549 213 552 L 217 554 Q 219 553 218 556 L 230 563 L 232 566 Q 234 565 233 568 L 236 568 L 242 573 L 249 577 L 249 578 L 254 578 L 254 580 L 257 581 Q 262 579 261 583 L 268 584 L 271 587 L 276 588 Q 279 587 278 590 L 297 593 L 302 596 L 306 595 L 335 600 L 339 599 Q 343 598 345 600 L 350 599 L 359 600 L 361 602 L 360 604 Q 354 603 351 607 Q 346 606 347 609 L 345 610 Q 342 609 343 612 L 342 611 L 341 613 L 339 614 Q 336 613 337 616 L 335 617 Q 332 616 333 619 L 329 621 Q 326 620 327 623 L 313 631 L 312 634 Q 309 633 310 636 L 306 639 Q 307 641 304 640 L 304 642 L 303 642 L 301 645 L 295 650 Q 292 649 293 652 L 291 652 L 291 654 L 289 654 L 289 656 L 285 658 L 282 663 Q 278 662 280 666 L 278 666 L 276 670 Q 277 672 274 671 L 273 674 Q 274 676 271 675 Q 272 680 268 682 Q 269 684 266 683 L 266 687 L 264 687 L 260 697 Q 261 699 258 698 L 257 704 Q 258 706 255 705 L 255 710 L 251 718 Q 252 722 249 721 L 248 730 L 244 738 L 242 752 L 239 756 L 233 795 L 228 809 L 224 836 L 222 846 L 218 855 L 215 875 L 218 876 L 224 873 L 227 874 L 245 871 Q 246 874 248 870 L 251 871 L 260 869 L 265 870 Q 267 871 266 868 L 269 869 L 274 868 Q 278 867 280 869 L 280 867 L 284 868 L 302 865 Q 303 868 305 864 L 307 865 L 325 862 Q 326 865 328 861 L 331 862 L 365 855 L 375 852 L 377 850 L 379 851 L 379 849 L 392 846 L 415 834 Q 417 835 416 833 L 418 833 L 418 831 L 421 831 L 429 826 Q 431 827 430 824 L 435 822 Q 437 823 436 820 L 445 815 Q 447 816 446 813 L 449 812 Q 451 813 450 810 L 453 809 Q 455 810 454 808 L 460 803 L 462 800 L 463 800 L 463 798 Q 466 799 465 797 L 469 794 Q 468 790 472 789 Q 471 786 474 787 L 474 784 L 476 784 L 478 780 L 481 778 Q 480 773 484 771 Q 483 767 486 768 Q 485 764 488 763 L 489 763 L 489 758 L 491 758 L 492 756 Q 491 751 494 752 L 505 723 Q 504 720 507 721 L 508 715 Q 507 711 510 712 L 511 705 L 516 698 L 519 708 Q 518 710 521 709 L 521 712 L 532 733 Q 531 737 534 736 Q 545 763 564 785 Q 563 787 566 786 L 567 789 Q 566 791 569 790 L 569 792 L 573 795 Q 572 797 575 796 L 578 801 L 582 804 L 582 805 L 585 805 Q 584 808 587 807 L 595 816 Q 597 815 596 818 L 599 818 L 599 820 L 602 822 Q 601 825 605 823 L 605 825 L 608 825 L 608 827 L 611 828 Q 613 827 612 830 L 616 830 L 616 832 Q 620 831 622 835 L 625 835 L 628 838 Q 632 837 631 840 L 635 841 Q 639 840 638 843 L 645 844 L 649 847 L 653 847 L 656 850 L 661 850 L 669 854 L 679 856 Q 682 855 681 858 L 703 861 L 722 867 L 773 875 L 779 877 L 792 877 L 793 878 Q 798 879 799 877 Q 800 872 798 871 L 799 867 L 797 857 L 798 853 L 797 850 Q 796 844 798 843 L 796 842 L 797 838 L 796 834 Q 795 829 797 828 Q 798 825 795 826 L 796 824 L 795 819 L 796 814 L 794 803 L 795 799 L 793 788 L 794 785 L 793 781 Q 792 776 794 775 L 792 774 L 793 770 L 791 761 L 792 756 Q 793 753 790 754 L 791 751 L 787 729 Q 789 727 786 726 L 787 724 L 785 721 L 786 719 L 785 717 L 785 715 L 785 712 Q 782 713 783 711 Q 785 709 782 708 L 783 706 L 781 705 L 782 702 L 780 701 Q 781 695 777 692 Q 778 687 775 688 L 773 682 Q 774 679 771 680 L 769 675 Q 770 671 767 672 L 766 670 Q 767 667 765 668 L 765 667 L 763 666 L 762 664 Q 763 661 760 662 L 759 660 Q 760 657 757 658 L 756 656 Q 757 653 755 654 L 749 647 L 746 645 L 746 643 L 740 639 L 740 637 Q 737 638 738 635 L 730 630 L 728 626 Q 725 627 726 624 L 720 619 Q 717 620 718 617 L 715 617 L 715 615 L 712 615 L 712 614 L 703 607 Q 700 608 701 605 L 699 605 L 699 603 L 695 603 L 695 601 L 693 600 Q 690 601 691 598 L 689 598 L 685 595 Q 682 596 683 593 L 680 593 L 680 591 L 676 590 L 678 587 L 680 588 L 684 587 Q 688 586 690 588 L 690 586 L 696 587 Q 697 583 699 586 L 751 575 L 771 565 Q 773 566 772 563 L 775 562 Q 777 563 776 560 L 781 558 Q 783 559 782 556 L 785 555 Q 787 556 786 553 L 789 552 Q 791 553 790 550 L 796 548 L 798 545 Q 800 546 799 543 L 802 542 Q 804 543 803 540 L 807 538 Q 806 535 809 536 L 809 534 L 813 532 Q 812 529 815 530 L 818 525 L 821 524 L 822 524 L 822 521 Q 825 522 824 519 L 826 519 L 829 515 Q 828 512 831 513 L 831 511 L 833 511 L 833 508 L 835 508 L 836 506 Q 835 503 838 504 L 838 500 L 840 500 L 841 498 Q 840 495 843 496 Q 842 491 846 489 Q 845 486 848 487 L 848 484 L 851 481 L 851 478 L 854 474 Q 853 469 856 470 L 857 464 L 860 460 L 860 455 L 864 447 Q 863 442 866 443 L 868 435 Q 867 432 870 433 L 871 428 Q 870 423 873 424 L 874 417 L 877 414 L 877 410 L 880 407 Q 879 402 881 401 Q 880 398 883 399 L 883 395 L 886 390 L 888 382 Q 887 379 890 380 L 891 371 L 894 367 L 895 357 L 897 353 Q 898 348 896 349 L 894 346 L 883 345 L 877 343 L 862 343 L 815 334 L 801 334 L 777 329 L 774 330 L 768 330 L 761 328 L 759 329 Q 752 331 751 328 L 740 330 L 737 329 L 734 330 L 732 330 L 700 337 L 695 340 L 693 339 L 692 341 L 684 343 Q 682 346 681 344 Q 678 343 679 346 L 673 348 Q 670 347 671 350 Q 665 349 663 353 Q 659 352 660 355 L 655 357 Q 651 356 652 359 L 636 368 L 633 370 L 630 374 L 623 379 Q 624 381 621 380 L 621 382 L 619 382 L 619 385 L 615 386 L 610 393 L 608 396 L 606 397 L 604 398 L 606 390 Q 605 386 608 387 L 609 379 L 612 376 L 618 337 L 618 335 L 618 327 L 619 326 Q 621 320 618 319 L 619 312 Q 622 310 618 309 L 619 306 L 618 301 L 619 296 L 617 283 Q 619 281 616 280 L 617 277 L 615 274 L 616 272 Q 612 270 615 269 Q 616 266 613 267 L 614 264 L 612 263 L 610 255 Q 606 253 609 252 L 605 246 Q 606 241 603 242 Q 601 232 594 226 Q 595 223 592 224 L 590 220 Q 587 221 588 218 L 586 218 L 585 216 Q 586 213 583 214 L 575 203 L 570 199 L 569 197 L 567 194 L 563 191 L 560 185 L 557 184 Q 558 181 555 182 L 554 178 L 548 174 L 544 169 L 538 163 L 538 161 Q 535 162 536 159 L 533 159 L 533 157 Q 530 158 531 156 L 528 154 L 526 150 L 521 146 L 518 142 L 513 139 Q 514 136 510 137 L 509 133 L 504 131 L 503 127 L 500 126 L 498 123 Q 497 119 491 120 Z " /><path fill="rgb(163,45,67)" stroke="rgb(163,45,67)" stroke-width="1" opacity="0.5490196078431373" d="M 500 134 Q 503.8 132.5 503 135.5 L 500 137 L 500 134 Z " /><path fill="rgb(163,45,67)" stroke="rgb(163,45,67)" stroke-width="1" opacity="0.5490196078431373" d="M 483 142 Q 486 141 485 144 Q 482 145 483 142 Z " /><path fill="rgb(163,45,67)" stroke="rgb(163,45,67)" stroke-width="1" opacity="0.5490196078431373" d="M 480 145 Q 483.7 143.5 483 146.5 Q 481.5 149.5 480 146.5 L 480 145 Z " /><path fill="rgb(163,45,67)" stroke="rgb(163,45,67)" stroke-width="1" opacity="0.5490196078431373" d="M 479.5 148 L 480 149.5 L 479 152 L 476 153.5 L 473.5 157 Q 471.3 156.3 472 158.5 Q 470.8 161.8 467 161 L 467 164 Q 464.3 162.9 465 165.5 L 463 164.5 Q 462.3 162.3 464.5 163 Q 467.8 161.8 467 158 L 471 155.5 Q 470.3 153.3 472.5 154 L 474 151 Q 477 152 476 149 L 478.5 149 L 479.5 148 Z " /><path fill="rgb(163,45,67)" stroke="rgb(163,45,67)" stroke-width="1" opacity="0.5490196078431373" d="M 395.5 302 L 396 309.5 Q 394.5 312.5 393 309.5 Q 392.2 303.7 395.5 302 Z " /><path fill="rgb(163,45,67)" stroke="rgb(163,45,67)" stroke-width="1" opacity="0.5490196078431373" d="M 835 344 L 843.5 345 L 845 346.5 L 841.5 348 L 835 346 L 835 344 Z " /><path fill="rgb(163,45,67)" stroke="rgb(163,45,67)" stroke-width="1" opacity="0.5490196078431373" d="M 880.5 366 L 883 367.5 L 880.5 372 L 878.5 373 L 878 371.5 L 880.5 366 Z " /><path fill="rgb(163,45,67)" stroke="rgb(163,45,67)" stroke-width="1" opacity="0.5490196078431373" d="M 203.5 379 L 205 379.5 L 202.5 383 L 201 380 L 203.5 379 Z " /><path fill="rgb(163,45,67)" stroke="rgb(163,45,67)" stroke-width="1" opacity="0.5490196078431373" d="M 190.5 385 L 191.5 387 Q 188.7 387.7 190.5 385 Z " /><path fill="rgb(163,45,67)" stroke="rgb(163,45,67)" stroke-width="1" opacity="0.5490196078431373" d="M 182.5 386 Q 189.8 383.8 188 389 Q 182.5 390 182.5 386 Z " /><path fill="rgb(163,45,67)" stroke="rgb(163,45,67)" stroke-width="1" opacity="0.5490196078431373" d="M 152 435 Q 155.8 433.5 155 436.5 L 158 441.5 L 157 444 Q 154.3 445.1 155 442.5 Q 151.5 440.3 152 435 Z " /><path fill="rgb(163,45,67)" stroke="rgb(163,45,67)" stroke-width="1" opacity="0.5490196078431373" d="M 156 445 Q 159 444 158 447 Q 155 448 156 445 Z " /><path fill="rgb(163,45,67)" stroke="rgb(163,45,67)" stroke-width="1" opacity="0.5490196078431373" d="M 787.5 787 Q 789.8 786.3 789 788.5 L 786 790 L 787.5 787 Z " /><path fill="rgb(163,45,67)" stroke="rgb(163,45,67)" stroke-width="1" opacity="0.5490196078431373" d="M 787 794 Q 790 792.8 789 796.5 L 787 797.5 L 787 794 Z " /><path fill="rgb(163,45,67)" stroke="rgb(163,45,67)" stroke-width="1" opacity="0.5490196078431373" d="M 239 822 Q 242.3 820.7 241 825.5 L 238.5 833 L 238 826.5 L 239 822 Z " /><path fill="rgb(163,45,67)" stroke="rgb(163,45,67)" stroke-width="1" opacity="0.5490196078431373" d="M 238 835 Q 241 834 240 837 Q 237 838 238 835 Z " /><path fill="rgb(163,45,67)" stroke="rgb(163,45,67)" stroke-width="1" opacity="0.5490196078431373" d="M 770.5 851 Q 773.5 850.2 772 854 L 769 852.5 L 770.5 851 Z " /><path fill="rgb(163,45,67)" stroke="rgb(163,45,67)" stroke-width="1" opacity="0.5490196078431373" d="M 784.5 859 Q 789.1 857.8 787 863 Q 783.2 864 782 861.5 L 784.5 859 Z " /><path fill="rgb(162,44,66)" stroke="rgb(162,44,66)" stroke-width="1" opacity="1" d="M 484.5 126 L 483.5 128 L 484.5 126 Z " /><path fill="rgb(162,44,66)" stroke="rgb(162,44,66)" stroke-width="1" opacity="1" d="M 477.5 135 L 476.5 137 L 477.5 135 Z " /><path fill="rgb(162,44,66)" stroke="rgb(162,44,66)" stroke-width="1" opacity="1" d="M 515.5 137 L 516.5 139 L 515.5 137 Z " /><path fill="rgb(162,44,66)" stroke="rgb(162,44,66)" stroke-width="1" opacity="1" d="M 542.5 163 L 543.5 165 L 542.5 163 Z " /><path fill="rgb(162,44,66)" stroke="rgb(162,44,66)" stroke-width="1" opacity="1" d="M 421.5 212 L 421 213.5 L 420.5 215 L 420 213.5 L 421.5 212 Z " /><path fill="rgb(162,44,66)" stroke="rgb(162,44,66)" stroke-width="1" opacity="1" d="M 605.5 239 L 606.5 241 L 605.5 239 Z " /><path fill="rgb(162,44,66)" stroke="rgb(162,44,66)" stroke-width="1" opacity="1" d="M 388.5 290 L 387.5 292 L 388.5 290 Z " /><path fill="rgb(162,44,66)" stroke="rgb(162,44,66)" stroke-width="1" opacity="1" d="M 730.5 327 L 729.5 329 L 730.5 327 Z " /><path fill="rgb(162,44,66)" stroke="rgb(162,44,66)" stroke-width="1" opacity="1" d="M 781.5 328 L 785 328.5 L 781.5 329 L 781.5 328 Z " /><path fill="rgb(162,44,66)" stroke="rgb(162,44,66)" stroke-width="1" opacity="1" d="M 620.5 340 L 620 341.5 L 619.5 344 L 619 341.5 L 620.5 340 Z " /><path fill="rgb(162,44,66)" stroke="rgb(162,44,66)" stroke-width="1" opacity="1" d="M 392.5 362 L 393.5 364 L 392.5 362 Z " /><path fill="rgb(162,44,66)" stroke="rgb(162,44,66)" stroke-width="1" opacity="1" d="M 122.5 383 L 123.5 385 L 122.5 383 Z " /><path fill="rgb(162,44,66)" stroke="rgb(162,44,66)" stroke-width="1" opacity="1" d="M 394.5 406 L 395.5 408 L 394.5 406 Z " /><path fill="rgb(162,44,66)" stroke="rgb(162,44,66)" stroke-width="1" opacity="1" d="M 858.5 467 L 859 468.5 L 857 469.5 L 858.5 467 Z " /><path fill="rgb(162,44,66)" stroke="rgb(162,44,66)" stroke-width="1" opacity="1" d="M 281.5 592 L 284 592.5 L 281.5 593 L 281.5 592 Z " /><path fill="rgb(162,44,66)" stroke="rgb(162,44,66)" stroke-width="1" opacity="1" d="M 714.5 612 L 715.5 614 L 714.5 612 Z " /><path fill="rgb(162,44,66)" stroke="rgb(162,44,66)" stroke-width="1" opacity="1" d="M 558.5 782 L 559.5 784 L 558.5 782 Z " /><path fill="rgb(162,44,66)" stroke="rgb(162,44,66)" stroke-width="1" opacity="1" d="M 620.5 836 L 621.5 838 L 620.5 836 Z " /><path fill="rgb(163,44,67)" stroke="rgb(163,44,67)" stroke-width="1" opacity="1" d="M 0 0 L 1024 0 L 1024 1024 L 0 1024 L 0 0 Z M 492 118 L 490 120 Q 487 119 488 122 L 485 125 L 486 126 L 485 126 L 481 133 L 478 135 Q 475 136 477 138 L 474 142 L 469 145 L 465 151 Q 461 150 463 154 L 461 154 L 456 161 Q 457 163 454 162 L 454 165 L 452 165 L 447 173 Q 448 175 445 174 Q 446 178 442 180 Q 443 182 440 181 L 440 185 L 438 185 L 437 188 Q 438 190 435 189 Q 436 192 433 194 Q 434 196 431 195 L 430 200 L 423 210 Q 424 213 422 212 L 422 214 L 421 213 L 419 218 Q 420 220 417 219 L 417 224 L 416 223 L 414 229 L 399 254 Q 400 258 397 257 Q 396 266 392 273 L 389 290 L 389 292 Q 387 293 388 298 L 386 298 L 387 300 L 386 309 L 386 311 L 385 316 L 387 326 Q 384 327 388 329 L 387 331 L 392 357 Q 390 358 393 360 L 392 363 L 394 365 L 399 382 L 399 384 L 401 384 L 401 388 L 416 416 L 416 418 L 418 418 L 419 424 L 424 433 L 415 424 L 412 422 L 412 421 L 403 413 Q 400 414 401 411 L 398 409 Q 395 410 396 408 L 393 406 L 390 403 L 389 403 L 375 394 Q 371 395 372 392 L 370 391 Q 366 392 367 389 L 364 389 L 356 383 L 344 378 L 342 378 L 334 374 L 330 374 L 328 371 L 323 371 L 319 368 L 312 367 L 302 363 L 297 363 L 279 359 L 265 359 L 253 356 L 249 357 L 247 357 L 231 357 L 230 356 L 229 357 L 211 357 L 210 358 L 207 357 L 203 358 L 199 357 L 195 358 L 193 358 L 177 361 L 175 361 L 173 360 L 172 362 L 167 363 L 164 362 Q 162 365 161 363 L 131 370 L 126 370 L 120 375 L 120 379 L 128 394 L 132 409 L 134 411 L 137 422 L 140 426 L 143 437 L 145 439 L 147 448 L 150 451 Q 151 457 154 461 L 154 463 Q 153 465 156 464 L 157 469 L 157 471 L 159 471 L 162 482 L 165 486 L 173 505 L 196 538 Q 195 540 198 539 L 203 546 L 217 557 Q 219 556 218 559 L 221 560 Q 223 559 222 562 L 225 562 L 229 565 L 230 568 L 248 579 Q 252 578 251 581 L 258 583 Q 259 586 261 584 L 264 585 L 267 588 L 268 587 L 276 591 L 280 591 L 282 593 L 287 593 Q 288 596 290 594 L 295 596 L 314 599 L 316 599 L 317 600 L 335 602 L 337 602 Q 343 604 345 601 L 354 603 L 349 605 Q 345 604 346 607 L 343 608 L 324 621 Q 321 620 322 623 L 321 622 L 320 624 L 312 631 L 309 631 L 307 635 Q 308 637 306 636 L 301 642 L 288 653 Q 285 652 286 656 L 284 656 L 284 658 L 275 667 Q 276 669 273 668 L 273 671 L 270 672 L 270 675 L 265 681 L 257 697 L 257 700 L 254 701 L 254 707 L 251 710 L 251 714 L 244 730 L 244 735 Q 240 736 243 738 L 239 749 L 234 774 L 234 776 L 233 781 Q 229 782 232 784 L 227 808 L 227 810 L 226 810 L 226 812 L 223 824 Q 224 830 222 829 L 222 831 L 216 857 Q 212 858 215 860 L 212 872 L 213 877 L 216 879 L 218 879 L 223 877 L 227 877 L 227 875 L 231 876 L 251 872 L 255 873 L 264 871 L 277 871 L 278 870 Q 283 869 285 871 L 285 869 L 288 870 L 295 869 L 297 869 L 308 866 L 313 867 Q 317 864 326 865 L 331 863 L 335 864 L 360 859 L 391 849 L 414 838 L 421 833 Q 424 834 423 831 L 428 830 L 439 822 Q 442 823 441 820 L 449 815 L 451 815 L 456 809 L 459 807 L 472 792 L 476 789 L 476 787 L 477 787 L 477 784 Q 480 785 479 783 L 482 781 L 482 779 Q 481 776 484 777 L 484 775 L 495 755 L 495 752 L 498 749 L 498 746 L 500 744 L 501 738 L 505 730 Q 504 726 507 727 L 506 726 L 515 704 L 517 709 Q 516 712 519 711 L 534 743 L 534 745 L 536 745 L 538 751 Q 541 752 540 754 Q 542 753 541 756 L 541 758 L 543 758 L 552 773 Q 551 775 554 774 L 555 777 Q 554 779 557 778 L 558 783 L 561 784 L 565 790 Q 564 792 567 791 L 567 793 L 569 793 L 568 795 L 573 797 L 577 802 L 580 804 L 579 806 L 582 806 L 584 810 L 587 812 Q 586 814 589 813 L 589 815 L 595 819 Q 597 818 596 821 L 620 836 L 622 836 L 621 838 L 630 841 L 632 841 L 632 843 L 634 842 L 634 844 L 639 844 L 651 850 L 671 856 Q 673 855 672 858 L 674 857 L 689 861 Q 693 859 692 863 L 694 862 L 699 864 L 723 868 L 725 868 L 731 870 L 751 873 L 753 873 L 794 881 Q 800 882 801 878 L 801 869 L 800 868 L 801 864 Q 799 860 800 853 L 799 852 L 800 849 L 799 845 L 799 843 L 800 840 L 799 838 L 799 836 L 798 824 L 799 821 L 797 814 L 798 808 L 798 806 L 796 799 L 797 794 L 796 791 L 797 787 L 795 784 L 796 781 L 795 770 L 794 769 L 795 766 L 792 750 L 793 747 L 789 724 L 787 719 L 788 715 L 786 714 L 781 693 L 773 676 L 766 666 Q 767 662 765 663 L 765 662 L 764 661 L 762 658 L 761 658 L 756 652 L 750 647 L 745 640 L 743 638 L 743 636 Q 739 637 740 635 L 737 632 L 729 623 Q 723 621 720 616 Q 717 617 718 614 L 706 607 L 702 603 L 701 603 L 685 592 Q 682 593 683 590 L 681 590 L 681 589 L 684 590 L 687 589 L 689 590 L 701 587 L 703 588 L 705 588 L 715 585 L 734 582 L 742 579 L 746 579 L 757 575 L 759 575 L 759 573 L 773 566 Q 776 567 775 564 L 786 557 Q 789 558 788 556 L 791 555 Q 790 552 793 553 L 793 551 L 798 548 Q 800 549 799 547 L 801 547 L 801 546 L 805 543 L 806 540 L 815 533 Q 817 534 816 531 L 818 531 L 818 529 L 820 529 L 827 521 Q 826 518 829 519 L 829 517 L 831 517 L 831 515 L 833 515 Q 834 509 839 506 Q 838 502 841 503 Q 840 499 844 498 L 844 495 L 846 495 Q 844 491 848 492 Q 846 490 849 489 Q 848 485 851 486 L 852 481 L 859 469 L 861 459 L 863 457 L 868 440 L 871 437 L 870 436 L 874 427 Q 872 422 876 423 L 875 422 L 880 412 L 881 406 L 883 404 L 884 398 L 887 394 L 887 391 L 895 369 Q 893 364 897 365 L 896 364 L 898 359 L 898 357 L 900 351 L 897 345 Q 893 346 892 343 Q 885 345 884 342 L 882 343 Q 879 344 880 341 L 878 342 L 844 337 L 842 337 L 841 336 L 825 335 L 825 333 L 822 334 L 820 334 L 800 330 L 794 330 L 792 330 L 785 328 L 781 329 L 773 327 L 765 327 L 761 327 L 757 326 L 753 327 Q 747 329 746 326 L 745 327 L 732 328 L 728 328 L 723 329 L 721 329 L 714 331 L 712 331 L 704 334 L 702 334 Q 701 337 697 336 L 695 336 Q 692 335 693 338 L 685 340 L 683 340 L 682 342 L 675 345 Q 671 344 672 347 L 664 349 L 653 356 L 650 356 L 634 367 L 631 370 L 630 369 L 627 373 L 622 377 L 618 382 L 617 381 L 614 386 Q 611 385 612 388 L 609 390 Q 609 384 612 382 L 614 371 L 616 368 L 616 366 L 618 360 L 619 345 L 620 344 L 619 341 L 621 333 Q 623 327 620 326 L 621 320 L 622 317 L 621 315 L 621 299 L 622 298 Q 623 295 620 296 L 621 292 L 619 282 L 620 278 L 618 277 L 616 264 L 608 246 Q 609 242 606 243 L 607 241 L 589 216 L 585 213 L 573 197 L 567 192 L 566 190 Q 567 187 565 188 L 565 187 L 560 184 L 559 180 L 556 179 L 552 174 L 548 171 L 544 165 L 536 158 Q 537 155 535 156 L 533 153 L 524 145 L 521 143 L 517 139 L 507 130 Q 508 127 506 128 L 500 121 Q 497 122 498 119 L 492 118 Z " /><path fill="rgb(0,0,0)" stroke="rgb(0,0,0)" stroke-width="1" opacity="0" d="M 491 120 Q 496.5 118.8 498 122.5 L 500 125.5 L 503 127 L 504 131 L 509 133 L 510 137 Q 513.7 135.5 513 138.5 L 518 142 L 520.5 146 L 525.5 150 L 528 154 L 531 155.5 Q 530.3 158.1 533 157 L 533 159 L 536 159 Q 534.9 161.7 537.5 161 L 537.5 163 L 544 168.5 L 548 173.5 L 554 178 L 555 182 Q 557.7 180.9 557 183.5 L 560 185 L 563 191 L 567 193.5 L 569 196.5 L 570 199 L 575 202.5 L 583 214 Q 585.7 212.9 585 215.5 L 586 218 L 588 218 Q 586.9 220.7 589.5 220 L 592 224 Q 594.7 222.9 594 225.5 Q 601 232 603 242 Q 606.3 240.7 605 245.5 L 609 251.5 Q 606.5 253 610 254.5 L 612 263 L 614 263.5 L 613 267 Q 615.7 265.9 615 268.5 Q 612.5 270 616 271.5 L 615 273.5 L 617 276.5 L 616 279.5 Q 619.5 281 617 282.5 L 619 295.5 L 618 300.5 L 619 305.5 L 618 308.5 Q 621.5 310 619 311.5 L 618 318.5 Q 620.5 320 619 325.5 L 618 326.5 L 618 334.5 L 618 336.5 L 612 375.5 L 609 378.5 L 608 387 Q 605 385.8 606 389.5 L 604 397.5 L 605.5 397 L 608 395.5 L 610 392.5 L 615 386 L 619 385 L 619 382 L 621 382 L 621 380 Q 623.7 381.1 623 378.5 L 630 374 L 632.5 370 L 635.5 368 L 652 359 Q 650.8 356 654.5 357 L 660 355 Q 658.8 352 662.5 353 Q 665.2 349.3 671 350 Q 669.9 347.3 672.5 348 L 679 346 Q 677.9 343.3 680.5 344 Q 682 346.5 683.5 343 L 692 341 L 692.5 339 L 694.5 340 L 699.5 337 L 731.5 330 L 733.5 330 L 736.5 329 L 739.5 330 L 750.5 328 Q 752.3 330.8 758.5 329 L 760.5 328 L 767.5 330 L 773.5 330 L 776.5 329 L 800.5 334 L 814.5 334 L 861.5 343 L 876.5 343 L 882.5 345 L 894 346 L 895.5 349 Q 898.5 348.1 897 352.5 L 895 356.5 L 894 366.5 L 891 370.5 L 890 380 Q 887.3 378.9 888 381.5 L 886 389.5 L 883 394.5 L 883 399 Q 880.3 397.9 881 400.5 Q 878.7 401.8 880 406.5 L 877 409.5 L 877 413.5 L 874 416.5 L 873 424 Q 869.7 422.7 871 427.5 L 870 433 Q 867.3 431.9 868 434.5 L 866 443 Q 862.7 441.7 864 446.5 L 860 454.5 L 860 459.5 L 857 463.5 L 856 470 Q 852.7 468.7 854 473.5 L 851 477.5 L 851 480.5 L 848 483.5 L 848 487 Q 845.3 485.9 846 488.5 Q 842.1 490.6 843 496 Q 840.3 494.9 841 497.5 L 840 500 L 838 500 L 838 504 Q 835.3 502.9 836 505.5 L 835 508 L 833 508 L 833 511 L 831 511 L 831 513 Q 828.3 511.9 829 514.5 L 826 519 L 824 519 Q 825 522 822 521 L 822 524 L 820.5 524 L 818 525 L 814.5 530 Q 812.3 529.3 813 531.5 L 809 534 L 809 536 Q 806.3 534.9 807 537.5 L 803 540 Q 804.1 542.7 801.5 542 L 799 543 Q 800.1 545.7 797.5 545 L 796 548 L 790 550 Q 791.1 552.7 788.5 552 L 786 553 Q 787.1 555.7 784.5 555 L 782 556 Q 783.1 558.7 780.5 558 L 776 560 Q 777.1 562.7 774.5 562 L 772 563 Q 773.1 565.7 770.5 565 L 750.5 575 L 698.5 586 Q 697 583.5 695.5 587 L 690 586 L 689.5 588 Q 688.3 585.7 683.5 587 L 679.5 588 L 677.5 587 L 676 589.5 L 680 591 L 680 593 L 683 593 Q 681.9 595.7 684.5 595 L 688.5 598 L 691 598 Q 689.9 600.7 692.5 600 L 695 601 L 695 603 L 699 603 L 699 605 L 701 605 Q 699.9 607.7 702.5 607 L 712 613.5 L 712 615 L 715 615 L 715 617 L 718 617 Q 716.9 619.7 719.5 619 L 726 624 Q 724.9 626.7 727.5 626 L 730 630 L 738 635 Q 736.9 637.7 739.5 637 L 739.5 639 L 745.5 643 L 745.5 645 L 748.5 647 L 754.5 654 Q 756.8 653.3 756 655.5 L 757 658 Q 759.7 656.9 759 659.5 L 760 662 Q 762.7 660.9 762 663.5 L 763 666 L 765 666.5 L 764.5 668 Q 766.8 667.3 766 669.5 L 767 672 Q 770 670.8 769 674.5 L 771 680 Q 773.7 678.9 773 681.5 L 775 688 Q 778.3 686.7 777 691.5 Q 780.7 694.9 780 701 L 782 701.5 L 781 705 L 783 705.5 L 782 707.5 Q 785.5 709 783 710.5 Q 782.3 713.1 785 712 L 785 714.5 L 785 716.5 L 786 718.5 L 785 720.5 L 787 723.5 L 786 725.5 Q 789.5 727 787 728.5 L 791 750.5 L 790 754 Q 792.7 752.9 792 755.5 L 791 760.5 L 793 769.5 L 792 774 L 794 774.5 Q 791.7 775.7 793 780.5 L 794 784.5 L 793 787.5 L 795 798.5 L 794 802.5 L 796 813.5 L 795 818.5 L 796 823.5 L 795 826 Q 797.7 824.9 797 827.5 Q 794.7 828.8 796 833.5 L 797 837.5 L 796 842 L 798 842.5 Q 795.5 844 797 849.5 L 798 852.5 L 797 856.5 L 799 866.5 L 798 870.5 Q 800.2 871.8 799 876.5 Q 797.8 879.3 792.5 878 L 791.5 877 L 778.5 877 L 772.5 875 L 721.5 867 L 702.5 861 L 681 858 Q 682.3 855 678.5 856 L 668.5 854 L 660.5 850 L 655.5 850 L 652.5 847 L 648.5 847 L 644.5 844 L 638 843 Q 639.3 839.7 634.5 841 L 631 840 Q 632.3 836.7 627.5 838 L 624.5 835 L 621.5 835 Q 620.2 831.3 616 832 L 616 830 L 612 830 Q 613.1 827.3 610.5 828 L 608 827 L 608 825 L 605 825 L 605 823 Q 601.3 824.5 602 821.5 L 599 820 L 599 818 L 596 818 Q 597.1 815.3 594.5 816 L 587 807 Q 584 808 585 805 L 582 805 L 582 803.5 L 578 801 L 574.5 796 Q 572.3 796.8 573 794.5 L 569 792 L 569 790 Q 566.3 791.1 567 788.5 L 566 786 Q 563.3 787.1 564 784.5 Q 545.4 763.4 534 736 Q 530.7 737.3 532 732.5 L 521 711.5 L 521 709 Q 518.3 710.1 519 707.5 L 515.5 698 L 511 704.5 L 510 712 Q 507 710.8 508 714.5 L 507 721 Q 504.3 719.9 505 722.5 L 494 752 Q 490.7 750.7 492 755.5 L 491 758 L 489 758 L 489 763 L 487.5 763 Q 485 764.2 486 768 Q 483 766.8 484 770.5 Q 480.1 772.6 481 778 L 478 779.5 L 476 784 L 474 784 L 474 787 Q 471.3 785.9 472 788.5 Q 468.2 789.8 469 794 L 465 796.5 Q 465.7 799.1 463 798 L 463 800 L 461.5 800 L 460 803 L 454 807.5 Q 454.8 809.8 452.5 809 L 450 810 Q 451.1 812.7 448.5 812 L 446 813 Q 447.1 815.7 444.5 815 L 436 820 Q 437.1 822.7 434.5 822 L 430 824 Q 431.1 826.7 428.5 826 L 420.5 831 L 418 831 L 417.5 833 L 416 832.5 Q 416.8 834.8 414.5 834 L 391.5 846 L 379 849 L 378.5 851 L 376.5 850 L 374.5 852 L 364.5 855 L 330.5 862 L 327.5 861 Q 326 864.5 324.5 862 L 306.5 865 L 304.5 864 Q 303 867.5 301.5 865 L 283.5 868 L 280 867 L 279.5 869 Q 278.2 866.7 273.5 868 L 268.5 869 L 266 868 Q 267.1 870.7 264.5 870 L 259.5 869 L 250.5 871 L 247.5 870 Q 246 873.5 244.5 871 L 226.5 874 L 223.5 873 L 217.5 876 L 215 875 L 218 854.5 L 222 845.5 L 224 835.5 L 228 808.5 L 233 794.5 L 239 755.5 L 242 751.5 L 244 737.5 L 248 729.5 L 249 721 Q 252.3 722.3 251 717.5 L 255 709.5 L 255 705 Q 257.7 706.1 257 703.5 L 258 698 Q 260.7 699.1 260 696.5 L 264 687 L 266 687 L 266 683 Q 268.7 684.1 268 681.5 Q 271.6 679.6 271 675 Q 273.7 676.1 273 673.5 L 274 671 Q 276.7 672.1 276 669.5 L 278 666 L 280 666 Q 278.5 662.3 281.5 663 L 285 658 L 289 655.5 L 289 654 L 291 654 L 291 652 L 293 652 Q 291.9 649.3 294.5 650 L 301 644.5 L 302.5 642 L 304 642 L 304 640 Q 306.7 641.1 306 638.5 L 310 636 Q 308.9 633.3 311.5 634 L 313 631 L 327 623 Q 325.9 620.3 328.5 621 L 333 619 Q 331.9 616.3 334.5 617 L 337 616 Q 335.9 613.3 338.5 614 L 341 613 L 341.5 611 L 343 611.5 Q 342.3 609.3 344.5 610 L 347 609 Q 345.7 605.7 350.5 607 Q 353.9 603.3 360 604 L 361 601.5 L 358.5 600 L 349.5 599 L 344.5 600 Q 343.3 597.8 338.5 599 L 334.5 600 L 305.5 595 L 301.5 596 L 296.5 593 L 278 590 Q 279.3 587 275.5 588 L 270.5 587 L 267.5 584 L 261 583 Q 262.4 579.3 256.5 581 L 254 580 L 254 578 L 249 578 L 249 576.5 L 241.5 573 L 235.5 568 L 233 568 Q 234.1 565.3 231.5 566 L 230 563 L 218 556 Q 219.1 553.3 216.5 554 L 213 552 Q 214.1 549.3 211.5 550 L 207.5 545 Q 204.9 545.7 206 543 L 204 543 L 204 541 L 202 541 L 202 539 L 199.5 539 L 199.5 537 Q 197.3 537.8 198 535.5 L 197 533 Q 194.3 534.1 195 531.5 L 182 514.5 L 177 504 Q 174 505.3 175 501.5 L 168 488.5 L 168 485 Q 165.3 486.1 166 483.5 L 164 477 L 162 476.5 L 163 474.5 L 161 472.5 L 158 462 Q 154.7 463.3 156 458.5 L 151 449.5 L 149 441 L 147 440.5 L 147.5 439 Q 144.5 439.9 146 435.5 L 143 426 Q 139.7 427.3 141 422.5 L 136 412.5 Q 138.5 411 135 409.5 L 133 401 L 131 400.5 L 132 397 L 130 396.5 L 131 394.5 L 129 392.5 L 126 382 Q 123.3 383.1 124 380.5 Q 121.8 379.2 123 374.5 L 128.5 372 L 168.5 364 Q 170 366.5 171.5 363 L 175 364 Q 173.9 361.3 176.5 362 L 179.5 363 Q 181 359.5 182.5 362 L 196.5 360 Q 198 362.5 199.5 359 L 206.5 360 L 210.5 359 L 214.5 360 Q 215.8 357.8 220.5 359 L 223.5 360 Q 225 357.5 230.5 359 L 232.5 360 Q 234 356.5 235.5 359 L 243.5 360 Q 245 357.5 250.5 359 L 251.5 360 L 266.5 360 L 280.5 363 Q 282 360.5 287.5 362 L 297.5 364 L 302.5 367 L 311.5 368 L 315.5 371 L 324.5 372 L 327.5 375 L 336 376 Q 334.8 379 338.5 378 L 345 379 L 346.5 382 L 351 382 Q 349.9 384.7 352.5 384 L 356 385 Q 354.7 388.3 359.5 387 L 361 390 L 366 390 Q 364.9 392.7 367.5 392 L 371 393 L 371 395 L 374 395 Q 372.9 397.7 375.5 397 Q 376.9 401 382 400 L 382 402 L 385 402 Q 383.9 404.7 386.5 404 L 396 410 Q 394.9 412.7 397.5 412 L 401 414 L 401 416 Q 404.7 414.5 404 417.5 L 407 419 L 409.5 423 L 414.5 427 L 417 431 L 422 434.5 Q 421.3 436.8 423.5 436 L 427.5 438 Q 430.8 436.3 427 434.5 L 425 427 Q 422 428.3 423 424.5 Q 419.3 421.7 420 416 Q 417.3 417.1 418 414.5 L 416 408 Q 413.3 409.1 414 406.5 L 409 396 L 407 395.5 L 407 393.5 L 400 378.5 L 397 364 L 395 363.5 L 396 360 Q 393.3 361.1 394 358.5 L 395 356.5 Q 391.5 355 394 353.5 Q 395.1 350.2 392.5 351 L 393 349.5 L 388 322.5 L 389 318.5 Q 386.8 317.3 388 312.5 L 389 308.5 Q 386.8 307.3 388 302.5 L 392 284.5 L 392 279.5 L 395 275.5 L 397 263 Q 400.3 264.3 399 259.5 L 400 256 Q 403.3 257.3 402 252.5 Q 406.3 250.9 405 245 L 408 243.5 L 415 229.5 L 418 226.5 L 418 222 Q 420.7 223.1 420 220.5 L 421 217 Q 424 218.3 423 214.5 L 424 212 L 426 212 L 426 208 Q 429 209.3 428 205.5 Q 432 204.1 431 199 Q 433.7 200.1 433 197.5 Q 436.6 196.1 436.5 191 L 438 191.5 L 438 189.5 L 446 177 L 448 177 L 448 174 L 450 174 L 450 171 Q 452.7 172.1 452 169.5 L 455 165 L 457 165 L 457 162 Q 459.7 163.1 459 160.5 L 464 157 L 464 154 L 466 154 L 466 152 Q 468.7 153.1 468 150.5 L 472 148 L 473.5 145 L 475 145 L 475 142 L 477 142 L 477 139 Q 479.7 140.1 479 137.5 L 487 126 L 489 126 L 489 123 Q 492.3 124.1 491 120 Z M 500 134 L 500 137 L 503 136 Q 504 132 500 134 Z M 483 142 Q 482 145 485 144 Q 486 141 483 142 Z M 480 145 L 480 147 Q 482 150 483 147 Q 484 143 480 145 Z M 480 148 L 479 149 L 476 149 L 476 151 Q 473 150 474 153 L 471 154 L 469 158 Q 466 157 467 161 Q 471 162 472 159 Q 471 156 474 157 L 476 154 L 479 152 L 480 150 L 480 148 Z M 467 161 L 465 163 Q 462 162 463 165 L 465 166 Q 464 163 467 164 L 467 161 Z M 396 302 Q 392 304 393 310 Q 395 313 396 310 L 396 302 Z M 835 344 L 835 346 L 842 348 L 845 347 L 844 345 L 835 344 Z M 881 366 L 878 372 L 879 373 L 881 372 L 883 368 L 881 366 Z M 204 379 L 201 380 L 203 383 L 205 380 L 204 379 Z M 191 385 Q 189 388 192 387 L 191 385 Z M 183 386 Q 183 390 188 389 Q 190 384 183 386 Z M 152 435 Q 152 440 155 443 Q 154 445 157 444 L 158 442 L 155 437 Q 156 433 152 435 Z M 156 445 Q 155 448 158 447 Q 159 444 156 445 Z M 788 787 L 786 790 L 789 789 Q 790 786 788 787 Z M 787 794 L 787 798 L 789 797 Q 790 793 787 794 Z M 239 822 L 238 827 L 239 833 L 241 826 Q 242 821 239 822 Z M 238 835 Q 237 838 240 837 Q 241 834 238 835 Z M 771 851 L 769 853 L 772 854 Q 773 850 771 851 Z M 785 859 L 782 862 Q 783 864 787 863 Q 789 858 785 859 Z " /></svg>