<svg width="1024" height="1024" version="1.1" xmlns="http://www.w3.org/2000/svg" desc="Created with imagetracer.js version 0.2.1" ><path fill="rgb(234,157,56)" stroke="rgb(234,157,56)" stroke-width="1" opacity="0.47843137254901963" d="M 426.5 82 L 430.5 82 L 461.5 104 L 465 105 Q 463.9 107.7 466.5 107 L 476 113 Q 474.9 115.7 477.5 115 L 510 140 Q 508.9 142.7 511.5 142 L 515 144 Q 513.9 146.7 516.5 146 L 529 158.5 L 544 183.5 L 552 215.5 L 553 233.5 L 555 242.5 L 555 252.5 L 554 253.5 L 552 273.5 L 553 273.5 L 566.5 254 Q 568.8 254.8 568 252.5 L 572 250 L 574.5 246 Q 590.9 231.9 610.5 221 L 620.5 216 L 625.5 215 L 627.5 213 L 638.5 209 L 646.5 208 L 649.5 206 L 662.5 205 L 663.5 204 L 685.5 203 L 686.5 202 L 724.5 202 L 725.5 201 L 757.5 201 L 762.5 200 L 768 203.5 L 766 230.5 L 764 234.5 L 763 246.5 L 760 255.5 L 758 272.5 L 756 276.5 L 754 295.5 L 746 323.5 L 744 325.5 L 739 338.5 L 728 355.5 Q 715.4 372.9 699.5 387 L 690.5 394 L 674.5 402 L 669.5 403 L 654.5 410 L 634 415.5 L 669.5 432 L 682.5 440 L 697.5 451 L 712 464.5 L 727 486.5 L 738 512.5 Q 738.5 520 742 524.5 L 743 532.5 L 746 539.5 L 751 564.5 L 753 567.5 L 755 581.5 L 757 584.5 L 758 593.5 L 764 614.5 L 764 619.5 L 761.5 622 L 682.5 622 L 681.5 621 L 656.5 620 L 651.5 618 L 639.5 617 L 611.5 609 L 588.5 598 L 552.5 571 L 552 572.5 L 558 588.5 L 562 610.5 L 571 642.5 L 571 647.5 L 575 660.5 L 575 665.5 L 577 669.5 L 580 697.5 L 581 698.5 L 581 706.5 L 582 707.5 L 582 716.5 L 583 717.5 L 583 769.5 L 582 770.5 L 582 783.5 L 581 784.5 L 581 791.5 L 580 792.5 L 579 808.5 L 578 809.5 L 576 827.5 L 578.5 826 L 585 821.5 L 588 817.5 L 588 815 Q 590.7 816.1 590 813.5 L 595.5 805 Q 597.8 805.8 597 803.5 L 611 786 Q 614 787.3 613 783.5 L 624.5 772 L 627 772 Q 625.9 769.3 628.5 770 L 634 763 L 636.5 763 Q 637.9 758.3 643 759 L 644.5 756 L 653 752 Q 651.8 749 655.5 750 L 658.5 747 L 672.5 740 L 679 739 Q 677.8 736 681.5 737 L 690.5 733 L 695 733 Q 693.6 729 700.5 731 L 722.5 726 L 741.5 726 L 743.5 724 L 760.5 724 L 762.5 726 L 816.5 727 Q 818.3 724.3 824.5 726 L 826.5 724 L 836 723 Q 834.7 719.7 839.5 721 L 844.5 718 L 849.5 717 L 851 719.5 Q 849.7 723.8 845 723 Q 846.1 725.7 843.5 725 L 842 728 L 835 732.5 Q 836.1 735.8 833.5 735 L 832 738 L 825 743.5 Q 825.8 745.8 823.5 745 L 822 748 L 819 749.5 L 818 752.5 L 800 771.5 L 800 773.5 L 792 782.5 L 760.5 814 L 744.5 826 L 736.5 831 L 734 831 Q 735.3 834 731.5 833 L 728 834 Q 729.3 837 725.5 836 L 711.5 843 L 704.5 844 L 698.5 847 L 694.5 847 L 692.5 849 L 686.5 849 L 678.5 851 L 667.5 851 L 665.5 853 L 622.5 853 L 620.5 851 L 600.5 851 L 598.5 850 L 567 865.5 L 561 885.5 L 552 908.5 L 528 952 L 519.5 954 L 478.5 954 L 477 952.5 L 482 947.5 L 487.5 939 Q 490.1 939.8 489 936.5 L 502 916.5 L 509 902.5 L 510 896.5 Q 513.6 894.6 513 890 Q 516.7 891.4 515 885.5 L 516 881 Q 519.3 882.3 518 877.5 L 520 869.5 L 522 867.5 L 523 860.5 L 500.5 834 L 486 833 Q 487.4 829 480.5 831 L 467.5 826 L 464.5 826 L 452.5 820 L 449.5 817 L 447 817 L 445.5 814 L 443.5 814 L 426 797.5 L 418.5 787 Q 416.3 787.8 417 785.5 L 414 784 L 414 781.5 L 410 775 Q 407 776.3 408 772.5 L 407 769 L 404 767.5 L 403 763.5 L 395 752.5 L 390 742 L 387 740.5 Q 387.7 737.9 385 739 L 385 736.5 L 384 734 L 387.5 734 L 393.5 737 L 397.5 737 L 399.5 739 L 413.5 741 L 415.5 743 L 426 744 Q 424.6 748 431.5 746 L 436.5 747 L 438.5 749 L 445.5 750 L 449.5 753 L 456 754 Q 454.8 757 458.5 756 L 462 757 Q 460.8 760 464.5 759 L 468 760 L 469.5 763 L 471.5 763 L 479.5 770 L 482 770 Q 480.9 772.7 483.5 772 L 492 780.5 L 492 782 L 495 783.5 Q 494.3 785.8 496.5 785 L 505.5 799 Q 508.1 798.2 507 801.5 L 508 805 L 511 806.5 L 514 812.5 L 515 818.5 L 518 822.5 L 518 825.5 L 528.5 838 L 531 835.5 L 533 814.5 L 535 812.5 L 536 792 L 538 791.5 L 538 770.5 L 539 769.5 L 539 720.5 L 538 719.5 L 538 702.5 L 536 700.5 L 535 679.5 L 533 677.5 L 532 661.5 Q 529.8 660.3 531 655.5 L 529 653.5 L 528 642.5 L 526 640.5 L 525 628 Q 521 629.4 523 622.5 L 522 617.5 L 520 615.5 L 518 603.5 L 516 601.5 L 515 593.5 L 513 591.5 L 512 582 L 509.5 581 L 508 587.5 L 497 607.5 L 473.5 633 L 451.5 650 L 421.5 666 Q 415 666.5 411.5 670 L 404.5 671 L 402.5 673 L 382.5 678 L 377.5 681 Q 368.9 681.4 363.5 685 L 354.5 686 L 351.5 688 L 340.5 690 L 338.5 692 L 331.5 693 Q 326.3 697.3 317.5 698 Q 314.5 696 315 690.5 L 317 680.5 L 317 659.5 L 318 658.5 L 317 656.5 L 318 653.5 L 319 594.5 L 321 586.5 L 323 565.5 L 330 540.5 Q 334.2 536.7 335 529.5 L 356 499.5 L 378.5 476 L 386 470.5 L 379.5 470 L 378.5 471 L 356.5 472 L 355.5 473 L 339.5 473 L 333.5 471 L 323.5 471 L 312.5 469 L 309.5 467 L 302.5 466 L 291.5 462 L 269.5 450 L 254 439 L 252.5 436 L 250 434.5 L 248.5 432 L 246 430.5 L 244.5 428 L 242 426.5 L 227 407.5 Q 218.9 391.6 208 378.5 L 188 343.5 L 178 329.5 L 178 327.5 L 181.5 324 L 190.5 321 L 192.5 319 L 211.5 313 L 213.5 311 Q 220.7 310.7 224.5 307 L 239.5 303 L 244.5 303 L 253.5 300 L 265.5 299 L 278.5 296 L 319.5 295 L 333 297.5 L 324.5 298 L 323.5 297 L 301.5 296 L 300.5 297 L 284.5 297 L 280.5 299 L 256.5 301 L 254.5 303 L 237.5 305 L 235.5 307 L 222 309 Q 223.3 312 219.5 311 Q 214.3 315.3 205.5 316 L 203.5 318 L 194 320 Q 195.3 323 191.5 322 L 184 324 Q 185.1 326.7 182.5 326 L 180 327 Q 181.6 334.1 187 338.5 L 187 341 Q 189.7 339.9 189 342.5 L 201 361.5 L 202 366 Q 204.7 364.9 204 367.5 L 209 374.5 L 210 379 Q 212.7 377.9 212 380.5 L 233 411.5 L 233 414 L 237 416.5 L 240 422 L 244 424.5 L 245.5 427 Q 247.8 426.3 247 428.5 L 251 431.5 L 252.5 434 L 255 435.5 L 256.5 438 L 259 439.5 Q 258.3 441.8 260.5 441 L 265 443 Q 263.9 445.7 266.5 445 L 271.5 449 L 290 458.5 Q 289.2 461.1 292.5 460 L 300 462 Q 298.7 465.3 303.5 464 L 314 466 Q 312.6 470 319.5 468 L 328.5 470 L 344 470 L 344 472 L 349 472 L 349.5 470 L 372.5 470 L 373.5 469 L 381.5 469 L 384.5 467 L 390.5 467 L 392.5 467 L 394 467.5 L 392 468 Q 393.1 470.7 390.5 470 L 378 478 L 375.5 482 Q 373.3 481.3 374 483.5 L 370 486.5 L 368.5 489 L 366 490.5 L 364.5 493 Q 362.3 492.3 363 494.5 L 354 505.5 L 353 509 Q 350.3 507.9 351 510.5 L 346 518 Q 343.3 516.9 344 519.5 L 342 524 Q 339 522.8 340 526.5 Q 337.3 527.6 338 531 Q 335 529.8 336 533.5 L 334 539 Q 330.7 537.7 332 542.5 L 330 551 Q 326.3 549.6 328 555.5 L 326 561.5 L 326 566.5 L 324 568.5 L 323 584.5 L 322 585.5 L 322 598.5 L 320 602.5 L 320 641.5 L 319 642.5 L 319 677.5 L 318 678.5 L 318 696 Q 323.1 697 324.5 693 L 337 691 Q 335.7 687.7 340.5 689 L 350 687 Q 348.6 683 355.5 685 L 366 683 Q 364.6 679.3 370.5 681 L 383.5 676 L 386.5 676 L 388.5 674 L 399.5 672 L 401.5 670 L 408.5 669 Q 414.1 664.4 423 664 Q 421.8 661 425.5 662 L 431.5 658 L 437 657 Q 435.9 654.3 438.5 655 L 444 653 Q 442.9 650.3 445.5 651 L 450 648.5 Q 449.2 645.9 452.5 647 L 456 645 Q 454.9 642.3 457.5 643 L 461 640.5 Q 460.3 638.3 462.5 639 L 465 638 L 466.5 635 L 470 634 Q 468.9 631.3 471.5 632 L 475 630 L 477.5 626 Q 479.8 626.8 479 624.5 L 483 622 L 489 613 Q 491.7 614.1 491 611.5 L 493.5 608 Q 496.1 608.8 495 605.5 Q 502 599 504 589 Q 507.3 590.3 506 585.5 L 508 578 L 510.5 577 L 511 581 Q 514.7 579.6 513 585.5 L 514 591 Q 517.7 589.6 516 595.5 L 517 600.5 L 519 602.5 L 520 612 Q 523.3 610.7 522 615.5 L 524 627 L 526 627.5 L 526 634.5 L 527 640 L 529 640.5 L 529 647.5 L 530 653 Q 533.5 651.9 532 659.5 L 533 660.5 L 534 678 L 536 678.5 L 536 687.5 L 537 688.5 L 537 701 L 539 701.5 L 539 718.5 L 540 719.5 L 540 770.5 L 539 771.5 L 539 793 L 537 793.5 L 537 803.5 L 536 804.5 L 536 814 L 534 814.5 L 534 821.5 L 533 822.5 L 532 837 Q 528 835.6 530 842.5 L 526 839.5 Q 527.1 836.2 524.5 837 L 522 833 Q 519.3 834.1 520 831.5 L 519 827 Q 515.7 828.3 517 823.5 L 516 820 Q 513 821.3 514 817.5 L 513 813 Q 510 814.3 511 810.5 L 508.5 806 Q 505.9 806.8 507 803.5 L 506 800 L 503 798.5 L 503 796 Q 500 797.3 501 793.5 L 498.5 790 Q 495.9 790.8 497 787.5 L 494 786 L 492.5 783 Q 490.3 783.8 491 781.5 L 488 780 L 485.5 776 Q 483.3 776.8 484 774.5 L 481 773 Q 482.3 770 478.5 771 L 475.5 767 L 471 766 Q 472.3 763 468.5 764 L 467 761 L 461 760 Q 462.3 757 458.5 758 L 455 757 Q 456.3 754 452.5 755 L 445 753 Q 446.3 749.7 441.5 751 L 437 750 Q 438.4 746 431.5 748 L 425 747 Q 426.4 743 419.5 745 L 414 744 Q 415.4 740 408.5 742 Q 404.6 739.1 398 740 Q 399.4 736 392.5 738 L 388 737 Q 389 734 386 735 L 386 738 Q 388.7 736.9 388 739.5 L 391 741 L 393 747 Q 396 745.8 395 749.5 L 396 753 L 399 754.5 L 399 757 Q 402 755.8 401 759.5 L 404 761 L 406.5 768 Q 409.1 767.2 408 770.5 L 409 774 Q 411.7 772.9 411 775.5 L 415 780.5 L 415 783 L 418 784.5 L 419.5 787 Q 422.1 786.2 421 789.5 L 424 791 L 425.5 794 Q 428.1 793.2 427 796.5 L 429.5 800 Q 431.8 799.3 431 801.5 L 435 804.5 Q 434.3 806.8 436.5 806 L 440 807 L 442 812 L 448 814.5 Q 447.2 817.1 450.5 816 L 452 819 L 458 820 Q 456.8 823 460.5 822 L 464 823 Q 462.7 826.3 467.5 825 L 474.5 827 L 476.5 829 L 487 830 Q 485.9 833.5 493.5 832 L 494.5 833 L 502.5 833 L 507 837.5 Q 506.3 839.8 508.5 839 L 511.5 843 Q 513.8 842.3 513 844.5 L 514 848 L 520 852.5 L 524 858.5 L 524 864.5 L 522 873 Q 518.3 871.6 520 877.5 L 519 882 Q 515.7 880.7 517 885.5 L 516 891 Q 513 889.8 514 893.5 L 513 896 Q 510 894.8 511 898.5 L 506 912 Q 503 910.8 504 914.5 L 503 918 L 500 919.5 L 500 922 Q 497 920.8 498 924.5 L 496 930 Q 493.3 928.9 494 931.5 L 493 935 Q 490.3 933.9 491 936.5 L 490 940 L 487 941.5 L 485.5 945 Q 483.3 944.3 484 946.5 L 483 950 L 480 951.5 L 480.5 953 L 518.5 953 L 520.5 951 Q 525 952 526 949.5 L 532 937 Q 534.7 938.1 534 935.5 Q 536.8 934.4 536 931 Q 538.7 932.1 538 929.5 L 541 922 Q 544 923.3 543 919.5 L 548 911.5 L 549 905.5 L 553 898.5 L 553 895 Q 556 896.3 555 892.5 L 558 882 Q 561.3 883.3 560 878.5 L 562 871.5 L 564 869.5 L 564 866.5 L 567.5 862 L 573 861 Q 571.8 858 575.5 859 L 580.5 856 L 586 855 Q 584.8 852 588.5 853 L 595.5 849 L 600.5 849 L 601.5 850 L 622 850 L 622.5 852 L 664.5 852 L 666.5 850 L 677.5 850 L 678.5 849 L 693 848 Q 691.6 844 698.5 846 L 703 845 Q 701.7 841.7 706.5 843 L 712 842 Q 710.7 838.7 715.5 840 L 719 839 Q 717.8 836 721.5 837 L 727 835 Q 725.8 832 729.5 833 L 733 832 Q 731.8 829 735.5 830 L 737 827 L 745 825 L 746.5 822 Q 749.8 823.1 749 820.5 L 753 819 Q 751.9 816.3 754.5 817 L 756 814 L 762 812 L 763.5 809 Q 765.8 809.8 765 807.5 L 768 806 L 769.5 803 L 772 801.5 L 773.5 799 Q 775.8 799.8 775 797.5 L 778 796 L 779.5 793 Q 781.8 793.8 781 791.5 L 785 789 L 786.5 786 Q 788.8 786.8 788 784.5 L 791 783 L 792 778 L 796 775.5 Q 795.3 773.3 797.5 774 L 799 770 Q 801.7 771.1 801 768.5 L 805 765.5 L 806.5 763 Q 809.1 763.8 808 760.5 L 809 758 L 812 756.5 Q 811.3 754.3 813.5 755 L 817 753 L 819.5 747 Q 821.8 747.8 821 745.5 L 825 742.5 Q 824.3 740.3 826.5 741 L 828 738 L 831 736.5 L 832.5 734 Q 835.1 734.8 834 731.5 L 838 730 Q 836.9 727.3 839.5 728 L 842.5 724 Q 845.1 724.7 844 722 L 846.5 722 L 848 719 L 844 719 Q 845.3 722 841.5 721 L 837 722 Q 838.4 725.7 832.5 724 L 827 725 L 826.5 727 L 818.5 727 L 817.5 728 L 785.5 728 L 784.5 727 L 760 727 L 759.5 725 L 743 725 L 742.5 727 L 723.5 727 L 722.5 728 L 714 728 Q 715.1 731.5 707.5 730 L 696 732 Q 697.4 735.7 691.5 734 L 687 735 Q 688.3 738.3 683.5 737 L 680 738 Q 681.3 741.3 676.5 740 L 670 742 Q 671.3 745 667.5 744 L 664 745 Q 665.3 748 661.5 747 L 658 748 L 656.5 751 Q 653.2 749.9 654 752.5 L 648 755 Q 649.3 758 645.5 757 L 644 760 L 640 761.5 Q 640.8 763.8 638.5 763 L 635 764 L 633.5 767 L 631 768.5 Q 631.8 770.8 629.5 770 L 628 773 L 624 774.5 Q 624.8 776.8 622.5 776 L 619 778 L 617 783 L 614 784.5 L 614 787 Q 611.3 785.9 612 788.5 L 608 791.5 Q 608.8 793.8 606.5 793 L 604 799 L 599 801 L 598 806 L 595 807.5 L 591 816 Q 588 814.8 589 818.5 L 586 820 L 585 825 L 576 830 Q 577.1 833.3 573 832 L 575 807.5 L 577 805.5 L 577 794.5 L 579 783.5 L 579 768.5 L 581 766.5 L 581 720.5 L 579 718.5 L 577 686.5 L 575 684.5 L 574 668.5 L 572 663.5 L 572 654 Q 568 655.4 570 648.5 L 568 637 Q 564.3 638.4 566 632.5 L 564 622.5 L 561 616.5 L 560 604.5 L 558 601.5 L 556 587.5 L 554 585.5 L 552 574 L 550 574 L 550 568 Q 557.5 569.7 562 575.5 Q 561.3 577.8 563.5 577 L 566 578 Q 564.9 580.7 567.5 580 L 584.5 593 L 588 594 Q 586.8 597 590.5 596 L 595.5 600 L 602.5 602 L 604.5 604 Q 611 604.5 614.5 608 L 622 609 Q 620.7 612.3 625.5 611 L 635.5 613 L 637.5 615 L 657.5 617 L 659.5 619 L 702.5 620 L 703.5 621 L 744.5 621 L 745.5 620 L 760.5 620 L 763 619 Q 763.8 615.6 761 614.5 L 760 604.5 L 757 597.5 L 756 587.5 L 754 585.5 L 752 570.5 L 750 568.5 L 749 558.5 L 748 553.5 L 746 551.5 L 744 537.5 L 742 535.5 L 741 527.5 L 739 525.5 L 737 514.5 L 735 512.5 L 729 493 Q 726 494.3 727 490.5 L 722 482.5 L 722 480 Q 719.3 481.1 720 478.5 L 710 464 L 706 461.5 Q 706.8 459.3 704.5 460 L 694.5 451 L 692 451 L 690.5 448 L 687 447 Q 688.1 444.3 685.5 445 Q 684.4 442.2 681 443 Q 682.1 440.3 679.5 441 L 675 439 Q 676.1 436.3 673.5 437 L 659.5 429 L 646 424 Q 647.3 421 643.5 422 L 637 420 Q 638.3 416.7 633.5 418 L 630 417 Q 628.3 412.5 633.5 414 L 645 412 Q 643.7 408.7 648.5 410 L 666 404 Q 664.7 400.7 669.5 402 L 673 401 Q 671.8 398 675.5 399 L 682 397 Q 680.8 394 684.5 395 L 689 393 Q 687.9 390.3 690.5 391 L 695 389 L 696.5 386 L 700 385 L 701.5 382 Q 703.8 382.8 703 380.5 L 707 378 L 709.5 374 Q 711.8 374.8 711 372.5 L 716 366 Q 718.7 367.1 718 364.5 L 724.5 356 Q 726.8 356.8 726 354.5 L 732 346.5 L 732 344 Q 734.7 345.1 734 342.5 L 739 334.5 L 739 332 Q 742 333.3 741 329.5 L 743 322 Q 746.3 323.3 745 318.5 L 747 311.5 L 749 309.5 L 751 294.5 L 753 292.5 L 755 271.5 L 757 269.5 L 759 250.5 L 761 248.5 L 763 228 L 765 227.5 L 765 217.5 L 766 216.5 L 766 203 L 762.5 202 L 747.5 202 L 746.5 203 L 703.5 203 L 697.5 205 L 671.5 205 L 670.5 206 L 652.5 207 L 650.5 209 L 636 211 Q 637.3 214.3 632.5 213 L 612 222 Q 613.3 225 609.5 224 L 605 226 Q 606.3 229 602.5 228 Q 601.4 230.8 598 230 L 596.5 233 L 594 233 Q 595.1 235.7 592.5 235 L 583 241 Q 584.1 243.7 581.5 243 L 578 245.5 L 576.5 248 L 574 249.5 Q 574.8 251.8 572.5 251 L 564.5 260 Q 561.9 259.2 563 262.5 L 558 270 Q 555.3 268.9 556 271.5 L 550.5 280 Q 548.3 280.8 549 278.5 L 552 261.5 L 552 231.5 L 551 230.5 L 550 212.5 L 548 210.5 L 546 194 Q 542.7 195.3 544 190.5 L 539 176 Q 536.3 177.1 537 174.5 L 535 170 Q 532.3 171.1 533 168.5 L 531 164 Q 528.3 165.1 529 162.5 L 526.5 159 Q 523.9 159.8 525 156.5 L 518 151 Q 519.1 148.3 516.5 149 L 513 147 L 511.5 144 L 504 138.5 Q 504.8 136.3 502.5 137 L 494 130.5 Q 494.8 128.3 492.5 129 L 490 128 L 488.5 125 L 485 124 Q 486.1 121.3 483.5 122 L 466.5 109 L 463 108 Q 464.1 105.3 461.5 106 L 447 96.5 Q 447.8 93.9 444.5 95 L 441 93 Q 442.1 90.3 439.5 91 L 428.5 83 L 426 84 L 420 99.5 L 409 118 Q 406.3 116.9 407 119.5 L 405 125 Q 402 123.8 403 127.5 L 401 133 Q 397.7 131.7 399 136.5 L 397 143 Q 394 141.8 395 145.5 L 393 152 Q 389.7 150.7 391 155.5 L 386 167.5 L 381 186.5 L 379 188.5 L 378 194.5 L 375 200.5 L 374 216.5 L 372 218.5 L 372 238.5 L 374 240.5 L 375 251.5 L 377 253.5 L 379 264.5 L 381 266.5 L 383 276 Q 386 274.8 385 278.5 L 387 285 Q 390 283.8 389 287.5 L 394 294.5 L 394 297 Q 396.7 295.9 396 298.5 L 402.5 308 Q 404.8 307.3 404 309.5 L 406.5 313 Q 408.8 312.3 408 314.5 Q 410.8 315.6 410 319 L 413 320.5 Q 411.9 323.8 414.5 323 L 422 334.5 L 417.5 335 L 416 332 L 412 330.5 Q 412.8 327.9 409.5 329 L 400 322.5 Q 400.8 319.9 397.5 321 L 380.5 312 L 374 311 Q 375.3 308 371.5 309 L 363 307 Q 364.3 303.7 359.5 305 L 350 303 Q 351.1 299.5 343.5 301 L 342.5 300 L 335 300 L 335.5 298 L 336.5 299 L 349.5 300 L 351.5 302 L 364 304 Q 362.7 307.3 367.5 306 L 391.5 315 L 415.5 330 L 415 328.5 L 415 326.5 L 403 310 Q 400.3 311.1 401 308.5 L 389 291.5 L 381 274.5 L 374 254.5 L 371 239.5 L 371 215.5 L 372 214.5 L 374 197.5 L 380 183.5 Q 380.9 174.4 385 168.5 L 386 161.5 L 388 159.5 L 394 141.5 L 396 139.5 L 397 134.5 L 404 120.5 L 415 104.5 L 424 84.5 L 426.5 82 Z " /><path fill="rgb(234,157,56)" stroke="rgb(234,157,56)" stroke-width="1" opacity="0.47843137254901963" d="M 434.5 92 L 437 93 Q 438.1 95.7 435.5 95 L 434.5 92 Z " /><path fill="rgb(234,157,56)" stroke="rgb(234,157,56)" stroke-width="1" opacity="0.47843137254901963" d="M 415 113 Q 418 112 417 115 Q 414 116 415 113 Z " /><path fill="rgb(234,157,56)" stroke="rgb(234,157,56)" stroke-width="1" opacity="0.47843137254901963" d="M 414.5 116 L 415 117.5 L 412.5 119 L 414.5 116 Z " /><path fill="rgb(234,157,56)" stroke="rgb(234,157,56)" stroke-width="1" opacity="0.47843137254901963" d="M 718.5 207 Q 725.3 205.7 728 208.5 L 726.5 210 L 716.5 210 L 715.5 208 L 718.5 207 Z " /><path fill="rgb(234,157,56)" stroke="rgb(234,157,56)" stroke-width="1" opacity="0.47843137254901963" d="M 377 235 L 379 235.5 L 379 243 L 377 242.5 L 377 235 Z " /><path fill="rgb(234,157,56)" stroke="rgb(234,157,56)" stroke-width="1" opacity="0.47843137254901963" d="M 241.5 319 Q 244.8 317.9 244 320.5 L 243 323 L 239 321.5 L 241.5 319 Z " /><path fill="rgb(234,157,56)" stroke="rgb(234,157,56)" stroke-width="1" opacity="0.47843137254901963" d="M 211 325 L 215 325.5 L 211 327 L 211 325 Z " /><path fill="rgb(234,157,56)" stroke="rgb(234,157,56)" stroke-width="1" opacity="0.47843137254901963" d="M 205 326 Q 210.2 324.3 209 328 Q 203.8 329.7 205 326 Z " /><path fill="rgb(234,157,56)" stroke="rgb(234,157,56)" stroke-width="1" opacity="0.47843137254901963" d="M 232.5 326 Q 235.1 325.3 234 328 L 232 328 Q 233.1 330.7 230.5 330 L 228.5 331 L 226 330 L 227.5 327 L 232.5 326 Z " /><path fill="rgb(234,157,56)" stroke="rgb(234,157,56)" stroke-width="1" opacity="0.47843137254901963" d="M 201.5 327 L 202.5 329 L 200 328.5 L 201.5 327 Z " /><path fill="rgb(234,157,56)" stroke="rgb(234,157,56)" stroke-width="1" opacity="0.47843137254901963" d="M 196.5 329 L 199 329.5 L 196.5 330 L 196.5 329 Z " /><path fill="rgb(234,157,56)" stroke="rgb(234,157,56)" stroke-width="1" opacity="0.47843137254901963" d="M 492.5 340 L 518.5 340 L 524.5 343 L 533.5 344 L 539.5 348 L 544 348 Q 542.9 350.7 545.5 350 Q 546.8 353 551 352 Q 549.9 354.7 552.5 354 L 558 357.5 Q 557.3 359.8 559.5 359 L 561 362 L 566 364.5 L 567.5 367 Q 570.1 366.2 569 369.5 L 573 372.5 Q 577.6 375.8 578 382 Q 581 380.8 580 384.5 Q 582.8 385.6 582 389 Q 585.7 387.6 584 393.5 L 586 400 Q 590 398.6 588 405.5 L 591 422.5 L 591 440 Q 587.3 438.6 589 444.5 L 588 445.5 L 588 452 Q 585 450.8 586 454.5 Q 583.2 457.5 584 463 L 581 464.5 L 580 470 L 578 470 L 578 473 Q 575.3 471.9 576 474.5 L 572 481 L 569 482.5 L 568 486 L 565 487.5 L 563.5 490 L 561 490 Q 562.1 492.7 559.5 492 L 552.5 498 L 549 498 Q 550.1 500.7 547.5 500 Q 546.3 503 542 502 Q 543.3 505 539.5 504 Q 538.3 507.3 532.5 506 L 533.5 504 L 540.5 503 Q 542.8 499 548 499 Q 546.9 496.3 549.5 497 L 564 486.5 L 565.5 484 L 568 482.5 L 568 480.5 L 576 471.5 L 584 456.5 L 584 452.5 L 587 446.5 L 589 436.5 L 589 414.5 L 587 404.5 L 580 386.5 Q 573 373.5 562.5 364 L 544.5 351 L 526.5 344 Q 520.4 344.6 517.5 342 L 493.5 342 Q 468.1 346.6 452 360.5 L 450.5 363 Q 447.2 361.9 448 364.5 L 444 367 L 438.5 375 Q 435.9 374.2 437 377.5 L 429 389.5 L 422 409.5 L 421 413.5 L 421 437.5 L 422 442.5 L 424 444.5 L 425 452.5 L 429 459.5 L 429 464 Q 431.7 462.9 431 465.5 Q 437.7 478.8 448.5 488 L 456 493 Q 454.9 495.7 457.5 495 L 468.5 502 L 476.5 504 L 481.5 507 L 491.5 508 L 493.5 510 L 517.5 510 L 519.5 508 L 530.5 506 L 531 508 L 524 509 L 523.5 511 L 487 511 Q 488.4 507.3 482.5 509 L 474.5 507 L 471.5 504 L 468.5 504 L 461 500 Q 462.3 497 458.5 498 L 455 497 Q 456.7 492.9 452.5 494 L 450 490 Q 446.2 490.8 445 487.5 Q 445.8 485.3 443.5 486 L 432 471.5 L 430 465 Q 427.3 466.1 428 463.5 Q 425.2 460.5 426 455 Q 423 456.3 424 452.5 L 423 448 L 421 447.5 L 421 440.5 L 420 439.5 L 420 412.5 L 421 411.5 L 421 403 Q 424 404.3 423 400.5 Q 425.8 397.5 425 392 Q 428 393.3 427 389.5 L 428 386 Q 430.7 387.1 430 384.5 L 436.5 374 L 438 374 L 438 371 Q 440.7 372.1 440 369.5 L 445 363 L 450 361 L 450 359 L 452 359 Q 450.9 356.3 453.5 357 L 459 353.5 Q 458.3 351.3 460.5 352 L 466 349.5 Q 465.1 346.1 470.5 348 L 476 346 Q 474.6 342 481.5 344 Q 484.4 341.4 490.5 342 L 492.5 340 Z " /><path fill="rgb(234,157,56)" stroke="rgb(234,157,56)" stroke-width="1" opacity="0.47843137254901963" d="M 210 369 L 214 370.5 Q 213.3 373.1 216 372 L 216 375.5 L 217 378 L 213 375.5 L 210 371.5 L 210 369 Z " /><path fill="rgb(234,157,56)" stroke="rgb(234,157,56)" stroke-width="1" opacity="0.47843137254901963" d="M 739.5 540 L 740 542 L 738 541.5 L 739.5 540 Z " /><path fill="rgb(234,157,56)" stroke="rgb(234,157,56)" stroke-width="1" opacity="0.47843137254901963" d="M 517.5 546 L 519 548.5 L 516 549 L 517.5 546 Z " /><path fill="rgb(234,157,56)" stroke="rgb(234,157,56)" stroke-width="1" opacity="0.47843137254901963" d="M 740 546 Q 743.3 544.9 742 549 Q 738.7 550.1 740 546 Z " /><path fill="rgb(234,157,56)" stroke="rgb(234,157,56)" stroke-width="1" opacity="0.47843137254901963" d="M 741 551 Q 744.7 549.8 743 555 Q 739.3 556.2 741 551 Z " /><path fill="rgb(234,157,56)" stroke="rgb(234,157,56)" stroke-width="1" opacity="0.47843137254901963" d="M 743.5 556 L 745 560 Q 740.9 561.7 742 557.5 L 743.5 556 Z " /><path fill="rgb(234,157,56)" stroke="rgb(234,157,56)" stroke-width="1" opacity="0.47843137254901963" d="M 744 562 Q 747.3 560.9 746 565 Q 742.7 566.1 744 562 Z " /><path fill="rgb(234,157,56)" stroke="rgb(234,157,56)" stroke-width="1" opacity="0.47843137254901963" d="M 534.5 589 L 535 592.5 L 534 592.5 L 534.5 589 Z " /><path fill="rgb(234,157,56)" stroke="rgb(234,157,56)" stroke-width="1" opacity="0.47843137254901963" d="M 536.5 594 L 537 596.5 L 536 596.5 L 536.5 594 Z " /><path fill="rgb(234,157,56)" stroke="rgb(234,157,56)" stroke-width="1" opacity="0.47843137254901963" d="M 540.5 606 L 541 611.5 L 540 611.5 L 540.5 606 Z " /><path fill="rgb(234,157,56)" stroke="rgb(234,157,56)" stroke-width="1" opacity="0.47843137254901963" d="M 733.5 612 Q 736.1 611.3 735 614 L 732 613.5 L 733.5 612 Z " /><path fill="rgb(234,157,56)" stroke="rgb(234,157,56)" stroke-width="1" opacity="0.47843137254901963" d="M 541.5 613 L 542.5 615 Q 539.7 615.7 541.5 613 Z " /><path fill="rgb(234,157,56)" stroke="rgb(234,157,56)" stroke-width="1" opacity="0.47843137254901963" d="M 543.5 616 L 544 620.5 L 543 620.5 L 543.5 616 Z " /><path fill="rgb(234,157,56)" stroke="rgb(234,157,56)" stroke-width="1" opacity="0.47843137254901963" d="M 329.5 651 L 331 652.5 Q 330.3 660.5 332 665 Q 329.3 663.9 330 666.5 L 329 666.5 L 329.5 651 Z " /><path fill="rgb(232,154,60)" stroke="rgb(232,154,60)" stroke-width="1" opacity="0.996078431372549" d="M 425.5 81 Q 432.5 79.5 434 83.5 L 432.5 84 Q 431.5 81 426.5 82 L 424 83.5 L 425.5 81 Z " /><path fill="rgb(232,154,60)" stroke="rgb(232,154,60)" stroke-width="1" opacity="0.996078431372549" d="M 422 85 Q 424.7 83.9 424 86.5 L 420.5 93 L 420 90.5 L 422 85 Z " /><path fill="rgb(232,154,60)" stroke="rgb(232,154,60)" stroke-width="1" opacity="0.996078431372549" d="M 435.5 85 L 452 95 L 451.5 97 L 436.5 87 L 435.5 85 Z " /><path fill="rgb(232,154,60)" stroke="rgb(232,154,60)" stroke-width="1" opacity="0.996078431372549" d="M 418 94 L 420 94.5 L 412.5 107 L 412 105.5 Q 417 101.3 418 94 Z " /><path fill="rgb(232,154,60)" stroke="rgb(232,154,60)" stroke-width="1" opacity="0.996078431372549" d="M 453.5 97 L 463 102 L 464 104.5 L 462.5 104 Q 455.4 101.7 453.5 97 Z " /><path fill="rgb(232,154,60)" stroke="rgb(232,154,60)" stroke-width="1" opacity="0.996078431372549" d="M 465 105 L 468 106.5 L 467.5 108 L 465 107 L 465 105 Z " /><path fill="rgb(232,154,60)" stroke="rgb(232,154,60)" stroke-width="1" opacity="0.996078431372549" d="M 410 108 L 412 108.5 L 401.5 126 L 401 124.5 L 403 119 Q 406 120.3 405 116.5 L 410 108 Z " /><path fill="rgb(232,154,60)" stroke="rgb(232,154,60)" stroke-width="1" opacity="0.996078431372549" d="M 469.5 108 L 490 122.5 L 491.5 125 Q 494.8 123.9 494 126.5 L 499 129 Q 497.9 131.7 500.5 131 L 503 135 L 506.5 136 L 518 145.5 Q 517.3 147.8 519.5 147 L 522 151 L 529 156.5 L 533 164 Q 535.7 162.9 535 165.5 L 540 172.5 L 541 176.5 L 540 176.5 L 529 158.5 L 516.5 146 L 513.5 144 L 510 142 Q 511.1 139.3 508.5 140 L 479.5 116 L 476 115 Q 477.1 112.3 474.5 113 L 469.5 108 Z " /><path fill="rgb(232,154,60)" stroke="rgb(232,154,60)" stroke-width="1" opacity="0.996078431372549" d="M 399 127 L 401 127.5 L 397.5 134 L 397 132.5 L 399 127 Z " /><path fill="rgb(232,154,60)" stroke="rgb(232,154,60)" stroke-width="1" opacity="0.996078431372549" d="M 396.5 135 L 397 136.5 L 394.5 141 L 394 139.5 L 396.5 135 Z " /><path fill="rgb(232,154,60)" stroke="rgb(232,154,60)" stroke-width="1" opacity="0.996078431372549" d="M 393.5 142 L 394 143.5 L 386.5 161 L 386 159.5 L 393.5 142 Z " /><path fill="rgb(232,154,60)" stroke="rgb(232,154,60)" stroke-width="1" opacity="0.996078431372549" d="M 385.5 162 L 386 164.5 L 385 164.5 L 385.5 162 Z " /><path fill="rgb(232,154,60)" stroke="rgb(232,154,60)" stroke-width="1" opacity="0.996078431372549" d="M 383 166 Q 386 164.8 385 168.5 L 381.5 177 L 381 174.5 L 383 166 Z " /><path fill="rgb(232,154,60)" stroke="rgb(232,154,60)" stroke-width="1" opacity="0.996078431372549" d="M 541.5 178 Q 544.1 177.2 543 180.5 L 544 182.5 L 542 181.5 L 541.5 178 Z " /><path fill="rgb(232,154,60)" stroke="rgb(232,154,60)" stroke-width="1" opacity="0.996078431372549" d="M 379 179 Q 381.7 177.9 381 180.5 L 374.5 197 L 374 194.5 L 379 182.5 L 379 179 Z " /><path fill="rgb(232,154,60)" stroke="rgb(232,154,60)" stroke-width="1" opacity="0.996078431372549" d="M 544.5 184 L 546 185.5 L 548 195.5 L 547 195.5 L 544.5 184 Z " /><path fill="rgb(232,154,60)" stroke="rgb(232,154,60)" stroke-width="1" opacity="0.996078431372549" d="M 548.5 197 L 550 198.5 L 551 208.5 L 550 208.5 L 548.5 197 Z " /><path fill="rgb(232,154,60)" stroke="rgb(232,154,60)" stroke-width="1" opacity="0.996078431372549" d="M 373.5 199 L 374 201.5 L 371.5 215 L 371 205.5 L 373.5 199 Z " /><path fill="rgb(232,154,60)" stroke="rgb(232,154,60)" stroke-width="1" opacity="0.996078431372549" d="M 748.5 199 L 764.5 199 L 769 202.5 L 769 217.5 L 767.5 219 L 767 212.5 L 768 211.5 L 768 203.5 Q 765.7 199.3 758.5 200 L 757.5 201 L 746.5 201 L 746.5 200 L 748.5 199 Z " /><path fill="rgb(232,154,60)" stroke="rgb(232,154,60)" stroke-width="1" opacity="0.996078431372549" d="M 702.5 201 L 725 201.5 L 702.5 202 L 702.5 201 Z " /><path fill="rgb(232,154,60)" stroke="rgb(232,154,60)" stroke-width="1" opacity="0.996078431372549" d="M 670.5 202 L 686 202.5 L 657.5 205 L 658.5 203 L 669.5 203 L 670.5 202 Z " /><path fill="rgb(232,154,60)" stroke="rgb(232,154,60)" stroke-width="1" opacity="0.996078431372549" d="M 650.5 205 L 654 205.5 L 650.5 206 L 650.5 205 Z " /><path fill="rgb(232,154,60)" stroke="rgb(232,154,60)" stroke-width="1" opacity="0.996078431372549" d="M 644.5 206 L 649 206.5 L 639.5 209 L 640.5 207 L 644.5 206 Z " /><path fill="rgb(232,154,60)" stroke="rgb(232,154,60)" stroke-width="1" opacity="0.996078431372549" d="M 635.5 209 L 638 209.5 L 628.5 213 L 628.5 212 L 635.5 209 Z " /><path fill="rgb(232,154,60)" stroke="rgb(232,154,60)" stroke-width="1" opacity="0.996078431372549" d="M 551.5 210 L 552 214.5 L 551 214.5 L 551.5 210 Z " /><path fill="rgb(232,154,60)" stroke="rgb(232,154,60)" stroke-width="1" opacity="0.996078431372549" d="M 624.5 213 L 627 213.5 L 621 216 Q 619.8 213 623.5 214 L 624.5 213 Z " /><path fill="rgb(232,154,60)" stroke="rgb(232,154,60)" stroke-width="1" opacity="0.996078431372549" d="M 618.5 216 L 620 216.5 L 613.5 220 L 613 218 L 618.5 216 Z " /><path fill="rgb(232,154,60)" stroke="rgb(232,154,60)" stroke-width="1" opacity="0.996078431372549" d="M 370.5 217 L 371 239.5 L 374 253.5 L 373 253.5 L 370 239.5 L 370.5 217 Z " /><path fill="rgb(232,154,60)" stroke="rgb(232,154,60)" stroke-width="1" opacity="0.996078431372549" d="M 552.5 218 L 554 219.5 L 555 241.5 L 554 241.5 L 552.5 218 Z " /><path fill="rgb(232,154,60)" stroke="rgb(232,154,60)" stroke-width="1" opacity="0.996078431372549" d="M 608.5 221 L 610 221.5 L 589.5 235 L 589 233.5 L 605 224 Q 603.8 221 607.5 222 L 608.5 221 Z " /><path fill="rgb(232,154,60)" stroke="rgb(232,154,60)" stroke-width="1" opacity="0.996078431372549" d="M 766.5 223 L 767 228.5 L 766 228.5 L 766.5 223 Z " /><path fill="rgb(232,154,60)" stroke="rgb(232,154,60)" stroke-width="1" opacity="0.996078431372549" d="M 765.5 231 L 766 236.5 Q 763.5 238 765 243.5 L 763.5 245 L 763 240.5 L 765.5 231 Z " /><path fill="rgb(232,154,60)" stroke="rgb(232,154,60)" stroke-width="1" opacity="0.996078431372549" d="M 586.5 235 L 588 235.5 L 572 248.5 Q 572.8 250.8 570.5 250 L 568 254 L 565 255.5 L 552.5 274 L 552 268.5 L 553 267.5 L 554.5 253 L 555 262.5 L 554 267.5 L 557 265.5 L 559 260 L 563 257.5 L 567.5 251 Q 569.8 251.8 569 249.5 L 574 245.5 Q 573.3 243.3 575.5 244 L 578 243 L 579.5 240 L 586.5 235 Z " /><path fill="rgb(232,154,60)" stroke="rgb(232,154,60)" stroke-width="1" opacity="0.996078431372549" d="M 762.5 247 L 763 249.5 L 762 249.5 L 762.5 247 Z " /><path fill="rgb(232,154,60)" stroke="rgb(232,154,60)" stroke-width="1" opacity="0.996078431372549" d="M 761.5 252 L 762 256.5 L 761 257.5 L 761 264 Q 758 265.3 759 261.5 L 761.5 252 Z " /><path fill="rgb(232,154,60)" stroke="rgb(232,154,60)" stroke-width="1" opacity="0.996078431372549" d="M 374.5 255 L 377 262 Q 373.7 263.3 375 258.5 L 374.5 255 Z " /><path fill="rgb(232,154,60)" stroke="rgb(232,154,60)" stroke-width="1" opacity="0.996078431372549" d="M 377.5 264 L 381 274 Q 377.7 275.3 379 270.5 Q 376 268 377.5 264 Z " /><path fill="rgb(232,154,60)" stroke="rgb(232,154,60)" stroke-width="1" opacity="0.996078431372549" d="M 758.5 267 L 759 271.5 L 758 271.5 L 758.5 267 Z " /><path fill="rgb(232,154,60)" stroke="rgb(232,154,60)" stroke-width="1" opacity="0.996078431372549" d="M 757.5 273 L 758 278.5 Q 755.5 280 757 285.5 L 755.5 287 L 755 283.5 L 757.5 273 Z " /><path fill="rgb(232,154,60)" stroke="rgb(232,154,60)" stroke-width="1" opacity="0.996078431372549" d="M 381.5 275 L 385 282.5 L 383 283 L 381.5 275 Z " /><path fill="rgb(232,154,60)" stroke="rgb(232,154,60)" stroke-width="1" opacity="0.996078431372549" d="M 385.5 284 L 392 295.5 L 390 296 L 386 288.5 L 385.5 284 Z " /><path fill="rgb(232,154,60)" stroke="rgb(232,154,60)" stroke-width="1" opacity="0.996078431372549" d="M 754.5 290 L 755 294.5 L 754 294.5 L 754.5 290 Z " /><path fill="rgb(232,154,60)" stroke="rgb(232,154,60)" stroke-width="1" opacity="0.996078431372549" d="M 305.5 293 L 323.5 294 L 325 295.5 L 320.5 296 L 319.5 295 L 291.5 295 Q 289.8 297.8 283.5 296 L 283.5 295 L 304.5 294 L 305.5 293 Z " /><path fill="rgb(232,154,60)" stroke="rgb(232,154,60)" stroke-width="1" opacity="0.996078431372549" d="M 270.5 296 L 278 296.5 L 262 299 L 262.5 297 L 269.5 297 L 270.5 296 Z " /><path fill="rgb(232,154,60)" stroke="rgb(232,154,60)" stroke-width="1" opacity="0.996078431372549" d="M 328.5 296 L 343.5 298 L 345 299.5 L 343.5 299 L 336.5 299 Q 334.2 296.3 328.5 297 L 328.5 296 Z " /><path fill="rgb(232,154,60)" stroke="rgb(232,154,60)" stroke-width="1" opacity="0.996078431372549" d="M 753.5 296 L 754 301.5 L 751.5 307 L 751 304.5 L 753.5 296 Z " /><path fill="rgb(232,154,60)" stroke="rgb(232,154,60)" stroke-width="1" opacity="0.996078431372549" d="M 392.5 297 L 396 301.5 L 394 302 L 392.5 297 Z " /><path fill="rgb(232,154,60)" stroke="rgb(232,154,60)" stroke-width="1" opacity="0.996078431372549" d="M 255.5 299 L 259 299.5 L 255.5 300 L 255.5 299 Z " /><path fill="rgb(232,154,60)" stroke="rgb(232,154,60)" stroke-width="1" opacity="0.996078431372549" d="M 248.5 300 L 253 300.5 L 241.5 303 L 242.5 301 Q 247.2 302.2 248.5 300 Z " /><path fill="rgb(232,154,60)" stroke="rgb(232,154,60)" stroke-width="1" opacity="0.996078431372549" d="M 350.5 300 L 356 301.5 L 351.5 302 L 350.5 300 Z " /><path fill="rgb(232,154,60)" stroke="rgb(232,154,60)" stroke-width="1" opacity="0.996078431372549" d="M 235.5 303 L 239 303.5 L 225.5 307 L 226.5 305 L 235.5 303 Z " /><path fill="rgb(232,154,60)" stroke="rgb(232,154,60)" stroke-width="1" opacity="0.996078431372549" d="M 396.5 303 L 401 310 Q 403.7 308.9 403 311.5 L 417 330.5 L 415.5 330 L 406 323.5 L 407.5 323 L 411.5 326 L 412 324.5 L 404 313 L 401 311.5 L 400 308 Q 397.3 309.1 398 306.5 Q 395 305.5 396.5 303 Z " /><path fill="rgb(232,154,60)" stroke="rgb(232,154,60)" stroke-width="1" opacity="0.996078431372549" d="M 364 304 L 371 306.5 L 368.5 307 L 364 306 L 364 304 Z " /><path fill="rgb(232,154,60)" stroke="rgb(232,154,60)" stroke-width="1" opacity="0.996078431372549" d="M 221.5 307 L 224 307.5 L 214.5 311 L 215.5 309 L 221.5 307 Z " /><path fill="rgb(232,154,60)" stroke="rgb(232,154,60)" stroke-width="1" opacity="0.996078431372549" d="M 375.5 308 L 382 310.5 L 380.5 311 L 375.5 309 L 375.5 308 Z " /><path fill="rgb(232,154,60)" stroke="rgb(232,154,60)" stroke-width="1" opacity="0.996078431372549" d="M 750.5 308 L 751 310.5 L 750 310.5 L 750.5 308 Z " /><path fill="rgb(232,154,60)" stroke="rgb(232,154,60)" stroke-width="1" opacity="0.996078431372549" d="M 210.5 311 L 213 311.5 L 196.5 318 L 197.5 316 Q 205.6 315.1 210.5 311 Z " /><path fill="rgb(232,154,60)" stroke="rgb(232,154,60)" stroke-width="1" opacity="0.996078431372549" d="M 383.5 311 L 390 313 L 389.5 315 L 383.5 312 L 383.5 311 Z " /><path fill="rgb(232,154,60)" stroke="rgb(232,154,60)" stroke-width="1" opacity="0.996078431372549" d="M 749.5 312 L 750 315.5 L 749 319 L 747 318.5 L 749.5 312 Z " /><path fill="rgb(232,154,60)" stroke="rgb(232,154,60)" stroke-width="1" opacity="0.996078431372549" d="M 392.5 315 L 398 317.5 L 397.5 319 L 392.5 316 L 392.5 315 Z " /><path fill="rgb(232,154,60)" stroke="rgb(232,154,60)" stroke-width="1" opacity="0.996078431372549" d="M 190.5 319 L 192 319.5 L 186 322 Q 184.7 318.7 189.5 320 L 190.5 319 Z " /><path fill="rgb(232,154,60)" stroke="rgb(232,154,60)" stroke-width="1" opacity="0.996078431372549" d="M 399.5 319 L 405 321 L 404.5 323 L 399.5 320 L 399.5 319 Z " /><path fill="rgb(232,154,60)" stroke="rgb(232,154,60)" stroke-width="1" opacity="0.996078431372549" d="M 746.5 321 L 747 323.5 L 738 341.5 L 738 344 L 735.5 345 L 736 343.5 L 746.5 321 Z " /><path fill="rgb(232,154,60)" stroke="rgb(232,154,60)" stroke-width="1" opacity="0.996078431372549" d="M 183.5 322 L 185 322.5 L 178 327.5 L 181 334.5 L 179 333.5 L 177 326.5 L 178 324 L 183.5 322 Z " /><path fill="rgb(232,154,60)" stroke="rgb(232,154,60)" stroke-width="1" opacity="0.996078431372549" d="M 182.5 336 L 200 365 Q 197.3 366.1 198 363.5 L 193 356.5 L 193 354 Q 190 355.3 191 351.5 L 183 339.5 L 182.5 336 Z " /><path fill="rgb(232,154,60)" stroke="rgb(232,154,60)" stroke-width="1" opacity="0.996078431372549" d="M 493.5 342 L 517.5 342 Q 520.4 344.6 526.5 344 L 544.5 351 L 561 363.5 L 559.5 364 L 557 360 L 539.5 350 L 535 350 Q 536.3 347 532.5 348 L 529.5 346 L 523.5 346 L 521.5 344 L 516.5 343 L 493.5 343 L 488.5 344 L 486.5 346 L 481.5 346 L 475.5 348 L 460.5 356 L 461.5 354 L 472.5 348 L 493.5 342 Z " /><path fill="rgb(232,154,60)" stroke="rgb(232,154,60)" stroke-width="1" opacity="0.996078431372549" d="M 734.5 346 L 735 347.5 L 732.5 349 L 734.5 346 Z " /><path fill="rgb(232,154,60)" stroke="rgb(232,154,60)" stroke-width="1" opacity="0.996078431372549" d="M 731.5 350 L 732 351.5 Q 729.2 352.6 730 356 L 727 357.5 L 726 361 Q 723.3 359.9 724 362.5 L 722 366 Q 719.3 364.9 720 367.5 L 717.5 371 L 715 372.5 L 713.5 375 L 711 376.5 Q 711.8 378.8 709.5 378 L 707 382 L 703 384.5 Q 703.8 386.8 701.5 386 L 700 389 L 695 391.5 Q 695.8 393.8 693.5 393 L 675.5 402 L 676.5 400 L 690.5 394 L 716 370.5 L 731.5 350 Z " /><path fill="rgb(232,154,60)" stroke="rgb(232,154,60)" stroke-width="1" opacity="0.996078431372549" d="M 457.5 356 L 458 359 L 454 360.5 Q 454.8 362.8 452.5 362 L 451 365 Q 447.2 364.3 446 367.5 Q 446.8 369.8 444.5 369 Q 441.3 370.2 442 374 L 439 375.5 L 437.5 379 L 436 378.5 L 437 375 L 441 372.5 L 444 367 L 448 364.5 Q 447.2 361.9 450.5 363 L 453.5 359 L 457.5 356 Z " /><path fill="rgb(232,154,60)" stroke="rgb(232,154,60)" stroke-width="1" opacity="0.996078431372549" d="M 562.5 364 L 576 380.5 L 574 381 L 572 375 L 567 371.5 L 566 368 L 562 365.5 L 562.5 364 Z " /><path fill="rgb(232,154,60)" stroke="rgb(232,154,60)" stroke-width="1" opacity="0.996078431372549" d="M 200.5 366 L 208 377.5 L 206 378 L 204 372 Q 201.3 373.1 202 370.5 L 200.5 366 Z " /><path fill="rgb(232,154,60)" stroke="rgb(232,154,60)" stroke-width="1" opacity="0.996078431372549" d="M 208.5 379 L 212 383.5 L 210 384 L 208.5 379 Z " /><path fill="rgb(232,154,60)" stroke="rgb(232,154,60)" stroke-width="1" opacity="0.996078431372549" d="M 435.5 380 L 435 381.5 L 434 386 Q 431.3 384.9 432 387.5 L 428.5 394 L 428 392.5 L 435.5 380 Z " /><path fill="rgb(232,154,60)" stroke="rgb(232,154,60)" stroke-width="1" opacity="0.996078431372549" d="M 576.5 382 L 580 387.5 L 577 385.5 L 576.5 382 Z " /><path fill="rgb(232,154,60)" stroke="rgb(232,154,60)" stroke-width="1" opacity="0.996078431372549" d="M 212.5 385 L 227 406.5 L 225 407 L 223 401 Q 220.3 402.1 221 399.5 L 219 395 Q 216 396.3 217 392.5 L 212 386.5 L 212.5 385 Z " /><path fill="rgb(232,154,60)" stroke="rgb(232,154,60)" stroke-width="1" opacity="0.996078431372549" d="M 580.5 389 L 584 395.5 L 589 414.5 L 589 436.5 L 587 446.5 L 584 452.5 L 584 456.5 L 576 471.5 L 568.5 480 L 568 478 L 572 475.5 L 574 470 Q 577 471.3 576 467.5 Q 578.8 466.4 578 463 Q 581 464.3 580 460.5 Q 582.8 458.8 582 453.5 L 585 449.5 L 586 439.5 L 588 436.5 L 588 414.5 L 586 412.5 L 586 405.5 L 582 397.5 L 580.5 389 Z " /><path fill="rgb(232,154,60)" stroke="rgb(232,154,60)" stroke-width="1" opacity="0.996078431372549" d="M 427.5 395 L 427 396.5 Q 429 403.4 425 402 Q 424.2 397 427.5 395 Z " /><path fill="rgb(232,154,60)" stroke="rgb(232,154,60)" stroke-width="1" opacity="0.996078431372549" d="M 672.5 402 L 674 402.5 L 663.5 408 L 655.5 410 L 655.5 409 L 672.5 402 Z " /><path fill="rgb(232,154,60)" stroke="rgb(232,154,60)" stroke-width="1" opacity="0.996078431372549" d="M 423.5 407 L 424 408.5 L 423 409.5 L 423 442.5 L 423.5 444 L 421 437.5 L 421 413.5 L 423.5 407 Z " /><path fill="rgb(232,154,60)" stroke="rgb(232,154,60)" stroke-width="1" opacity="0.996078431372549" d="M 227.5 408 L 243.5 428 L 246 429.5 L 247.5 432 L 250 433.5 L 251.5 436 L 254 437.5 Q 253.3 439.8 255.5 439 Q 267.4 450.6 284 457.5 L 282.5 458 L 273.5 453 L 271 453 Q 272.1 450.3 269.5 451 L 265 449 Q 266.1 446.3 263.5 447 L 259 445 L 257.5 442 L 251 438 L 249.5 435 L 247 433.5 L 245.5 431 L 243 429.5 L 241.5 427 Q 239.3 427.8 240 425.5 L 239 423 L 236 421.5 L 231 413 Q 228.3 414.1 229 411.5 L 227.5 408 Z " /><path fill="rgb(232,154,60)" stroke="rgb(232,154,60)" stroke-width="1" opacity="0.996078431372549" d="M 652.5 410 Q 655.1 409.3 654 412 L 643.5 414 L 643.5 413 L 652.5 410 Z " /><path fill="rgb(232,154,60)" stroke="rgb(232,154,60)" stroke-width="1" opacity="0.996078431372549" d="M 639.5 414 L 642 414.5 L 638 416.5 L 644 419.5 L 642.5 420 L 634 415.5 L 639.5 414 Z " /><path fill="rgb(232,154,60)" stroke="rgb(232,154,60)" stroke-width="1" opacity="0.996078431372549" d="M 645.5 420 L 655.5 425 L 659 425 Q 657.8 428 661.5 427 L 674 433 L 673.5 435 Q 662.7 427.3 648.5 423 L 645.5 420 Z " /><path fill="rgb(232,154,60)" stroke="rgb(232,154,60)" stroke-width="1" opacity="0.996078431372549" d="M 675.5 435 L 681 437 L 682 439.5 L 680.5 439 Q 675.9 438.3 675.5 435 Z " /><path fill="rgb(232,154,60)" stroke="rgb(232,154,60)" stroke-width="1" opacity="0.996078431372549" d="M 683.5 440 L 692 445.5 Q 691.3 447.8 693.5 447 L 701 452.5 Q 700.3 454.8 702.5 454 L 710 460 L 712.5 464 Q 714.8 463.3 714 465.5 L 727 483.5 L 733 495.5 L 735 503.5 L 737 505.5 L 739 514.5 L 738 514.5 L 734 501.5 L 732 499.5 L 732 496.5 L 723 479.5 Q 715.4 466.6 704.5 457 L 685.5 443 L 683.5 440 Z " /><path fill="rgb(232,154,60)" stroke="rgb(232,154,60)" stroke-width="1" opacity="0.996078431372549" d="M 424.5 447 Q 427.1 446.2 426 449.5 L 428 456.5 L 427 456.5 L 424.5 447 Z " /><path fill="rgb(232,154,60)" stroke="rgb(232,154,60)" stroke-width="1" opacity="0.996078431372549" d="M 714.5 449 L 717 450 Q 718.1 453.3 714 452 L 714.5 449 Z " /><path fill="rgb(232,154,60)" stroke="rgb(232,154,60)" stroke-width="1" opacity="0.996078431372549" d="M 720.5 449 L 723 450 Q 724.1 453.3 720 452 L 720.5 449 Z " /><path fill="rgb(232,154,60)" stroke="rgb(232,154,60)" stroke-width="1" opacity="0.996078431372549" d="M 285.5 458 L 291 461.5 L 289.5 462 L 286 461 L 285.5 458 Z " /><path fill="rgb(232,154,60)" stroke="rgb(232,154,60)" stroke-width="1" opacity="0.996078431372549" d="M 428.5 458 Q 431.1 457.2 430 460.5 L 431 464 Q 427.3 465.4 429 459.5 L 428.5 458 Z " /><path fill="rgb(232,154,60)" stroke="rgb(232,154,60)" stroke-width="1" opacity="0.996078431372549" d="M 292.5 462 L 302 465.5 L 299.5 466 L 293.5 464 L 292.5 462 Z " /><path fill="rgb(232,154,60)" stroke="rgb(232,154,60)" stroke-width="1" opacity="0.996078431372549" d="M 431.5 465 L 434 466 L 434 470 Q 436.7 468.9 436 471.5 L 433 469.5 L 431.5 465 Z " /><path fill="rgb(232,154,60)" stroke="rgb(232,154,60)" stroke-width="1" opacity="0.996078431372549" d="M 303.5 466 L 312 468.5 L 308.5 469 L 304.5 468 L 303.5 466 Z " /><path fill="rgb(232,154,60)" stroke="rgb(232,154,60)" stroke-width="1" opacity="0.996078431372549" d="M 313.5 469 L 317 469.5 L 313.5 470 L 313.5 469 Z " /><path fill="rgb(232,154,60)" stroke="rgb(232,154,60)" stroke-width="1" opacity="0.996078431372549" d="M 386.5 469 L 384.5 472 L 384 470 L 386.5 469 Z " /><path fill="rgb(232,154,60)" stroke="rgb(232,154,60)" stroke-width="1" opacity="0.996078431372549" d="M 319.5 470 L 339 472.5 L 327.5 473 Q 326 470.5 320.5 472 L 319.5 470 Z " /><path fill="rgb(232,154,60)" stroke="rgb(232,154,60)" stroke-width="1" opacity="0.996078431372549" d="M 379.5 470 L 382 470.5 L 381.5 472 L 383 472.5 L 360 494.5 L 335.5 529 L 335 527.5 L 347 509 Q 349.7 510.1 349 507.5 L 359 493 L 363 490.5 Q 362.3 488.3 364.5 489 L 367.5 485 L 370 483.5 L 371.5 481 L 374 479.5 Q 373.3 477.3 375.5 478 L 378 474 L 381 472.5 L 374.5 472 L 373.5 473 L 356.5 473 L 356.5 472 L 368.5 472 L 379.5 470 Z " /><path fill="rgb(232,154,60)" stroke="rgb(232,154,60)" stroke-width="1" opacity="0.996078431372549" d="M 436.5 473 Q 439.1 472.2 438 475.5 L 442 478 L 443 480.5 L 437 475.5 L 436.5 473 Z " /><path fill="rgb(232,154,60)" stroke="rgb(232,154,60)" stroke-width="1" opacity="0.996078431372549" d="M 443.5 482 L 446 483.5 L 447.5 486 L 454 490.5 L 455 492.5 L 449.5 488 L 443.5 482 Z " /><path fill="rgb(232,154,60)" stroke="rgb(232,154,60)" stroke-width="1" opacity="0.996078431372549" d="M 565.5 482 L 568 482.5 L 564.5 485 L 564 483.5 L 565.5 482 Z " /><path fill="rgb(232,154,60)" stroke="rgb(232,154,60)" stroke-width="1" opacity="0.996078431372549" d="M 561 486 L 564 486.5 L 561 488 L 561 486 Z " /><path fill="rgb(232,154,60)" stroke="rgb(232,154,60)" stroke-width="1" opacity="0.996078431372549" d="M 559.5 488 L 554.5 494 L 549.5 497 L 550 495.5 Q 549.2 492.9 552.5 494 L 556 491.5 Q 555.3 489.3 557.5 490 L 559.5 488 Z " /><path fill="rgb(232,154,60)" stroke="rgb(232,154,60)" stroke-width="1" opacity="0.996078431372549" d="M 456 493 L 461 495.5 Q 460.1 498.5 464.5 497 L 466 499.5 L 464.5 499 L 456 495 L 456 493 Z " /><path fill="rgb(232,154,60)" stroke="rgb(232,154,60)" stroke-width="1" opacity="0.996078431372549" d="M 547.5 497 L 548 499 L 545 498.5 L 547.5 497 Z " /><path fill="rgb(232,154,60)" stroke="rgb(232,154,60)" stroke-width="1" opacity="0.996078431372549" d="M 467.5 500 L 473 501 Q 471.8 504 475.5 503 L 475.5 504 L 468.5 502 L 467.5 500 Z " /><path fill="rgb(232,154,60)" stroke="rgb(232,154,60)" stroke-width="1" opacity="0.996078431372549" d="M 542.5 500 L 540.5 503 L 535.5 504 L 535 502 L 542.5 500 Z " /><path fill="rgb(232,154,60)" stroke="rgb(232,154,60)" stroke-width="1" opacity="0.996078431372549" d="M 477.5 504 L 484 505 Q 485.3 508 481.5 507 Q 477.5 506.5 477.5 504 Z " /><path fill="rgb(232,154,60)" stroke="rgb(232,154,60)" stroke-width="1" opacity="0.996078431372549" d="M 532.5 504 L 531.5 506 L 526 507 Q 524.6 503 531.5 505 L 532.5 504 Z " /><path fill="rgb(232,154,60)" stroke="rgb(232,154,60)" stroke-width="1" opacity="0.996078431372549" d="M 492.5 508 L 493.5 509 L 517.5 509 L 519 508.5 L 517.5 510 L 493.5 510 L 492.5 508 Z " /><path fill="rgb(232,154,60)" stroke="rgb(232,154,60)" stroke-width="1" opacity="0.996078431372549" d="M 739.5 516 L 741 517.5 L 742 523.5 L 741 523.5 L 739.5 516 Z " /><path fill="rgb(232,154,60)" stroke="rgb(232,154,60)" stroke-width="1" opacity="0.996078431372549" d="M 742.5 525 L 743 527.5 L 742 527.5 L 742.5 525 Z " /><path fill="rgb(232,154,60)" stroke="rgb(232,154,60)" stroke-width="1" opacity="0.996078431372549" d="M 334.5 530 L 334 531.5 Q 333.8 537.3 330.5 540 L 330 538.5 L 332 532.5 L 334.5 530 Z " /><path fill="rgb(232,154,60)" stroke="rgb(232,154,60)" stroke-width="1" opacity="0.996078431372549" d="M 743.5 530 L 745 531.5 L 746 538.5 L 745 538.5 L 743.5 530 Z " /><path fill="rgb(232,154,60)" stroke="rgb(232,154,60)" stroke-width="1" opacity="0.996078431372549" d="M 746.5 540 L 748 541.5 L 750 554.5 L 749 554.5 L 746.5 540 Z " /><path fill="rgb(232,154,60)" stroke="rgb(232,154,60)" stroke-width="1" opacity="0.996078431372549" d="M 329.5 541 L 330 543.5 L 327.5 549 L 327 546.5 L 329.5 541 Z " /><path fill="rgb(232,154,60)" stroke="rgb(232,154,60)" stroke-width="1" opacity="0.996078431372549" d="M 326.5 550 L 327 552.5 L 326 552.5 L 326.5 550 Z " /><path fill="rgb(232,154,60)" stroke="rgb(232,154,60)" stroke-width="1" opacity="0.996078431372549" d="M 325.5 554 L 326 557.5 L 323.5 565 L 323 560.5 L 325.5 554 Z " /><path fill="rgb(232,154,60)" stroke="rgb(232,154,60)" stroke-width="1" opacity="0.996078431372549" d="M 750.5 556 L 753 562.5 L 753 566.5 L 752 566.5 L 750.5 556 Z " /><path fill="rgb(232,154,60)" stroke="rgb(232,154,60)" stroke-width="1" opacity="0.996078431372549" d="M 322.5 566 L 323 570.5 L 322 570.5 L 322.5 566 Z " /><path fill="rgb(232,154,60)" stroke="rgb(232,154,60)" stroke-width="1" opacity="0.996078431372549" d="M 753.5 568 L 754 571.5 L 753 571.5 L 753.5 568 Z " /><path fill="rgb(232,154,60)" stroke="rgb(232,154,60)" stroke-width="1" opacity="0.996078431372549" d="M 552.5 571 Q 573.9 590.6 601 604.5 L 598.5 605 L 595 604 Q 596.1 601.3 593.5 602 L 588 600 L 586.5 597 Q 580.5 596.4 578.5 592 L 576 592 L 574.5 589 L 562 581 L 562 579 Q 559 580 560 577 L 557 577 L 557 575.5 L 554.5 574 L 553 574.5 L 552.5 571 Z " /><path fill="rgb(232,154,60)" stroke="rgb(232,154,60)" stroke-width="1" opacity="0.996078431372549" d="M 321.5 573 L 322 577.5 L 321 578.5 L 319.5 594 L 319 584.5 L 320 583.5 L 320 574.5 L 321.5 573 Z " /><path fill="rgb(232,154,60)" stroke="rgb(232,154,60)" stroke-width="1" opacity="0.996078431372549" d="M 754 574 Q 758 572.6 756 579.5 L 757 583.5 L 756 583.5 L 754 574 Z " /><path fill="rgb(232,154,60)" stroke="rgb(232,154,60)" stroke-width="1" opacity="0.996078431372549" d="M 554.5 576 L 556 577.5 L 558 587.5 L 557 587.5 L 554.5 576 Z " /><path fill="rgb(232,154,60)" stroke="rgb(232,154,60)" stroke-width="1" opacity="0.996078431372549" d="M 509.5 581 L 512 582 L 511.5 587 L 510.5 583 L 508.5 587 L 508 585.5 L 509.5 581 Z " /><path fill="rgb(232,154,60)" stroke="rgb(232,154,60)" stroke-width="1" opacity="0.996078431372549" d="M 757.5 586 L 758 588.5 L 757 588.5 L 757.5 586 Z " /><path fill="rgb(232,154,60)" stroke="rgb(232,154,60)" stroke-width="1" opacity="0.996078431372549" d="M 507.5 588 L 508 589.5 L 503 598.5 L 503 601 Q 500.3 599.9 501 602.5 L 495 613 Q 492.3 611.9 493 614.5 L 490 616.5 Q 500.8 604.3 507.5 588 Z " /><path fill="rgb(232,154,60)" stroke="rgb(232,154,60)" stroke-width="1" opacity="0.996078431372549" d="M 558.5 590 L 560 591.5 L 561 599.5 L 560 599.5 L 558.5 590 Z " /><path fill="rgb(232,154,60)" stroke="rgb(232,154,60)" stroke-width="1" opacity="0.996078431372549" d="M 758.5 591 L 760 592.5 L 761 600.5 L 760 600.5 L 758.5 591 Z " /><path fill="rgb(232,154,60)" stroke="rgb(232,154,60)" stroke-width="1" opacity="0.996078431372549" d="M 513.5 592 Q 515.8 592.8 515 596.5 L 514 596.5 L 513.5 592 Z " /><path fill="rgb(232,154,60)" stroke="rgb(232,154,60)" stroke-width="1" opacity="0.996078431372549" d="M 318.5 601 L 319 622.5 L 318 622.5 L 318.5 601 Z " /><path fill="rgb(232,154,60)" stroke="rgb(232,154,60)" stroke-width="1" opacity="0.996078431372549" d="M 516.5 602 Q 518.8 602.8 518 606.5 L 517 606.5 L 516.5 602 Z " /><path fill="rgb(232,154,60)" stroke="rgb(232,154,60)" stroke-width="1" opacity="0.996078431372549" d="M 561.5 602 L 570 629.5 L 571 639.5 L 573 642.5 L 573 649.5 L 575 659.5 L 574 659.5 L 571 647.5 L 571 642.5 L 562 610.5 L 561.5 602 Z " /><path fill="rgb(232,154,60)" stroke="rgb(232,154,60)" stroke-width="1" opacity="0.996078431372549" d="M 761.5 602 L 765 614.5 L 765 620.5 L 762.5 622 L 764 619.5 L 764 614.5 L 762 610.5 L 761.5 602 Z " /><path fill="rgb(232,154,60)" stroke="rgb(232,154,60)" stroke-width="1" opacity="0.996078431372549" d="M 602.5 605 L 623 612.5 L 620.5 613 L 605.5 608 L 602.5 605 Z " /><path fill="rgb(232,154,60)" stroke="rgb(232,154,60)" stroke-width="1" opacity="0.996078431372549" d="M 625.5 613 L 639 616.5 L 635.5 617 L 626.5 615 L 625.5 613 Z " /><path fill="rgb(232,154,60)" stroke="rgb(232,154,60)" stroke-width="1" opacity="0.996078431372549" d="M 641.5 617 L 656 619.5 L 649.5 620 Q 648 617.5 642.5 619 L 641.5 617 Z " /><path fill="rgb(232,154,60)" stroke="rgb(232,154,60)" stroke-width="1" opacity="0.996078431372549" d="M 488.5 618 L 488 619.5 L 476.5 632 L 475 631.5 L 488.5 618 Z " /><path fill="rgb(232,154,60)" stroke="rgb(232,154,60)" stroke-width="1" opacity="0.996078431372549" d="M 657.5 620 L 665 620.5 L 657.5 621 L 657.5 620 Z " /><path fill="rgb(232,154,60)" stroke="rgb(232,154,60)" stroke-width="1" opacity="0.996078431372549" d="M 670.5 621 L 681.5 621 L 682.5 622 L 749 622.5 L 747.5 624 L 704.5 624 L 703.5 623 L 672.5 623 L 670.5 621 Z " /><path fill="rgb(232,154,60)" stroke="rgb(232,154,60)" stroke-width="1" opacity="0.996078431372549" d="M 523.5 628 Q 526.5 627.5 525 634.5 L 525.5 636 Q 522.5 636.5 524 629.5 L 523.5 628 Z " /><path fill="rgb(232,154,60)" stroke="rgb(232,154,60)" stroke-width="1" opacity="0.996078431372549" d="M 472.5 633 L 474 633.5 L 470 636 Q 471.1 638.7 468.5 638 L 465 640.5 Q 465.8 642.8 463.5 642 L 461 643 L 459.5 646 L 456 647 Q 457.1 649.7 454.5 649 L 450 651 Q 451.3 654 447.5 653 L 444.5 655 L 445.5 653 L 451.5 650 L 472.5 633 Z " /><path fill="rgb(232,154,60)" stroke="rgb(232,154,60)" stroke-width="1" opacity="0.996078431372549" d="M 316 641 L 318 641.5 L 318 653.5 L 317 656.5 L 318 658.5 L 317 659.5 L 317 680.5 L 316 681.5 L 315.5 690 L 315 678.5 L 316 677.5 L 316 641 Z " /><path fill="rgb(232,154,60)" stroke="rgb(232,154,60)" stroke-width="1" opacity="0.996078431372549" d="M 526.5 641 L 528 642.5 Q 526.8 647.2 529 648.5 L 527 649 L 526.5 641 Z " /><path fill="rgb(232,154,60)" stroke="rgb(232,154,60)" stroke-width="1" opacity="0.996078431372549" d="M 529.5 654 L 531 655.5 Q 529.8 660.3 532 661.5 L 530 662 L 529.5 654 Z " /><path fill="rgb(232,154,60)" stroke="rgb(232,154,60)" stroke-width="1" opacity="0.996078431372549" d="M 442.5 655 L 443 657 L 436.5 659 L 436.5 658 L 442.5 655 Z " /><path fill="rgb(232,154,60)" stroke="rgb(232,154,60)" stroke-width="1" opacity="0.996078431372549" d="M 434.5 659 L 435 661 L 431.5 662 L 432.5 660 L 434.5 659 Z " /><path fill="rgb(232,154,60)" stroke="rgb(232,154,60)" stroke-width="1" opacity="0.996078431372549" d="M 575 661 Q 578.7 659.6 577 665.5 L 578 666.5 L 579 682.5 L 581 684.5 L 583 716.5 L 582 716.5 L 580 690.5 L 575 661 Z " /><path fill="rgb(232,154,60)" stroke="rgb(232,154,60)" stroke-width="1" opacity="0.996078431372549" d="M 428.5 662 Q 431.1 661.3 430 664 L 412.5 670 L 412.5 669 L 428.5 662 Z " /><path fill="rgb(232,154,60)" stroke="rgb(232,154,60)" stroke-width="1" opacity="0.996078431372549" d="M 408.5 670 L 411 670.5 L 409.5 672 L 403.5 673 L 404.5 671 L 408.5 670 Z " /><path fill="rgb(232,154,60)" stroke="rgb(232,154,60)" stroke-width="1" opacity="0.996078431372549" d="M 399.5 673 L 402 673.5 L 399.5 674 L 399.5 673 Z " /><path fill="rgb(232,154,60)" stroke="rgb(232,154,60)" stroke-width="1" opacity="0.996078431372549" d="M 395.5 674 Q 398.1 673.3 397 676 L 390.5 677 L 390.5 676 L 395.5 674 Z " /><path fill="rgb(232,154,60)" stroke="rgb(232,154,60)" stroke-width="1" opacity="0.996078431372549" d="M 386.5 677 L 389 677.5 L 386.5 678 L 386.5 677 Z " /><path fill="rgb(232,154,60)" stroke="rgb(232,154,60)" stroke-width="1" opacity="0.996078431372549" d="M 382.5 678 L 385 678.5 L 378.5 681 L 378.5 680 L 382.5 678 Z " /><path fill="rgb(232,154,60)" stroke="rgb(232,154,60)" stroke-width="1" opacity="0.996078431372549" d="M 533.5 678 L 535 679.5 L 535 688.5 L 534 688.5 Q 534.8 680.3 533.5 678 Z " /><path fill="rgb(232,154,60)" stroke="rgb(232,154,60)" stroke-width="1" opacity="0.996078431372549" d="M 374.5 681 L 377 681.5 Q 372.3 684.8 364.5 685 L 364.5 684 L 374.5 681 Z " /><path fill="rgb(232,154,60)" stroke="rgb(232,154,60)" stroke-width="1" opacity="0.996078431372549" d="M 359.5 685 L 362 685.5 L 360.5 687 L 352.5 688 L 352.5 687 L 359.5 685 Z " /><path fill="rgb(232,154,60)" stroke="rgb(232,154,60)" stroke-width="1" opacity="0.996078431372549" d="M 348.5 688 L 351 688.5 L 348.5 689 L 348.5 688 Z " /><path fill="rgb(232,154,60)" stroke="rgb(232,154,60)" stroke-width="1" opacity="0.996078431372549" d="M 344.5 689 L 347 689.5 L 345.5 691 L 339.5 692 L 340.5 690 L 344.5 689 Z " /><path fill="rgb(232,154,60)" stroke="rgb(232,154,60)" stroke-width="1" opacity="0.996078431372549" d="M 331.5 693 Q 335.3 692 334 695 L 326.5 696 L 326.5 695 L 331.5 693 Z " /><path fill="rgb(232,154,60)" stroke="rgb(232,154,60)" stroke-width="1" opacity="0.996078431372549" d="M 315.5 694 L 317.5 698 L 323 697 Q 324.3 700 320.5 699 L 318.5 700 L 315 699 L 315.5 694 Z " /><path fill="rgb(232,154,60)" stroke="rgb(232,154,60)" stroke-width="1" opacity="0.996078431372549" d="M 536.5 701 L 538 702.5 L 538 719.5 L 539 720.5 L 537 721 L 537 702.5 L 536.5 701 Z " /><path fill="rgb(232,154,60)" stroke="rgb(232,154,60)" stroke-width="1" opacity="0.996078431372549" d="M 583.5 718 L 585 720.5 L 585 766.5 L 583.5 769 L 583.5 718 Z " /><path fill="rgb(232,154,60)" stroke="rgb(232,154,60)" stroke-width="1" opacity="0.996078431372549" d="M 842.5 718 L 844 718.5 L 840.5 720 L 840.5 719 L 842.5 718 Z " /><path fill="rgb(232,154,60)" stroke="rgb(232,154,60)" stroke-width="1" opacity="0.996078431372549" d="M 850.5 720 L 849.5 722 L 850.5 720 Z " /><path fill="rgb(232,154,60)" stroke="rgb(232,154,60)" stroke-width="1" opacity="0.996078431372549" d="M 835.5 721 L 836 723 L 831 722.5 L 835.5 721 Z " /><path fill="rgb(232,154,60)" stroke="rgb(232,154,60)" stroke-width="1" opacity="0.996078431372549" d="M 845.5 723 L 848 723.5 L 845.5 724 L 845.5 723 Z " /><path fill="rgb(232,154,60)" stroke="rgb(232,154,60)" stroke-width="1" opacity="0.996078431372549" d="M 742.5 724 L 741.5 726 L 722 725.5 L 741.5 725 L 742.5 724 Z " /><path fill="rgb(232,154,60)" stroke="rgb(232,154,60)" stroke-width="1" opacity="0.996078431372549" d="M 761.5 724 L 762.5 725 L 786 725.5 L 762.5 726 L 761.5 724 Z " /><path fill="rgb(232,154,60)" stroke="rgb(232,154,60)" stroke-width="1" opacity="0.996078431372549" d="M 825.5 724 L 824.5 726 L 817 725.5 L 825.5 724 Z " /><path fill="rgb(232,154,60)" stroke="rgb(232,154,60)" stroke-width="1" opacity="0.996078431372549" d="M 843.5 725 L 844 727 L 842 726.5 L 843.5 725 Z " /><path fill="rgb(232,154,60)" stroke="rgb(232,154,60)" stroke-width="1" opacity="0.996078431372549" d="M 713.5 727 L 712.5 729 L 706 728.5 L 713.5 727 Z " /><path fill="rgb(232,154,60)" stroke="rgb(232,154,60)" stroke-width="1" opacity="0.996078431372549" d="M 840.5 728 L 841 729.5 L 838.5 731 L 840.5 728 Z " /><path fill="rgb(232,154,60)" stroke="rgb(232,154,60)" stroke-width="1" opacity="0.996078431372549" d="M 694.5 731 L 695 733 L 690 732.5 L 694.5 731 Z " /><path fill="rgb(232,154,60)" stroke="rgb(232,154,60)" stroke-width="1" opacity="0.996078431372549" d="M 383.5 734 L 385 736.5 L 383 737 L 383.5 734 Z " /><path fill="rgb(232,154,60)" stroke="rgb(232,154,60)" stroke-width="1" opacity="0.996078431372549" d="M 388.5 734 L 393 735.5 L 389.5 736 L 388.5 734 Z " /><path fill="rgb(232,154,60)" stroke="rgb(232,154,60)" stroke-width="1" opacity="0.996078431372549" d="M 686.5 734 L 685.5 736 L 681.5 737 L 681 735 L 686.5 734 Z " /><path fill="rgb(232,154,60)" stroke="rgb(232,154,60)" stroke-width="1" opacity="0.996078431372549" d="M 833.5 735 L 834 737 L 832 736.5 L 833.5 735 Z " /><path fill="rgb(232,154,60)" stroke="rgb(232,154,60)" stroke-width="1" opacity="0.996078431372549" d="M 398.5 737 L 405 738.5 L 399.5 739 L 398.5 737 Z " /><path fill="rgb(232,154,60)" stroke="rgb(232,154,60)" stroke-width="1" opacity="0.996078431372549" d="M 678.5 737 L 679 739 L 674.5 740 L 674 738 L 678.5 737 Z " /><path fill="rgb(232,154,60)" stroke="rgb(232,154,60)" stroke-width="1" opacity="0.996078431372549" d="M 830.5 738 L 831 739.5 L 827 742.5 Q 827.8 744.8 825.5 744 L 830.5 738 Z " /><path fill="rgb(232,154,60)" stroke="rgb(232,154,60)" stroke-width="1" opacity="0.996078431372549" d="M 385.5 739 Q 387.8 738.3 387 740.5 L 385.5 739 Z " /><path fill="rgb(232,154,60)" stroke="rgb(232,154,60)" stroke-width="1" opacity="0.996078431372549" d="M 668 741 L 670 741.5 L 668 742.5 L 668 741 Z " /><path fill="rgb(232,154,60)" stroke="rgb(232,154,60)" stroke-width="1" opacity="0.996078431372549" d="M 426.5 744 L 432 745.5 L 426 746 L 426.5 744 Z " /><path fill="rgb(232,154,60)" stroke="rgb(232,154,60)" stroke-width="1" opacity="0.996078431372549" d="M 663.5 744 L 662.5 746 L 660 745.5 L 663.5 744 Z " /><path fill="rgb(232,154,60)" stroke="rgb(232,154,60)" stroke-width="1" opacity="0.996078431372549" d="M 823.5 745 L 824 747 L 822 746.5 L 823.5 745 Z " /><path fill="rgb(232,154,60)" stroke="rgb(232,154,60)" stroke-width="1" opacity="0.996078431372549" d="M 391.5 746 Q 394.5 746.5 394 750.5 L 393 750.5 L 391.5 746 Z " /><path fill="rgb(232,154,60)" stroke="rgb(232,154,60)" stroke-width="1" opacity="0.996078431372549" d="M 437.5 747 L 442 748.5 L 438.5 749 L 437.5 747 Z " /><path fill="rgb(232,154,60)" stroke="rgb(232,154,60)" stroke-width="1" opacity="0.996078431372549" d="M 657.5 747 L 655.5 750 L 655 748 L 657.5 747 Z " /><path fill="rgb(232,154,60)" stroke="rgb(232,154,60)" stroke-width="1" opacity="0.996078431372549" d="M 820.5 748 L 821 750 L 819 749.5 L 820.5 748 Z " /><path fill="rgb(232,154,60)" stroke="rgb(232,154,60)" stroke-width="1" opacity="0.996078431372549" d="M 446.5 750 L 450 751 L 449.5 753 L 446.5 750 Z " /><path fill="rgb(232,154,60)" stroke="rgb(232,154,60)" stroke-width="1" opacity="0.996078431372549" d="M 395.5 753 L 396.5 755 L 395.5 753 Z " /><path fill="rgb(232,154,60)" stroke="rgb(232,154,60)" stroke-width="1" opacity="0.996078431372549" d="M 648.5 753 L 646.5 756 L 644 755.5 L 648.5 753 Z " /><path fill="rgb(232,154,60)" stroke="rgb(232,154,60)" stroke-width="1" opacity="0.996078431372549" d="M 817.5 753 L 816.5 755 L 817.5 753 Z " /><path fill="rgb(232,154,60)" stroke="rgb(232,154,60)" stroke-width="1" opacity="0.996078431372549" d="M 456.5 754 L 460 755 L 459.5 757 L 456 756 L 456.5 754 Z " /><path fill="rgb(232,154,60)" stroke="rgb(232,154,60)" stroke-width="1" opacity="0.996078431372549" d="M 814.5 756 L 813.5 758 L 814.5 756 Z " /><path fill="rgb(232,154,60)" stroke="rgb(232,154,60)" stroke-width="1" opacity="0.996078431372549" d="M 398.5 757 L 400 760.5 L 399 760.5 L 398.5 757 Z " /><path fill="rgb(232,154,60)" stroke="rgb(232,154,60)" stroke-width="1" opacity="0.996078431372549" d="M 462.5 757 L 465 758.5 L 462 759 L 462.5 757 Z " /><path fill="rgb(232,154,60)" stroke="rgb(232,154,60)" stroke-width="1" opacity="0.996078431372549" d="M 642.5 757 L 643 759 L 640 758.5 L 642.5 757 Z " /><path fill="rgb(232,154,60)" stroke="rgb(232,154,60)" stroke-width="1" opacity="0.996078431372549" d="M 811.5 759 L 810.5 761 L 811.5 759 Z " /><path fill="rgb(232,154,60)" stroke="rgb(232,154,60)" stroke-width="1" opacity="0.996078431372549" d="M 638.5 760 L 637.5 762 L 638.5 760 Z " /><path fill="rgb(232,154,60)" stroke="rgb(232,154,60)" stroke-width="1" opacity="0.996078431372549" d="M 468.5 761 Q 470.8 760.3 470 762.5 L 468.5 761 Z " /><path fill="rgb(232,154,60)" stroke="rgb(232,154,60)" stroke-width="1" opacity="0.996078431372549" d="M 401.5 762 L 404 765.5 L 402 766 L 401.5 762 Z " /><path fill="rgb(232,154,60)" stroke="rgb(232,154,60)" stroke-width="1" opacity="0.996078431372549" d="M 472.5 763 L 473.5 765 L 472.5 763 Z " /><path fill="rgb(232,154,60)" stroke="rgb(232,154,60)" stroke-width="1" opacity="0.996078431372549" d="M 808.5 763 L 808 764.5 Q 808.8 766.8 806.5 766 L 804 770 L 801 771.5 L 800.5 774 L 800 771.5 L 808.5 763 Z " /><path fill="rgb(232,154,60)" stroke="rgb(232,154,60)" stroke-width="1" opacity="0.996078431372549" d="M 632 764 L 634 764.5 L 628 769.5 L 629.5 767 L 632 765.5 L 632 764 Z " /><path fill="rgb(232,154,60)" stroke="rgb(232,154,60)" stroke-width="1" opacity="0.996078431372549" d="M 476.5 766 L 480 768 L 479.5 770 L 476.5 766 Z " /><path fill="rgb(232,154,60)" stroke="rgb(232,154,60)" stroke-width="1" opacity="0.996078431372549" d="M 405.5 769 Q 408.1 768.2 407 771.5 L 407.5 773 Q 404.9 773.8 406 770.5 L 405.5 769 Z " /><path fill="rgb(232,154,60)" stroke="rgb(232,154,60)" stroke-width="1" opacity="0.996078431372549" d="M 482.5 770 L 483.5 772 Q 480.7 772.7 482.5 770 Z " /><path fill="rgb(232,154,60)" stroke="rgb(232,154,60)" stroke-width="1" opacity="0.996078431372549" d="M 537.5 770 L 538 792 L 536 791.5 L 537 790.5 L 537.5 770 Z " /><path fill="rgb(232,154,60)" stroke="rgb(232,154,60)" stroke-width="1" opacity="0.996078431372549" d="M 582.5 770 L 583 785.5 L 582 786.5 L 581 806.5 L 579.5 808 L 579 800.5 L 582 783.5 L 582.5 770 Z " /><path fill="rgb(232,154,60)" stroke="rgb(232,154,60)" stroke-width="1" opacity="0.996078431372549" d="M 624.5 771 L 627 771.5 L 624.5 772 L 624.5 771 Z " /><path fill="rgb(232,154,60)" stroke="rgb(232,154,60)" stroke-width="1" opacity="0.996078431372549" d="M 485.5 773 L 486.5 775 L 485.5 773 Z " /><path fill="rgb(232,154,60)" stroke="rgb(232,154,60)" stroke-width="1" opacity="0.996078431372549" d="M 622.5 773 L 621.5 775 L 622.5 773 Z " /><path fill="rgb(232,154,60)" stroke="rgb(232,154,60)" stroke-width="1" opacity="0.996078431372549" d="M 408.5 775 Q 410.8 774.3 410 776.5 L 408.5 775 Z " /><path fill="rgb(232,154,60)" stroke="rgb(232,154,60)" stroke-width="1" opacity="0.996078431372549" d="M 798.5 775 L 797.5 777 L 798.5 775 Z " /><path fill="rgb(232,154,60)" stroke="rgb(232,154,60)" stroke-width="1" opacity="0.996078431372549" d="M 619.5 776 L 617.5 779 L 619.5 776 Z " /><path fill="rgb(232,154,60)" stroke="rgb(232,154,60)" stroke-width="1" opacity="0.996078431372549" d="M 489.5 777 L 490.5 779 L 489.5 777 Z " /><path fill="rgb(232,154,60)" stroke="rgb(232,154,60)" stroke-width="1" opacity="0.996078431372549" d="M 411.5 779 L 412.5 781 L 411.5 779 Z " /><path fill="rgb(232,154,60)" stroke="rgb(232,154,60)" stroke-width="1" opacity="0.996078431372549" d="M 794.5 779 L 793.5 781 L 794.5 779 Z " /><path fill="rgb(232,154,60)" stroke="rgb(232,154,60)" stroke-width="1" opacity="0.996078431372549" d="M 492.5 780 L 493.5 782 Q 490.7 782.7 492.5 780 Z " /><path fill="rgb(232,154,60)" stroke="rgb(232,154,60)" stroke-width="1" opacity="0.996078431372549" d="M 615.5 780 L 614.5 782 L 615.5 780 Z " /><path fill="rgb(232,154,60)" stroke="rgb(232,154,60)" stroke-width="1" opacity="0.996078431372549" d="M 495.5 783 L 496.5 785 Q 493.7 785.7 495.5 783 Z " /><path fill="rgb(232,154,60)" stroke="rgb(232,154,60)" stroke-width="1" opacity="0.996078431372549" d="M 612.5 783 L 613 785.5 L 612 785.5 L 612.5 783 Z " /><path fill="rgb(232,154,60)" stroke="rgb(232,154,60)" stroke-width="1" opacity="0.996078431372549" d="M 791.5 783 L 791 784.5 Q 791.8 786.8 789.5 786 L 788 789 L 784.5 791 L 791.5 783 Z " /><path fill="rgb(232,154,60)" stroke="rgb(232,154,60)" stroke-width="1" opacity="0.996078431372549" d="M 415.5 784 L 416.5 786 Q 413.7 786.7 415.5 784 Z " /><path fill="rgb(232,154,60)" stroke="rgb(232,154,60)" stroke-width="1" opacity="0.996078431372549" d="M 498.5 786 L 501.5 791 Q 504.1 790.2 503 793.5 L 503.5 795 L 498 788.5 L 498.5 786 Z " /><path fill="rgb(232,154,60)" stroke="rgb(232,154,60)" stroke-width="1" opacity="0.996078431372549" d="M 418.5 787 L 420 790.5 L 419 790.5 L 418.5 787 Z " /><path fill="rgb(232,154,60)" stroke="rgb(232,154,60)" stroke-width="1" opacity="0.996078431372549" d="M 609 787 L 611 787.5 L 604 793.5 L 606.5 790 L 609 788.5 L 609 787 Z " /><path fill="rgb(232,154,60)" stroke="rgb(232,154,60)" stroke-width="1" opacity="0.996078431372549" d="M 421.5 792 L 422.5 794 L 421.5 792 Z " /><path fill="rgb(232,154,60)" stroke="rgb(232,154,60)" stroke-width="1" opacity="0.996078431372549" d="M 782.5 792 L 781 794.5 Q 781.8 796.8 779.5 796 L 778 799 L 774.5 801 L 782.5 792 Z " /><path fill="rgb(232,154,60)" stroke="rgb(232,154,60)" stroke-width="1" opacity="0.996078431372549" d="M 424.5 795 L 436.5 808 L 439 809.5 L 437.5 809 Q 434.2 810.1 435 807.5 L 432 806 L 430.5 803 Q 428.3 803.8 429 801.5 L 425 799 L 424.5 795 Z " /><path fill="rgb(232,154,60)" stroke="rgb(232,154,60)" stroke-width="1" opacity="0.996078431372549" d="M 602.5 796 L 601.5 798 L 602.5 796 Z " /><path fill="rgb(232,154,60)" stroke="rgb(232,154,60)" stroke-width="1" opacity="0.996078431372549" d="M 504.5 797 Q 506.8 796.3 506 798.5 L 504.5 797 Z " /><path fill="rgb(232,154,60)" stroke="rgb(232,154,60)" stroke-width="1" opacity="0.996078431372549" d="M 599.5 799 L 598.5 801 L 599.5 799 Z " /><path fill="rgb(232,154,60)" stroke="rgb(232,154,60)" stroke-width="1" opacity="0.996078431372549" d="M 508.5 802 L 510 804.5 L 508 805 L 508.5 802 Z " /><path fill="rgb(232,154,60)" stroke="rgb(232,154,60)" stroke-width="1" opacity="0.996078431372549" d="M 772.5 802 L 768 807.5 Q 768.8 809.8 766.5 809 L 765 812 L 761.5 814 L 772.5 802 Z " /><path fill="rgb(232,154,60)" stroke="rgb(232,154,60)" stroke-width="1" opacity="0.996078431372549" d="M 534.5 803 L 535 812.5 L 533 813.5 L 534 812.5 L 534.5 803 Z " /><path fill="rgb(232,154,60)" stroke="rgb(232,154,60)" stroke-width="1" opacity="0.996078431372549" d="M 596.5 803 L 597 805 L 595 804.5 L 596.5 803 Z " /><path fill="rgb(232,154,60)" stroke="rgb(232,154,60)" stroke-width="1" opacity="0.996078431372549" d="M 578.5 809 L 579 816.5 Q 576.3 818.3 578 824.5 L 580.5 823 L 584 822 L 586 817 L 588 817.5 L 581.5 825 L 576.5 828 L 576 824.5 L 577 823.5 L 578.5 809 Z " /><path fill="rgb(232,154,60)" stroke="rgb(232,154,60)" stroke-width="1" opacity="0.996078431372549" d="M 592.5 809 L 591.5 811 L 592.5 809 Z " /><path fill="rgb(232,154,60)" stroke="rgb(232,154,60)" stroke-width="1" opacity="0.996078431372549" d="M 440.5 811 L 442.5 814 L 440.5 811 Z " /><path fill="rgb(232,154,60)" stroke="rgb(232,154,60)" stroke-width="1" opacity="0.996078431372549" d="M 589.5 813 L 590 815 L 588 814.5 L 589.5 813 Z " /><path fill="rgb(232,154,60)" stroke="rgb(232,154,60)" stroke-width="1" opacity="0.996078431372549" d="M 445.5 814 L 446.5 816 Q 443.7 816.7 445.5 814 Z " /><path fill="rgb(232,154,60)" stroke="rgb(232,154,60)" stroke-width="1" opacity="0.996078431372549" d="M 758.5 815 L 757.5 817 L 758.5 815 Z " /><path fill="rgb(232,154,60)" stroke="rgb(232,154,60)" stroke-width="1" opacity="0.996078431372549" d="M 515.5 816 L 517 819.5 L 515 818.5 L 515.5 816 Z " /><path fill="rgb(232,154,60)" stroke="rgb(232,154,60)" stroke-width="1" opacity="0.996078431372549" d="M 450.5 818 L 451.5 820 L 450.5 818 Z " /><path fill="rgb(232,154,60)" stroke="rgb(232,154,60)" stroke-width="1" opacity="0.996078431372549" d="M 755.5 818 L 754.5 820 L 755.5 818 Z " /><path fill="rgb(232,154,60)" stroke="rgb(232,154,60)" stroke-width="1" opacity="0.996078431372549" d="M 751.5 820 L 752 822 L 749.5 823 L 751.5 820 Z " /><path fill="rgb(232,154,60)" stroke="rgb(232,154,60)" stroke-width="1" opacity="0.996078431372549" d="M 454.5 821 L 458 822.5 L 456.5 822 Q 453.5 822.5 454.5 821 Z " /><path fill="rgb(232,154,60)" stroke="rgb(232,154,60)" stroke-width="1" opacity="0.996078431372549" d="M 518.5 822 L 519 825.5 L 524 832 L 527 833.5 L 528.5 836 Q 531.5 836.5 530 829.5 L 531 829.5 Q 532.5 836.5 528.5 838 L 518 825.5 L 518.5 822 Z " /><path fill="rgb(232,154,60)" stroke="rgb(232,154,60)" stroke-width="1" opacity="0.996078431372549" d="M 460.5 824 L 464 825.5 L 462.5 825 Q 459.5 825.5 460.5 824 Z " /><path fill="rgb(232,154,60)" stroke="rgb(232,154,60)" stroke-width="1" opacity="0.996078431372549" d="M 746.5 824 L 745.5 826 L 746.5 824 Z " /><path fill="rgb(232,154,60)" stroke="rgb(232,154,60)" stroke-width="1" opacity="0.996078431372549" d="M 741.5 827 L 742 829 L 738.5 830 L 739.5 828 L 741.5 827 Z " /><path fill="rgb(232,154,60)" stroke="rgb(232,154,60)" stroke-width="1" opacity="0.996078431372549" d="M 470.5 828 Q 474.3 827.3 475 829.5 L 473.5 829 Q 469.5 829.8 470.5 828 Z " /><path fill="rgb(232,154,60)" stroke="rgb(232,154,60)" stroke-width="1" opacity="0.996078431372549" d="M 480.5 831 L 486 831.5 L 480.5 832 L 480.5 831 Z " /><path fill="rgb(232,154,60)" stroke="rgb(232,154,60)" stroke-width="1" opacity="0.996078431372549" d="M 734 831 L 737 831.5 L 734.5 833 L 734 831 Z " /><path fill="rgb(232,154,60)" stroke="rgb(232,154,60)" stroke-width="1" opacity="0.996078431372549" d="M 731.5 833 L 732 835 L 728.5 836 L 728 834 L 731.5 833 Z " /><path fill="rgb(232,154,60)" stroke="rgb(232,154,60)" stroke-width="1" opacity="0.996078431372549" d="M 493.5 834 Q 503.3 832.3 505 838.5 L 519 854.5 L 523 861.5 L 522 861.5 L 516 853 L 513 851.5 L 512 848 Q 509.3 849.1 510 846.5 L 505 840 Q 502.3 841.1 503 838.5 L 499.5 835 L 493.5 835 L 493.5 834 Z " /><path fill="rgb(232,154,60)" stroke="rgb(232,154,60)" stroke-width="1" opacity="0.996078431372549" d="M 713.5 841 L 717 841.5 L 712.5 843 L 713.5 841 Z " /><path fill="rgb(232,154,60)" stroke="rgb(232,154,60)" stroke-width="1" opacity="0.996078431372549" d="M 708.5 843 L 709 845 L 703.5 846 L 704.5 844 L 708.5 843 Z " /><path fill="rgb(232,154,60)" stroke="rgb(232,154,60)" stroke-width="1" opacity="0.996078431372549" d="M 699.5 846 L 700 848 L 693.5 849 L 694.5 847 L 699.5 846 Z " /><path fill="rgb(232,154,60)" stroke="rgb(232,154,60)" stroke-width="1" opacity="0.996078431372549" d="M 598.5 850 L 600.5 851 L 620.5 851 L 622 852.5 L 620.5 852 L 598.5 852 L 595 853 Q 596.3 856 592.5 855 L 588 856 Q 589.1 858.7 586.5 858 L 580.5 860 L 580.5 859 L 598.5 850 Z " /><path fill="rgb(232,154,60)" stroke="rgb(232,154,60)" stroke-width="1" opacity="0.996078431372549" d="M 679.5 850 L 680 852 L 667.5 852 L 666.5 853 L 667.5 851 L 678.5 851 L 679.5 850 Z " /><path fill="rgb(232,154,60)" stroke="rgb(232,154,60)" stroke-width="1" opacity="0.996078431372549" d="M 576.5 860 Q 580.3 859 579 862 L 573 863 Q 574.2 866.7 569 865 L 569 868.5 Q 565 874.5 564 883.5 L 562 885.5 L 560 894.5 L 548 918.5 L 547 923.5 L 539 938 Q 536.3 936.9 537 939.5 L 530 953 Q 527.3 954.9 520.5 954 L 520.5 953 Q 525.9 953.6 528 952 L 552 908.5 L 568.5 864 L 576.5 860 Z " /><path fill="rgb(232,154,60)" stroke="rgb(232,154,60)" stroke-width="1" opacity="0.996078431372549" d="M 517 876 L 519 876.5 L 517.5 881 L 517 876 Z " /><path fill="rgb(232,154,60)" stroke="rgb(232,154,60)" stroke-width="1" opacity="0.996078431372549" d="M 514.5 885 L 515 890 L 513 889.5 L 514.5 885 Z " /><path fill="rgb(232,154,60)" stroke="rgb(232,154,60)" stroke-width="1" opacity="0.996078431372549" d="M 511 892 L 513 892.5 L 510.5 896 L 511 894.5 L 511 892 Z " /><path fill="rgb(232,154,60)" stroke="rgb(232,154,60)" stroke-width="1" opacity="0.996078431372549" d="M 507 902 L 509 902.5 L 506.5 906 L 507 904.5 L 507 902 Z " /><path fill="rgb(232,154,60)" stroke="rgb(232,154,60)" stroke-width="1" opacity="0.996078431372549" d="M 504.5 908 L 505 910.5 L 503 911.5 L 504.5 908 Z " /><path fill="rgb(232,154,60)" stroke="rgb(232,154,60)" stroke-width="1" opacity="0.996078431372549" d="M 501.5 914 L 502 916.5 L 497.5 922 L 498 920.5 Q 496.9 917.2 499.5 918 L 501.5 914 Z " /><path fill="rgb(232,154,60)" stroke="rgb(232,154,60)" stroke-width="1" opacity="0.996078431372549" d="M 494.5 927 L 493.5 929 L 494.5 927 Z " /><path fill="rgb(232,154,60)" stroke="rgb(232,154,60)" stroke-width="1" opacity="0.996078431372549" d="M 491.5 931 L 492 933.5 Q 488.2 934.8 489 939 L 487 938.5 L 488 935 L 491 933.5 L 491.5 931 Z " /><path fill="rgb(232,154,60)" stroke="rgb(232,154,60)" stroke-width="1" opacity="0.996078431372549" d="M 484.5 943 L 482 946.5 L 480.5 949 L 481 947.5 Q 479.9 944.2 482.5 945 L 484.5 943 Z " /><path fill="rgb(232,154,60)" stroke="rgb(232,154,60)" stroke-width="1" opacity="0.996078431372549" d="M 478.5 950 L 477.5 952 L 478.5 950 Z " /><path fill="rgb(0,0,0)" stroke="rgb(0,0,0)" stroke-width="1" opacity="0" d="M 428.5 83 L 437.5 90 L 441 91 Q 439.9 93.7 442.5 93 Q 443.6 95.7 447 95 L 448.5 98 L 450.5 98 L 459.5 105 L 463 106 Q 461.9 108.7 464.5 108 L 485 122 Q 483.9 124.7 486.5 124 L 490 126.5 Q 489.3 128.8 491.5 128 L 494 129 L 495.5 132 L 504 137 L 506.5 141 L 513 145.5 Q 512.3 147.8 514.5 147 L 518 149 Q 516.9 151.7 519.5 151 L 525 156.5 L 525 159 L 528 160.5 L 529 164 Q 531.7 162.9 531 165.5 L 533 170 Q 535.7 168.9 535 171.5 L 537 176 Q 540 174.8 539 178.5 Q 543.8 184.5 544 194 Q 547.7 192.7 546 198.5 L 551 220.5 L 551 230.5 L 552 231.5 L 552 261.5 L 549 280 L 552 278.5 L 556 270 Q 558.7 271.1 558 268.5 L 563 262.5 L 563 260 L 566 258.5 L 572.5 251 Q 574.8 251.8 574 249.5 L 578 246.5 L 579.5 244 L 583 243 Q 581.9 240.3 584.5 241 Q 588 236 594 235 Q 592.8 232 596.5 233 L 598 230 L 605 228 Q 603.9 225.3 606.5 226 L 612 224 Q 610.9 221.3 613.5 222 L 629.5 214 L 636 213 Q 634.7 209.7 639.5 211 L 645.5 209 L 650.5 209 L 652.5 207 L 670.5 206 L 671.5 205 L 697.5 205 L 703.5 203 L 746.5 203 L 747.5 202 L 762.5 202 L 766 203 L 765 228 L 763 228.5 L 763 235.5 L 762 236.5 L 761 248.5 L 759 250.5 L 757 269.5 L 755 271.5 L 753 292.5 L 751 294.5 L 750 305.5 L 746 314.5 L 745 322 Q 741.7 320.7 743 325.5 L 741 332 Q 738 330.8 739 334.5 L 734 344 Q 731 342.8 732 346.5 Q 727 350 726 356 L 723 357.5 L 718 366 Q 715.3 364.9 716 367.5 L 711 374 L 707 376.5 Q 707.8 378.8 705.5 378 L 703 382 L 700 383.5 Q 700.8 385.8 698.5 385 L 695 387.5 Q 695.8 389.8 693.5 389 L 689 391 Q 690.1 393.7 687.5 393 L 682 395 Q 683.3 398 679.5 397 L 673 399 Q 674.3 402 670.5 401 L 666 402 Q 667.1 404.7 664.5 404 L 652.5 409 L 645 410 Q 646.4 413.7 640.5 412 L 630 414 Q 628.3 418.1 632.5 417 L 637 418 Q 635.9 420.7 638.5 420 L 646 422 Q 644.8 425 648.5 424 L 654.5 428 L 667.5 433 L 670.5 436 L 675 437 Q 673.9 439.7 676.5 439 L 681 441 Q 679.8 444 683.5 443 L 687 445 Q 685.9 447.7 688.5 447 L 692 449.5 Q 691.2 452.1 694.5 451 L 706 460 L 708.5 464 Q 710.8 463.3 710 465.5 L 719 476.5 L 720 480 Q 723 478.8 722 482.5 L 727 490.5 L 727 493 Q 730 491.8 729 495.5 L 733 503.5 L 735 512.5 L 737 514.5 L 739 525.5 L 741 527.5 L 742 535.5 L 744 537.5 L 746 551.5 L 748 553.5 L 749 558.5 L 750 568.5 L 752 570.5 L 754 585.5 L 756 587.5 L 757 597.5 L 760 604.5 L 761 614.5 Q 763.8 615.6 763 619 L 760.5 620 L 745.5 620 L 744.5 621 L 703.5 621 L 702.5 620 L 659.5 619 L 657.5 617 L 637.5 615 L 635.5 613 L 622 611 Q 623.3 607.7 618.5 609 L 597.5 601 L 590.5 596 L 588 596 Q 589.1 593.3 586.5 594 L 566 580 Q 567.1 577.3 564.5 578 L 562 577 L 559.5 573 L 550 568 L 550 573.5 Q 553 572.5 552 577.5 L 554 585.5 L 556 587.5 L 558 601.5 L 560 604.5 L 561 616.5 L 565 626.5 L 566 637 Q 569.7 635.6 568 641.5 L 570 654 L 572 654.5 L 572 663.5 L 574 668.5 L 575 684.5 L 577 686.5 L 579 718.5 L 581 720.5 L 581 766.5 L 579 768.5 L 579 783.5 L 577 794.5 L 577 805.5 L 575 807.5 L 573 832 L 576 832 Q 574.9 829.3 577.5 830 L 585 825 L 586 820 L 589 818.5 L 589 816 Q 591.7 817.1 591 814.5 L 596.5 806 Q 598.8 806.8 598 804.5 L 599 801 L 604 799 L 606.5 793 Q 608.8 793.8 608 791.5 L 612 788.5 Q 611.3 785.9 614 787 L 614 784.5 L 617 783 L 619 778 L 624 776 L 625.5 773 Q 628.8 774.1 628 771.5 L 631 770 L 632.5 767 L 635 765.5 Q 634.2 762.9 637.5 764 L 640 763 L 641.5 760 Q 644.8 761.1 644 758.5 L 648 757 Q 646.9 754.3 649.5 755 L 654 752.5 Q 653.2 749.9 656.5 751 L 658 748 L 664 747 Q 662.8 744 666.5 745 L 670 744 Q 668.8 741 672.5 742 L 680 740 Q 678.8 737 682.5 738 L 687 737 Q 685.7 733.7 690.5 735 L 696 734 Q 694.6 730.3 700.5 732 L 707.5 730 L 714 730 L 714.5 728 L 722.5 728 L 723.5 727 L 743 727 L 743.5 725 L 760 725 L 760.5 727 L 784.5 727 L 785.5 728 L 817.5 728 L 818.5 727 L 827 727 Q 825.6 723.3 831.5 725 L 837 724 Q 835.7 720.7 840.5 722 L 844 721 Q 842.7 717.7 847.5 719 L 849.5 718 L 849.5 719 Q 847.3 718.3 848 720.5 L 844 722 Q 845.1 724.7 842.5 724 L 839.5 728 Q 836.9 727.3 838 730 L 835.5 730 L 834 734 L 831 735.5 L 829.5 738 Q 827.3 737.3 828 739.5 L 825 741 L 823.5 744 L 821 745.5 Q 821.8 747.8 819.5 747 L 817 753 L 812 755 L 810.5 758 Q 808.3 757.3 809 759.5 L 808 763 L 805 764.5 L 803.5 767 L 801 768.5 Q 801.7 771.1 799 770 L 799 772.5 L 796 774 L 793.5 778 Q 791.3 777.3 792 779.5 L 791 783 L 788 784.5 Q 788.8 786.8 786.5 786 L 785 789 L 781 791.5 Q 781.8 793.8 779.5 793 L 778 796 L 775 797.5 Q 775.8 799.8 773.5 799 L 770.5 803 L 768 804.5 Q 768.8 806.8 766.5 806 L 765 809 L 762 810.5 Q 762.8 812.8 760.5 812 L 756 814 L 754.5 817 Q 751.9 816.3 753 819 L 750.5 819 L 749 822 L 745 823.5 Q 745.8 826.1 742.5 825 L 737 827 L 735.5 830 L 733 830 Q 734.3 833 730.5 832 L 727 833 Q 728.3 836 724.5 835 L 719 837 Q 720.3 840 716.5 839 L 712 840 Q 713.4 843.7 707.5 842 L 703 843 Q 704.3 846.3 699.5 845 L 693 846 Q 694.1 849.5 686.5 848 L 677.5 850 L 666.5 850 L 664.5 852 L 622 852 L 621.5 850 L 601.5 850 Q 600.3 847.8 595.5 849 Q 592.3 853 586 853 Q 587.3 856 583.5 855 L 578.5 858 L 573 859 Q 574.3 862.3 569.5 861 L 565 864.5 L 564 869.5 L 561 874.5 L 560 882 Q 556.7 880.7 558 885.5 L 556 888.5 L 555 895 Q 551.7 893.7 553 898.5 L 543 922 Q 540.3 920.9 541 923.5 L 538 931 Q 535 929.8 536 933.5 L 534 937 Q 531.3 935.9 532 938.5 L 524.5 951 Q 519.5 950 518.5 953 L 480 953 L 481.5 950 Q 484.1 950.8 483 947.5 L 484 945 L 487 943.5 L 488.5 940 Q 491.1 940.8 490 937.5 L 491 935 Q 494 936.3 493 932.5 L 494 930 Q 496.7 931.1 496 928.5 L 498 922 Q 501 923.3 500 919.5 L 503 918 L 504 912 Q 507 913.3 506 909.5 L 510 903.5 L 511 896 Q 513.7 897.1 513 894.5 L 514 891 Q 517.7 892.4 516 886.5 L 517 882 Q 520.3 883.3 519 878.5 L 520 873 Q 523.3 874.3 522 869.5 Q 524.9 865.9 524 858.5 L 515.5 848 Q 512.9 848.8 514 845.5 L 513 843 L 510 841.5 L 508.5 839 Q 506.3 839.8 507 837.5 L 502.5 833 L 487 832 Q 488.4 828 481.5 830 L 476.5 829 L 474.5 827 L 464 825 Q 465.3 822 461.5 823 L 458 822 Q 459.3 819 455.5 820 L 452 819 L 450.5 816 Q 447.2 817.1 448 814.5 L 442 812 L 440 807 L 435 806 L 433.5 803 L 431 801.5 Q 431.8 799.3 429.5 800 L 427 794 L 424 792.5 Q 424.8 790.3 422.5 791 L 421 787 L 418 785.5 L 416.5 783 Q 413.9 783.8 415 780.5 L 411 774 Q 408 775.3 409 771.5 L 408 768 L 405 766.5 L 404 761 L 401 759.5 L 401 757 Q 398 758.3 399 754.5 L 396 753 L 395 747 Q 392.3 748.1 393 745.5 L 391 741 L 388 739.5 Q 388.7 736.9 386 738 L 386 735 Q 389 734 388 737 L 391.5 737 L 398 738 Q 396.6 742 403.5 740 Q 407.4 742.9 414 742 Q 412.6 745.7 418.5 744 L 425 745 Q 423.6 749 430.5 747 L 437 748 Q 435.7 751.3 440.5 750 L 445 751 Q 443.8 754 447.5 753 L 455 755 Q 453.8 758 457.5 757 L 461 758 Q 459.8 761 463.5 760 L 467 761 L 468.5 764 L 471 764 Q 469.9 766.7 472.5 766 L 477 768.5 L 478.5 771 L 481 771 Q 479.9 773.7 482.5 773 L 484 776 L 488 778.5 Q 487.3 780.8 489.5 780 L 491 783 L 494 784.5 Q 493.3 786.8 495.5 786 L 497 790 L 500 791.5 L 501 796 Q 504 794.8 503 798.5 L 506 800 L 507 806 L 510 807.5 L 511 813 Q 514.3 811.7 513 816.5 L 514 820 Q 517 818.8 516 822.5 L 517 827 Q 520.3 825.7 519 830.5 L 520 833 Q 522.7 831.9 522 834.5 L 526 837 Q 525.3 841.7 529.5 843 L 530 837 Q 533.5 838.1 532 830.5 L 533 829.5 L 534 814 L 536 813.5 L 536 804.5 L 537 803.5 L 537 793 L 539 792.5 L 539 771.5 L 540 770.5 L 540 719.5 L 539 718.5 L 539 701 L 537 700.5 L 537 688.5 L 536 687.5 L 536 678 L 534 677.5 L 534 669.5 L 533 668.5 L 532 653 Q 528.3 654.4 530 648.5 L 529 647.5 L 529 640 Q 525.3 641.4 527 635.5 L 526 634.5 L 526 627 Q 522.3 628.4 524 622.5 L 522 612 Q 518 613.4 520 606.5 L 517 600.5 L 516 591 Q 512.3 592.4 514 586.5 L 513 581 Q 509.7 582.3 511 577.5 L 509.5 578 Q 506.5 577.1 508 581.5 L 506 589 Q 503 587.8 504 591.5 L 495 605.5 L 495 608 L 492 609.5 L 491 613 Q 488.3 611.9 489 614.5 L 483 622 L 479 624.5 Q 479.8 626.8 477.5 626 L 475 630 L 470 632 Q 471.1 634.7 468.5 634 L 465 636.5 Q 465.8 638.8 463.5 638 L 461 639 L 459.5 642 L 456 643 Q 457.1 645.7 454.5 645 Q 453.4 647.8 450 647 L 448.5 650 L 444 651 Q 445.1 653.7 442.5 653 L 437 655 Q 438.3 658 434.5 657 L 428.5 661 L 423 662 Q 424.3 665 420.5 664 L 408.5 669 L 401.5 670 L 399.5 672 L 388.5 674 L 386.5 676 L 383.5 676 L 374.5 680 L 366 681 Q 367.4 684.7 361.5 683 Q 356.9 685.8 350 685 Q 351.4 688.7 345.5 687 L 337 689 Q 338.3 692.3 333.5 691 L 324.5 693 L 321.5 696 L 318 696 L 318 678.5 L 319 677.5 L 319 642.5 L 320 641.5 L 320 602.5 L 322 598.5 L 322 585.5 L 323 584.5 L 324 568.5 L 326 566.5 L 328 551 Q 331.3 552.3 330 547.5 L 332 539 Q 335 540.3 334 536.5 L 336 531 Q 339 532.3 338 528.5 Q 340.8 527.4 340 524 Q 342.7 525.1 342 522.5 L 344 518 Q 346.7 519.1 346 516.5 L 351 509 Q 353.7 510.1 353 507.5 L 363 493 L 366 491.5 L 367.5 489 L 370 487.5 L 371.5 485 L 374 483.5 Q 373.3 481.3 375.5 482 L 378 478 L 392 470 L 390.5 467 L 384.5 467 L 381.5 469 L 373.5 469 L 372.5 470 L 349 470 L 349 472 L 344 472 L 343.5 470 L 328.5 470 L 327.5 469 L 314 468 Q 315.4 464.3 309.5 466 L 300 464 Q 301.3 461 297.5 462 L 290 460 L 288.5 457 L 278.5 453 L 265 445 Q 266.1 442.3 263.5 443 L 259 441 L 257.5 438 L 255 436.5 L 253.5 434 L 251 432.5 L 249.5 430 L 247 428.5 Q 247.8 426.3 245.5 427 L 241.5 422 Q 239.3 422.8 240 420.5 L 234.5 414 Q 231.9 414.8 233 411.5 L 213 382.5 L 212 379 Q 209.3 380.1 210 377.5 L 204 366 Q 201.3 367.1 202 364.5 L 190 345.5 L 189 341 Q 186 342.3 187 338.5 Q 181.6 334.1 180 327 L 184 326 Q 182.8 323 186.5 324 L 194 322 Q 192.7 318.7 197.5 320 L 205.5 316 L 222 311 Q 220.7 307.3 226.5 309 L 235.5 307 L 237.5 305 L 254.5 303 L 256.5 301 L 280.5 299 L 284.5 297 L 309.5 296 L 310.5 297 L 335 298 L 335.5 300 L 342.5 300 L 343.5 301 L 350 301 Q 348.6 304.7 354.5 303 L 363 305 Q 361.7 308.3 366.5 307 L 374 309 Q 372.8 312 376.5 311 L 386.5 316 L 391.5 317 L 394.5 320 L 400 321 L 401.5 324 L 403.5 324 L 409.5 329 L 412 329 L 413.5 332 Q 416.8 330.9 416 333.5 Q 417 336 421.5 335 L 421 333.5 L 414.5 323 Q 411.9 323.8 413 320.5 L 410 319 L 408 313 L 405 311.5 L 404 308 L 401 306.5 L 396 297 Q 393 298.3 394 294.5 Q 389.4 291.4 389 285 Q 386 286.3 387 282.5 L 385 276 Q 381.7 277.3 383 272.5 L 379 264.5 L 377 253.5 L 375 251.5 L 374 240.5 L 372 238.5 L 372 218.5 L 374 216.5 L 374 206.5 L 376 196.5 L 381 186.5 L 386 167.5 L 390 159.5 L 391 152 Q 394 153.3 393 149.5 L 395 143 Q 398 144.3 397 140.5 L 399 133 Q 401.7 134.1 401 131.5 L 403 125 Q 405.7 126.1 405 123.5 L 407 118 Q 409.7 119.1 409 116.5 L 420 99.5 L 426 84 L 428.5 83 Z M 435 92 L 436 95 Q 438 96 437 93 L 435 92 Z M 415 113 Q 414 116 417 115 Q 418 112 415 113 Z M 415 116 L 413 119 L 415 118 L 415 116 Z M 719 207 L 716 208 L 717 210 L 727 210 L 728 209 Q 725 206 719 207 Z M 377 235 L 377 243 L 379 243 L 379 236 L 377 235 Z M 242 319 L 239 322 L 243 323 L 244 321 Q 245 318 242 319 Z M 211 325 L 211 327 L 215 326 L 211 325 Z M 205 326 Q 204 330 209 328 Q 210 324 205 326 Z M 233 326 L 228 327 L 226 330 L 229 331 L 231 330 Q 233 331 232 328 L 234 328 Q 235 325 233 326 Z M 202 327 L 200 329 L 203 329 L 202 327 Z M 197 329 L 197 330 L 199 330 L 197 329 Z M 493 340 L 491 342 Q 484 341 482 344 Q 475 342 476 346 L 471 348 Q 465 346 466 350 L 461 352 Q 458 351 459 354 L 454 357 Q 451 356 452 359 L 450 359 L 450 361 L 445 363 L 440 370 Q 441 372 438 371 L 438 374 L 437 374 L 430 385 Q 431 387 428 386 L 427 390 Q 428 393 425 392 Q 426 398 423 401 Q 424 404 421 403 L 421 412 L 420 413 L 420 440 L 421 441 L 421 448 L 423 448 L 424 453 Q 423 456 426 455 Q 425 461 428 464 Q 427 466 430 465 L 432 472 L 444 486 Q 446 485 445 488 Q 446 491 450 490 L 453 494 Q 457 493 455 497 L 459 498 Q 462 497 461 500 L 469 504 L 472 504 L 475 507 L 483 509 Q 488 507 487 511 L 524 511 L 524 509 L 529 508 Q 532 509 531 506 Q 538 508 540 504 Q 543 505 542 502 Q 546 503 548 500 Q 550 501 549 498 L 553 498 L 560 492 Q 562 493 561 490 L 564 490 L 565 488 L 568 486 L 569 483 L 572 481 L 576 475 Q 575 472 578 473 L 578 470 L 580 470 L 581 465 L 584 463 Q 583 457 586 455 Q 585 451 588 452 L 588 446 L 589 445 Q 587 439 591 440 L 591 423 L 588 406 Q 590 399 586 400 L 584 394 Q 586 388 582 389 Q 583 386 580 385 Q 581 381 578 382 Q 578 376 573 373 L 569 370 Q 570 366 568 367 L 566 365 L 561 362 L 560 359 Q 557 360 558 358 L 553 354 Q 550 355 551 352 Q 547 353 546 350 Q 543 351 544 348 L 540 348 L 534 344 L 525 343 L 519 340 L 493 340 Z M 210 369 L 210 372 L 213 376 L 217 378 L 216 376 L 216 372 Q 213 373 214 371 L 210 369 Z M 740 540 L 738 542 L 740 542 L 740 540 Z M 518 546 L 516 549 L 519 549 L 518 546 Z M 740 546 Q 739 550 742 549 Q 743 545 740 546 Z M 741 551 Q 739 556 743 555 Q 745 550 741 551 Z M 744 556 L 742 558 Q 741 562 745 560 L 744 556 Z M 744 562 Q 743 566 746 565 Q 747 561 744 562 Z M 535 589 L 534 593 L 535 593 L 535 589 Z M 537 594 L 536 597 L 537 597 L 537 594 Z M 541 606 L 540 612 L 541 612 L 541 606 Z M 734 612 L 732 614 L 735 614 Q 736 611 734 612 Z M 542 613 Q 540 616 543 615 L 542 613 Z M 544 616 L 543 621 L 544 621 L 544 616 Z M 330 651 L 329 667 L 330 667 Q 329 664 332 665 Q 330 661 331 653 L 330 651 Z " /><path fill="rgb(232,154,60)" stroke="rgb(232,154,60)" stroke-width="1" opacity="1" d="M 0 0 L 1024 0 L 1024 1024 L 0 1024 L 0 0 Z M 426 81 L 424 83 Q 425 86 422 85 L 420 91 Q 421 95 418 94 Q 417 101 412 106 Q 413 109 410 108 L 405 117 Q 406 120 403 119 L 401 125 Q 402 128 399 127 L 385 163 Q 386 167 383 166 L 381 175 Q 383 180 379 179 Q 379 186 375 191 L 374 199 L 372 201 L 371 217 L 370 218 L 370 240 Q 373 241 371 248 L 375 259 Q 374 263 377 262 Q 376 268 379 271 Q 378 275 381 274 L 383 282 Q 382 284 385 283 Q 385 290 390 295 Q 389 297 392 296 L 394 301 Q 393 303 396 302 Q 395 305 398 307 Q 397 309 400 308 L 401 312 L 404 313 L 412 326 L 413 327 L 408 323 Q 404 324 405 321 L 401 319 Q 397 320 398 318 L 394 315 Q 389 316 390 313 L 383 311 L 381 309 L 372 307 L 370 305 L 361 303 Q 355 305 356 301 L 346 300 L 344 298 L 339 297 L 326 296 L 324 294 L 312 294 L 311 293 L 290 294 L 283 296 L 271 296 L 270 297 L 263 297 L 262 299 L 243 301 L 241 303 L 227 305 L 225 307 L 218 308 L 214 311 L 208 312 L 206 314 L 198 316 L 190 320 Q 185 319 186 322 L 178 324 L 177 327 L 179 334 L 182 335 L 183 340 L 191 352 Q 190 355 193 354 L 193 357 L 198 364 Q 197 366 200 365 L 202 371 Q 201 373 204 372 L 206 377 Q 205 379 208 378 Q 207 381 210 383 Q 209 385 212 384 L 212 387 L 217 393 Q 216 396 219 395 L 221 400 Q 220 402 223 401 L 225 406 Q 224 408 227 407 L 229 412 Q 228 414 231 413 L 236 422 L 239 423 L 240 426 Q 239 428 242 427 L 243 430 L 246 431 L 247 434 L 250 435 L 251 438 L 258 442 L 259 445 L 264 447 Q 266 446 265 449 L 270 451 Q 272 450 271 453 L 285 458 L 286 461 Q 292 461 296 465 L 303 466 L 305 468 L 319 470 L 321 472 Q 326 471 328 473 L 374 473 Q 375 471 381 472 L 383 470 Q 385 469 384 472 L 378 474 L 376 478 Q 373 477 374 480 L 372 481 L 370 484 L 368 485 L 365 489 Q 362 488 363 491 L 359 493 L 349 508 Q 350 510 347 509 L 332 533 L 330 541 L 328 543 L 326 554 L 324 556 L 323 561 L 322 573 L 320 575 L 319 601 L 318 602 L 318 641 L 316 641 L 315 699 L 319 700 L 321 699 Q 324 700 323 698 L 325 696 Q 329 697 331 695 Q 335 696 334 693 L 346 691 L 352 688 L 361 687 L 363 685 L 372 684 L 394 676 Q 398 677 397 674 L 410 672 L 412 670 L 421 668 L 428 664 Q 431 665 430 662 L 434 661 Q 436 662 435 659 L 442 657 Q 444 658 443 655 Q 446 656 448 653 Q 451 654 450 651 L 455 649 Q 457 650 456 647 L 460 646 L 461 643 L 464 642 Q 466 643 465 641 L 469 638 Q 471 639 470 636 L 474 634 Q 473 631 477 632 L 488 621 L 489 617 L 493 615 Q 492 612 495 613 L 501 603 Q 500 600 503 601 L 510 584 L 511 584 Q 510 588 513 587 L 514 594 Q 513 598 516 597 L 517 604 Q 516 608 519 607 L 520 614 Q 519 618 522 617 L 524 630 Q 523 637 526 636 L 527 643 Q 526 650 529 649 L 530 656 Q 529 663 532 662 L 533 679 L 534 680 L 534 689 L 536 689 L 536 702 L 537 703 L 537 721 L 539 721 L 539 770 L 537 770 L 537 791 L 536 792 L 536 803 L 534 803 L 534 813 L 532 821 L 532 829 L 530 829 L 530 836 L 529 836 L 527 834 L 524 832 L 519 826 Q 520 821 517 822 L 516 819 Q 517 815 514 816 L 513 812 Q 514 808 511 809 L 509 804 Q 510 801 507 802 L 506 799 Q 507 796 504 797 L 503 791 L 499 789 L 499 786 Q 496 787 497 785 L 494 783 L 493 780 Q 490 781 491 779 L 489 777 L 487 775 L 484 773 L 483 770 Q 479 771 480 768 L 474 766 L 473 763 Q 469 764 470 761 L 468 760 Q 464 761 465 758 L 463 757 Q 459 758 460 755 L 454 753 Q 449 754 450 751 L 447 750 Q 441 752 442 748 L 438 747 Q 431 749 432 745 L 421 743 Q 414 745 415 741 L 409 740 Q 404 741 405 738 L 399 737 Q 392 739 393 735 L 383 734 L 383 737 Q 386 736 385 740 L 389 743 Q 388 745 391 744 Q 390 747 393 749 Q 392 752 395 751 L 395 754 L 398 755 L 399 759 Q 398 762 401 761 L 402 764 Q 401 767 404 766 L 406 771 Q 405 774 408 773 L 410 777 Q 412 776 411 780 L 414 781 L 415 785 Q 414 787 417 786 L 419 790 L 421 793 L 424 794 L 425 797 Q 424 800 427 799 L 429 803 L 432 805 Q 431 807 434 806 L 435 809 L 440 810 L 443 814 Q 446 813 445 816 L 450 817 L 452 820 Q 455 819 454 822 L 458 823 Q 461 822 460 825 L 468 827 Q 471 826 470 829 L 475 830 Q 481 828 480 832 L 487 833 Q 494 832 493 835 Q 501 833 503 839 Q 502 841 505 840 L 510 847 Q 509 849 512 848 L 513 852 L 516 853 L 522 862 L 522 864 Q 524 869 520 868 L 519 873 Q 520 877 517 876 L 516 882 Q 517 886 514 885 L 513 890 Q 514 893 511 892 L 509 899 Q 510 903 507 902 L 506 906 Q 507 909 504 908 L 503 912 Q 504 915 501 914 L 501 917 L 498 918 L 496 927 L 493 929 Q 494 932 491 931 L 491 934 L 488 935 L 486 943 L 481 945 L 480 949 Q 481 951 479 950 L 477 954 L 485 954 L 486 955 L 487 954 L 505 954 L 507 954 L 512 955 L 513 954 L 528 954 L 530 953 L 537 940 Q 536 937 539 938 L 547 924 L 548 919 L 560 895 L 562 886 L 564 884 Q 565 874 569 869 L 569 865 Q 574 867 573 863 L 577 862 Q 580 863 579 860 L 587 858 Q 589 859 588 856 L 593 855 Q 596 856 595 853 L 599 852 L 621 852 L 622 853 L 667 853 L 668 852 L 680 852 L 680 850 L 694 849 L 695 848 Q 701 850 700 846 L 705 845 Q 710 847 709 843 L 714 842 Q 718 843 717 840 L 721 839 Q 724 840 723 837 L 730 835 Q 733 836 732 833 L 736 832 Q 738 833 737 830 L 740 829 Q 743 830 742 828 L 746 826 L 747 823 L 751 822 Q 753 823 752 820 L 756 819 Q 755 816 758 817 L 759 814 Q 762 815 764 812 Q 766 813 765 811 L 768 809 L 773 801 L 777 799 Q 779 800 778 798 L 781 796 L 783 791 L 787 789 Q 789 790 788 788 L 791 786 L 792 784 Q 791 780 794 781 L 795 779 L 799 776 Q 798 773 801 774 L 803 770 Q 805 771 804 769 L 808 766 L 809 764 Q 808 760 811 761 L 812 758 L 815 757 Q 814 754 817 755 L 820 750 Q 822 751 821 749 L 824 747 L 826 744 Q 828 745 827 743 L 830 741 L 831 739 L 834 737 L 835 732 L 840 731 L 841 729 L 844 727 L 846 724 L 848 724 Q 847 721 850 722 Q 852 721 851 717 L 842 719 Q 839 718 840 721 L 835 722 Q 830 721 831 724 L 825 725 L 818 725 L 817 727 L 787 727 L 786 725 L 763 725 L 762 724 L 743 724 L 742 725 L 723 725 L 722 727 L 714 727 L 713 728 Q 705 727 706 730 L 694 732 Q 689 731 690 734 L 686 735 Q 680 733 681 737 L 678 738 Q 673 737 674 740 L 671 741 Q 667 740 668 743 L 663 745 Q 659 744 660 747 L 657 748 Q 654 747 655 750 L 653 751 Q 650 750 651 753 Q 648 752 647 755 Q 643 754 644 757 L 642 758 L 639 760 L 637 763 L 634 764 Q 631 763 632 766 L 630 767 L 627 771 Q 623 770 624 773 L 621 775 Q 622 777 620 776 L 617 780 L 614 782 Q 615 784 612 783 L 611 787 Q 608 786 609 789 L 607 790 L 604 794 Q 605 797 603 796 L 601 799 L 598 801 Q 599 804 597 803 L 594 807 Q 595 810 593 809 L 591 813 L 588 815 Q 589 818 586 817 L 584 822 L 581 823 L 578 825 L 579 809 L 581 807 L 582 787 L 583 786 L 583 770 L 585 767 L 585 721 L 583 718 L 583 705 L 582 704 L 581 685 L 579 683 L 578 667 L 577 666 Q 579 660 575 661 Q 576 654 573 650 L 573 643 L 571 640 L 570 630 L 566 619 L 564 608 L 562 606 L 560 592 L 558 590 L 556 578 L 554 574 L 557 576 L 557 577 L 560 577 Q 559 580 562 579 L 562 581 L 575 589 L 576 592 L 579 592 Q 581 596 587 597 L 588 600 L 594 602 Q 596 601 595 604 L 602 605 L 606 608 L 621 613 L 625 613 L 627 615 L 641 617 L 643 619 L 657 620 L 658 621 L 670 621 L 673 623 L 704 623 L 705 624 L 748 624 L 750 622 L 764 622 L 765 621 L 763 605 L 761 602 L 760 593 L 758 591 L 756 580 Q 758 573 754 574 L 753 563 L 750 556 L 748 542 L 746 540 L 745 532 L 743 530 L 741 518 L 739 516 L 737 506 L 735 504 L 733 496 L 727 484 L 714 466 Q 715 463 713 464 L 710 460 L 703 454 Q 700 455 701 453 L 694 447 Q 691 448 692 446 L 685 440 L 683 440 L 681 437 Q 678 438 677 435 Q 673 436 674 433 L 662 427 Q 658 428 659 425 L 656 425 L 650 421 L 638 417 L 651 412 Q 655 413 654 410 L 664 408 L 675 402 L 678 402 L 694 393 Q 696 394 695 392 L 700 389 L 702 386 Q 704 387 703 385 L 707 382 L 710 378 Q 712 379 711 377 L 714 375 L 715 373 L 718 371 L 720 368 Q 719 365 722 366 L 724 363 Q 723 360 726 361 L 727 358 L 730 356 Q 729 353 732 352 Q 731 348 734 349 L 735 346 L 738 344 L 738 342 L 747 324 Q 745 318 749 319 L 751 308 L 754 302 L 755 288 L 757 286 L 758 273 L 759 272 L 759 265 L 761 264 L 762 251 L 763 246 L 765 244 Q 764 238 766 237 L 767 220 L 769 218 L 769 203 L 765 199 L 749 199 L 746 201 L 703 201 L 702 202 L 659 203 L 657 205 L 641 207 L 639 209 L 632 210 L 624 214 Q 620 213 621 216 L 615 218 Q 612 217 613 220 L 608 222 Q 604 221 605 224 L 591 232 L 589 235 L 587 235 L 580 240 L 578 243 L 576 244 Q 573 243 574 246 L 569 250 Q 570 252 568 251 L 563 258 L 559 260 L 557 266 L 554 268 L 555 263 L 555 231 L 554 230 L 554 220 L 552 218 L 550 199 L 548 197 L 546 186 L 543 181 Q 544 177 541 178 L 540 173 L 535 166 Q 536 163 533 164 L 529 157 L 522 151 L 520 147 Q 517 148 518 146 L 507 136 L 503 135 L 501 131 Q 498 132 499 129 L 494 127 Q 495 124 492 125 L 490 123 L 471 108 Q 467 109 468 107 L 465 105 L 463 102 Q 457 101 455 97 Q 451 98 452 95 L 449 94 L 437 85 Q 433 86 434 84 Q 433 80 426 81 Z M 715 449 L 714 452 Q 718 453 717 450 L 715 449 Z M 721 449 L 720 452 Q 724 453 723 450 L 721 449 Z " /><path fill="rgb(232,154,60)" stroke="rgb(232,154,60)" stroke-width="1" opacity="1" d="M 493.5 343 L 516.5 343 L 521.5 344 L 523.5 346 L 529.5 346 L 535 348 Q 533.6 351.7 539.5 350 L 557 360 L 559.5 364 Q 562.8 362.9 562 365.5 L 566 368 Q 566.5 372.7 570.5 375 Q 573.1 374.2 572 377.5 L 574 381 Q 577 379.8 576 383.5 L 580 388.5 L 582 397.5 L 586 405.5 Q 584.3 412.8 588 414.5 L 588 436.5 Q 584.6 439.1 586 446.5 L 582 453.5 L 582 457.5 L 580 463 Q 577 461.8 578 465.5 Q 575.3 466.6 576 470 Q 573 468.8 574 472.5 L 569.5 478 L 568 478 L 568 482 L 565.5 482 L 564 486 L 561 486 Q 562.1 488.7 559.5 488 L 556 490 L 554.5 493 L 550 494 L 548.5 497 L 545 498 Q 546.3 501 542.5 500 L 535 502 Q 536.3 505 532.5 504 L 526 505 Q 527.3 508.3 522.5 507 L 517.5 509 L 493.5 509 L 484 507 Q 485.4 503 478.5 505 L 473 503 Q 474.3 499.7 469.5 501 L 466 500 L 464.5 497 Q 460.1 498.5 461 495.5 L 454 491.5 L 452.5 489 L 446 484.5 L 444.5 482 Q 442.3 482.8 443 480.5 L 442 478 L 438 475.5 L 438 473 L 436 473 L 436 470 L 434 470 L 434 466 L 432.5 466 L 431 464.5 L 430 458 Q 427 459.3 428 455.5 L 426 447 Q 422.7 448.3 424 443.5 L 423 442.5 L 423 409.5 L 425 402 Q 429 403.4 427 396.5 L 432 386 Q 435 387.3 434 383.5 L 436 379 L 439 377.5 L 440.5 374 Q 443.1 374.8 442 371.5 L 446 369 L 448.5 365 Q 451.8 366.1 451 363.5 L 454 362 L 455.5 359 Q 459.7 360.1 458 356 L 461.5 356 L 470.5 350 L 493.5 343 Z " /></svg>